<!DOCTYPE svg PUBLIC "-//W3C//DTD SVG 20010904//EN" "http://www.w3.org/TR/2001/REC-SVG-20010904/DTD/svg10.dtd">
<svg version="1.0" xmlns="http://www.w3.org/2000/svg" width="306px" height="172px" viewBox="0 0 3060 1720" preserveAspectRatio="xMidYMid meet">
<g id="layer101" fill="#345517" stroke="none">
 <path d="M2872 1713 c25 -4 26 -5 21 -63 -3 -32 -3 -66 1 -76 12 -31 26 -1 33 69 4 49 10 67 22 70 9 3 -11 5 -44 4 -33 0 -48 -2 -33 -4z"/>
 <path d="M2095 1649 c-7 -18 18 -104 30 -104 6 0 11 18 13 41 2 30 -2 45 -17 58 -17 15 -22 16 -26 5z"/>
 <path d="M1424 1636 c-4 -10 -2 -22 4 -28 8 -8 13 -7 18 6 4 10 2 22 -4 28 -8 8 -13 7 -18 -6z"/>
 <path d="M59 1596 c-12 -26 -4 -66 10 -50 14 15 22 62 11 69 -5 3 -15 -5 -21 -19z"/>
 <path d="M598 1595 c-9 -9 7 -60 18 -57 13 3 11 55 -2 59 -5 2 -13 1 -16 -2z"/>
 <path d="M3054 1495 c0 -49 1 -71 3 -48 2 23 2 64 0 90 -2 26 -3 8 -3 -42z"/>
 <path d="M2088 1545 c-7 -7 7 -73 17 -83 4 -4 11 -8 16 -8 5 -1 12 -2 15 -3 4 0 1 -7 -6 -15 -16 -20 -36 -10 -61 31 -21 33 -23 34 -36 17 -7 -10 -13 -32 -13 -48 -1 -26 -2 -28 -11 -14 -6 11 -16 15 -27 11 -14 -5 -15 -3 -4 8 14 15 16 55 3 64 -11 6 -37 -35 -32 -50 2 -5 4 -23 5 -40 1 -16 9 -41 16 -55 8 -14 15 -34 15 -44 0 -39 24 -26 49 26 l25 52 3 -82 c4 -98 22 -114 26 -23 l3 65 20 -33 c24 -40 40 -33 29 15 -6 27 -5 43 7 60 8 13 13 30 10 39 -4 8 -2 17 4 20 14 9 -1 27 -17 21 -10 -4 -14 2 -14 18 0 23 -32 61 -42 51z"/>
 <path d="M2474 1526 c-4 -10 -2 -22 4 -28 8 -8 13 -7 18 6 4 10 2 22 -4 28 -8 8 -13 7 -18 -6z"/>
 <path d="M1655 1520 c-4 -6 -3 -16 3 -22 6 -6 12 -6 17 2 4 6 3 16 -3 22 -6 6 -12 6 -17 -2z"/>
 <path d="M82 1508 c-16 -16 -15 -41 3 -85 22 -52 39 -31 30 36 -7 55 -15 67 -33 49z"/>
 <path d="M1694 1506 c-4 -10 -2 -22 4 -28 8 -8 13 -7 18 6 4 10 2 22 -4 28 -8 8 -13 7 -18 -6z"/>
 <path d="M1165 1500 c-4 -6 -3 -16 3 -22 6 -6 12 -6 17 2 4 6 3 16 -3 22 -6 6 -12 6 -17 -2z"/>
 <path d="M2337 1504 c-9 -9 -9 -59 0 -67 3 -4 13 -1 22 5 13 10 14 10 4 -2 -7 -8 -13 -25 -13 -38 0 -13 -4 -21 -9 -17 -5 3 -12 1 -15 -4 -4 -5 -2 -13 4 -16 6 -4 8 -15 5 -25 -3 -10 -1 -21 4 -24 12 -8 40 31 43 59 1 11 4 -8 7 -43 3 -34 11 -62 16 -62 18 0 18 129 0 167 -9 18 -20 31 -25 28 -5 -3 -10 5 -12 17 -3 22 -19 33 -31 22z"/>
 <path d="M2255 1490 c-10 -17 12 -37 25 -24 8 8 6 15 -4 23 -10 9 -16 9 -21 1z"/>
 <path d="M590 1471 c-6 -12 -6 -22 -1 -26 6 -3 15 3 21 14 6 12 6 22 1 26 -6 3 -15 -3 -21 -14z"/>
 <path d="M1425 1480 c-4 -6 -3 -16 3 -22 6 -6 12 -6 17 2 4 6 3 16 -3 22 -6 6 -12 6 -17 -2z"/>
 <path d="M2787 1484 c-4 -4 -7 -24 -7 -44 0 -20 -5 -41 -11 -47 -8 -8 -4 -23 12 -54 13 -24 22 -49 21 -56 -5 -25 19 -23 30 4 l13 27 5 -44 c7 -62 24 -52 31 17 3 32 6 51 7 42 3 -22 42 -70 52 -64 5 3 3 20 -5 38 -7 17 -17 55 -21 82 -4 28 -9 55 -9 60 -1 6 -3 15 -4 20 -1 6 -8 2 -16 -9 -16 -21 -65 -31 -65 -12 0 18 -25 48 -33 40z"/>
 <path d="M2630 1465 c-14 -17 -8 -102 10 -150 9 -22 13 -24 31 -15 11 7 27 27 35 46 8 19 19 32 24 29 15 -9 22 13 10 35 -10 18 -14 19 -27 8 -9 -7 -19 -12 -22 -10 -3 1 -9 -12 -12 -30 -6 -30 -7 -29 -9 15 -3 64 -4 65 -16 77 -8 8 -14 7 -24 -5z"/>
 <path d="M746 1451 c-17 -19 -22 -66 -7 -76 10 -5 41 48 41 71 0 22 -16 24 -34 5z"/>
 <path d="M856 1462 c-3 -5 -4 -32 -4 -61 1 -51 10 -71 23 -51 4 6 15 0 27 -15 18 -23 46 -27 32 -4 -3 5 -11 6 -17 2 -9 -5 -9 -3 -1 8 13 17 -5 114 -21 114 -6 0 -15 4 -22 8 -6 4 -14 4 -17 -1z"/>
 <path d="M995 1460 c-4 -6 -3 -16 3 -22 6 -6 12 -6 17 2 4 6 3 16 -3 22 -6 6 -12 6 -17 -2z"/>
 <path d="M1715 1440 c-9 -18 -13 -40 -9 -52 4 -14 2 -18 -5 -14 -14 9 -26 -19 -15 -35 5 -9 10 -8 19 5 11 15 13 15 19 1 12 -32 23 -4 22 54 -2 73 -9 83 -31 41z"/>
 <path d="M2536 1463 c-3 -3 -6 -18 -6 -33 0 -14 -4 -30 -9 -35 -18 -20 -28 -101 -17 -136 16 -50 32 -36 28 23 -3 42 -1 50 10 42 20 -15 84 -10 80 6 -6 24 -43 70 -53 65 -5 -4 -9 10 -9 29 0 34 -11 52 -24 39z"/>
 <path d="M434 1447 c-7 -20 -2 -47 11 -50 14 -3 19 43 6 56 -7 7 -12 6 -17 -6z"/>
 <path d="M1396 1449 c-21 -68 -24 -74 -25 -52 -1 28 -15 37 -30 19 -10 -11 -8 -23 9 -55 11 -23 25 -41 30 -41 10 0 50 84 50 105 0 7 -7 18 -15 25 -12 10 -16 10 -19 -1z"/>
 <path d="M1851 1441 c-17 -30 -2 -81 26 -92 14 -5 28 -7 33 -4 4 3 11 -3 14 -12 5 -12 10 -13 18 -5 14 14 2 46 -14 36 -8 -5 -9 -2 -5 10 4 10 2 27 -4 39 -11 20 -12 20 -25 2 -13 -18 -14 -17 -14 7 0 34 -16 44 -29 19z"/>
 <path d="M295 1437 c-9 -22 -2 -62 10 -60 6 1 11 14 13 29 4 32 -14 56 -23 31z"/>
 <path d="M814 1437 c-7 -20 -2 -47 11 -50 14 -3 19 43 6 56 -7 7 -12 6 -17 -6z"/>
 <path d="M1526 1443 c-4 -5 -13 -8 -19 -8 -7 0 -14 -11 -15 -25 -2 -14 -7 -29 -12 -35 -12 -15 -5 -55 10 -65 23 -14 30 -2 31 53 1 43 2 47 8 22 8 -34 6 -100 -3 -150 -4 -18 -2 -36 3 -40 20 -12 31 36 28 134 -2 94 -13 132 -31 114z"/>
 <path d="M2295 1441 c-4 -8 -1 -19 8 -28 19 -20 30 -1 13 22 -10 14 -15 15 -21 6z"/>
 <path d="M2476 1443 c-3 -3 -6 -15 -6 -27 0 -19 -1 -19 -13 -1 -22 29 -32 0 -17 -49 7 -22 14 -47 17 -55 9 -31 36 18 41 72 4 50 -6 76 -22 60z"/>
 <path d="M2985 1438 c-28 -80 -33 -104 -25 -112 12 -12 50 52 50 86 0 29 -17 47 -25 26z"/>
 <path d="M618 1435 c-8 -9 7 -90 17 -90 16 0 18 70 2 83 -8 7 -16 10 -19 7z"/>
 <path d="M961 1418 c-5 -13 -7 -27 -4 -31 6 -11 33 12 33 29 0 24 -20 26 -29 2z"/>
 <path d="M1629 1413 c-14 -38 5 -52 26 -20 16 25 14 47 -6 47 -5 0 -14 -12 -20 -27z"/>
 <path d="M1767 1423 c-10 -9 -8 -51 2 -57 17 -11 33 21 21 43 -12 23 -14 24 -23 14z"/>
 <path d="M3027 1423 c-11 -10 -8 -131 3 -138 6 -4 10 22 10 69 0 76 -1 82 -13 69z"/>
 <path d="M55 1407 c-9 -22 -2 -62 10 -60 6 1 11 14 13 29 4 32 -14 56 -23 31z"/>
 <path d="M554 1406 c-8 -21 3 -49 16 -41 5 3 10 15 10 25 0 25 -18 36 -26 16z"/>
 <path d="M1136 1409 c-21 -73 -24 -95 -17 -102 9 -9 37 30 46 65 7 27 -21 63 -29 37z"/>
 <path d="M1076 1392 c-9 -15 12 -54 25 -47 12 8 11 18 -4 40 -10 12 -16 14 -21 7z"/>
 <path d="M1581 1378 c-11 -29 15 -86 31 -70 12 12 2 78 -12 87 -6 4 -14 -4 -19 -17z"/>
 <path d="M2245 1391 c-3 -6 -10 -9 -15 -6 -12 7 -23 -12 -15 -25 5 -8 11 -7 21 1 8 6 14 8 14 3 0 -4 5 -3 12 4 9 9 9 15 1 23 -8 8 -13 8 -18 0z"/>
 <path d="M1254 1376 c-3 -9 -10 -14 -14 -11 -18 11 -21 -17 -4 -36 21 -23 44 -9 44 27 0 28 -18 41 -26 20z"/>
 <path d="M1437 1383 c-8 -17 -1 -123 8 -120 11 2 15 116 4 123 -4 2 -9 1 -12 -3z"/>
 <path d="M2175 1370 c-4 -6 -3 -16 3 -22 6 -6 12 -6 17 2 4 6 3 16 -3 22 -6 6 -12 6 -17 -2z"/>
 <path d="M461 1346 c-19 -20 -19 -24 -7 -42 14 -19 15 -18 40 5 31 29 32 37 7 50 -14 8 -23 5 -40 -13z"/>
 <path d="M1305 1358 c-9 -22 -2 -68 10 -71 14 -3 19 63 6 76 -7 7 -12 5 -16 -5z"/>
 <path d="M785 1350 c-4 -6 -3 -16 3 -22 6 -6 12 -6 17 2 4 6 3 16 -3 22 -6 6 -12 6 -17 -2z"/>
 <path d="M555 1320 c-4 -6 -3 -16 3 -22 6 -6 12 -6 17 2 4 6 3 16 -3 22 -6 6 -12 6 -17 -2z"/>
 <path d="M856 1308 c-10 -31 -13 -69 -5 -74 10 -6 29 29 29 55 0 23 -18 38 -24 19z"/>
 <path d="M1175 1308 c-9 -22 -2 -68 10 -71 14 -3 19 63 6 76 -7 7 -12 5 -16 -5z"/>
 <path d="M2724 1276 c-8 -21 3 -49 16 -41 5 3 10 15 10 25 0 25 -18 36 -26 16z"/>
 </g>
<g id="layer102" fill="#3b681e" stroke="none">
 <path d="M75 1713 c38 -2 75 -9 81 -14 8 -7 14 -7 19 1 3 5 38 10 77 10 56 0 74 -4 84 -17 13 -17 15 -17 28 0 18 23 117 24 136 2 12 -14 15 -14 30 0 19 17 135 21 145 5 4 -6 13 -5 25 2 16 11 22 9 35 -7 14 -19 16 -19 29 -2 12 15 35 17 212 17 191 0 200 -1 212 -21 10 -15 16 -18 26 -10 9 7 16 7 23 0 8 -8 14 -5 22 10 11 19 20 21 128 21 98 0 118 -3 129 -17 13 -17 15 -17 28 0 7 9 25 17 39 17 19 0 28 -7 36 -31 12 -35 34 -30 25 7 l-6 24 195 0 c162 0 197 -3 207 -15 12 -14 15 -14 30 0 14 12 53 15 235 15 195 0 219 -2 230 -17 12 -17 14 -17 32 -1 16 14 44 18 163 21 80 1 -501 3 -1290 3 -789 0 -1404 -2 -1365 -3z"/>
 <path d="M2912 1705 c-40 -18 -41 -49 -2 -49 20 -1 26 5 28 27 4 31 17 34 45 10 18 -17 19 -17 32 0 24 33 34 18 38 -58 l3 -75 0 77 -1 78 -55 2 c-32 2 -69 -4 -88 -12z"/>
 <path d="M2096 1661 c-4 -5 -2 -13 4 -16 8 -5 8 -11 0 -20 -7 -8 -7 -15 -1 -19 5 -4 12 -2 16 4 3 5 3 10 -1 10 -3 0 -1 6 5 14 8 10 8 16 -3 25 -9 8 -16 8 -20 2z"/>
 <path d="M2905 1620 c-4 -6 -3 -16 3 -22 6 -6 12 -6 17 2 4 6 3 16 -3 22 -6 6 -12 6 -17 -2z"/>
 <path d="M2126 1611 c-4 -6 -4 -16 0 -23 4 -6 3 -8 -4 -4 -6 3 -13 2 -16 -3 -12 -19 12 -20 29 -1 13 15 15 24 8 31 -8 8 -13 8 -17 0z"/>
 <path d="M56 1602 c-3 -6 1 -15 8 -21 8 -7 17 -8 20 -3 3 6 -1 15 -8 21 -8 7 -17 8 -20 3z"/>
 <path d="M1644 1566 c-3 -8 -1 -24 5 -35 6 -11 10 -26 9 -33 -2 -7 4 -12 12 -10 12 3 12 1 3 -9 -9 -9 -9 -17 -1 -33 6 -12 12 -23 12 -26 1 -3 4 -4 7 -3 8 3 4 -58 -5 -78 -4 -10 -2 -20 4 -24 7 -4 14 2 17 14 5 20 6 20 18 4 11 -15 15 -15 29 -4 12 10 19 11 29 2 10 -8 17 -7 25 1 8 8 15 8 25 0 10 -9 16 -9 25 0 9 9 15 8 26 -7 13 -18 14 -18 27 6 8 13 24 25 37 25 19 1 22 -4 22 -36 0 -44 7 -53 32 -39 16 9 17 13 6 27 -8 10 -9 13 -1 9 7 -4 18 2 27 15 16 22 16 22 16 -9 0 -41 17 -52 30 -18 8 22 12 24 29 13 11 -7 18 -15 15 -19 -2 -4 3 -12 10 -18 22 -18 26 1 13 55 -9 35 -17 48 -28 46 -17 -2 -46 24 -37 33 3 3 18 -1 33 -9 23 -12 32 -13 43 -3 12 10 14 8 8 -10 -4 -12 -2 -24 3 -27 6 -4 8 -13 5 -21 -10 -26 6 -38 26 -20 10 9 23 14 28 11 12 -7 52 22 52 38 0 7 -9 21 -20 31 -20 18 -21 18 -26 -2 -3 -12 -12 -24 -19 -27 -16 -6 -39 19 -31 33 4 5 0 13 -7 18 -9 5 -14 24 -13 53 1 42 -17 71 -20 32 -1 -9 -3 -21 -4 -27 -1 -5 -2 -13 -1 -17 2 -15 -17 -8 -23 8 -9 22 -28 6 -20 -18 6 -19 5 -19 -18 -4 -14 9 -28 13 -33 9 -4 -5 -3 2 3 13 9 17 8 24 -2 33 -30 25 -36 -23 -6 -54 18 -19 19 -24 6 -34 -12 -10 -17 -8 -26 8 -6 12 -17 21 -24 21 -8 0 -16 10 -20 23 l-6 22 -20 -25 c-11 -14 -20 -33 -20 -43 0 -29 -38 -2 -42 30 -4 33 -27 43 -35 14 -6 -24 -7 -25 -35 -10 -33 18 -42 -4 -14 -34 14 -15 20 -29 15 -33 -12 -7 -11 -8 -27 29 -11 25 -21 30 -64 30 -10 0 -15 3 -12 8 9 15 -15 49 -31 43 -8 -4 -15 -2 -15 2 0 14 17 36 26 35 5 -1 9 5 9 12 0 6 -5 12 -12 12 -6 0 -15 3 -19 8 -12 11 -24 8 -30 -7z m386 -191 c4 0 12 -4 17 -9 5 -5 3 -6 -5 -2 -7 4 -15 1 -18 -9 -9 -23 -34 1 -34 34 1 25 1 25 16 6 8 -11 19 -20 24 -20z"/>
 <path d="M1399 1565 c-8 -7 1 -54 11 -60 4 -3 12 1 18 8 8 9 6 19 -7 35 -9 13 -19 20 -22 17z"/>
 <path d="M2088 1553 c-8 -14 -3 -38 7 -41 12 -3 16 36 4 43 -4 3 -9 2 -11 -2z"/>
 <path d="M2385 1550 c-4 -6 -5 -23 -4 -38 2 -15 0 -32 -4 -38 -4 -7 0 -17 8 -24 8 -7 15 -11 16 -9 1 2 3 27 5 56 4 48 -7 76 -21 53z"/>
 <path d="M74 1505 c-14 -21 -15 -31 -5 -51 6 -14 16 -22 21 -19 6 4 8 11 4 16 -3 5 0 8 8 7 7 -2 13 4 13 12 0 8 -6 14 -12 13 -16 -4 -17 9 -2 24 7 7 7 13 0 17 -5 4 -18 -5 -27 -19z"/>
 <path d="M364 1517 c-7 -20 -2 -47 11 -50 14 -3 19 43 6 56 -7 7 -12 6 -17 -6z"/>
 <path d="M464 1516 c-8 -21 3 -49 16 -41 5 3 10 15 10 25 0 25 -18 36 -26 16z"/>
 <path d="M1974 1516 c-4 -10 -2 -22 4 -28 8 -8 13 -7 18 6 4 10 2 22 -4 28 -8 8 -13 7 -18 -6z"/>
 <path d="M2320 1490 c-17 -24 -25 -28 -36 -20 -7 7 -18 9 -24 5 -17 -11 -11 -32 15 -49 34 -22 68 -89 52 -105 -8 -8 -8 -14 0 -22 7 -7 17 -3 32 17 20 25 22 26 39 10 22 -19 32 -12 32 23 1 23 2 24 11 8 8 -14 14 -15 24 -7 11 9 12 7 8 -9 -3 -12 -9 -19 -13 -16 -13 8 -23 -16 -12 -27 6 -6 12 -6 17 2 6 9 12 7 24 -9 25 -33 60 -35 72 -4 8 23 6 31 -21 58 -36 37 -39 53 -6 32 22 -15 25 -15 37 -1 21 25 18 57 -7 83 -13 13 -25 21 -25 17 -8 -39 -21 -53 -49 -54 -23 0 -30 4 -30 18 0 27 -20 36 -27 11 -3 -11 -9 -19 -13 -16 -5 3 -11 1 -14 -4 -4 -5 -18 2 -33 15 -23 21 -25 28 -16 43 11 18 8 31 -8 31 -4 0 -17 -14 -29 -30z m210 -184 c0 -5 -7 -3 -15 4 -8 7 -15 20 -15 28 0 13 3 12 15 -4 8 -10 15 -23 15 -28z"/>
 <path d="M3024 1506 c-19 -15 -19 -15 4 -38 l22 -22 0 37 c0 42 0 42 -26 23z"/>
 <path d="M886 1502 c-4 -6 -4 -22 0 -35 3 -14 1 -28 -4 -31 -5 -3 -12 4 -15 15 -4 14 -10 18 -19 13 -7 -5 -20 -9 -28 -9 -19 0 -24 -33 -10 -69 14 -38 30 -24 24 22 l-4 37 13 -34 c7 -19 21 -35 30 -37 21 -3 47 38 47 74 0 33 -23 71 -34 54z"/>
 <path d="M2475 1500 c-4 -6 -3 -16 3 -22 6 -6 12 -6 17 2 4 6 3 16 -3 22 -6 6 -12 6 -17 -2z"/>
 <path d="M2736 1499 c-3 -8 -6 -25 -8 -39 -2 -15 -9 -25 -20 -25 -9 0 -27 -11 -40 -25 -12 -14 -29 -25 -35 -25 -7 0 -13 -4 -13 -10 0 -5 6 -10 13 -10 12 0 27 -14 27 -27 0 -14 -31 0 -46 20 -17 25 -37 21 -27 -5 4 -10 2 -14 -5 -9 -20 12 -22 -11 -2 -29 11 -10 20 -14 20 -10 0 4 8 1 18 -7 23 -19 37 -17 62 10 11 12 25 22 30 22 14 0 21 -18 10 -25 -17 -10 -11 -51 9 -69 20 -19 39 -6 24 17 -4 6 -7 42 -8 79 l0 67 23 -45 c15 -30 22 -59 20 -82 -4 -46 10 -46 40 -1 13 19 26 34 30 34 4 0 7 10 7 22 -1 12 1 20 4 18 2 -3 11 1 20 8 14 11 14 10 2 -5 -12 -16 -9 -22 12 -19 4 0 8 -7 9 -16 0 -10 2 -23 2 -30 2 -17 37 -53 47 -47 5 2 3 16 -3 29 -9 20 -8 28 6 44 20 22 4 40 -19 21 -11 -9 -15 -1 -20 47 -4 32 -10 63 -14 68 -3 6 -6 13 -6 18 0 10 -20 9 -20 -2 0 -5 -3 -13 -7 -17 -4 -4 -4 -12 1 -18 4 -6 11 -21 14 -34 4 -19 3 -21 -9 -11 -8 6 -14 17 -14 24 0 8 -13 26 -28 42 -16 15 -31 37 -35 47 -6 14 -11 16 -18 9 -8 -8 -7 -18 1 -34 7 -13 9 -21 5 -17 -5 4 -13 4 -19 -2 -8 -6 -12 -1 -14 18 -3 32 -19 52 -26 31z"/>
 <path d="M427 1494 c-12 -12 -8 -79 6 -99 8 -11 13 -34 12 -52 -2 -20 4 -38 15 -48 17 -15 20 -15 37 2 25 25 25 79 1 75 -12 -2 -20 6 -24 25 -4 15 -9 32 -12 38 -4 5 -7 18 -7 28 -2 21 -19 40 -28 31z"/>
 <path d="M599 1496 c-4 -17 -6 -23 -13 -43 -9 -28 1 -48 18 -34 8 7 12 4 11 -12 0 -12 5 -23 10 -24 6 -2 10 12 10 30 -1 17 -6 31 -11 30 -6 -1 -10 9 -8 22 2 21 -13 48 -17 31z"/>
 <path d="M742 1461 c-23 -32 -29 -83 -12 -125 7 -19 15 -24 35 -22 30 3 39 11 30 26 -5 8 -10 8 -20 0 -10 -8 -14 -4 -17 18 -3 22 0 29 11 28 13 -1 16 10 16 48 0 59 -13 67 -43 27z"/>
 <path d="M997 1474 c-3 -3 -3 -13 0 -21 4 -10 0 -14 -13 -11 -10 2 -19 -1 -19 -7 0 -5 -6 -20 -13 -33 -15 -26 -6 -50 12 -32 6 6 11 21 11 33 0 15 6 22 19 22 13 0 20 8 21 23 2 23 -7 36 -18 26z"/>
 <path d="M1452 1468 c-7 -7 -12 -9 -12 -5 0 4 -9 3 -20 -3 -11 -6 -17 -16 -13 -26 3 -8 1 -14 -5 -12 -5 2 -10 -1 -10 -7 0 -5 5 -8 12 -7 6 2 7 0 3 -4 -13 -14 -59 -12 -53 1 2 7 -9 25 -25 41 -16 15 -29 24 -30 18 -1 -5 -2 -16 -3 -24 -2 -8 -3 -26 -4 -39 -1 -13 -5 -21 -9 -18 -3 4 -12 2 -20 -4 -10 -9 -18 -8 -31 3 -9 8 -27 13 -39 12 -20 -1 -21 0 -7 21 10 16 12 25 5 30 -15 9 -33 -4 -25 -18 4 -7 -7 1 -25 17 -22 22 -34 27 -42 19 -14 -14 -7 -49 9 -46 7 2 12 -6 12 -17 0 -26 -16 -26 -23 1 -3 12 -10 18 -16 15 -14 -9 -7 -53 12 -74 10 -10 14 -21 11 -25 -3 -3 -3 -11 1 -17 5 -8 15 -4 31 11 24 22 30 18 25 -20 -2 -7 1 -20 5 -30 4 -9 8 -20 8 -26 1 -5 8 -10 16 -10 17 0 26 50 13 68 -5 7 -6 28 -2 47 5 29 7 30 8 9 0 -14 9 -34 20 -43 18 -16 20 -16 39 9 l20 26 9 -53 c10 -67 28 -60 28 11 0 36 4 56 13 59 10 3 13 -4 10 -24 -2 -23 1 -29 17 -29 11 0 25 -3 31 -7 17 -11 25 2 14 23 -11 20 -3 52 11 43 5 -3 7 -10 4 -15 -12 -18 6 -29 27 -18 18 10 20 9 15 -5 -8 -20 40 -43 56 -27 13 13 -32 61 -50 54 -13 -5 -17 8 -14 35 1 8 -5 22 -14 32 -9 10 -12 21 -7 24 6 3 13 -1 16 -10 8 -20 26 -9 26 16 0 24 -14 32 -28 18z"/>
 <path d="M2984 1466 c-5 -13 -2 -23 9 -31 23 -17 22 -54 0 -50 -28 4 -34 -4 -22 -27 11 -20 13 -20 24 -5 10 15 13 6 19 -53 10 -98 26 -99 26 0 0 52 4 79 10 75 6 -4 10 7 10 26 0 18 -3 30 -6 26 -3 -3 -19 9 -34 26 -26 29 -29 30 -36 13z"/>
 <path d="M40 1470 c-9 -41 -7 -53 10 -70 12 -12 25 -18 31 -14 6 3 19 -2 29 -11 10 -9 24 -14 30 -10 16 10 0 27 -18 20 -9 -3 -13 -3 -10 1 12 12 -11 44 -27 38 -8 -4 -15 -2 -15 3 0 10 -29 51 -30 43z"/>
 <path d="M1595 1458 c-10 -28 -12 -99 -3 -104 6 -4 8 -17 5 -30 -5 -27 6 -39 28 -31 10 4 11 15 5 41 -4 20 -4 34 0 31 24 -15 47 67 24 86 -11 9 -16 6 -23 -12 -10 -23 -10 -24 -10 -2 -1 25 -19 40 -26 21z"/>
 <path d="M235 1448 c-10 -25 1 -73 16 -73 10 0 13 10 12 34 -2 39 -19 63 -28 39z"/>
 <path d="M335 1451 c-3 -5 -15 -8 -26 -6 -24 5 -37 -21 -22 -44 7 -11 7 -23 2 -33 -11 -21 8 -35 24 -19 9 9 9 16 0 30 -6 10 -8 23 -4 30 13 20 36 -18 32 -54 -3 -40 16 -55 28 -23 6 15 5 30 -3 43 -7 11 -11 32 -10 47 3 28 -10 46 -21 29z"/>
 <path d="M1526 1451 c-4 -5 -2 -12 4 -16 5 -3 10 -3 10 1 0 3 6 1 14 -5 10 -8 16 -9 21 -1 3 5 4 11 1 11 -3 1 -9 2 -13 3 -5 1 -13 5 -20 9 -6 4 -14 3 -17 -2z"/>
 <path d="M384 1427 c-7 -20 -2 -47 11 -50 14 -3 19 43 6 56 -7 7 -12 6 -17 -6z"/>
 <path d="M516 1422 c-9 -15 12 -65 24 -57 14 9 13 28 -3 50 -9 11 -16 14 -21 7z"/>
 <path d="M661 1416 c-10 -12 -10 -22 -2 -41 16 -36 26 -35 29 4 4 40 -10 58 -27 37z"/>
 <path d="M1515 1401 c-15 -18 -19 -56 -4 -49 3 2 13 -3 22 -10 19 -16 34 2 18 22 -6 7 -9 20 -5 29 9 23 -11 29 -31 8z"/>
 <path d="M560 1385 c-12 -33 -10 -70 5 -70 13 0 26 77 14 89 -5 5 -13 -3 -19 -19z"/>
 <path d="M1034 1376 c-4 -10 -2 -22 4 -28 8 -8 13 -7 18 6 4 10 2 22 -4 28 -8 8 -13 7 -18 -6z"/>
 <path d="M896 1367 c-16 -12 -16 -14 4 -40 25 -32 43 -27 30 7 -5 13 -6 26 -4 29 12 12 -15 15 -30 4z"/>
 <path d="M208 1364 c-9 -8 7 -59 18 -59 15 0 16 41 1 53 -8 7 -16 9 -19 6z"/>
 <path d="M625 1350 c-4 -6 -3 -16 3 -22 6 -6 12 -6 17 2 4 6 3 16 -3 22 -6 6 -12 6 -17 -2z"/>
 <path d="M854 1346 c-8 -21 3 -49 16 -41 5 3 10 15 10 25 0 25 -18 36 -26 16z"/>
 <path d="M846 1280 c-13 -36 7 -72 23 -42 7 14 7 24 -4 38 -11 16 -14 17 -19 4z"/>
 <path d="M2394 1266 c-8 -21 3 -49 16 -41 5 3 10 15 10 25 0 25 -18 36 -26 16z"/>
 <path d="M1435 1260 c-4 -6 -3 -16 3 -22 6 -6 12 -6 17 2 4 6 3 16 -3 22 -6 6 -12 6 -17 -2z"/>
 <path d="M1527 1243 c-4 -6 0 -18 7 -28 8 -11 16 -14 19 -8 4 6 0 18 -7 28 -8 11 -16 14 -19 8z"/>
 <path d="M2854 1226 c-8 -21 3 -49 16 -41 5 3 10 15 10 25 0 25 -18 36 -26 16z"/>
 </g>
<g id="layer103" fill="#4c7d1f" stroke="none">
 <path d="M0 1568 c0 -102 4 -148 10 -138 7 10 10 -10 10 -65 1 -64 3 -77 13 -65 7 8 19 15 27 15 11 0 14 10 12 40 -3 31 -1 37 8 28 7 -6 19 -9 26 -6 17 6 19 -29 4 -57 -6 -10 -6 -21 -2 -24 10 -6 55 42 58 62 6 37 14 19 14 -31 0 -59 12 -80 29 -50 5 10 12 17 15 16 3 -2 8 -2 11 -2 3 1 11 2 18 3 7 1 11 13 9 29 -3 27 16 75 19 50 1 -7 2 -19 3 -25 1 -7 7 -12 14 -10 7 1 12 -9 12 -22 0 -35 15 -40 33 -12 12 17 13 26 4 35 -6 6 -9 11 -6 12 2 0 12 2 22 4 11 2 17 -3 17 -15 0 -28 17 -33 33 -10 13 18 15 19 21 5 8 -22 27 -9 19 13 -3 9 -3 14 2 10 4 -4 16 -3 26 3 16 8 19 6 19 -13 0 -27 -13 -50 -26 -46 -5 2 -10 -1 -11 -7 -5 -18 36 -10 51 10 15 20 15 20 10 -1 -7 -27 4 -34 35 -23 19 7 22 12 13 21 -20 20 -13 36 19 47 36 12 55 6 40 -13 -8 -10 -5 -18 9 -31 20 -18 21 -18 27 3 3 12 9 19 14 16 17 -10 21 27 5 45 -9 10 -16 24 -16 32 0 8 10 1 23 -15 25 -31 30 -29 41 19 4 17 15 38 23 48 9 9 17 25 18 35 1 9 5 25 9 34 4 9 5 22 1 28 -9 15 -26 1 -23 -19 4 -21 -43 -100 -49 -83 -3 7 1 21 9 30 25 29 27 48 7 81 -23 39 -37 34 -32 -11 3 -30 2 -31 -7 -10 -10 24 -30 22 -30 -4 0 -8 -7 -26 -16 -40 -15 -23 -18 -23 -34 -9 -12 11 -20 13 -25 6 -6 -11 1 -15 18 -12 4 1 3 -8 -3 -19 -6 -11 -15 -18 -20 -15 -5 3 -11 1 -14 -4 -5 -8 -34 -8 -43 -1 -18 15 -61 -8 -80 -42 -14 -27 -15 -14 -4 54 7 44 6 49 -16 63 -25 17 -25 16 -37 -30 -3 -11 -4 -3 -1 17 5 53 -13 58 -32 9 -16 -42 -35 -57 -26 -21 3 11 2 28 -1 37 -7 16 -9 16 -25 -6 l-18 -23 -22 36 c-19 31 -26 35 -38 24 -10 -8 -14 -26 -11 -60 3 -53 2 -55 -29 -33 -20 14 -23 14 -33 -4 -5 -11 -10 -28 -10 -39 0 -20 -23 -36 -34 -25 -3 4 -6 14 -6 22 0 9 -7 27 -16 39 -13 19 -18 21 -31 10 -14 -11 -14 -9 0 19 10 18 17 40 17 51 0 10 5 23 11 29 7 7 8 13 0 17 -6 4 -3 14 8 25 10 10 24 27 30 37 10 18 12 18 21 2 9 -15 13 -15 42 0 34 17 76 23 93 13 6 -3 16 -6 24 -6 8 0 22 -13 30 -29 20 -35 30 -37 45 -11 6 11 18 25 26 32 13 10 16 5 20 -30 6 -49 24 -56 28 -10 2 17 10 34 18 37 11 4 14 -6 14 -47 0 -29 -5 -58 -11 -64 -6 -6 -7 -13 -2 -16 14 -9 53 22 53 42 0 30 24 71 42 71 16 0 32 -29 33 -57 0 -15 20 -18 20 -4 0 5 3 13 8 17 4 4 7 17 7 29 0 11 6 27 12 33 10 10 16 8 30 -10 l18 -23 6 23 c9 31 18 28 29 -10 12 -39 44 -50 52 -19 3 12 13 21 23 21 13 0 22 -16 34 -67 18 -70 32 -97 47 -87 15 9 10 -3 -7 -16 -8 -8 -14 -9 -13 -4 4 15 -42 84 -52 78 -13 -8 -11 -78 3 -92 10 -10 10 -17 0 -33 -16 -26 -7 -42 18 -29 13 7 21 6 30 -5 17 -20 30 -10 30 23 0 31 16 60 26 49 4 -4 13 -2 21 5 8 6 3 -9 -11 -35 -13 -26 -20 -49 -15 -53 5 -3 7 -9 4 -14 -8 -13 14 -52 25 -45 5 3 7 11 4 18 -3 8 2 26 10 42 l15 28 3 -34 c5 -55 32 -44 38 15 l5 50 15 -38 c14 -37 41 -62 54 -49 3 3 6 22 6 42 l0 36 20 -25 20 -25 6 23 c5 17 9 20 15 11 4 -7 3 -21 -2 -30 -17 -32 7 -28 39 6 19 20 28 36 22 40 -7 4 -4 16 6 35 10 17 14 35 10 46 -7 18 -8 18 -20 2 -7 -10 -17 -18 -21 -18 -4 0 -3 6 2 13 6 6 13 29 16 50 8 49 25 71 43 56 9 -8 15 -5 24 10 15 29 38 26 50 -5 13 -32 30 -22 30 19 0 28 1 29 13 12 13 -17 14 -17 29 4 l15 22 8 -23 c4 -13 8 -27 9 -33 3 -20 21 -17 31 4 11 23 45 29 45 8 0 -18 34 -49 43 -40 4 3 7 13 7 21 0 13 44 62 56 62 2 0 4 -6 4 -14 0 -7 7 -19 15 -26 12 -10 16 -7 26 16 9 25 12 27 20 12 12 -22 60 -17 70 8 6 17 8 15 19 -11 10 -26 13 -28 23 -15 12 14 51 40 61 40 3 0 14 -9 25 -21 12 -13 21 -17 26 -10 16 27 25 6 25 -58 0 -66 15 -102 35 -83 5 4 5 2 1 -5 -3 -6 -1 -15 5 -19 6 -3 9 -19 5 -35 -6 -33 6 -45 24 -24 11 13 14 13 26 -2 12 -17 13 -17 19 0 5 11 1 25 -9 36 -9 10 -16 35 -16 59 0 51 -14 61 -35 25 -15 -27 -15 -27 -9 -3 4 14 8 32 9 40 6 57 46 84 58 39 8 -31 31 -18 37 22 4 26 7 30 13 16 4 -10 11 -16 16 -12 6 3 15 -4 21 -16 9 -16 8 -24 -4 -38 -9 -10 -15 -20 -14 -22 2 -2 -4 4 -12 14 -9 10 -19 15 -23 11 -12 -13 -8 -83 9 -122 8 -20 15 -39 15 -42 -1 -3 7 -5 17 -5 18 0 19 8 4 68 -9 32 -7 39 8 47 13 7 21 7 25 0 4 -6 11 -8 16 -5 5 4 9 -1 9 -9 0 -9 -6 -15 -12 -14 -7 2 -13 -4 -13 -12 0 -8 6 -14 13 -12 18 3 15 -15 -4 -22 -8 -3 -13 -10 -9 -15 3 -6 -1 -26 -9 -45 -11 -25 -12 -38 -4 -42 13 -8 48 31 48 55 1 20 20 45 42 53 13 5 16 1 13 -18 -1 -16 7 -37 22 -55 26 -30 50 -31 34 -1 -4 9 -11 29 -15 45 -6 25 -5 27 13 15 11 -6 22 -21 25 -31 9 -34 23 -8 28 50 4 39 1 67 -9 86 -18 35 -29 28 -37 -24 -4 -23 -9 -39 -13 -36 -3 4 -14 2 -24 -4 -16 -8 -19 -6 -16 13 1 14 -3 22 -10 20 -7 -1 -13 7 -13 17 0 11 -4 23 -10 26 -5 3 -10 28 -10 55 0 39 3 48 15 44 9 -4 15 -23 17 -55 4 -63 22 -68 26 -7 2 25 9 51 16 57 18 15 43 4 49 -21 6 -22 27 -16 27 9 0 13 3 13 15 3 9 -8 15 -29 15 -56 0 -23 4 -45 9 -48 4 -3 6 -17 3 -31 -3 -20 -7 -23 -18 -14 -11 9 -15 8 -19 -3 -7 -19 -1 -70 8 -66 3 2 12 -6 20 -16 11 -16 16 -16 23 -5 6 11 9 9 14 -9 8 -37 25 -30 28 11 2 26 -1 39 -12 43 -19 7 -22 35 -4 32 14 -3 22 26 14 49 -5 11 -10 13 -20 4 -20 -17 -25 -4 -15 42 15 69 23 75 28 24 7 -57 22 -64 37 -17 14 43 29 48 54 18 l20 -23 19 23 c11 12 25 22 32 22 7 0 23 10 36 22 l23 21 0 -46 c0 -25 -4 -49 -10 -52 -16 -10 -12 -58 7 -85 l16 -25 -26 24 -26 24 -11 -29 c-6 -16 -13 -34 -15 -41 -8 -24 18 -25 36 -2 l19 24 0 -32 c0 -17 4 -34 9 -37 10 -7 9 -25 -2 -43 -5 -7 -5 -18 -2 -23 11 -18 33 8 30 35 -2 14 2 28 7 31 7 5 9 -2 6 -20 -7 -36 8 -42 25 -10 l14 27 18 -26 c26 -40 39 -21 15 20 -17 28 -18 34 -5 29 11 -4 19 3 26 21 9 25 10 25 24 7 8 -10 15 -27 15 -36 0 -25 19 -32 27 -11 8 21 35 43 45 37 10 -6 20 14 13 26 -4 6 -13 7 -23 1 -14 -7 -23 -2 -41 25 -13 18 -27 31 -32 28 -5 -3 -18 0 -29 6 -16 9 -22 8 -26 -5 -4 -8 -1 -22 6 -30 8 -10 9 -15 2 -15 -6 0 -16 9 -23 21 -12 23 -24 16 -32 -16 -3 -12 -5 -7 -6 14 0 19 -7 42 -14 50 -10 11 -12 32 -8 71 4 35 9 50 14 42 7 -10 12 -10 22 -2 10 8 15 8 20 0 5 -8 13 -6 25 5 17 16 19 15 30 -4 10 -20 13 -20 32 -7 32 22 48 3 48 -55 0 -52 11 -67 30 -44 7 8 9 15 5 15 -4 0 -2 7 5 15 10 12 10 19 2 27 -19 19 -14 25 16 24 21 -1 31 -9 44 -36 10 -19 17 -45 18 -57 0 -12 5 -25 10 -28 12 -7 13 -25 2 -25 -4 0 -12 10 -17 23 -14 31 -30 23 -30 -15 0 -21 5 -32 13 -30 14 2 16 -14 2 -23 -6 -4 -3 -16 7 -32 15 -22 18 -23 28 -9 17 22 25 20 22 -5 -1 -12 4 -24 12 -27 11 -4 12 2 6 24 -4 16 -7 95 -6 176 l1 147 -1516 1 c-833 0 -1520 2 -1525 5 -5 4 -9 -56 -9 -147z m964 94 c14 8 23 5 42 -13 22 -20 24 -21 30 -4 7 16 7 16 17 -1 9 -17 10 -16 23 1 11 15 16 16 28 6 8 -7 20 -10 26 -6 6 4 10 -12 10 -44 0 -35 -4 -50 -12 -48 -8 1 -15 -14 -19 -38 -3 -22 -7 -33 -8 -25 -1 8 -10 26 -19 38 l-18 24 -18 -27 c-14 -21 -20 -24 -32 -15 -11 10 -16 7 -25 -16 -9 -26 -11 -27 -21 -11 -7 13 -13 15 -22 8 -9 -7 -17 -2 -30 20 -9 16 -22 27 -27 24 -5 -4 -9 16 -9 46 0 60 21 94 49 80 10 -6 24 -5 35 1z m1209 -76 c4 -42 3 -46 -10 -34 -7 8 -16 37 -19 64 -3 42 -2 46 10 34 7 -8 16 -37 19 -64z m-1787 -173 c-1 -27 -6 -37 -19 -39 -12 -1 -17 2 -14 11 3 7 0 18 -6 25 -9 10 -9 11 0 6 7 -4 17 2 23 14 15 28 17 25 16 -17z"/>
 <path d="M1655 1589 c-8 -12 1 -24 18 -24 7 0 12 -14 12 -32 0 -17 4 -35 8 -39 14 -14 7 -26 -8 -14 -8 7 -15 23 -15 35 0 12 -7 28 -15 35 -27 22 -32 -22 -11 -85 4 -11 0 -8 -8 7 -10 17 -22 25 -31 22 -10 -4 -16 3 -20 23 -12 54 -15 57 -28 44 -6 -6 -12 -31 -12 -55 0 -31 -3 -41 -11 -35 -6 5 -13 7 -15 5 -2 -3 -4 9 -4 25 0 15 -4 28 -10 28 -5 0 -12 9 -15 21 -7 32 -22 29 -34 -6 -6 -17 -19 -42 -29 -55 l-19 -24 14 25 c20 37 17 65 -7 65 -15 0 -21 -9 -26 -38 -3 -21 -2 -40 3 -43 4 -3 6 -9 3 -13 -2 -5 7 -19 20 -31 25 -23 33 -54 17 -64 -4 -2 -8 -17 -7 -33 0 -36 39 -41 41 -5 3 40 4 45 11 39 3 -4 12 -2 19 4 11 9 13 4 11 -25 -2 -19 -6 -38 -9 -42 -10 -9 33 -75 44 -68 6 4 8 25 5 49 -5 32 -2 46 9 56 23 19 54 21 55 4 3 -31 4 -35 14 -35 12 0 12 2 14 78 1 57 1 57 16 28 8 -15 12 -32 9 -37 -6 -11 44 -32 57 -24 5 4 4 14 -3 24 -8 13 -8 23 0 37 12 20 12 23 17 -76 2 -36 19 -58 30 -40 4 7 7 38 7 69 0 31 2 49 5 41 3 -8 17 -32 30 -52 28 -41 48 -42 33 -3 -7 18 -6 24 2 22 7 -1 12 12 14 31 1 18 5 36 9 40 4 4 5 -30 1 -75 -4 -55 -3 -84 5 -88 20 -13 32 14 31 72 -1 40 1 52 7 38 5 -12 16 -26 24 -33 13 -11 17 -10 26 7 7 13 8 22 1 26 -5 3 -10 15 -10 26 0 11 -9 38 -21 60 -17 33 -23 38 -35 29 -12 -11 -14 -7 -14 23 0 44 -13 54 -33 24 -10 -15 -12 -29 -6 -45 12 -32 5 -40 -36 -39 -29 1 -35 5 -35 23 0 13 -5 35 -10 49 -9 23 -13 25 -25 15 -8 -7 -15 -19 -15 -28 0 -8 -3 -12 -7 -8 -4 4 -7 19 -8 34 0 15 -4 27 -10 27 -5 0 -15 4 -22 8 -6 4 -15 2 -18 -4z m-156 -123 c1 -6 -5 -1 -13 9 -8 11 -12 24 -8 29 5 9 20 -17 21 -38z"/>
 <path d="M2481 1551 c-7 -12 -9 -21 -6 -21 3 0 -2 -11 -11 -25 -15 -23 -15 -27 5 -58 22 -36 55 -43 72 -16 6 10 9 7 9 -13 0 -25 -18 -33 -36 -15 -12 11 -24 -3 -24 -28 0 -13 4 -26 9 -29 10 -7 34 18 25 27 -3 3 2 4 13 3 10 -2 18 -10 18 -19 0 -9 5 -16 10 -14 5 1 9 7 7 13 -1 7 4 14 12 17 12 5 12 12 2 46 -17 57 -28 66 -57 42 l-24 -19 3 55 c4 61 -9 88 -27 54z"/>
 <path d="M564 1546 c-8 -21 3 -49 16 -41 5 3 10 15 10 25 0 25 -18 36 -26 16z"/>
 <path d="M1354 1537 c-7 -20 -2 -47 11 -50 14 -3 19 43 6 56 -7 7 -12 6 -17 -6z"/>
 <path d="M2025 1530 c-4 -6 -3 -16 3 -22 6 -6 12 -6 17 2 4 6 3 16 -3 22 -6 6 -12 6 -17 -2z"/>
 <path d="M1255 1517 c-9 -22 -2 -62 10 -60 6 1 11 14 13 29 4 32 -14 56 -23 31z"/>
 <path d="M1306 1522 c-4 -6 -2 -21 4 -32 8 -15 8 -20 -2 -18 -12 3 -14 -3 -17 -43 0 -11 -5 -18 -10 -14 -6 3 -15 -4 -21 -15 -10 -19 -7 -24 13 -21 4 1 17 -4 29 -10 18 -9 24 -8 34 6 11 15 16 16 29 5 15 -13 19 -8 15 23 -1 9 2 17 7 16 23 -4 20 4 -14 39 -21 20 -43 46 -49 56 -7 14 -13 16 -18 8z"/>
 <path d="M2854 1516 c-4 -10 -2 -22 4 -28 8 -8 13 -7 18 6 4 10 2 22 -4 28 -8 8 -13 7 -18 -6z"/>
 <path d="M470 1491 c-5 -11 -6 -22 -1 -25 11 -7 43 28 34 37 -11 12 -22 8 -33 -12z"/>
 <path d="M2618 1393 c-7 -14 -3 -33 6 -33 12 -1 17 28 6 35 -5 3 -10 2 -12 -2z"/>
 <path d="M2804 1386 c-8 -21 3 -49 16 -41 5 3 10 15 10 25 0 25 -18 36 -26 16z"/>
 <path d="M2969 1396 c-1 -3 -2 -9 -3 -13 -1 -5 -7 -18 -13 -29 -13 -23 -58 -28 -58 -6 0 20 -19 16 -31 -7 -6 -11 -13 -18 -17 -15 -3 3 -13 -8 -21 -25 -10 -19 -12 -32 -6 -36 6 -3 10 -3 10 1 0 4 9 -5 21 -20 26 -33 39 -26 39 22 1 30 2 34 11 19 14 -25 32 -11 18 14 -9 19 -9 19 10 10 16 -9 22 -8 29 5 5 9 12 15 15 15 16 -2 17 0 8 17 -7 13 -7 22 0 29 8 8 7 13 0 17 -6 4 -12 5 -12 2z"/>
 <path d="M2315 1381 c-4 -8 -1 -19 8 -28 19 -20 30 -1 13 22 -10 14 -15 15 -21 6z"/>
 <path d="M788 1364 c-4 -3 -4 -13 -1 -22 4 -10 3 -14 -2 -10 -11 10 -47 -11 -40 -23 4 -6 13 -5 24 1 10 5 21 7 23 4 3 -2 11 3 18 11 11 13 11 19 -1 31 -9 8 -18 12 -21 8z"/>
 <path d="M2191 1349 c-6 -16 -5 -30 2 -42 17 -27 33 -17 29 18 -5 42 -19 53 -31 24z"/>
 <path d="M2360 1351 c-11 -22 -5 -28 27 -25 12 0 20 -3 17 -8 -10 -16 5 -41 19 -30 6 5 20 8 29 7 10 -2 21 1 24 6 4 6 14 5 27 -3 26 -15 57 -17 57 -3 0 6 -6 10 -12 10 -7 0 -13 7 -13 15 -1 8 -6 14 -13 12 -7 -1 -23 -4 -35 -6 -12 -3 -22 -5 -22 -6 0 -1 -8 -3 -17 -5 -9 -2 -24 5 -34 16 -9 10 -21 16 -27 12 -5 -3 -7 -1 -3 5 3 6 2 13 -3 17 -6 3 -15 -3 -21 -14z"/>
 <path d="M2713 1324 c-9 -23 11 -38 26 -20 13 16 7 36 -10 36 -5 0 -12 -7 -16 -16z"/>
 <path d="M2574 1319 c-6 -10 -4 -11 26 -13 10 0 26 -10 34 -21 14 -20 15 -20 40 4 14 13 23 28 20 33 -8 13 -35 -12 -27 -26 3 -6 -4 -2 -16 9 -13 11 -25 19 -27 18 -2 -2 -5 -3 -6 -2 -21 6 -39 5 -44 -2z"/>
 <path d="M2785 1320 c-4 -6 -3 -16 3 -22 6 -6 12 -6 17 2 4 6 3 16 -3 22 -6 6 -12 6 -17 -2z"/>
 <path d="M1165 1311 c-3 -6 3 -15 14 -21 12 -6 22 -6 26 -1 3 6 -3 15 -14 21 -12 6 -22 6 -26 1z"/>
 <path d="M1225 1310 c-4 -6 -3 -16 3 -22 6 -6 12 -6 17 2 4 6 3 16 -3 22 -6 6 -12 6 -17 -2z"/>
 <path d="M1297 1304 c-13 -13 -7 -61 8 -74 16 -14 18 -10 15 35 -2 32 -12 49 -23 39z"/>
 <path d="M845 1291 c-3 -5 0 -13 6 -16 5 -4 8 -13 5 -21 -8 -22 12 -26 23 -5 15 26 14 29 -8 41 -12 6 -22 6 -26 1z"/>
 <path d="M3015 1290 c-4 -6 -3 -16 3 -22 6 -6 12 -6 17 2 4 6 3 16 -3 22 -6 6 -12 6 -17 -2z"/>
 <path d="M2535 1270 c-3 -5 -3 -10 1 -10 4 0 -1 -9 -10 -19 -11 -12 -14 -21 -7 -26 15 -9 33 4 27 20 -2 7 0 17 6 23 6 6 6 12 0 16 -6 3 -13 2 -17 -4z"/>
 <path d="M1166 1261 c-4 -5 -2 -12 4 -16 6 -4 8 -10 5 -15 -3 -5 -1 -11 4 -14 5 -4 12 -2 15 3 4 5 2 12 -4 16 -6 4 -8 10 -5 15 3 5 1 11 -4 14 -5 4 -12 2 -15 -3z"/>
 <path d="M2731 1251 c-8 -14 -7 -22 4 -31 8 -7 15 -11 16 -9 10 47 -3 73 -20 40z"/>
 <path d="M2781 1251 c-14 -26 5 -40 25 -19 13 13 13 16 0 27 -12 10 -17 9 -25 -8z"/>
 <path d="M1515 1201 c-7 -12 12 -24 25 -16 11 7 4 25 -10 25 -5 0 -11 -4 -15 -9z"/>
 <path d="M2855 1190 c-4 -6 -3 -16 3 -22 6 -6 12 -6 17 2 4 6 3 16 -3 22 -6 6 -12 6 -17 -2z"/>
 <path d="M2296 1162 c-2 -2 -46 -5 -97 -8 -64 -3 -99 -9 -109 -19 -20 -20 -4 -33 53 -44 29 -5 54 -17 65 -31 14 -18 33 -24 93 -30 40 -5 92 -14 114 -20 72 -22 194 11 166 44 -14 17 -8 44 15 61 19 15 19 15 -4 35 -22 18 -37 20 -159 18 -74 -1 -136 -4 -137 -6z"/>
 </g>
<g id="layer104" fill="#498d31" stroke="none">
 <path d="M985 1687 c-11 -6 -28 -12 -37 -12 -10 0 -18 -4 -18 -10 0 -11 19 -14 35 -6 6 3 16 6 24 8 19 2 35 20 24 26 -5 3 -17 0 -28 -6z"/>
 <path d="M237 1679 c-9 -6 -15 -14 -12 -18 7 -12 75 -7 75 5 0 5 -4 9 -9 9 -5 0 -13 3 -17 8 -9 9 -15 9 -37 -4z"/>
 <path d="M406 1682 c-3 -5 5 -19 18 -31 15 -15 26 -19 31 -12 6 10 0 15 -16 13 -4 -1 -6 6 -5 15 1 18 -19 29 -28 15z"/>
 <path d="M1731 1676 c-7 -8 -8 -17 -3 -20 6 -3 15 1 21 8 7 8 8 17 3 20 -6 3 -15 -1 -21 -8z"/>
 <path d="M2130 1675 c-13 -15 -10 -50 4 -50 12 0 27 53 16 60 -4 3 -13 -2 -20 -10z"/>
 <path d="M2176 1671 c-10 -11 -13 -22 -8 -25 5 -3 15 1 22 9 12 14 15 14 30 0 10 -9 21 -12 24 -7 3 5 -1 15 -9 22 -8 7 -15 9 -15 5 0 -4 -6 -2 -13 4 -11 8 -18 6 -31 -8z"/>
 <path d="M2271 1676 c-7 -8 -8 -17 -3 -20 6 -3 15 1 21 8 7 8 8 17 3 20 -6 3 -15 -1 -21 -8z"/>
 <path d="M2627 1667 c-12 -12 -25 -22 -29 -22 -5 0 -8 -3 -8 -7 0 -5 0 -11 0 -14 0 -4 7 -1 15 6 8 7 15 9 15 5 0 -3 12 3 27 14 24 20 28 20 44 6 10 -10 20 -12 23 -7 7 12 -19 35 -45 39 -11 2 -29 -7 -42 -20z"/>
 <path d="M2726 1681 c-7 -11 12 -25 34 -26 21 0 41 15 34 27 -3 5 -12 4 -20 -3 -11 -9 -17 -9 -28 0 -9 8 -16 8 -20 2z"/>
 <path d="M1686 1651 c-11 -12 -14 -21 -7 -26 10 -6 14 0 13 16 -1 3 5 6 13 6 8 0 12 -4 9 -8 -2 -4 0 -10 5 -13 18 -12 20 12 2 28 -16 15 -19 15 -35 -3z"/>
 <path d="M1781 1656 c-7 -8 -8 -17 -3 -20 6 -3 15 1 21 8 7 8 8 17 3 20 -6 3 -15 -1 -21 -8z"/>
 <path d="M2316 1661 c-4 -5 -2 -12 4 -16 6 -4 8 -10 5 -15 -3 -5 -1 -11 4 -14 5 -4 12 -2 15 3 4 5 2 12 -4 16 -6 4 -8 10 -5 15 3 5 1 11 -4 14 -5 4 -12 2 -15 -3z"/>
 <path d="M2355 1661 c-3 -6 3 -15 14 -21 13 -7 22 -7 26 0 4 6 10 8 15 5 5 -3 11 -1 14 4 4 5 2 12 -3 15 -5 4 -12 2 -16 -4 -4 -7 -12 -7 -25 0 -12 6 -21 7 -25 1z"/>
 <path d="M1006 1652 c-3 -6 1 -15 8 -21 8 -7 17 -8 20 -3 3 6 -1 15 -8 21 -8 7 -17 8 -20 3z"/>
 <path d="M2475 1651 c-3 -6 3 -15 14 -21 12 -6 22 -6 26 -1 3 6 -3 15 -14 21 -12 6 -22 6 -26 1z"/>
 <path d="M1275 1640 c-7 -11 12 -23 24 -16 8 5 23 -17 25 -36 1 -5 4 -8 9 -8 4 0 10 0 13 0 4 0 1 7 -6 15 -7 8 -9 15 -6 15 4 0 2 8 -3 18 -10 19 -47 27 -56 12z"/>
 <path d="M2922 1634 c-16 -13 -15 -14 18 -18 20 -2 53 14 46 22 -12 11 -47 9 -64 -4z"/>
 <path d="M816 1631 c-4 -5 -2 -12 4 -16 6 -4 8 -10 5 -15 -3 -5 -1 -11 4 -14 5 -4 12 -2 15 3 4 5 2 12 -4 16 -6 4 -8 10 -5 15 3 5 1 11 -4 14 -5 4 -12 2 -15 -3z"/>
 <path d="M1616 1632 c-3 -6 1 -15 8 -21 8 -7 17 -8 20 -3 3 6 -1 15 -8 21 -8 7 -17 8 -20 3z"/>
 <path d="M1527 1612 c-11 -12 -13 -22 -6 -35 14 -25 32 -11 18 15 -7 13 -7 18 -1 14 6 -3 13 -2 16 3 11 18 -11 21 -27 3z"/>
 <path d="M334 1608 c-11 -18 14 -33 31 -18 8 7 13 15 10 18 -10 10 -35 10 -41 0z"/>
 <path d="M434 1607 c-7 -20 -2 -47 11 -50 14 -3 19 43 6 56 -7 7 -12 6 -17 -6z"/>
 <path d="M735 1601 c-7 -12 12 -24 25 -16 11 7 4 25 -10 25 -5 0 -11 -4 -15 -9z"/>
 <path d="M2395 1598 c-9 -22 -2 -68 10 -71 14 -3 19 63 6 76 -7 7 -12 5 -16 -5z"/>
 <path d="M2975 1601 c-7 -12 12 -24 25 -16 11 7 4 25 -10 25 -5 0 -11 -4 -15 -9z"/>
 <path d="M2067 1593 c-4 -6 0 -18 7 -28 8 -11 16 -14 19 -8 4 6 0 18 -7 28 -8 11 -16 14 -19 8z"/>
 <path d="M2585 1589 c-4 -6 -3 -15 3 -21 6 -6 8 -16 6 -23 -3 -7 -1 -16 5 -19 14 -9 25 14 13 26 -6 6 -8 16 -6 23 7 17 -12 29 -21 14z"/>
 <path d="M1369 1583 c-1 -2 -2 -6 -3 -10 -1 -5 -5 -13 -9 -20 -4 -6 -3 -14 3 -18 10 -6 11 -5 14 14 3 21 15 21 26 1 8 -15 15 -19 22 -12 15 15 -5 45 -31 47 -12 1 -22 0 -22 -2z"/>
 <path d="M1742 1577 c-12 -15 3 -61 18 -52 12 8 13 52 1 59 -5 3 -13 0 -19 -7z"/>
 <path d="M1850 1571 c-6 -12 -6 -22 -1 -26 6 -3 15 3 21 14 6 12 6 22 1 26 -6 3 -15 -3 -21 -14z"/>
 <path d="M2450 1571 c-6 -12 -6 -22 -1 -26 6 -3 15 3 21 14 6 12 6 22 1 26 -6 3 -15 -3 -21 -14z"/>
 <path d="M69 1576 c-1 -3 -2 -9 -3 -13 -1 -5 -5 -13 -9 -20 -4 -6 -3 -14 3 -18 5 -3 11 -4 11 -1 1 3 2 9 3 14 1 4 5 12 9 19 4 6 3 14 -3 18 -5 3 -11 4 -11 1z"/>
 <path d="M215 1570 c-4 -6 -3 -16 3 -22 6 -6 12 -6 17 2 4 6 3 16 -3 22 -6 6 -12 6 -17 -2z"/>
 <path d="M696 1572 c-4 -4 -12 -7 -17 -7 -5 0 -9 -3 -9 -7 0 -5 3 -8 7 -7 4 0 11 -9 15 -21 10 -27 28 -17 28 15 0 25 -12 39 -24 27z"/>
 <path d="M2667 1573 c-6 -12 0 -150 8 -162 4 -8 12 -8 25 -1 19 10 19 11 1 43 -10 17 -18 40 -18 49 0 20 23 32 32 17 4 -5 11 -7 16 -3 5 3 7 10 3 15 -3 5 -9 7 -14 4 -5 -3 -11 -1 -15 5 -4 6 -11 8 -16 5 -5 -3 -6 0 -3 8 6 16 -11 33 -19 20z"/>
 <path d="M2776 1550 c-13 -28 -13 -32 1 -37 12 -5 11 -8 -8 -19 -17 -8 -28 -9 -36 -2 -9 7 -14 6 -19 -5 -9 -24 5 -41 21 -27 10 9 16 6 25 -10 6 -11 15 -18 21 -15 5 4 7 10 4 15 -7 11 20 31 36 28 8 -2 13 7 13 22 0 14 -6 24 -12 23 -7 -2 -12 8 -12 21 0 37 -17 40 -34 6z"/>
 <path d="M1295 1557 c-7 -18 23 -70 36 -62 4 3 3 18 -3 33 -17 39 -26 48 -33 29z"/>
 <path d="M2175 1560 c-4 -6 -3 -16 3 -22 6 -6 12 -6 17 2 4 6 3 16 -3 22 -6 6 -12 6 -17 -2z"/>
 <path d="M2230 1551 c-6 -12 -9 -25 -6 -30 3 -5 -1 -14 -9 -21 -21 -17 -8 -32 16 -20 11 6 17 15 14 20 -3 5 0 18 7 29 9 15 10 23 1 32 -8 8 -14 6 -23 -10z"/>
 <path d="M284 1545 c-4 -8 -3 -22 0 -31 3 -8 2 -13 -3 -10 -5 3 -14 -1 -20 -8 -9 -10 -9 -16 -1 -21 6 -4 14 -4 17 -1 3 3 14 1 24 -4 12 -7 20 -7 24 0 3 6 -1 13 -10 16 -10 4 -12 10 -6 18 5 6 5 21 0 34 -10 26 -17 28 -25 7z"/>
 <path d="M2129 1556 c-1 -3 -2 -10 -3 -15 0 -5 -4 -13 -8 -17 -5 -4 -8 -25 -8 -46 0 -21 -3 -37 -7 -35 -5 1 -9 -1 -10 -5 -2 -5 -1 -7 0 -5 2 1 11 -4 19 -10 8 -7 18 -10 22 -6 4 4 14 8 22 8 7 0 13 5 11 10 -1 6 -7 9 -14 9 -8 -1 -9 5 -3 20 5 14 3 28 -6 41 -10 13 -11 22 -3 31 7 8 7 14 -1 19 -5 3 -11 4 -11 1z"/>
 <path d="M2891 1547 c-7 -7 -16 -12 -21 -12 -6 0 -9 -4 -7 -10 4 -16 38 -12 48 6 11 21 -3 33 -20 16z"/>
 <path d="M494 1538 c-6 -9 -4 -10 26 -11 11 -1 19 3 18 8 -4 12 -37 14 -44 3z"/>
 <path d="M2295 1540 c-4 -6 -3 -16 3 -22 6 -6 12 -6 17 2 4 6 3 16 -3 22 -6 6 -12 6 -17 -2z"/>
 <path d="M94 1527 c-7 -20 -2 -47 11 -50 14 -3 19 43 6 56 -7 7 -12 6 -17 -6z"/>
 <path d="M575 1530 c-8 -13 13 -52 25 -45 9 6 2 43 -11 50 -4 3 -10 1 -14 -5z"/>
 <path d="M911 1521 c-8 -14 -7 -22 3 -30 15 -13 26 -5 26 20 0 26 -17 32 -29 10z"/>
 <path d="M1041 1526 c-15 -18 -1 -28 17 -13 8 6 17 11 19 10 1 -2 4 0 6 4 4 12 -32 11 -42 -1z"/>
 <path d="M768 1524 c-4 -3 -4 -12 -2 -19 4 -9 -2 -13 -21 -11 -18 2 -32 -4 -45 -22 -19 -24 -20 -26 -3 -45 17 -18 17 -19 -2 -16 -13 3 -21 -2 -23 -16 -6 -31 -18 -38 -40 -24 -16 10 -18 17 -11 30 6 11 5 20 0 24 -12 6 -33 -29 -24 -39 3 -3 0 -7 -8 -8 -8 0 -21 -2 -29 -2 -8 -1 -14 -8 -12 -15 1 -7 -2 -10 -7 -7 -12 7 -42 -34 -35 -46 3 -4 10 -6 15 -3 13 8 11 -9 -2 -22 -8 -8 -7 -13 2 -18 14 -9 51 34 42 49 -3 5 -1 6 6 2 6 -4 14 0 17 8 8 20 38 21 53 2 6 -7 9 -20 5 -29 -3 -8 -1 -18 5 -22 6 -3 15 5 21 20 5 14 14 24 19 20 16 -9 24 15 11 30 -9 10 -9 15 -1 15 6 0 17 -13 25 -28 11 -21 22 -28 42 -27 24 0 28 4 29 30 0 22 -4 29 -15 27 -12 -3 -12 -1 -3 9 10 10 9 16 -3 30 -9 10 -23 15 -31 12 -10 -4 -14 0 -12 13 2 10 0 24 -4 31 -4 6 -2 15 4 19 7 4 9 3 5 -4 -3 -6 -2 -13 4 -17 6 -3 13 2 17 12 6 15 8 12 13 -12 8 -44 25 -27 25 24 0 41 -12 60 -27 45z"/>
 <path d="M817 1523 c-4 -6 0 -18 7 -28 8 -11 16 -14 19 -8 4 6 0 18 -7 28 -8 11 -16 14 -19 8z"/>
 <path d="M2375 1520 c-4 -6 -3 -16 3 -22 6 -6 12 -6 17 2 4 6 3 16 -3 22 -6 6 -12 6 -17 -2z"/>
 <path d="M477 1513 c-2 -5 -3 -23 -1 -41 1 -24 -2 -32 -12 -28 -19 7 -26 -10 -9 -24 8 -7 20 -8 27 -4 7 5 16 9 21 9 10 0 10 6 -2 38 -6 16 -9 32 -6 37 3 5 1 11 -4 14 -5 4 -11 3 -14 -1z"/>
 <path d="M646 1501 c-10 -11 -13 -22 -8 -25 5 -3 17 3 26 13 10 11 13 22 8 25 -5 3 -17 -3 -26 -13z"/>
 <path d="M1206 1513 c-4 -5 -12 -8 -17 -8 -5 0 -9 -3 -9 -7 0 -8 3 -9 18 -7 4 1 12 2 17 3 13 1 19 20 8 23 -5 2 -13 0 -17 -4z"/>
 <path d="M1363 1507 c-4 -8 -16 -17 -26 -20 -23 -8 -12 -30 11 -23 10 3 24 1 32 -5 13 -9 13 -10 -2 -6 -9 3 -19 3 -23 -1 -4 -4 -11 -7 -16 -7 -5 0 -9 -3 -9 -7 0 -7 5 -10 13 -7 29 9 35 6 24 -12 -9 -14 -9 -21 1 -31 16 -16 31 -1 35 38 4 36 15 56 27 49 5 -3 11 -1 15 4 3 6 -4 15 -15 21 -11 6 -20 8 -20 5 0 -3 -9 -1 -19 5 -15 7 -22 7 -28 -3z"/>
 <path d="M1707 1514 c-9 -9 24 -55 34 -48 15 9 10 33 -10 43 -10 6 -21 8 -24 5z"/>
 <path d="M1839 1520 c0 -3 -2 -15 -5 -27 -5 -28 10 -38 27 -17 10 12 9 18 -4 32 -10 9 -17 14 -18 12z"/>
 <path d="M1886 1509 c-12 -34 -10 -54 4 -54 8 0 17 11 18 24 4 27 -15 53 -22 30z"/>
 <path d="M2568 1513 c-7 -14 -3 -33 6 -33 12 -1 17 28 6 35 -5 3 -10 2 -12 -2z"/>
 <path d="M2619 1516 c-1 -3 -2 -10 -3 -15 0 -5 -13 -19 -29 -31 -28 -22 -29 -44 -1 -33 8 3 14 2 12 -3 -4 -15 22 -55 33 -49 12 8 12 62 0 69 -10 7 -9 25 2 43 4 6 3 14 -3 18 -5 3 -11 4 -11 1z"/>
 <path d="M204 1496 c-3 -8 -3 -19 0 -25 4 -5 2 -12 -4 -16 -18 -11 0 -26 19 -15 13 6 17 17 13 35 -5 31 -20 42 -28 21z"/>
 <path d="M2868 1505 c0 -6 -2 -14 -2 -20 -1 -5 -7 -20 -14 -32 -8 -14 -9 -24 -2 -28 15 -9 29 3 25 23 -1 9 2 23 8 30 7 9 7 16 -1 24 -7 7 -13 8 -14 3z"/>
 <path d="M21 1466 c-23 -37 -26 -52 -12 -61 6 -3 17 10 27 30 9 19 20 33 24 30 5 -3 11 -1 15 4 3 6 -3 15 -14 20 -16 9 -23 6 -40 -23z"/>
 <path d="M1115 1490 c-9 -15 3 -30 19 -24 8 3 17 0 21 -5 3 -6 11 -9 16 -6 15 10 31 -5 20 -18 -10 -13 -11 -17 -11 -48 0 -11 -4 -18 -9 -14 -6 3 -15 -3 -21 -14 -7 -13 -7 -22 0 -26 6 -3 13 1 16 10 6 13 8 14 15 3 5 -7 6 -20 3 -30 -6 -19 11 -34 21 -18 5 8 13 6 25 -5 16 -15 20 -14 49 15 l31 32 0 -31 c0 -35 11 -45 34 -28 21 16 27 71 9 97 -13 19 -40 19 -28 0 3 -5 1 -11 -4 -14 -11 -7 -25 29 -16 43 3 5 1 12 -5 16 -6 4 -16 -6 -23 -22 -11 -26 -45 -38 -60 -23 -11 11 -15 60 -6 66 6 4 6 11 -2 20 -6 7 -15 11 -21 8 -5 -3 -15 0 -23 6 -8 7 -15 9 -15 5 0 -4 -6 -2 -14 4 -10 8 -16 9 -21 1z m155 -141 c0 -4 -9 -17 -20 -30 -12 -15 -19 -18 -18 -9 2 9 -3 14 -14 12 -22 -4 -23 7 -2 22 17 13 54 16 54 5z"/>
 <path d="M2418 1482 c-16 -18 -14 -67 3 -88 5 -6 7 -13 5 -15 -3 -2 3 -15 13 -28 11 -14 21 -19 24 -14 4 6 -2 22 -12 35 -13 16 -17 29 -10 39 8 13 10 12 13 -10 3 -24 16 -20 30 8 17 32 20 43 10 39 -3 -2 -10 5 -15 14 -17 31 -45 40 -61 20z m24 -44 c-7 -7 -12 -8 -13 -2 0 5 -2 18 -4 28 -3 18 -2 18 13 3 13 -13 14 -19 4 -29z"/>
 <path d="M2976 1491 c-7 -10 28 -43 37 -35 8 8 -11 44 -23 44 -5 0 -11 -4 -14 -9z"/>
 <path d="M950 1470 c-7 -14 -16 -18 -23 -13 -17 12 -57 10 -57 -2 0 -5 6 -10 13 -10 6 0 18 -4 25 -9 7 -4 19 -3 26 3 7 6 15 8 19 5 3 -3 10 3 16 15 7 12 7 22 2 26 -6 3 -15 -4 -21 -15z"/>
 <path d="M1006 1481 c-3 -5 -3 -16 0 -24 3 -8 0 -18 -6 -22 -8 -5 -6 -13 7 -27 10 -11 18 -23 18 -27 0 -3 5 -7 10 -7 6 -1 14 -2 19 -3 6 0 1 -7 -10 -15 -16 -12 -16 -15 -4 -19 8 -3 23 -8 33 -11 9 -3 16 -11 15 -18 -3 -15 31 -18 50 -5 10 8 10 13 -2 26 -21 23 -30 67 -16 76 8 5 6 12 -6 26 -20 22 -34 16 -34 -14 0 -34 -34 -32 -47 3 -6 17 -7 32 -1 38 5 5 3 14 -6 21 -9 7 -17 8 -20 2z"/>
 <path d="M1561 1472 c-9 -17 -6 -23 14 -36 14 -9 25 -15 26 -14 7 25 4 40 -11 53 -17 16 -19 15 -29 -3z"/>
 <path d="M1619 1485 c-10 -9 5 -66 16 -66 16 0 17 34 3 54 -8 10 -16 15 -19 12z"/>
 <path d="M1679 1486 c-1 -3 -2 -9 -3 -13 -1 -5 -5 -13 -9 -20 -4 -6 -3 -14 3 -18 5 -3 11 -4 11 -1 1 3 2 9 3 14 1 4 5 12 9 19 4 6 3 14 -3 18 -5 3 -11 4 -11 1z"/>
 <path d="M1948 1483 c-8 -18 -2 -93 7 -93 11 0 14 89 3 96 -4 2 -8 1 -10 -3z"/>
 <path d="M2895 1480 c-4 -6 -3 -16 3 -22 6 -6 12 -6 17 2 4 6 3 16 -3 22 -6 6 -12 6 -17 -2z"/>
 <path d="M1765 1471 c-7 -12 12 -24 25 -16 11 7 4 25 -10 25 -5 0 -11 -4 -15 -9z"/>
 <path d="M2045 1471 c-7 -12 12 -24 25 -16 11 7 4 25 -10 25 -5 0 -11 -4 -15 -9z"/>
 <path d="M144 1455 c-5 -11 -10 -13 -19 -5 -10 8 -15 8 -20 0 -9 -15 2 -43 15 -35 5 3 10 -1 10 -9 0 -21 -16 -20 -24 1 -6 15 -9 15 -28 -4 -23 -24 -18 -56 7 -47 20 8 29 -19 16 -45 -15 -27 1 -35 22 -10 22 25 43 24 50 -3 4 -12 9 -19 13 -15 4 3 15 2 26 -4 14 -7 23 -7 33 1 9 8 15 8 20 0 12 -20 25 1 14 22 -9 16 -8 31 2 62 7 23 14 46 14 51 0 6 4 15 8 22 4 6 3 14 -3 18 -10 6 -11 5 -14 -12 0 -5 -12 -26 -25 -48 -14 -22 -24 -47 -22 -57 1 -9 -2 -19 -6 -21 -5 -3 -10 6 -11 21 -1 15 -9 42 -18 60 -13 29 -18 31 -31 20 -14 -11 -16 -10 -11 15 6 30 -8 48 -18 22z m16 -63 c0 -5 -6 -16 -13 -26 -13 -17 -14 -18 -20 -2 -4 10 -3 15 3 11 6 -3 13 1 16 9 7 17 14 21 14 8z"/>
 <path d="M616 1462 c-3 -5 1 -17 8 -28 12 -16 16 -16 30 -5 15 13 14 26 -2 26 -4 0 -12 4 -19 8 -6 4 -14 3 -17 -1z"/>
 <path d="M2920 1424 c-28 -44 -13 -70 16 -27 21 32 26 51 14 58 -5 3 -18 -11 -30 -31z"/>
 <path d="M2265 1439 c-4 -5 -4 -22 0 -36 5 -23 4 -25 -9 -14 -12 10 -16 9 -24 -5 -9 -15 -13 -16 -26 -5 -9 7 -16 11 -16 7 0 -4 -11 0 -24 9 -31 20 -47 2 -39 -45 l5 -35 -20 25 -20 25 -12 -27 c-7 -15 -9 -35 -6 -45 7 -17 8 -17 21 0 8 12 15 14 20 7 3 -5 10 -8 15 -5 4 3 10 -5 13 -16 8 -31 27 -13 21 19 -4 20 0 33 15 46 18 16 21 17 21 4 0 -9 -7 -19 -16 -22 -15 -6 -14 -9 6 -31 24 -25 35 -25 35 1 0 7 3 13 6 11 3 -1 20 10 38 26 39 33 54 27 48 -19 -6 -43 1 -49 29 -23 l23 22 -19 27 c-21 30 -26 45 -11 36 5 -3 14 1 21 10 18 21 -3 43 -24 25 -12 -10 -18 -8 -31 13 -19 28 -30 32 -40 15z"/>
 <path d="M310 1409 c-6 -11 -9 -26 -7 -33 5 -14 34 -15 54 -3 6 4 14 3 18 -3 6 -10 0 -12 -47 -14 -26 -1 -41 -21 -16 -21 6 0 13 -6 16 -14 3 -8 0 -11 -7 -7 -14 9 -25 -19 -16 -41 6 -16 10 -14 30 11 13 17 22 33 20 36 -3 4 7 12 22 19 21 10 25 9 20 -3 -7 -18 9 -31 18 -16 5 7 12 5 21 -7 7 -10 14 -13 15 -8 1 6 3 15 4 20 2 6 3 16 4 24 1 7 7 11 16 7 9 -3 19 3 25 15 6 11 15 17 19 15 5 -3 16 3 25 13 10 11 13 22 8 25 -5 3 -17 -3 -27 -14 -10 -11 -21 -17 -26 -15 -4 3 -12 -3 -18 -12 -5 -10 -11 -16 -13 -13 -2 3 -12 18 -22 34 -13 20 -21 25 -29 17 -8 -8 -8 -14 1 -23 7 -7 12 -16 12 -22 0 -5 -3 -6 -7 -3 -3 4 -12 2 -20 -5 -11 -9 -13 -8 -11 2 2 8 -1 14 -7 15 -5 0 -16 4 -22 8 -7 5 -18 5 -25 1 -8 -5 -9 -2 -5 9 9 25 -10 30 -23 6z"/>
 <path d="M916 1411 c-13 -14 -14 -24 -7 -45 11 -26 25 -34 36 -17 3 5 1 12 -4 16 -7 3 -7 15 -1 30 12 31 -2 40 -24 16z"/>
 <path d="M1795 1421 c-7 -12 12 -24 25 -16 11 7 4 25 -10 25 -5 0 -11 -4 -15 -9z"/>
 <path d="M2737 1423 c-8 -14 -2 -53 8 -56 12 -3 17 51 5 58 -5 3 -11 2 -13 -2z"/>
 <path d="M823 1396 c-19 -19 -20 -26 -10 -35 8 -6 17 -8 20 -4 4 3 7 -10 7 -30 0 -26 6 -39 19 -47 24 -12 35 1 26 31 -7 21 -6 21 24 -2 23 -17 34 -20 42 -12 15 15 3 34 -16 26 -10 -3 -20 6 -30 31 -8 20 -19 35 -24 33 -5 -1 -16 6 -23 15 -12 16 -15 16 -35 -6z"/>
 <path d="M1406 1392 c-14 -27 -14 -31 3 -46 22 -20 27 -14 29 31 3 43 -14 50 -32 15z"/>
 <path d="M1641 1392 c-20 -29 -20 -30 -2 -46 13 -12 21 -14 26 -6 9 14 28 1 21 -16 -9 -24 10 -24 33 0 17 18 19 25 9 34 -7 6 -17 11 -23 12 -5 1 -12 4 -15 7 -3 2 0 3 7 1 6 -1 11 0 12 5 1 4 -1 6 -3 5 -2 -2 -13 5 -24 15 -19 18 -20 17 -41 -11z"/>
 <path d="M2996 1392 c-8 -16 -13 -32 -9 -35 11 -11 43 13 43 33 0 31 -18 32 -34 2z"/>
 <path d="M1469 1406 c-1 -3 -2 -9 -3 -13 -1 -5 -5 -14 -10 -21 -4 -8 -2 -20 6 -29 7 -9 8 -14 2 -10 -7 4 -18 0 -25 -9 -11 -14 -15 -13 -30 7 -16 22 -17 22 -27 2 -9 -17 -7 -24 14 -44 14 -13 26 -24 27 -23 1 1 22 11 46 24 38 19 42 24 29 34 -9 7 -14 24 -13 44 1 18 -2 35 -7 38 -4 3 -9 3 -9 0z"/>
 <path d="M2027 1361 c-26 -55 -24 -63 10 -50 25 9 43 73 25 91 -7 7 -18 -6 -35 -41z"/>
 <path d="M1525 1390 c-4 -6 -3 -16 3 -22 6 -6 12 -6 17 2 4 6 3 16 -3 22 -6 6 -12 6 -17 -2z"/>
 <path d="M1900 1349 c-11 -24 -20 -38 -20 -31 0 22 -2 27 -12 40 -6 7 -16 9 -22 4 -13 -9 -37 -9 -52 0 -6 4 -22 -5 -36 -20 -21 -22 -24 -32 -17 -51 l10 -24 31 32 c33 33 41 32 78 -13 16 -18 17 -18 50 3 19 11 36 25 36 31 3 21 4 22 19 10 12 -10 16 -9 21 4 7 19 -14 49 -28 40 -5 -3 -15 0 -23 6 -12 10 -18 5 -35 -31z"/>
 <path d="M1550 1359 c-7 -11 -18 -18 -25 -15 -17 6 -30 -10 -15 -19 8 -5 7 -11 -1 -21 -9 -11 -9 -21 0 -40 12 -28 32 -25 24 4 -2 10 6 27 20 40 22 21 25 21 31 6 5 -14 9 -14 24 -3 15 13 16 12 4 -3 -8 -9 -11 -21 -8 -27 7 -11 43 -3 52 11 8 13 -25 48 -40 42 -7 -3 -18 7 -24 21 -14 30 -28 32 -42 4z"/>
 <path d="M2595 1372 c-8 -8 16 -43 26 -37 5 4 7 11 3 16 -3 5 -1 8 4 7 6 -2 9 1 9 7 -2 9 -34 15 -42 7z"/>
 <path d="M14 1338 c3 -17 6 -41 6 -55 0 -14 4 -21 10 -18 5 3 10 13 10 22 0 9 7 24 15 33 14 15 14 19 -1 31 -31 25 -47 20 -40 -13z"/>
 <path d="M2486 1361 c-4 -5 -2 -12 4 -16 6 -4 8 -10 5 -15 -3 -5 3 -14 14 -20 13 -7 22 -7 26 0 3 6 -1 13 -9 16 -9 3 -14 10 -11 14 3 4 -2 13 -9 19 -9 8 -16 8 -20 2z"/>
 <path d="M977 1333 c-11 -10 -8 -61 3 -68 13 -8 34 39 27 59 -7 17 -19 21 -30 9z"/>
 <path d="M2386 1333 c-10 -10 -7 -82 5 -104 12 -24 29 -16 22 10 -3 13 3 25 21 36 21 14 24 20 15 31 -9 11 -15 11 -25 3 -11 -9 -14 -8 -14 4 0 18 -14 30 -24 20z"/>
 <path d="M2941 1306 c-7 -8 -8 -17 -3 -20 6 -3 15 1 21 8 7 8 8 17 3 20 -6 3 -15 -1 -21 -8z"/>
 <path d="M2485 1300 c-4 -6 -3 -16 3 -22 6 -6 12 -6 17 2 4 6 3 16 -3 22 -6 6 -12 6 -17 -2z"/>
 <path d="M1965 1281 c-7 -12 12 -24 25 -16 11 7 4 25 -10 25 -5 0 -11 -4 -15 -9z"/>
 <path d="M2054 1276 c-4 -10 -2 -22 4 -28 8 -8 13 -7 18 6 4 10 2 22 -4 28 -8 8 -13 7 -18 -6z"/>
 <path d="M2736 1281 c-4 -6 -4 -16 0 -23 4 -6 3 -8 -4 -4 -6 3 -13 2 -16 -3 -12 -19 12 -20 29 -1 13 15 15 24 8 31 -8 8 -13 8 -17 0z"/>
 <path d="M184 1267 c-7 -20 -2 -47 11 -50 14 -3 19 43 6 56 -7 7 -12 6 -17 -6z"/>
 <path d="M3015 1270 c-4 -6 -3 -16 3 -22 6 -6 12 -6 17 2 4 6 3 16 -3 22 -6 6 -12 6 -17 -2z"/>
 <path d="M2926 1261 c-8 -12 31 -44 44 -36 15 9 1 27 -17 21 -8 -3 -11 -2 -8 3 3 5 1 12 -4 15 -5 4 -12 2 -15 -3z"/>
 <path d="M835 1250 c-4 -6 -3 -16 3 -22 6 -6 12 -6 17 2 4 6 3 16 -3 22 -6 6 -12 6 -17 -2z"/>
 <path d="M2847 1253 c-10 -9 -9 -51 2 -57 4 -3 16 3 25 13 15 16 15 19 -2 34 -10 10 -22 14 -25 10z"/>
 <path d="M2445 1170 c-3 -5 0 -13 8 -16 23 -8 92 0 92 11 0 14 -92 19 -100 5z"/>
 <path d="M2265 1160 c-8 -12 20 -24 35 -15 6 3 8 11 5 16 -8 12 -32 12 -40 -1z"/>
 <path d="M2355 1161 c-3 -5 -2 -12 3 -15 12 -7 62 -1 65 9 3 11 -61 17 -68 6z"/>
 <path d="M2566 1163 c-4 -4 1 -14 11 -23 10 -8 16 -14 14 -13 -2 1 -12 -2 -22 -7 -13 -8 -17 -19 -15 -44 4 -40 14 -59 26 -51 9 5 6 37 -4 54 -3 4 6 18 19 31 13 13 22 27 19 31 -9 15 -41 29 -48 22z"/>
 <path d="M2125 1150 c-3 -5 -2 -11 2 -13 14 -9 118 -1 116 8 -4 12 -111 16 -118 5z"/>
 <path d="M2186 1092 c-3 -6 1 -15 8 -21 8 -7 17 -8 20 -3 3 6 -1 15 -8 21 -8 7 -17 8 -20 3z"/>
 <path d="M2275 1041 c-9 -15 12 -23 53 -20 21 2 43 0 49 -4 6 -4 14 -3 18 3 6 10 5 11 -14 14 -5 0 -13 4 -17 9 -11 10 -82 9 -89 -2z"/>
 </g>
<g id="layer105" fill="#5e784b" stroke="none">
 <path d="M2175 1398 c-4 -9 -4 -21 -1 -26 6 -10 40 -9 44 1 1 4 0 6 -3 5 -2 -2 -11 6 -19 17 -13 18 -15 18 -21 3z"/>
 </g>
<g id="layer106" fill="#629e2a" stroke="none">
 <path d="M182 1673 c-18 -12 -25 -13 -37 -3 -13 10 -19 9 -36 -6 -27 -24 -43 -64 -31 -76 6 -6 18 1 31 18 14 18 21 22 21 11 0 -25 22 -32 37 -12 7 11 13 15 13 9 0 -5 7 -1 14 9 12 15 18 16 35 8 14 -8 22 -8 27 0 10 17 24 -10 24 -46 0 -17 -7 -41 -16 -53 -14 -20 -12 -27 9 -23 5 1 6 -3 2 -8 -3 -6 3 -14 13 -20 9 -5 18 -19 19 -32 3 -37 21 -46 33 -15 5 15 15 36 20 46 6 12 7 21 1 25 -6 3 -17 -7 -25 -22 -8 -15 -16 -26 -16 -23 -1 3 -3 12 -5 20 -2 8 -6 23 -10 32 -5 13 -1 16 18 14 13 -2 29 -6 35 -10 13 -8 36 40 27 55 -10 15 15 51 28 42 7 -5 18 -8 25 -7 6 1 16 2 21 3 16 2 43 52 36 68 -5 14 -9 13 -27 -6 -18 -21 -22 -21 -36 -7 -14 13 -18 13 -43 -5 -15 -11 -30 -29 -32 -42 -4 -19 -4 -18 -6 5 -1 33 -31 52 -83 52 -20 1 -40 4 -44 9 -10 10 -15 8 -42 -10z m148 -101 c0 -13 -4 -20 -10 -17 -5 3 -10 21 -10 38 0 24 3 28 10 17 5 -8 10 -25 10 -38z"/>
 <path d="M881 1665 c-13 -14 -21 -32 -17 -40 8 -21 22 -19 39 6 9 13 17 16 22 10 9 -15 35 -14 69 4 25 14 27 13 16 0 -10 -12 -10 -21 0 -46 11 -26 11 -35 -3 -59 -18 -29 -9 -47 22 -46 20 1 28 65 16 115 -5 20 -4 22 8 13 17 -15 28 -6 19 16 -5 15 -4 15 11 3 19 -15 23 -62 5 -58 -7 1 -12 -7 -12 -18 0 -11 5 -19 12 -17 7 1 12 -5 12 -13 0 -8 -3 -14 -7 -12 -5 1 -9 -2 -10 -8 -2 -5 1 -10 6 -10 5 0 13 -3 17 -7 4 -4 14 -2 22 5 11 8 14 8 9 0 -11 -19 9 -25 24 -7 11 14 10 18 -5 30 -22 16 -33 75 -13 71 8 -1 12 10 12 33 0 24 -5 35 -15 36 -8 1 -18 3 -22 4 -5 1 -12 3 -17 4 -5 0 -12 4 -16 8 -4 3 -20 2 -36 -2 -16 -5 -31 -5 -33 -1 -6 9 -33 7 -59 -4 -11 -4 -23 -3 -30 4 -15 15 -19 14 -46 -14z"/>
 <path d="M1569 1661 c-14 -14 -29 -35 -33 -46 -8 -19 -9 -19 -15 5 -9 32 -45 38 -73 13 -11 -10 -22 -17 -24 -15 -2 1 -4 -1 -3 -5 0 -5 6 -7 14 -5 7 1 16 -1 19 -6 2 -4 -7 -8 -21 -7 -32 0 -41 22 -17 39 10 8 15 20 11 30 -8 20 -36 21 -43 1 -5 -11 -10 -13 -19 -5 -10 8 -17 6 -28 -10 -8 -12 -17 -17 -21 -12 -8 13 -46 8 -56 -7 -5 -9 -10 -10 -14 -2 -12 19 -25 12 -42 -24 -22 -46 -24 -101 -4 -97 8 2 11 0 7 -5 -5 -4 -14 -8 -20 -8 -7 -1 -11 -7 -9 -14 1 -7 -5 -19 -14 -26 -10 -7 -14 -17 -10 -24 6 -9 13 -8 29 6 11 10 17 13 14 6 -8 -14 9 -28 17 -14 3 5 -1 14 -9 21 -21 18 -19 27 8 25 35 -3 59 -17 53 -31 -3 -7 -1 -16 5 -19 5 -4 7 -10 4 -15 -3 -5 -1 -11 4 -15 13 -7 31 26 31 57 l1 23 14 -25 c14 -26 30 -30 30 -7 0 7 13 12 30 12 40 1 29 19 -12 20 -20 0 -38 7 -47 20 -14 19 -15 19 -22 2 -6 -16 -9 -12 -20 20 -17 48 -17 48 0 34 10 -9 16 -9 21 -1 4 6 16 8 28 4 30 -9 32 -11 18 -28 -17 -21 -8 -32 26 -31 25 2 28 5 30 39 1 43 6 51 25 40 18 -12 40 -11 57 1 12 8 13 6 9 -13 -8 -29 19 -43 37 -19 7 10 16 17 20 17 4 0 2 -7 -5 -15 -10 -12 -7 -17 14 -27 15 -6 25 -17 22 -24 -3 -8 -1 -16 4 -19 15 -9 31 5 23 18 -4 7 -6 22 -5 34 2 11 -2 24 -7 28 -19 11 -13 63 8 75 14 7 22 7 26 0 4 -6 11 -8 16 -5 5 4 9 1 9 -4 0 -14 -13 -14 -28 1 -15 15 -27 -14 -17 -39 6 -17 7 -17 20 0 13 18 14 18 26 -4 l12 -23 23 28 c13 15 24 24 24 20 0 -3 7 -1 15 6 12 10 15 10 15 -1 -1 -22 -28 -52 -40 -44 -11 7 -29 -35 -19 -45 15 -15 42 -4 51 22 11 31 23 36 32 12 9 -24 26 -6 26 27 0 35 32 73 49 56 15 -15 13 -48 -4 -71 -8 -10 -12 -23 -9 -28 8 -12 49 31 60 62 8 25 8 24 14 -8 7 -46 24 -41 28 9 3 41 -11 71 -32 68 -6 -1 -24 3 -39 9 -24 10 -33 9 -56 -7 -26 -18 -29 -19 -44 -4 -13 13 -19 14 -31 3 -9 -7 -16 -9 -16 -5 0 4 -6 2 -14 -4 -10 -9 -16 -8 -26 4 -12 14 -15 14 -31 -1 -11 -10 -19 -12 -19 -6 0 6 -8 15 -17 20 -14 7 -24 3 -44 -17z"/>
 <path d="M2187 1673 c-13 -13 -19 -14 -31 -4 -22 18 -31 -5 -13 -33 20 -30 54 -39 67 -18 9 16 9 16 10 0 0 -18 33 -42 44 -31 3 3 6 14 6 24 0 10 4 20 9 23 14 9 41 -4 41 -19 0 -7 7 -18 15 -25 12 -10 16 -8 23 11 l9 23 6 -23 c6 -24 27 -20 27 4 0 8 6 12 14 9 15 -6 50 42 41 56 -4 6 -18 2 -34 -10 -28 -19 -28 -19 -46 0 -10 11 -25 18 -34 15 -9 -2 -22 -1 -30 4 -8 5 -25 3 -43 -6 -26 -13 -31 -13 -47 1 -16 14 -19 14 -34 -1z"/>
 <path d="M633 1663 c-22 -15 -30 -43 -16 -56 3 -4 15 0 25 10 17 15 18 14 18 -20 0 -36 13 -56 25 -37 10 16 21 12 33 -14 14 -32 5 -71 -14 -56 -9 9 -15 6 -23 -8 -8 -15 -6 -23 8 -36 13 -11 21 -14 26 -7 6 11 -1 15 -20 11 -5 -1 -4 4 2 11 11 10 16 9 27 -6 13 -18 14 -17 29 11 8 16 18 28 21 27 3 -2 6 0 6 5 0 4 -4 7 -9 7 -5 0 -12 3 -16 7 -4 3 1 5 12 4 10 -2 23 1 30 6 7 5 14 5 18 -2 3 -6 11 -8 16 -4 5 3 7 10 3 15 -3 5 -2 8 3 7 4 -2 9 2 11 7 1 6 -2 11 -8 11 -5 1 -13 3 -17 4 -5 1 -11 2 -15 1 -11 -1 -10 17 1 23 5 3 12 -2 15 -11 5 -11 10 -13 17 -6 7 7 6 22 -5 47 -18 44 -49 48 -69 9 l-14 -26 -12 36 c-15 43 -27 53 -46 37 -9 -7 -15 -8 -20 0 -8 13 -15 12 -42 -7z m107 -101 c0 -3 -7 3 -15 14 -8 10 -14 28 -14 39 0 14 4 10 14 -14 8 -18 15 -36 15 -39z"/>
 <path d="M2062 1668 c-7 -7 -12 -21 -12 -32 -1 -19 -1 -19 -11 -3 -16 27 -58 22 -70 -10 -11 -29 -5 -58 11 -48 5 3 10 1 10 -5 0 -6 -8 -10 -17 -8 -10 2 -18 -1 -18 -7 0 -5 -4 -15 -8 -22 -4 -6 -3 -14 3 -18 10 -6 11 -5 14 17 2 24 26 19 26 -6 0 -34 18 -43 29 -14 6 13 10 19 10 15 1 -4 9 -3 20 2 11 6 21 26 25 51 4 24 11 39 19 37 7 -1 11 6 9 18 -7 47 -17 56 -40 33z"/>
 <path d="M2626 1660 c-16 -10 -35 -16 -43 -13 -9 4 -16 -3 -20 -16 -7 -26 -19 -27 -26 -2 -6 26 -54 25 -69 -2 -8 -16 -7 -23 6 -32 20 -15 21 -29 2 -22 -8 3 -17 3 -21 -1 -4 -4 -12 -7 -18 -7 -7 0 -12 -6 -12 -14 0 -18 35 -23 41 -6 3 7 16 12 29 11 22 -1 24 -4 19 -38 -5 -29 -3 -38 13 -46 22 -12 46 -11 53 2 3 5 -3 10 -13 12 -33 5 -32 14 1 10 17 -2 34 -1 37 2 15 16 37 7 51 -19 8 -16 19 -27 24 -24 7 4 6 13 0 25 -7 14 -6 20 7 24 11 5 13 10 6 17 -8 8 -17 8 -31 0 -14 -7 -23 -8 -27 -1 -4 6 -11 8 -16 4 -6 -3 -9 9 -7 30 1 20 6 36 10 36 5 0 13 11 18 25 11 29 26 32 52 8 14 -12 21 -14 30 -5 8 8 14 7 24 -6 12 -16 13 -16 19 1 12 29 26 19 23 -15 -2 -24 1 -33 12 -33 8 0 16 10 18 23 5 30 36 46 52 27 7 -8 16 -12 21 -9 14 8 11 36 -7 55 -13 14 -21 16 -41 8 -17 -6 -30 -6 -39 1 -9 8 -18 8 -33 1 -14 -8 -22 -8 -26 -1 -5 8 -11 7 -20 0 -8 -7 -20 -8 -27 -4 -24 15 -43 13 -72 -6z"/>
 <path d="M533 1638 c-21 -34 -33 -62 -33 -80 0 -13 -5 -18 -14 -15 -23 9 -26 -3 -9 -30 15 -23 18 -24 29 -9 6 9 18 15 25 14 8 -2 13 3 11 11 -3 12 0 12 12 2 12 -10 16 -9 24 6 5 10 7 24 5 31 -3 7 1 11 9 10 8 -2 12 5 10 22 -4 41 -10 50 -36 50 -14 0 -28 -6 -33 -12z"/>
 <path d="M2920 1631 c-6 -11 -3 -22 8 -34 14 -16 14 -18 2 -16 -9 2 -15 0 -15 -6 0 -13 26 -13 44 0 12 8 13 5 8 -14 -7 -27 9 -65 24 -56 5 4 6 11 3 17 -4 7 -2 8 5 4 22 -14 22 24 -1 70 -24 51 -60 66 -78 35z"/>
 <path d="M2294 1587 c-8 -21 -1 -52 11 -52 6 0 25 -15 44 -32 19 -18 38 -30 42 -28 11 8 5 61 -10 78 -13 17 -36 13 -26 -4 4 -5 2 -9 -4 -9 -5 0 -12 9 -16 19 -3 11 -12 25 -20 31 -12 10 -16 9 -21 -3z"/>
 <path d="M217 1584 c-3 -5 3 -20 12 -33 11 -14 21 -19 25 -13 3 5 -2 20 -12 33 -11 12 -21 18 -25 13z"/>
 <path d="M427 1583 c-4 -6 0 -18 7 -28 8 -11 16 -14 19 -8 4 6 0 18 -7 28 -8 11 -16 14 -19 8z"/>
 <path d="M957 1583 c-12 -19 -10 -90 3 -113 12 -22 12 -24 -2 -12 -12 10 -17 10 -25 0 -8 -12 -9 -19 -4 -45 0 -4 18 10 40 31 24 24 41 34 46 27 3 -6 11 -9 16 -5 5 3 7 10 3 15 -3 5 -9 7 -14 4 -5 -3 -11 -1 -15 5 -4 6 -11 8 -16 5 -5 -4 -9 14 -9 39 0 41 -12 67 -23 49z"/>
 <path d="M2145 1570 c-4 -6 -3 -16 3 -22 6 -6 12 -6 17 2 4 6 3 16 -3 22 -6 6 -12 6 -17 -2z"/>
 <path d="M2191 1566 c-8 -10 -9 -16 -1 -21 5 -3 10 -17 10 -30 0 -40 48 -55 76 -24 17 19 13 34 -9 34 -6 0 -14 11 -17 24 -6 28 -42 38 -59 17z"/>
 <path d="M885 1560 c-4 -6 -3 -16 3 -22 6 -6 12 -6 17 2 4 6 3 16 -3 22 -6 6 -12 6 -17 -2z"/>
 <path d="M2864 1558 c-5 -7 -7 -26 -6 -43 l2 -30 -15 27 c-10 17 -21 25 -30 22 -9 -4 -22 0 -31 7 -14 11 -18 11 -29 -4 -16 -22 -23 -22 -21 0 1 11 -7 17 -21 17 -13 0 -23 -4 -23 -9 0 -6 6 -10 13 -10 6 0 12 -5 12 -10 0 -6 12 -24 28 -40 27 -29 28 -30 33 -8 4 13 13 21 24 20 13 -1 16 -5 10 -13 -14 -16 0 -25 22 -13 23 13 43 2 29 -15 -15 -18 -2 -27 20 -15 16 8 17 13 8 31 -9 17 -8 23 4 30 14 7 14 11 0 38 -16 34 -19 35 -29 18z"/>
 <path d="M395 1550 c-8 -14 23 -63 35 -55 4 3 2 19 -7 35 -16 33 -19 35 -28 20z"/>
 <path d="M1459 1558 c-7 -25 -2 -71 8 -79 7 -7 13 -8 13 -4 0 5 8 1 19 -9 16 -15 19 -15 31 -1 13 16 12 17 -17 19 -30 2 -41 15 -38 41 1 14 -2 28 -6 31 -5 3 -9 4 -10 2z"/>
 <path d="M204 1536 c-8 -21 3 -49 16 -41 5 3 10 15 10 25 0 25 -18 36 -26 16z"/>
 <path d="M1301 1536 c-7 -8 -8 -17 -3 -20 6 -3 15 1 21 8 7 8 8 17 3 20 -6 3 -15 -1 -21 -8z"/>
 <path d="M1629 1547 c-5 -25 -4 -33 4 -44 5 -7 7 -13 3 -13 -4 0 1 -14 10 -31 11 -22 19 -28 26 -21 8 8 8 15 -1 26 -9 11 -9 14 1 12 7 0 14 4 15 9 2 6 -7 10 -20 10 -16 0 -22 6 -22 22 0 20 -13 45 -16 30z"/>
 <path d="M1875 1526 c-22 -16 -12 -36 15 -29 27 7 33 18 17 32 -10 8 -18 7 -32 -3z"/>
 <path d="M845 1522 c-3 -3 1 -12 8 -20 8 -11 8 -14 0 -9 -18 11 -25 -9 -7 -24 33 -27 68 -14 44 16 -12 15 -11 16 10 19 6 0 11 5 13 10 2 10 -59 16 -68 8z"/>
 <path d="M2433 1517 c-8 -12 28 -40 38 -30 4 5 9 14 11 22 4 16 -40 23 -49 8z"/>
 <path d="M45 1511 c-3 -6 3 -15 14 -21 12 -6 22 -6 26 -1 3 6 -3 15 -14 21 -12 6 -22 6 -26 1z"/>
 <path d="M1504 1509 c-2 -4 0 -10 6 -14 5 -3 10 -3 10 1 0 3 6 1 14 -5 10 -9 16 -9 21 -1 4 6 4 14 1 18 -9 9 -46 10 -52 1z"/>
 <path d="M597 1503 c-4 -6 0 -18 7 -28 8 -11 16 -14 19 -8 4 6 0 18 -7 28 -8 11 -16 14 -19 8z"/>
 <path d="M1920 1490 c-6 -11 -8 -20 -5 -20 3 0 1 -9 -5 -19 -12 -24 5 -39 18 -15 5 9 12 15 15 15 17 -2 19 0 8 13 -8 10 -9 16 -1 21 11 7 4 25 -10 25 -5 0 -14 -9 -20 -20z"/>
 <path d="M2164 1496 c-4 -10 -2 -22 4 -28 8 -8 13 -7 18 6 4 10 2 22 -4 28 -8 8 -13 7 -18 -6z"/>
 <path d="M3006 1501 c-4 -5 -2 -13 4 -16 8 -5 8 -11 1 -19 -8 -9 -4 -19 14 -36 27 -26 31 -17 13 27 -6 15 -12 31 -12 35 -2 13 -14 19 -20 9z"/>
 <path d="M1086 1492 c-3 -6 1 -15 8 -21 8 -7 17 -8 20 -3 3 6 -1 15 -8 21 -8 7 -17 8 -20 3z"/>
 <path d="M1755 1490 c-10 -17 12 -37 25 -24 8 8 6 15 -4 23 -10 9 -16 9 -21 1z"/>
 <path d="M2285 1490 c-4 -6 -3 -16 3 -22 6 -6 12 -6 17 2 4 6 3 16 -3 22 -6 6 -12 6 -17 -2z"/>
 <path d="M2007 1478 c-17 -9 -18 -11 -1 -29 19 -21 34 -17 34 11 0 25 -11 31 -33 18z"/>
 <path d="M202 1467 c-10 -11 -9 -17 3 -27 22 -18 39 0 22 24 -11 15 -15 16 -25 3z"/>
 <path d="M464 1466 c-4 -10 -2 -22 4 -28 8 -8 13 -7 18 6 4 10 2 22 -4 28 -8 8 -13 7 -18 -6z"/>
 <path d="M2421 1456 c-19 -20 -19 -36 0 -36 12 0 39 49 30 54 -4 3 -18 -5 -30 -18z"/>
 <path d="M637 1463 c-4 -6 0 -18 7 -28 8 -11 16 -14 19 -8 4 6 0 18 -7 28 -8 11 -16 14 -19 8z"/>
 <path d="M395 1450 c-4 -6 -3 -16 3 -22 6 -6 12 -6 17 2 4 6 3 16 -3 22 -6 6 -12 6 -17 -2z"/>
 <path d="M350 1431 c-6 -12 -6 -22 -1 -26 6 -3 15 3 21 14 6 12 6 22 1 26 -6 3 -15 -3 -21 -14z"/>
 <path d="M2494 1436 c-4 -10 -2 -22 4 -28 8 -8 13 -7 18 6 4 10 2 22 -4 28 -8 8 -13 7 -18 -6z"/>
 <path d="M2696 1442 c-3 -6 1 -15 8 -21 8 -7 17 -8 20 -3 3 6 -1 15 -8 21 -8 7 -17 8 -20 3z"/>
 <path d="M374 1406 c-4 -10 -2 -22 4 -28 8 -8 13 -7 18 6 4 10 2 22 -4 28 -8 8 -13 7 -18 -6z"/>
 <path d="M1465 1390 c-4 -6 -3 -16 3 -22 6 -6 12 -6 17 2 4 6 3 16 -3 22 -6 6 -12 6 -17 -2z"/>
 <path d="M95 1380 c-4 -6 -3 -16 3 -22 6 -6 12 -6 17 2 4 6 3 16 -3 22 -6 6 -12 6 -17 -2z"/>
 </g>
<g id="layer107" fill="#4e9d44" stroke="none">
 <path d="M2599 1568 c-11 -42 -16 -128 -8 -134 10 -6 39 49 39 75 0 11 -5 23 -10 26 -6 4 -8 10 -5 15 3 5 1 11 -5 15 -5 3 -10 5 -11 3z"/>
 <path d="M2919 1523 c-14 -33 -18 -53 -11 -63 5 -8 6 -25 1 -37 -5 -14 -3 -25 6 -33 17 -14 28 2 32 50 1 19 5 54 8 77 7 60 -11 63 -36 6z"/>
 <path d="M104 1515 c-8 -20 0 -70 11 -70 6 0 16 -4 23 -8 6 -5 13 -5 13 0 3 23 0 76 -6 81 -11 12 -36 10 -41 -3z"/>
 <path d="M2135 1520 c-4 -6 -3 -16 3 -22 6 -6 12 -6 17 2 4 6 3 16 -3 22 -6 6 -12 6 -17 -2z"/>
 <path d="M2972 1474 c-12 -25 -10 -84 3 -84 14 -1 29 80 17 92 -7 7 -13 4 -20 -8z"/>
 <path d="M708 1473 c-7 -14 -3 -33 6 -33 12 -1 17 28 6 35 -5 3 -10 2 -12 -2z"/>
 <path d="M2765 1470 c-4 -6 -3 -16 3 -22 6 -6 12 -6 17 2 4 6 3 16 -3 22 -6 6 -12 6 -17 -2z"/>
 <path d="M1375 1461 c-7 -12 12 -24 25 -16 11 7 4 25 -10 25 -5 0 -11 -4 -15 -9z"/>
 <path d="M2446 1462 c-8 -13 9 -67 20 -64 13 3 11 65 -3 69 -6 2 -14 0 -17 -5z"/>
 <path d="M904 1435 c-4 -8 -3 -23 2 -32 4 -10 8 -21 8 -25 1 -5 4 -8 9 -8 4 0 10 0 13 0 4 0 2 6 -5 13 -8 10 -7 17 1 25 12 12 4 42 -12 42 -6 0 -13 -7 -16 -15z"/>
 <path d="M774 1423 c-3 -10 -11 -28 -16 -40 -6 -12 -8 -31 -5 -42 7 -27 5 -27 -22 9 -12 17 -18 29 -12 28 5 -2 8 1 8 7 -3 16 -39 13 -44 -4 -17 -57 -48 -65 -51 -13 -2 19 -6 40 -9 45 -9 15 -33 -22 -26 -41 4 -10 2 -13 -5 -8 -7 4 -15 -1 -20 -13 -4 -11 -11 -21 -17 -23 -5 -2 -11 -7 -11 -13 -1 -5 -2 -14 -3 -19 0 -6 -7 -1 -15 9 -12 16 -16 17 -30 6 -23 -20 -44 2 -44 45 0 40 -14 60 -32 49 -7 -4 -10 -19 -6 -36 6 -30 -8 -49 -18 -24 -3 8 -12 12 -19 9 -8 -3 -17 1 -20 9 -3 9 -16 13 -31 12 -17 -2 -26 2 -26 10 0 31 -21 24 -35 -12 -9 -21 -20 -45 -25 -54 -6 -12 -3 -22 14 -38 26 -24 36 -19 30 15 -5 29 7 31 31 4 15 -17 21 -18 34 -7 22 18 71 15 103 -7 17 -11 35 -15 48 -11 11 4 20 3 19 -2 -4 -22 4 -21 41 2 45 28 96 34 87 10 -10 -23 10 -27 26 -5 11 15 22 19 43 16 16 -3 35 -2 43 3 17 11 68 -17 74 -40 3 -10 14 -15 28 -14 13 1 22 6 20 11 -1 5 -7 8 -11 7 -10 -3 -24 36 -16 44 3 3 12 0 21 -7 8 -7 27 -10 43 -7 29 6 56 -5 58 -23 1 -5 2 -13 3 -17 0 -3 10 2 21 12 16 15 30 17 89 11 69 -7 70 -7 85 21 l15 28 1 -37 c0 -21 -3 -37 -7 -35 -5 1 -9 -3 -10 -8 0 -5 3 -9 8 -8 5 2 8 -1 7 -6 -6 -18 15 -15 26 4 6 11 12 22 13 24 2 2 17 4 35 5 28 1 34 6 42 34 7 26 6 36 -6 49 -14 14 -17 13 -29 -12 -18 -37 -31 -34 -44 10 -12 42 -29 50 -33 17 -3 -22 -5 -22 -16 -6 -11 15 -15 13 -35 -20 -24 -38 -41 -44 -22 -8 13 25 14 79 2 86 -13 9 -32 -19 -29 -42 2 -11 0 -21 -4 -21 -27 -3 -35 4 -50 40 -18 43 -41 48 -46 11 -2 -12 -8 -20 -13 -16 -13 8 -59 -35 -59 -55 -1 -10 -7 -5 -16 12 -18 33 -22 33 -34 5 -8 -20 -9 -18 -9 14 -1 20 -5 39 -11 43 -9 6 -43 -49 -35 -57 2 -2 -5 -9 -15 -16 -18 -11 -19 -10 -10 14 13 33 13 81 0 89 -6 3 -13 -2 -16 -12z m-428 -107 c1 -7 -4 -13 -11 -13 -7 0 -10 8 -7 19 5 20 15 17 18 -6z"/>
 <path d="M2601 1422 c-7 -13 -7 -31 -1 -53 16 -56 13 -65 -15 -39 -14 13 -25 19 -26 14 0 -5 -4 1 -10 14 -9 25 -29 21 -29 -5 0 -13 -3 -13 -15 -3 -8 7 -15 11 -16 9 0 -2 -3 -13 -5 -24 -18 -80 -13 -106 17 -79 18 16 17 40 -2 29 -12 -8 -11 2 2 26 10 20 11 20 24 2 13 -17 14 -17 21 0 6 17 8 17 30 -4 13 -12 24 -19 24 -14 0 5 11 -2 25 -15 l26 -24 34 39 c19 21 36 46 37 54 0 9 4 -4 7 -29 7 -51 23 -56 31 -10 3 17 8 31 13 30 4 0 9 0 12 0 3 0 -2 14 -11 32 -15 29 -17 30 -30 14 -7 -10 -17 -15 -23 -12 -6 4 -18 -8 -27 -26 -20 -39 -45 -60 -57 -48 -5 4 -4 18 3 30 9 16 9 25 1 33 -6 6 -11 23 -11 38 0 35 -16 46 -29 21z"/>
 <path d="M2 1380 c2 -31 7 -54 13 -52 6 2 9 11 7 20 -2 15 -1 15 8 -1 6 -9 17 -15 23 -11 7 3 2 -3 -11 -13 -13 -10 -20 -22 -16 -25 8 -8 34 1 56 20 20 17 23 10 8 -18 -16 -30 8 -35 36 -9 14 13 33 24 42 24 12 0 17 10 19 37 4 50 -14 58 -32 14 -9 -20 -20 -36 -26 -36 -8 0 -8 4 1 15 6 8 9 19 6 24 -4 5 -2 12 4 16 6 4 8 11 4 16 -3 5 -10 7 -15 3 -5 -3 -7 -9 -4 -14 9 -15 -15 -22 -30 -10 -12 10 -16 9 -22 -6 -6 -17 -8 -17 -13 4 -3 13 -8 22 -11 20 -4 -2 -17 6 -29 17 l-21 19 3 -54z"/>
 <path d="M2415 1400 c-3 -5 -5 -34 -3 -62 1 -29 -1 -59 -5 -65 -10 -16 1 -36 14 -27 5 3 8 13 7 22 -2 11 4 17 16 17 27 0 28 40 4 88 -22 40 -24 42 -33 27z"/>
 <path d="M516 1393 c-4 -5 -13 -8 -19 -8 -15 0 -16 -35 -2 -36 6 0 15 -5 21 -10 18 -14 33 12 23 39 -9 24 -12 26 -23 15z"/>
 <path d="M1327 1384 c-3 -5 -7 -36 -8 -69 l-4 -59 53 3 c40 2 52 -1 52 -12 0 -8 6 -20 14 -27 12 -9 17 -7 28 9 7 12 22 21 34 21 31 0 35 9 18 42 -10 20 -20 28 -31 24 -13 -6 -14 -4 -3 9 9 11 10 19 2 27 -16 16 -34 -1 -28 -27 3 -13 2 -27 -4 -30 -6 -4 -11 6 -12 22 -2 42 -3 47 -12 62 -15 24 -47 -28 -34 -54 10 -17 9 -18 -4 -8 -8 7 -18 10 -22 6 -4 -4 -5 -1 -2 7 6 17 -28 67 -37 54z"/>
 <path d="M1635 1371 c-11 -13 -16 -30 -13 -46 7 -35 -8 -31 -28 7 l-17 32 -18 -23 c-13 -16 -19 -39 -19 -72 0 -34 -4 -48 -12 -47 -7 2 -13 -3 -13 -11 0 -8 8 -15 19 -17 12 -2 22 7 29 27 7 19 17 27 27 25 8 -3 88 -8 178 -12 89 -4 162 -10 162 -14 0 -12 -200 -70 -314 -92 -148 -27 -145 -26 -122 -43 10 -8 47 -24 82 -35 l63 -21 103 32 c57 17 184 58 284 89 99 32 198 58 219 58 21 0 44 6 49 14 6 8 29 21 51 29 36 13 41 19 49 62 13 68 -5 83 -33 28 -23 -44 -32 -53 -24 -22 3 10 0 29 -7 40 -13 26 -46 21 -70 -10 -12 -15 -18 -17 -27 -8 -10 10 -14 7 -22 -12 l-9 -24 -10 27 c-14 35 -45 31 -52 -7 l-5 -29 -18 28 c-20 30 -33 26 -40 -14 -4 -22 -4 -21 -6 6 -1 34 -24 63 -36 44 -3 -5 -3 -15 1 -22 4 -7 3 -8 -4 -4 -6 3 -16 -3 -23 -15 -11 -22 -12 -22 -25 9 -13 33 -28 40 -39 22 -5 -8 -11 -8 -19 -1 -15 13 -26 4 -26 -19 0 -10 -7 -24 -16 -31 -14 -12 -16 -10 -12 16 3 27 0 30 -27 31 -16 0 -36 -4 -43 -9 -7 -6 -12 -6 -10 -1 6 19 -17 16 -27 -3 -10 -20 -11 -20 -28 4 -10 13 -23 21 -28 17 -6 -3 -21 3 -33 15 -23 21 -23 21 -41 2z"/>
 <path d="M3040 1365 c-9 -11 -10 -19 -3 -26 8 -8 13 -5 18 11 9 28 2 35 -15 15z"/>
 <path d="M2944 1351 c-3 -3 -10 -7 -15 -7 -20 -3 -21 -4 -11 -16 10 -12 12 -19 12 -34 0 -4 7 0 17 7 9 8 18 13 20 12 1 -2 3 -1 3 2 0 3 0 8 0 11 0 4 -6 1 -14 -5 -10 -8 -16 -9 -21 -1 -7 12 -7 12 25 14 14 1 25 6 25 11 0 10 -32 15 -41 6z"/>
 <path d="M2877 1344 c-9 -10 22 -66 33 -59 6 4 4 18 -5 36 -17 31 -18 32 -28 23z"/>
 <path d="M2830 1301 c-6 -12 -6 -22 -1 -26 6 -3 15 3 21 14 6 12 6 22 1 26 -6 3 -15 -3 -21 -14z"/>
 <path d="M175 1291 c-7 -13 25 -72 36 -66 5 4 9 12 9 20 0 7 8 16 17 19 10 4 13 10 7 16 -13 12 -63 20 -69 11z"/>
 <path d="M2541 1278 c-5 -14 -17 -28 -26 -32 -9 -3 -13 -10 -10 -16 9 -14 41 5 56 31 8 15 8 24 0 32 -7 7 -13 3 -20 -15z"/>
 <path d="M2927 1279 c-9 -6 -15 -15 -12 -20 4 -5 10 -7 15 -4 8 5 25 -13 25 -27 0 -5 3 -8 8 -8 6 0 9 5 6 13 0 1 -2 10 -4 21 -5 28 -18 36 -38 25z"/>
 <path d="M2385 1240 c-4 -6 -3 -16 3 -22 6 -6 12 -6 17 2 4 6 3 16 -3 22 -6 6 -12 6 -17 -2z"/>
 <path d="M1295 1231 c-7 -12 12 -24 25 -16 11 7 4 25 -10 25 -5 0 -11 -4 -15 -9z"/>
 <path d="M2744 1228 c-6 -9 -4 -10 26 -11 11 -1 19 3 18 8 -4 12 -37 14 -44 3z"/>
 <path d="M2857 1212 c-19 -21 -22 -38 -8 -46 5 -3 16 6 26 20 21 32 6 53 -18 26z"/>
 <path d="M2426 1171 c-4 -6 -13 -8 -20 -5 -17 6 -31 -12 -16 -21 5 -3 16 -3 23 2 6 4 17 8 22 8 14 0 19 19 7 23 -6 2 -13 -1 -16 -7z"/>
 <path d="M2535 1171 c-7 -12 12 -24 24 -16 5 3 12 1 16 -5 4 -6 11 -8 16 -4 5 3 7 10 3 15 -3 5 -9 7 -14 4 -5 -3 -11 -1 -15 5 -8 13 -22 13 -30 1z"/>
 <path d="M2246 1161 c-4 -6 -13 -8 -20 -5 -17 6 -31 -12 -16 -21 5 -3 16 -3 23 2 6 4 17 8 22 8 14 0 19 19 7 23 -6 2 -13 -1 -16 -7z"/>
 <path d="M2095 1147 c-10 -8 -14 -16 -9 -19 14 -9 56 11 49 22 -8 13 -18 13 -40 -3z"/>
 <path d="M2145 1100 c-8 -12 20 -24 35 -15 6 3 8 11 5 16 -8 12 -32 12 -40 -1z"/>
 <path d="M2196 1072 c-3 -6 1 -15 8 -21 8 -7 17 -8 20 -3 3 6 -1 15 -8 21 -8 7 -17 8 -20 3z"/>
 </g>
<g id="layer108" fill="#6f9654" stroke="none">
 <path d="M1835 1530 c-4 -6 -3 -16 3 -22 6 -6 12 -6 17 2 4 6 3 16 -3 22 -6 6 -12 6 -17 -2z"/>
 <path d="M2183 1466 c-20 -25 -25 -78 -8 -74 6 2 10 8 10 13 0 6 4 16 8 23 5 6 5 12 1 12 -4 0 1 9 10 19 10 11 13 21 7 25 -5 3 -18 -5 -28 -18z"/>
 <path d="M589 1476 c-1 -3 -2 -12 -3 -18 0 -7 -7 -14 -13 -14 -7 -1 -15 -3 -18 -4 -3 -1 -9 -3 -15 -4 -17 -2 -11 -21 8 -21 22 -1 55 15 48 22 -3 4 -1 12 5 19 7 8 7 14 -1 19 -5 3 -11 4 -11 1z"/>
 <path d="M1815 1470 c-3 -5 -2 -10 2 -12 13 -7 33 -3 36 6 3 12 -31 17 -38 6z"/>
 <path d="M2235 1440 c-3 -5 -3 -10 1 -10 4 0 -3 -11 -16 -25 -20 -21 -21 -25 -7 -31 21 -8 39 4 35 24 -1 10 1 22 5 29 4 6 3 14 -2 17 -5 4 -12 2 -16 -4z"/>
 <path d="M1265 1400 c-4 -6 -3 -16 3 -22 6 -6 12 -6 17 2 4 6 3 16 -3 22 -6 6 -12 6 -17 -2z"/>
 <path d="M1215 1381 c-7 -12 12 -24 25 -16 11 7 4 25 -10 25 -5 0 -11 -4 -15 -9z"/>
 </g>
<g id="layer109" fill="#65ab47" stroke="none">
 <path d="M181 1645 c-22 -24 -24 -24 -37 -8 -13 17 -16 16 -43 -17 -32 -38 -44 -67 -31 -75 5 -3 18 7 29 21 13 17 21 21 21 12 0 -19 -34 -50 -51 -46 -7 2 -13 -1 -14 -7 0 -5 -7 -21 -14 -34 -9 -16 -10 -26 -2 -34 11 -11 20 3 25 40 2 13 12 18 32 18 32 0 45 -19 33 -50 -18 -47 -22 -61 -23 -80 -1 -11 -11 -30 -23 -42 -18 -18 -22 -19 -28 -6 -4 12 -9 13 -17 5 -8 -8 -15 -9 -25 -1 -11 9 -13 -12 -13 -118 l0 -130 138 -12 c264 -23 469 -32 722 -32 225 0 515 13 576 26 33 7 186 -52 210 -81 14 -17 24 -22 28 -15 4 6 11 9 16 6 5 -3 11 -1 14 4 3 5 25 4 50 -2 25 -6 43 -14 40 -19 -3 -4 3 -11 13 -15 10 -4 23 -14 30 -22 10 -14 12 -14 18 1 4 10 11 16 15 13 5 -3 11 -1 14 4 3 5 23 5 48 0 24 -5 87 -9 141 -9 73 1 97 -2 95 -12 -2 -6 2 -12 7 -13 6 0 16 -4 23 -8 7 -5 14 -2 18 7 7 19 103 23 122 4 8 -8 15 -8 24 -1 7 6 70 14 139 18 104 5 127 4 132 -8 8 -20 53 -14 49 7 -2 13 6 16 42 16 25 0 48 -5 51 -11 5 -7 12 -5 23 4 10 9 58 20 112 26 52 7 107 14 123 17 l27 6 0 191 c0 170 -2 189 -15 171 -8 -10 -15 -14 -15 -8 0 5 -6 19 -14 29 -13 18 -14 17 -30 -14 -10 -18 -20 -30 -23 -27 -3 3 -1 11 5 18 14 18 18 93 5 110 -11 14 -25 88 -17 88 3 0 14 -21 24 -46 16 -37 23 -44 34 -35 15 13 11 46 -8 71 -7 8 -18 28 -24 43 -7 15 -17 25 -22 22 -6 -4 -17 -1 -25 5 -15 13 -15 13 -29 -34 -3 -7 0 -18 6 -24 7 -7 5 -10 -8 -7 -11 2 -21 4 -23 4 -3 1 0 6 7 13 17 17 15 39 -7 67 -18 23 -20 24 -43 9 -22 -15 -25 -15 -35 0 -9 13 -15 15 -29 6 -15 -9 -21 -8 -31 5 -11 15 -12 15 -18 -1 -6 -15 -9 -15 -40 2 l-34 19 -18 -29 c-16 -27 -25 -34 -45 -32 -3 1 -12 -5 -18 -13 -15 -18 -5 -49 14 -42 8 3 16 -2 19 -12 5 -20 40 -22 59 -3 17 17 33 15 19 -2 -8 -10 -9 -16 -1 -21 5 -3 10 -21 10 -39 0 -29 28 -74 31 -50 1 5 2 20 2 34 2 17 8 25 21 25 22 0 33 20 17 30 -22 13 -10 24 13 13 14 -6 26 -20 28 -32 2 -13 9 -20 20 -18 10 1 25 -9 34 -23 l17 -26 28 33 c21 25 28 29 29 15 0 -9 -6 -16 -12 -15 -8 2 -13 -8 -13 -27 0 -21 4 -29 15 -27 12 3 13 1 3 -9 -16 -16 -16 -39 -3 -74 9 -24 12 -26 28 -14 16 13 16 13 0 -6 -12 -15 -14 -25 -7 -38 6 -9 8 -17 5 -17 -3 0 -17 20 -32 45 -14 25 -30 42 -35 39 -5 -3 -10 -35 -11 -72 l-1 -67 -6 55 c-7 60 -15 65 -40 26 l-17 -25 -1 32 c-1 36 -40 110 -54 101 -5 -3 -10 -38 -11 -77 l-2 -72 -3 60 c-5 68 -18 91 -32 54 -5 -13 -20 -34 -33 -47 -22 -20 -26 -21 -38 -7 -7 8 -18 15 -25 15 -7 0 -18 7 -26 16 -12 14 -14 14 -25 -1 -7 -9 -16 -16 -21 -15 -4 1 -10 -7 -13 -17 -3 -10 -10 -19 -17 -20 -7 -2 -10 3 -7 11 6 17 -22 41 -31 26 -7 -11 -36 -14 -33 -2 2 4 -1 8 -6 10 -5 1 -11 -12 -13 -30 -4 -42 -13 -49 -13 -10 0 39 -17 51 -29 19 -8 -21 -52 -42 -109 -53 -6 -1 -103 -31 -215 -67 -111 -35 -248 -79 -305 -96 l-102 -32 -55 17 c-30 10 -53 19 -51 21 2 2 48 13 102 24 106 22 311 84 332 102 8 7 9 14 3 20 -10 10 -399 38 -413 30 -5 -2 -8 -12 -8 -21 0 -9 -5 -24 -11 -32 -8 -12 -9 -10 -4 8 9 31 -11 52 -47 52 -23 0 -31 -6 -36 -22 -6 -23 -6 -23 -12 2 -5 22 -13 26 -59 30 -41 4 -54 2 -61 -10 -8 -12 -9 -11 -10 7 0 27 -18 40 -26 19 -3 -8 -17 -14 -33 -14 -36 1 -51 -8 -51 -33 0 -11 -4 -17 -10 -14 -5 3 -10 19 -10 35 0 31 -14 47 -25 30 -4 -7 -11 -7 -18 -2 -7 5 -43 6 -82 2 -38 -4 -75 -3 -82 2 -6 5 -31 8 -55 6 -37 -3 -43 -6 -46 -28 -2 -14 -8 -29 -14 -35 -7 -7 -8 1 -4 27 6 36 -6 59 -19 37 -4 -5 -14 -7 -24 -4 -35 15 -81 22 -87 14 -3 -5 -13 -5 -24 1 -15 8 -21 6 -28 -6 -8 -15 -12 -14 -28 11 -15 22 -20 25 -28 13 -6 -8 -18 -17 -26 -21 -8 -4 -25 -14 -38 -23 -20 -15 -22 -15 -16 -1 11 30 -7 40 -31 17 -25 -23 -50 -19 -66 12 -8 15 -14 17 -22 9 -15 -15 -27 -14 -27 3 0 7 -7 30 -16 51 -19 46 -40 35 -22 -12 10 -26 9 -34 -10 -57 l-21 -27 -3 28 c-2 15 -6 26 -9 23 -3 -3 -13 1 -22 8 -18 15 -25 7 -23 -30 1 -21 -1 -24 -11 -16 -7 6 -13 7 -13 3 0 -4 -7 -2 -15 5 -12 10 -16 10 -19 -1 -15 -47 -15 -47 -20 31 -1 8 -6 13 -11 10 -6 -3 -9 -9 -7 -15 2 -5 0 -7 -4 -2 -4 4 -19 -3 -32 -15 l-25 -23 12 22 c8 16 8 24 0 29 -7 4 -7 10 -1 16 6 6 8 17 5 25 -3 8 0 13 8 11 7 -2 14 6 16 17 8 41 13 48 26 37 7 -6 22 -9 32 -7 11 2 22 4 24 4 3 1 -6 12 -18 25 -13 14 -29 22 -36 20 -7 -3 -15 4 -18 16 -7 26 10 67 29 74 13 5 15 1 18 -31 1 -7 6 -12 11 -11 6 1 9 9 7 18 -2 8 9 -4 23 -27 14 -24 30 -43 36 -43 17 0 24 -4 40 -24 16 -20 17 -19 33 12 33 64 16 98 -26 50 l-28 -33 15 29 c14 30 11 51 -6 41 -5 -4 -9 1 -9 9 0 21 10 20 26 -1 12 -17 13 -17 19 -1 4 9 -1 30 -10 48 -12 24 -19 29 -29 21 -10 -8 -17 -7 -26 4 -7 9 -21 13 -31 10 -9 -3 -20 -1 -24 5 -9 15 -18 12 -44 -15z m2589 -74 c-12 -23 -25 -27 -35 -11 -3 5 -12 7 -20 3 -8 -3 -15 0 -15 5 0 6 14 9 30 7 21 -3 33 1 37 11 3 8 8 13 10 10 3 -2 0 -14 -7 -25z m83 -14 c-5 -25 -6 -26 -19 -10 -18 24 -17 31 4 35 22 5 21 7 15 -25z m-576 -354 c-3 -3 -11 -2 -17 2 -9 6 -9 10 1 16 14 8 27 -7 16 -18z m-1557 -23 c0 -5 -7 -10 -15 -10 -8 0 -15 5 -15 10 0 6 7 10 15 10 8 0 15 -4 15 -10z m1857 -31 l28 -10 -22 -17 c-24 -19 -32 -50 -19 -70 4 -7 5 -16 1 -20 -16 -17 -271 2 -330 24 -11 4 -26 16 -33 25 -7 10 -32 21 -57 25 -43 6 -59 20 -32 29 12 4 277 21 379 23 31 1 69 -3 85 -9z"/>
 <path d="M886 1639 c-20 -21 -27 -37 -24 -54 3 -13 1 -30 -3 -37 -7 -10 -9 -10 -9 2 0 9 -7 26 -16 38 -12 17 -19 20 -34 12 -15 -8 -17 -18 -13 -52 7 -52 -9 -43 -29 17 -9 24 -19 39 -28 37 -10 -2 -11 0 -2 11 10 11 9 17 -2 27 -20 15 -36 5 -36 -24 0 -12 -6 -30 -13 -40 -12 -16 -14 -16 -26 -3 -10 13 -9 17 8 27 24 12 27 33 8 49 -10 8 -19 4 -35 -19 -12 -16 -22 -35 -22 -42 0 -7 -5 -6 -13 4 -6 9 -23 16 -37 15 -20 -2 -25 -7 -25 -27 0 -15 6 -26 15 -26 32 -3 34 -5 20 -14 -19 -12 -20 -31 -2 -52 8 -9 11 -21 8 -27 -4 -5 -2 -12 4 -16 6 -3 13 1 17 11 5 14 8 13 24 -7 13 -17 21 -21 29 -13 8 8 7 14 -5 24 -21 17 -19 40 4 40 11 0 21 -9 25 -22 6 -22 7 -22 20 -5 9 12 12 31 9 53 -6 37 6 45 24 15 10 -15 8 -26 -7 -55 -23 -45 -6 -61 25 -22 12 14 24 23 28 20 4 -4 7 -32 7 -63 0 -64 29 -116 51 -94 9 9 9 17 -3 35 -18 29 -10 131 11 136 8 2 11 -3 8 -12 -4 -10 1 -20 13 -26 15 -8 21 -6 30 10 15 29 1 48 -17 24 -14 -19 -14 -19 -11 1 2 15 -2 20 -19 19 -17 -1 -23 4 -23 20 1 19 1 19 11 3 6 -9 14 -15 19 -12 5 3 11 1 15 -4 3 -6 12 -8 19 -5 8 3 17 0 21 -5 3 -6 11 -9 16 -5 6 4 6 11 -2 20 -6 7 -15 11 -20 8 -5 -3 -9 -1 -9 5 0 5 5 13 10 16 6 3 7 17 4 30 -8 34 10 38 39 10 28 -29 27 -56 -5 -91 -19 -22 -21 -77 -2 -72 5 2 8 7 6 12 -2 5 4 6 12 3 20 -8 31 10 16 28 -10 12 -8 13 9 10 12 -2 26 -7 31 -10 17 -11 32 5 19 21 -6 7 -15 12 -19 9 -5 -3 -11 -1 -14 4 -4 5 5 8 19 6 17 -1 29 4 36 16 9 18 5 24 -16 19 -5 -1 -1 8 9 19 11 12 15 21 10 21 -5 0 -2 5 8 10 29 18 56 -6 62 -55 1 -5 5 -16 9 -22 5 -7 6 -13 2 -13 -3 0 -1 -9 6 -21 8 -16 14 -18 22 -10 8 8 7 15 -5 27 -13 13 -14 21 -5 35 12 20 -1 90 -18 91 -5 0 -21 8 -35 17 -21 15 -29 16 -50 5 -20 -11 -26 -11 -32 0 -8 13 -31 14 -61 1 -9 -4 -23 -2 -30 3 -10 8 -20 4 -41 -19z m126 -21 c-7 -7 -12 -30 -13 -52 0 -39 -1 -39 -11 -16 -14 32 -11 52 10 68 20 15 30 16 14 0z m-409 -111 c4 3 7 1 7 -5 0 -6 -8 -10 -18 -9 -10 0 -19 7 -19 14 0 9 4 10 12 3 7 -5 15 -7 18 -3z"/>
 <path d="M1585 1661 c-3 -6 -4 -15 0 -20 3 -5 -8 -19 -25 -31 -16 -12 -30 -29 -30 -38 -1 -11 -6 -7 -16 11 -9 17 -21 26 -29 23 -8 -3 -17 -1 -20 4 -3 5 -12 7 -20 3 -9 -3 -15 1 -15 10 0 27 -22 31 -41 9 -14 -18 -18 -19 -23 -6 -10 27 -27 4 -21 -29 6 -32 6 -32 -12 -12 -26 29 -65 26 -73 -5 l-6 -25 -7 25 -7 25 -25 -30 c-14 -16 -25 -37 -25 -45 0 -8 -7 -28 -15 -44 -19 -36 -9 -53 18 -29 13 11 18 12 11 3 -16 -23 -12 -85 6 -86 27 -1 30 7 16 33 -12 23 -11 30 6 60 24 41 54 59 61 39 3 -8 -2 -21 -12 -30 -20 -18 -21 -50 -3 -68 7 -7 12 -10 13 -7 0 2 2 13 4 24 2 10 -2 26 -8 34 -10 12 -9 13 10 3 12 -7 25 -17 28 -22 9 -15 25 -2 18 15 -3 8 0 15 7 15 6 0 9 -4 6 -9 -3 -4 3 -16 13 -25 20 -18 39 -6 25 16 -5 7 -2 9 8 5 20 -7 38 11 31 32 -4 9 -3 13 2 9 4 -4 13 -4 19 2 8 6 12 2 14 -13 4 -42 8 -58 15 -57 4 0 7 3 6 7 0 3 6 10 15 15 14 8 12 14 -16 43 -24 26 -35 32 -45 23 -7 -6 -13 -7 -13 -2 0 5 -6 1 -13 -8 -20 -26 -52 -16 -52 16 -1 32 10 43 19 20 3 -8 10 -12 16 -9 6 4 8 10 5 15 -6 9 42 6 52 -4 3 -3 12 -1 19 5 15 12 21 3 27 -39 4 -30 68 -95 81 -82 6 6 3 16 -9 30 -23 26 -30 84 -11 100 13 10 16 7 22 -14 3 -13 4 -29 1 -33 -8 -12 60 -76 72 -69 12 8 -3 50 -28 79 -12 15 -12 21 -1 43 8 14 22 30 32 35 20 11 24 34 7 45 -6 3 -16 1 -22 -5 -8 -8 -17 -5 -33 10 -14 13 -24 17 -29 10z m-145 -75 c0 -9 -9 -14 -21 -13 -19 1 -19 2 -3 14 22 16 24 16 24 -1z m-96 -62 c9 -24 7 -31 -5 -11 -6 9 -15 14 -21 11 -7 -4 -8 -2 -4 4 10 17 23 15 30 -4z"/>
 <path d="M1806 1645 c-17 -14 -27 -30 -24 -41 2 -11 7 -17 12 -14 9 5 27 -31 35 -67 1 -5 8 0 15 10 13 17 14 17 18 -1 4 -13 14 -18 39 -17 29 1 34 4 34 25 0 18 -5 24 -17 22 -22 -4 -24 14 -3 22 18 7 19 28 3 44 -8 8 -15 9 -25 1 -8 -7 -13 -8 -13 -1 0 5 -10 16 -23 25 -21 13 -25 13 -51 -8z m44 -51 c0 -8 -4 -12 -10 -9 -5 3 -10 13 -10 21 0 8 5 12 10 9 6 -3 10 -13 10 -21z"/>
 <path d="M2195 1660 c-4 -6 1 -22 10 -36 l16 -25 -28 18 c-15 10 -33 24 -39 32 -15 19 -29 -3 -18 -27 4 -9 8 -26 8 -37 1 -13 7 -19 18 -17 9 1 19 -2 23 -8 4 -7 12 -7 25 0 15 8 23 5 39 -16 12 -15 21 -35 21 -45 0 -24 15 -32 29 -15 15 17 0 82 -18 79 -6 -2 -11 4 -11 12 0 9 -7 18 -15 21 -8 4 -15 14 -15 24 0 23 -36 55 -45 40z"/>
 <path d="M2271 1651 c-25 -19 -23 -58 2 -48 8 3 19 -4 25 -14 7 -10 15 -18 20 -18 18 3 24 -2 14 -14 -17 -20 14 -62 34 -46 7 6 11 15 8 20 -3 5 0 8 8 7 20 -4 15 62 -7 96 -16 24 -20 26 -30 13 -10 -14 -14 -14 -31 3 -18 19 -20 19 -43 1z"/>
 <path d="M392 1635 c-23 -24 -33 -59 -18 -62 9 -1 26 -26 28 -40 0 -5 9 -19 19 -32 11 -13 19 -29 19 -35 0 -7 6 -20 13 -30 13 -18 15 -18 40 -1 16 10 24 22 20 29 -4 6 -8 14 -8 19 0 10 -20 9 -20 -2 0 -24 -15 -20 -30 8 -10 20 -20 29 -28 25 -7 -4 -9 -4 -5 1 4 4 3 14 -3 21 -6 7 -6 14 -1 18 6 3 12 0 15 -7 3 -8 16 -13 29 -12 12 1 21 6 19 11 -1 5 -8 8 -14 6 -5 -2 -14 3 -18 10 -13 19 -11 28 5 22 17 -6 49 43 41 63 -5 14 -10 12 -33 -11 -28 -26 -45 -27 -36 -1 9 24 -11 24 -34 0z"/>
 <path d="M2421 1637 c-23 -26 -27 -42 -10 -52 14 -9 49 24 49 46 0 28 -15 30 -39 6z"/>
 <path d="M1735 1640 c-3 -6 -10 -8 -14 -5 -10 5 -45 -33 -54 -58 -4 -9 -10 -16 -14 -15 -4 2 -9 -1 -9 -7 -1 -5 2 -9 7 -7 5 1 9 -11 9 -26 0 -37 9 -46 30 -27 16 14 18 14 24 0 3 -9 10 -14 16 -10 13 8 5 71 -9 68 -5 -2 -8 4 -5 12 4 8 10 15 15 15 14 0 29 -45 23 -67 -3 -11 3 -26 14 -37 24 -21 38 -6 20 23 -10 17 -9 23 6 40 17 19 17 20 -3 30 -12 7 -21 23 -23 43 -3 32 -21 48 -33 28z"/>
 <path d="M2067 1643 c-3 -4 -8 -28 -13 -53 -7 -42 -8 -43 -13 -15 -5 23 -12 30 -34 32 -32 2 -53 -26 -34 -46 7 -7 8 -12 2 -11 -22 5 -27 -1 -15 -16 11 -12 11 -15 0 -12 -8 2 -15 -3 -16 -9 -1 -7 -2 -16 -3 -19 0 -4 -7 -1 -14 5 -8 6 -17 7 -21 3 -4 -4 -12 -7 -17 -7 -5 0 -9 -3 -9 -7 0 -5 0 -11 0 -14 0 -4 6 -2 13 3 11 8 19 9 44 4 3 0 -2 -10 -11 -20 -10 -10 -13 -22 -8 -25 11 -7 45 28 35 37 -3 4 -1 7 5 7 10 0 41 49 43 67 1 14 6 14 20 -3 11 -14 10 -18 -11 -34 -15 -12 -21 -23 -16 -35 6 -16 8 -16 32 0 15 9 24 13 21 7 -4 -5 4 -19 17 -31 27 -25 43 -14 26 18 -15 30 -13 78 5 78 12 0 28 -21 22 -31 -5 -8 26 -35 35 -30 6 4 8 -2 3 -15 -4 -14 0 -32 11 -49 10 -15 17 -29 17 -32 -3 -11 20 -29 29 -24 5 3 2 14 -8 25 -9 10 -13 19 -9 19 5 0 4 5 -3 12 -14 14 -16 32 -3 23 5 -3 13 0 16 5 5 8 13 6 26 -6 10 -9 19 -15 20 -13 0 2 2 21 3 42 2 41 -25 80 -40 56 -4 -7 0 -17 10 -24 15 -11 15 -13 0 -26 -31 -25 -72 -13 -45 14 15 15 14 42 -3 56 -10 9 -16 9 -21 1 -5 -8 -12 -7 -24 4 -10 9 -22 13 -26 9 -5 -5 -3 0 4 10 12 15 9 21 -11 18 -4 0 -6 11 -5 26 2 25 -16 43 -26 26z"/>
 <path d="M2467 1602 c-2 -4 -7 -20 -11 -35 -4 -19 -12 -27 -24 -25 -10 2 -16 -3 -14 -11 1 -7 -3 -20 -10 -28 -10 -12 -9 -18 6 -29 21 -15 62 -1 51 17 -4 5 -10 7 -15 4 -4 -3 -10 1 -13 8 -3 9 4 13 24 13 27 0 29 -3 29 -36 0 -45 7 -53 34 -37 11 6 28 12 36 12 20 0 16 75 -4 90 -8 6 -16 22 -18 35 -2 20 -10 25 -35 27 -18 2 -34 -1 -36 -5z"/>
 <path d="M915 1560 c-4 -6 -3 -16 3 -22 6 -6 12 -6 17 2 4 6 3 16 -3 22 -6 6 -12 6 -17 -2z"/>
 <path d="M500 1531 c-7 -14 -7 -22 1 -27 14 -8 43 21 35 35 -11 17 -24 13 -36 -8z"/>
 <path d="M1085 1500 c-7 -12 22 -33 35 -25 6 4 9 12 7 18 -4 13 -35 18 -42 7z"/>
 <path d="M1821 1486 c-13 -13 -18 -26 -13 -30 5 -3 19 5 31 18 13 13 18 26 13 30 -5 3 -19 -5 -31 -18z"/>
 <path d="M2625 1501 c-2 -5 6 -18 19 -30 26 -24 44 -14 28 16 -10 18 -39 26 -47 14z"/>
 <path d="M379 1488 c-1 -5 -2 -11 -3 -15 -1 -5 -4 -12 -7 -18 -9 -14 10 -60 20 -49 18 19 21 51 6 70 -8 10 -15 16 -16 12z"/>
 <path d="M2364 1476 c-4 -10 -2 -22 4 -28 8 -8 13 -7 18 6 4 10 2 22 -4 28 -8 8 -13 7 -18 -6z"/>
 <path d="M2585 1438 c-4 -9 -3 -23 1 -30 5 -7 9 -17 9 -23 0 -5 5 -12 10 -15 14 -7 13 49 -1 68 -12 16 -13 16 -19 0z"/>
 <path d="M2005 1400 c-4 -6 -3 -16 3 -22 6 -6 12 -6 17 2 4 6 3 16 -3 22 -6 6 -12 6 -17 -2z"/>
 <path d="M545 1390 c-4 -6 -3 -16 3 -22 6 -6 12 -6 17 2 4 6 3 16 -3 22 -6 6 -12 6 -17 -2z"/>
 <path d="M1571 1386 c-7 -8 -8 -17 -3 -20 6 -3 15 1 21 8 7 8 8 17 3 20 -6 3 -15 -1 -21 -8z"/>
 <path d="M2617 1353 c-8 -13 12 -55 23 -48 5 3 10 12 10 19 0 17 -27 40 -33 29z"/>
 </g>
<g id="layer110" fill="#7dc63a" stroke="none">
 <path d="M191 1628 c-5 -14 -17 -28 -25 -31 -9 -4 -17 -14 -17 -24 -1 -10 -4 -4 -8 12 -3 17 -11 30 -18 30 -15 0 -56 -61 -71 -105 -18 -51 1 -59 33 -13 l26 38 -1 -75 c-3 -96 -3 -95 15 -80 8 7 15 29 15 50 0 32 3 37 23 36 12 -1 27 -5 33 -9 17 -10 24 3 24 48 0 57 9 61 37 20 26 -38 44 -39 36 -2 -4 22 -4 22 12 2 10 -13 14 -30 11 -47 -7 -33 9 -46 23 -19 16 29 13 98 -5 132 -12 25 -18 28 -30 18 -8 -6 -14 -22 -14 -36 0 -14 -4 -22 -11 -18 -6 4 -7 19 -4 36 8 37 -2 54 -21 38 -11 -9 -19 -8 -34 6 -19 17 -20 17 -29 -7z"/>
 <path d="M961 1632 c-8 -14 -12 -15 -22 -4 -7 6 -19 12 -26 12 -20 0 -47 -61 -44 -100 2 -42 17 -61 27 -35 6 16 9 15 26 -6 18 -24 18 -24 34 -4 16 20 16 20 10 -2 -9 -29 9 -38 27 -12 10 14 17 17 22 9 5 -8 14 -4 29 15 l22 27 17 -26 c21 -31 37 -26 38 12 l0 27 10 -24 c15 -39 30 -12 21 39 -4 25 -11 43 -16 42 -4 -2 -20 8 -34 21 l-27 26 -22 -23 c-15 -16 -20 -30 -16 -47 4 -17 2 -21 -5 -14 -6 6 -12 23 -14 39 -4 36 -42 55 -57 28z"/>
 <path d="M1587 1644 c-4 -4 -7 -17 -7 -30 0 -34 -10 -53 -26 -47 -17 6 -29 -20 -19 -44 6 -17 8 -17 22 2 14 18 15 13 10 -61 -4 -45 -3 -84 0 -88 15 -15 33 20 33 65 0 27 4 49 10 49 15 0 62 100 56 117 -4 9 -13 13 -23 9 -11 -5 -23 0 -33 14 -9 11 -19 18 -23 14z"/>
 <path d="M2197 1644 c-10 -10 -9 -51 2 -72 5 -9 12 -25 15 -35 3 -10 10 -15 16 -12 13 8 13 -6 0 -39 -14 -39 4 -40 31 -2 13 19 29 34 34 34 6 1 12 10 15 22 5 21 6 20 26 -7 11 -15 23 -36 27 -46 12 -33 27 -7 27 46 0 55 -29 112 -44 88 -6 -9 -14 -8 -33 4 -23 15 -26 15 -43 0 -11 -10 -21 -31 -23 -49 l-4 -31 -2 30 c-2 33 -32 80 -44 69z"/>
 <path d="M2638 1627 c-29 -43 -31 -94 -7 -133 26 -42 43 -33 29 16 -15 51 -12 58 10 30 11 -14 20 -20 21 -15 1 6 5 -11 8 -38 7 -55 25 -67 29 -19 2 18 9 32 16 32 18 0 42 37 50 77 8 35 -7 52 -28 34 -10 -9 -15 -7 -21 6 -6 17 -7 17 -20 0 -12 -17 -13 -17 -20 0 -6 17 -7 17 -21 -1 -14 -19 -14 -19 -14 1 0 31 -16 36 -32 10z"/>
 <path d="M401 1617 c-6 -14 -15 -28 -21 -32 -6 -4 -10 -33 -9 -69 1 -37 -4 -70 -12 -83 -9 -16 -11 -30 -4 -49 11 -31 29 -35 33 -7 1 10 8 44 15 76 l12 59 22 -28 c29 -37 60 -38 79 -3 19 37 0 48 -20 12 -9 -16 -15 -21 -16 -12 0 8 5 20 11 26 15 15 7 118 -9 118 -7 0 -21 -13 -32 -30 l-20 -30 0 32 c0 40 -17 52 -29 20z"/>
 <path d="M1805 1610 c-32 -34 -28 -56 13 -71 19 -7 25 -4 39 26 16 34 16 36 -3 55 -20 20 -20 20 -49 -10z"/>
 <path d="M636 1606 c-9 -14 -16 -36 -17 -48 l0 -23 -10 23 c-6 15 -13 21 -21 15 -7 -4 -22 -8 -33 -8 -16 0 -20 -7 -20 -35 0 -19 -4 -41 -9 -48 -10 -17 17 -48 33 -38 14 9 14 43 1 51 -6 4 -5 13 2 25 11 18 15 15 41 -31 16 -28 33 -47 37 -42 4 4 13 31 21 58 10 41 14 46 19 27 7 -32 25 -28 25 6 0 16 -5 26 -12 25 -8 -2 -13 7 -13 21 0 13 -6 29 -14 35 -10 9 -17 6 -30 -13z"/>
 <path d="M711 1616 c-10 -11 -9 -22 4 -46 20 -40 40 -27 30 19 -8 37 -19 46 -34 27z"/>
 <path d="M1721 1604 c-22 -28 -28 -78 -11 -89 9 -5 50 72 50 94 0 22 -20 20 -39 -5z"/>
 <path d="M2080 1615 c-16 -19 0 -62 35 -95 l23 -22 11 21 c7 11 17 20 23 18 21 -4 20 32 -2 63 -26 37 -40 31 -41 -18 l-1 -37 -12 37 c-14 46 -20 52 -36 33z"/>
 <path d="M2832 1602 l-33 -27 16 -35 c26 -55 32 -65 44 -63 6 2 8 -3 5 -11 -3 -8 -1 -17 4 -20 6 -3 24 15 41 41 l31 46 0 -61 c0 -59 11 -85 26 -60 4 6 9 39 12 73 3 47 0 64 -12 74 -9 8 -16 10 -16 6 0 -4 -6 -2 -14 4 -10 9 -16 9 -21 1 -9 -15 -35 7 -35 31 0 29 -13 29 -48 1z m50 -88 c-9 -12 -19 -18 -20 -13 -6 16 5 36 21 36 13 0 13 -3 -1 -23z"/>
 <path d="M1397 1614 c-3 -4 1 -24 10 -47 13 -31 14 -46 6 -68 -14 -36 -2 -45 22 -19 29 32 48 8 40 -51 -4 -28 -3 -49 4 -53 13 -8 31 25 31 57 0 30 10 40 26 26 8 -7 14 -7 19 1 8 13 -24 52 -36 44 -5 -3 -9 8 -9 23 0 35 -18 57 -36 42 -9 -7 -18 -1 -34 21 -21 30 -31 35 -43 24z"/>
 <path d="M2417 1602 c-17 -18 -24 -92 -10 -105 3 -4 13 -1 22 5 10 8 9 5 -3 -9 -12 -14 -16 -29 -11 -40 6 -16 10 -14 35 16 30 35 46 83 35 101 -3 6 -10 8 -15 5 -5 -3 -10 5 -12 17 -4 29 -21 33 -41 10z"/>
 <path d="M1346 1603 c-3 -3 -6 -15 -6 -25 0 -13 -4 -17 -12 -12 -19 12 -48 12 -55 1 -6 -10 -5 -59 1 -127 3 -25 20 -31 22 -7 3 32 5 37 17 35 13 -3 13 4 2 37 -4 11 5 3 19 -18 27 -38 56 -43 36 -7 -5 10 -9 29 -9 42 1 19 3 17 8 -7 9 -41 26 -33 26 13 0 24 -4 36 -12 35 -7 -2 -13 6 -13 16 0 21 -13 34 -24 24z"/>
 <path d="M1885 1577 c-24 -57 -18 -110 10 -87 8 7 15 2 24 -16 10 -22 14 -24 27 -13 8 7 24 29 34 48 l19 36 1 -72 c0 -39 4 -74 9 -78 15 -9 19 5 22 90 4 75 3 80 -16 80 -11 0 -26 4 -33 8 -11 8 -32 -27 -32 -54 0 -6 -4 -7 -10 -4 -5 3 -10 21 -10 39 0 19 -7 39 -15 46 -13 10 -17 7 -30 -23z"/>
 <path d="M784 1565 c-8 -19 2 -85 12 -88 5 -1 9 5 10 13 3 42 5 43 23 14 40 -66 59 -52 27 20 -16 37 -27 50 -45 51 -12 1 -25 -4 -27 -10z"/>
 <path d="M2505 1558 c-10 -24 -1 -173 10 -173 6 0 11 16 13 35 6 64 41 63 42 -1 0 -26 24 -57 32 -42 3 4 2 49 -1 98 -6 90 -21 116 -31 53 -6 -43 -34 -45 -38 -3 -4 36 -19 55 -27 33z"/>
 <path d="M1760 1546 c-13 -17 4 -61 21 -50 5 3 16 1 23 -5 10 -8 16 -8 25 3 18 21 -13 43 -36 25 -15 -13 -16 -12 -11 8 7 28 -5 38 -22 19z"/>
 <path d="M1675 1510 c-4 -6 -3 -16 3 -22 6 -6 12 -6 17 2 4 6 3 16 -3 22 -6 6 -12 6 -17 -2z"/>
 <path d="M730 1491 c-6 -12 -6 -22 -1 -26 6 -3 15 3 21 14 6 12 6 22 1 26 -6 3 -15 -3 -21 -14z"/>
 <path d="M1230 1495 c-7 -8 -9 -22 -6 -31 5 -13 9 -14 21 -4 17 14 20 36 6 44 -5 3 -14 -1 -21 -9z"/>
 <path d="M1625 1491 c-4 -8 -1 -19 8 -28 19 -20 30 -1 13 22 -10 14 -15 15 -21 6z"/>
 <path d="M2046 1491 c-7 -10 28 -43 37 -35 8 8 -11 44 -23 44 -5 0 -11 -4 -14 -9z"/>
 <path d="M2155 1490 c-4 -6 -3 -16 3 -22 6 -6 12 -6 17 2 4 6 3 16 -3 22 -6 6 -12 6 -17 -2z"/>
 <path d="M2997 1493 c-4 -6 1 -21 11 -34 12 -13 21 -18 25 -12 4 6 -1 21 -11 34 -12 13 -21 18 -25 12z"/>
 <path d="M2200 1435 c-10 -12 -10 -18 0 -30 15 -18 30 -11 30 15 0 26 -15 33 -30 15z"/>
 <path d="M1225 1430 c-10 -16 16 -43 28 -31 11 11 2 41 -12 41 -5 0 -13 -5 -16 -10z"/>
 <path d="M544 1416 c-4 -10 -2 -22 4 -28 8 -8 13 -7 18 6 4 10 2 22 -4 28 -8 8 -13 7 -18 -6z"/>
 <path d="M794 1395 c-8 -19 8 -52 22 -47 11 3 6 43 -7 56 -5 6 -11 2 -15 -9z"/>
 <path d="M2255 1201 c-7 -12 12 -24 25 -16 11 7 4 25 -10 25 -5 0 -11 -4 -15 -9z"/>
 </g>
<g id="layer111" fill="#81bb72" stroke="none">
 <path d="M555 1521 c-3 -6 3 -15 14 -21 12 -6 22 -6 26 -1 3 6 -3 15 -14 21 -12 6 -22 6 -26 1z"/>
 <path d="M1785 1481 c-7 -12 12 -24 25 -16 11 7 4 25 -10 25 -5 0 -11 -4 -15 -9z"/>
 <path d="M497 1474 c-9 -10 22 -66 33 -59 6 4 10 12 10 19 0 16 -34 48 -43 40z"/>
 <path d="M1215 1472 c-9 -9 6 -21 19 -16 7 3 18 -2 25 -10 11 -13 9 -21 -8 -44 -19 -27 -19 -42 0 -42 26 0 43 84 22 102 -15 12 -49 18 -58 10z"/>
 <path d="M2226 1432 c-3 -6 1 -15 8 -21 8 -7 17 -8 20 -3 3 6 -1 15 -8 21 -8 7 -17 8 -20 3z"/>
 <path d="M2247 1222 c-10 -20 0 -36 23 -36 33 0 35 35 3 40 -12 2 -24 0 -26 -4z"/>
 <path d="M689 1208 c-14 -44 11 -73 38 -45 13 13 14 19 3 31 -10 13 -38 22 -41 14z"/>
 <path d="M1177 1144 c-3 -3 -3 -13 0 -22 4 -13 2 -13 -9 2 -11 14 -17 16 -22 7 -11 -17 12 -40 35 -36 25 5 39 14 39 25 0 12 -36 31 -43 24z"/>
 <path d="M55 1100 c-8 -13 20 -24 41 -16 20 8 9 26 -16 26 -10 0 -22 -5 -25 -10z"/>
 <path d="M165 1090 c-8 -13 20 -24 41 -16 20 8 9 26 -16 26 -10 0 -22 -5 -25 -10z"/>
 <path d="M1365 1088 c-151 -16 -500 -24 -739 -16 -132 5 -247 6 -255 3 -13 -5 -11 -11 13 -31 26 -23 27 -26 12 -43 -55 -61 47 -114 209 -109 56 1 98 -2 111 -10 40 -22 158 -34 232 -24 84 12 124 29 137 60 7 16 16 21 30 17 11 -3 67 -18 125 -33 58 -15 110 -30 115 -34 6 -3 35 -11 65 -18 l55 -13 -35 -10 c-19 -5 -88 -16 -153 -25 -65 -10 -118 -22 -119 -27 0 -6 23 -15 53 -22 60 -13 74 -12 377 37 100 17 266 44 368 60 146 24 189 28 201 19 10 -9 17 -9 25 -1 6 6 17 8 24 5 8 -3 17 2 20 11 8 20 50 21 85 2 23 -12 28 -11 48 10 15 16 35 24 56 24 18 0 38 7 45 15 11 14 7 19 -12 16 -14 -2 -262 1 -373 5 -60 2 -132 9 -159 14 -29 6 -54 6 -65 1 -11 -7 -22 -5 -35 7 -22 21 -114 43 -122 30 -3 -5 -15 -1 -26 9 -11 10 -23 17 -27 17 -7 -2 -2 -3 -110 36 -47 16 -87 29 -90 29 -3 -1 -42 -6 -86 -11z"/>
 <path d="M285 1081 c-7 -13 17 -24 40 -19 9 1 16 8 16 13 0 14 -48 19 -56 6z"/>
 <path d="M2095 1030 c-4 -6 -3 -16 3 -22 6 -6 12 -6 17 2 4 6 3 16 -3 22 -6 6 -12 6 -17 -2z"/>
 <path d="M3027 1004 c-9 -10 2 -24 19 -24 8 0 14 7 14 15 0 15 -21 21 -33 9z"/>
 <path d="M2945 990 c-8 -12 20 -24 35 -15 6 3 8 11 5 16 -8 12 -32 12 -40 -1z"/>
 <path d="M2865 980 c-8 -12 20 -24 35 -15 6 3 8 11 5 16 -8 12 -32 12 -40 -1z"/>
 <path d="M2800 970 c-8 -5 -17 -7 -22 -4 -6 4 -28 -27 -28 -40 0 -3 9 -10 21 -16 15 -9 24 -8 36 2 9 7 19 13 22 13 8 0 2 38 -7 47 -4 4 -14 3 -22 -2z"/>
 <path d="M2676 963 c-4 -5 -17 -8 -28 -8 -31 0 -42 -39 -18 -60 19 -17 20 -17 28 5 6 16 11 19 16 12 10 -16 27 -5 20 12 -3 8 4 16 16 19 12 3 19 10 15 16 -7 13 -38 15 -49 4z"/>
 <path d="M2515 950 c-3 -5 0 -13 9 -16 21 -8 71 -1 71 11 0 14 -72 19 -80 5z"/>
 </g>
<g id="layer112" fill="#abd093" stroke="none">
 <path d="M1778 1543 c-24 -29 -18 -53 19 -71 24 -11 36 -13 44 -5 8 8 2 16 -20 29 -16 10 -28 22 -25 26 3 5 12 4 19 -2 14 -12 22 -4 21 20 -1 22 -40 24 -58 3z"/>
 <path d="M508 1518 c-8 -7 -18 -21 -21 -30 -8 -22 11 -35 19 -14 7 19 26 11 22 -9 -2 -8 2 -14 7 -14 6 0 9 6 7 14 -1 7 3 17 9 21 7 4 9 3 6 -3 -8 -12 21 -55 32 -48 5 2 8 19 7 36 -1 23 -7 33 -20 35 -10 1 -23 7 -29 13 -14 14 -20 14 -39 -1z"/>
 <path d="M1222 1464 c-16 -11 -22 -24 -20 -45 2 -31 32 -58 43 -39 3 5 3 10 -2 10 -4 0 3 7 15 16 27 18 28 36 4 57 -16 15 -20 15 -40 1z"/>
 <path d="M2194 1469 c-4 -7 1 -18 12 -26 16 -12 17 -15 4 -23 -8 -5 -17 -7 -21 -4 -17 10 -17 -15 0 -30 16 -15 19 -15 34 2 25 28 25 62 0 79 -16 11 -23 11 -29 2z"/>
 <path d="M2254 1215 c-10 -8 -17 -15 -14 -16 45 -10 70 0 47 20 -10 8 -19 7 -33 -4z"/>
 <path d="M675 1191 c-10 -17 2 -28 27 -26 13 1 23 8 23 16 0 17 -40 25 -50 10z"/>
 <path d="M1155 1131 c-10 -17 2 -28 27 -26 13 1 23 8 23 16 0 17 -40 25 -50 10z"/>
 <path d="M0 943 l0 -170 53 -6 c189 -22 398 -29 687 -23 173 4 344 10 380 15 36 4 70 4 76 0 6 -5 16 -3 24 4 9 8 11 9 6 0 -9 -17 -2 -20 136 -48 242 -49 529 -70 636 -46 26 5 182 31 347 57 165 25 383 59 485 75 102 16 195 31 208 34 21 5 22 11 22 85 0 93 13 86 -138 68 -84 -9 -100 -14 -118 -36 l-21 -25 -6 23 c-5 21 -10 22 -49 16 -23 -4 -52 -16 -64 -27 l-21 -20 -6 21 c-5 19 -11 21 -44 16 -21 -3 -80 -8 -131 -12 -78 -5 -94 -9 -103 -26 -9 -16 -13 -17 -26 -6 -9 7 -18 12 -20 11 -1 -2 -6 -3 -10 -2 -18 3 -69 -4 -78 -9 -5 -4 -24 -7 -40 -8 -17 -1 -57 -7 -89 -13 -72 -13 -79 -13 -72 -2 3 5 -1 14 -9 21 -20 17 -51 -6 -35 -25 8 -9 -16 -16 -102 -30 -62 -9 -205 -32 -318 -50 -269 -43 -293 -46 -307 -37 -7 4 25 13 75 20 109 15 183 34 183 47 0 5 -33 19 -73 31 -40 11 -80 23 -88 26 -33 12 -296 81 -310 81 -8 0 -21 4 -27 10 -7 5 -13 8 -14 6 -8 -42 -7 -50 6 -55 8 -4 22 -1 30 6 16 14 35 5 35 -16 0 -35 -155 -61 -262 -44 -39 6 -80 16 -92 22 -13 8 -58 11 -116 10 -161 -4 -241 40 -173 94 l28 22 -30 12 c-16 6 -37 17 -45 25 -9 8 -65 17 -145 24 -72 6 -154 14 -182 17 l-53 6 0 -169z"/>
 <path d="M2105 1031 c-3 -6 3 -15 14 -21 21 -11 37 2 26 20 -8 13 -32 13 -40 1z"/>
 <path d="M1225 1021 c-3 -6 -4 -15 -1 -20 9 -14 41 -6 41 10 0 17 -31 24 -40 10z"/>
 <path d="M1394 959 c-2 -4 3 -12 11 -19 12 -10 18 -10 30 0 8 7 12 16 10 20 -6 10 -45 9 -51 -1z"/>
 <path d="M2955 751 c-7 -12 12 -24 24 -16 5 3 12 1 16 -5 9 -15 45 -12 45 4 0 18 -25 27 -38 14 -6 -6 -12 -6 -16 1 -9 13 -23 14 -31 2z"/>
 </g>
<g id="layer113" fill="#cae0b2" stroke="none">
 <path d="M1785 1540 c-17 -28 -13 -51 11 -62 20 -9 28 -8 41 5 14 13 14 21 5 42 -12 25 -45 34 -57 15z"/>
 <path d="M545 1521 c-6 -11 1 -15 19 -12 5 1 5 -4 -1 -11 -11 -12 -13 -19 -13 -35 0 -4 -7 3 -16 15 -11 17 -19 20 -28 13 -15 -13 -14 -56 1 -56 6 0 15 -3 19 -7 4 -4 13 -3 20 2 6 6 17 9 24 8 21 -5 21 58 0 77 -12 11 -20 13 -25 6z"/>
 <path d="M1227 1452 c-22 -24 -21 -45 2 -66 18 -16 20 -16 35 5 18 26 11 46 -10 28 -17 -14 -19 2 -2 19 8 8 9 15 2 22 -7 7 -16 5 -27 -8z"/>
 <path d="M2181 1441 c-7 -13 -6 -24 3 -36 13 -18 14 -18 25 1 10 15 11 15 7 2 -7 -25 11 -32 23 -10 7 14 6 25 -5 40 -19 27 -40 28 -53 3z"/>
 <path d="M2255 1211 c-7 -12 12 -24 25 -16 11 7 4 25 -10 25 -5 0 -11 -4 -15 -9z"/>
 <path d="M685 1181 c-7 -12 12 -24 25 -16 11 7 4 25 -10 25 -5 0 -11 -4 -15 -9z"/>
 <path d="M1165 1121 c-7 -12 12 -24 25 -16 11 7 4 25 -10 25 -5 0 -11 -4 -15 -9z"/>
 <path d="M354 1019 c-10 -17 13 -36 27 -22 12 12 4 33 -11 33 -5 0 -12 -5 -16 -11z"/>
 <path d="M2105 1021 c-7 -12 12 -24 25 -16 11 7 4 25 -10 25 -5 0 -11 -4 -15 -9z"/>
 <path d="M295 900 c-8 -12 20 -24 35 -15 6 3 8 11 5 16 -8 12 -32 12 -40 -1z"/>
 <path d="M1985 901 c-7 -12 12 -24 25 -16 11 7 4 25 -10 25 -5 0 -11 -4 -15 -9z"/>
 <path d="M2850 826 c-107 -18 -332 -53 -500 -80 -168 -26 -327 -52 -355 -57 -27 -6 -70 -11 -95 -12 -25 -1 -44 -6 -42 -12 4 -16 474 -10 650 9 187 20 418 59 492 83 54 18 55 19 58 61 2 23 0 41 -5 41 -4 -1 -96 -16 -203 -33z"/>
 <path d="M620 795 c-7 -8 -11 -15 -9 -16 31 -6 40 -6 44 1 3 4 -1 13 -9 19 -10 9 -16 8 -26 -4z"/>
 <path d="M2161 786 c-9 -10 -9 -16 -1 -21 17 -10 37 12 24 25 -8 8 -15 6 -23 -4z"/>
 </g>
<g id="layer114" fill="#a8dde0" stroke="none">
 <path d="M0 396 l0 -396 1530 0 1530 0 0 380 0 380 -82 -5 c-46 -3 -90 -7 -98 -10 -8 -2 -35 -7 -60 -10 -25 -3 -88 -12 -140 -20 -203 -30 -356 -39 -625 -39 -300 -1 -422 9 -645 51 -74 14 -142 26 -150 28 -8 1 -35 7 -59 14 -33 10 -74 10 -160 3 -244 -20 -747 -13 -983 14 l-58 7 0 -397z m968 16 c20 -11 69 -25 109 -32 83 -13 149 -44 176 -81 27 -38 8 -72 -59 -104 -29 -14 -58 -25 -64 -25 -7 0 -24 -8 -38 -19 -42 -29 -76 -33 -128 -15 -42 14 -49 14 -58 2 -54 -73 -255 -65 -293 12 -9 19 -23 27 -58 32 -56 8 -111 47 -118 85 -7 36 15 87 45 107 36 23 103 35 148 25 32 -7 45 -5 74 12 69 40 187 41 264 1z m1566 -92 c4 -5 21 -4 37 2 16 6 48 7 72 4 23 -3 80 -10 127 -14 93 -10 137 -26 145 -53 13 -40 -30 -74 -101 -81 -20 -2 -43 -15 -62 -36 -20 -21 -39 -32 -59 -32 -15 0 -41 -9 -58 -20 -48 -32 -116 -27 -158 10 -19 17 -46 30 -59 30 -14 0 -35 11 -48 25 -13 14 -29 25 -36 25 -6 0 -22 8 -34 18 -19 16 -21 22 -11 40 6 12 28 26 51 32 22 6 44 19 50 30 18 33 114 46 144 20z"/>
 </g>
<g id="layer115" fill="#f2f9fa" stroke="none">
 <path d="M515 1506 c-14 -10 -14 -14 -3 -23 16 -13 61 2 56 19 -6 16 -34 18 -53 4z"/>
 <path d="M525 1450 c-3 -5 3 -14 14 -20 20 -10 41 3 27 18 -10 10 -35 11 -41 2z"/>
 <path d="M1175 770 c-6 -9 -4 -11 20 -14 6 -1 20 -7 32 -14 13 -7 24 -8 28 -3 3 6 -4 15 -15 21 -11 6 -20 7 -20 3 0 -4 -5 -2 -12 5 -15 15 -25 15 -33 2z"/>
 <path d="M787 459 c-26 -4 -64 -17 -83 -28 -29 -17 -42 -19 -76 -12 -106 24 -232 -65 -211 -150 12 -48 90 -109 141 -109 11 0 37 -17 58 -39 73 -72 214 -75 294 -5 13 11 23 11 58 -2 46 -15 82 -11 122 15 14 9 43 23 65 30 61 20 104 50 121 82 14 28 14 32 -6 64 -27 43 -103 81 -195 96 -38 6 -87 20 -107 31 -49 25 -120 36 -181 27z"/>
 <path d="M2436 349 c-16 -4 -39 -18 -53 -31 -13 -12 -38 -27 -55 -33 -17 -5 -40 -22 -51 -37 -20 -27 -20 -28 -1 -49 10 -12 33 -28 49 -35 17 -7 39 -22 49 -33 11 -12 30 -21 44 -21 13 0 40 -14 59 -30 42 -37 110 -42 158 -10 17 11 43 20 59 20 18 0 39 11 61 33 20 20 44 33 66 36 75 7 131 61 111 106 -17 36 -68 58 -162 67 -47 4 -104 11 -127 14 -24 3 -56 2 -72 -4 -16 -6 -33 -7 -37 -2 -15 13 -67 18 -98 9z"/>
 </g>

</svg>