<!DOCTYPE svg PUBLIC "-//W3C//DTD SVG 20010904//EN" "http://www.w3.org/TR/2001/REC-SVG-20010904/DTD/svg10.dtd">
<svg version="1.0" xmlns="http://www.w3.org/2000/svg" width="89px" height="62px" viewBox="0 0 890 620" preserveAspectRatio="xMidYMid meet">
<g id="layer101" fill="#000000" stroke="none">
 <path d="M257 614 c-13 -14 -7 -31 16 -42 l22 -11 -23 0 c-13 -1 -37 6 -53 15 -36 18 -59 12 -59 -14 0 -12 11 -24 30 -32 27 -11 28 -13 13 -28 -9 -9 -22 -31 -30 -49 -12 -30 -16 -32 -34 -22 -26 13 -36 5 -19 -16 16 -19 11 -19 -43 4 l-45 20 -16 -40 c-27 -67 -20 -78 52 -80 37 -1 36 -2 -16 -17 -57 -16 -61 -23 -33 -51 11 -11 17 -22 14 -24 -4 -4 12 -43 23 -55 1 -2 24 12 50 33 l48 36 9 -23 c5 -13 10 -42 11 -64 1 -23 8 -49 15 -58 13 -15 16 -14 42 16 19 22 28 28 29 17 0 -8 7 -24 15 -35 15 -18 15 -18 29 0 14 17 16 18 63 0 26 -9 52 -21 58 -26 5 -4 48 -8 95 -8 77 0 93 3 142 30 30 16 63 39 73 50 13 15 21 17 31 9 17 -14 36 -2 32 19 -2 10 9 27 24 40 51 44 62 133 24 205 l-25 46 35 11 c47 16 43 27 -13 36 -27 4 -75 23 -110 44 -79 47 -156 62 -299 59 -60 -1 -123 1 -139 5 -17 4 -33 4 -38 0z"/>
 <path d="M714 106 c-9 -24 4 -48 23 -44 12 2 18 12 18 28 0 29 -32 41 -41 16z"/>
 <path d="M817 83 c-13 -12 -7 -50 9 -64 31 -26 70 25 44 56 -13 16 -42 20 -53 8z"/>
 <path d="M630 30 c0 -11 7 -20 15 -20 8 0 15 9 15 20 0 11 -7 20 -15 20 -8 0 -15 -9 -15 -20z"/>
 <path d="M480 20 c0 -13 7 -20 20 -20 13 0 20 7 20 20 0 13 -7 20 -20 20 -13 0 -20 -7 -20 -20z"/>
 </g>
<g id="layer102" fill="#fa5e2a" stroke="none">
 <path d="M347 550 c-102 -32 -157 -93 -157 -174 l0 -35 25 24 c13 14 34 25 47 25 20 0 18 -3 -11 -18 -19 -9 -38 -28 -43 -41 -7 -21 -6 -23 14 -17 13 3 34 9 48 12 l25 6 -25 -14 c-52 -29 -78 -50 -84 -65 -12 -31 7 -33 40 -3 48 41 50 38 9 -16 -21 -27 -35 -57 -35 -73 l0 -28 44 41 c109 103 157 145 142 122 -21 -33 -20 -91 4 -143 13 -29 25 -43 38 -43 18 0 19 4 10 40 -11 43 -2 150 13 150 5 0 9 -9 9 -20 0 -19 10 -42 55 -128 24 -47 58 -57 113 -36 24 9 60 30 79 47 l35 31 -26 13 c-23 12 -29 12 -48 -2 -48 -33 -135 -9 -163 45 -19 37 -19 113 0 154 26 55 97 82 146 56 22 -12 24 -4 9 36 -10 26 -10 27 25 21 56 -9 31 10 -41 33 -86 26 -216 26 -297 0z m151 -87 c5 -18 -10 -16 -34 2 -18 15 -18 15 5 13 14 -2 26 -9 29 -15z m-28 -23 c12 -8 11 -10 -7 -10 -13 0 -23 5 -23 10 0 13 11 13 30 0z"/>
 <path d="M690 483 c1 -26 17 -33 51 -21 33 12 34 12 9 19 -35 10 -60 10 -60 2z"/>
 <path d="M573 440 c-69 -28 -83 -149 -24 -202 40 -36 83 -37 118 -2 25 25 25 25 47 6 33 -30 43 -33 70 -21 28 13 56 64 56 103 0 38 -25 93 -48 105 -31 17 -51 13 -77 -13 -23 -23 -25 -24 -37 -7 -15 21 -51 41 -70 40 -7 0 -23 -4 -35 -9z m97 -83 c0 -2 -16 -19 -36 -38 l-36 -34 16 32 c12 24 13 33 3 36 -6 3 3 6 21 6 17 1 32 0 32 -2z m97 -3 c-3 -3 -2 -17 3 -30 13 -32 6 -30 -20 6 l-21 30 22 0 c12 0 20 -3 16 -6z"/>
 <path d="M316 217 c-19 -14 -19 -48 0 -54 7 -2 13 11 16 32 2 19 3 35 3 35 -1 0 -9 -6 -19 -13z"/>
 <path d="M762 163 c2 -10 10 -18 18 -18 8 0 16 8 18 18 2 12 -3 17 -18 17 -15 0 -20 -5 -18 -17z"/>
 <path d="M714 106 c-9 -24 4 -48 23 -44 12 2 18 12 18 28 0 29 -32 41 -41 16z"/>
 <path d="M430 80 c0 -11 7 -20 15 -20 8 0 15 9 15 20 0 11 -7 20 -15 20 -8 0 -15 -9 -15 -20z"/>
 <path d="M817 83 c-13 -12 -7 -50 9 -64 31 -26 70 25 44 56 -13 16 -42 20 -53 8z"/>
 <path d="M590 70 c0 -5 7 -10 15 -10 8 0 15 5 15 10 0 6 -7 10 -15 10 -8 0 -15 -4 -15 -10z"/>
 <path d="M630 30 c0 -11 7 -20 15 -20 8 0 15 9 15 20 0 11 -7 20 -15 20 -8 0 -15 -9 -15 -20z"/>
 <path d="M480 20 c0 -13 7 -20 20 -20 13 0 20 7 20 20 0 13 -7 20 -20 20 -13 0 -20 -7 -20 -20z"/>
 </g>
<g id="layer103" fill="#00aef0" stroke="none">
 <path d="M347 550 c-102 -32 -157 -93 -157 -174 l0 -35 25 24 c13 14 34 25 47 25 20 0 18 -3 -11 -18 -19 -9 -38 -28 -43 -41 -7 -21 -6 -23 14 -17 13 3 34 9 48 12 l25 6 -25 -14 c-52 -29 -78 -50 -84 -65 -12 -31 7 -33 40 -3 48 41 50 38 9 -16 -21 -27 -35 -57 -35 -73 l0 -28 44 41 c109 103 157 145 142 122 -21 -33 -20 -91 4 -143 13 -29 25 -43 38 -43 18 0 19 4 10 40 -11 43 -2 150 13 150 5 0 9 -9 9 -20 0 -19 10 -42 55 -128 24 -47 58 -57 113 -36 24 9 60 30 79 47 l35 31 -26 13 c-23 12 -29 12 -48 -2 -48 -33 -135 -9 -163 45 -19 37 -19 113 0 154 26 55 97 82 146 56 22 -12 24 -4 9 36 -10 26 -10 27 25 21 56 -9 31 10 -41 33 -86 26 -216 26 -297 0z m151 -87 c5 -18 -10 -16 -34 2 -18 15 -18 15 5 13 14 -2 26 -9 29 -15z m-28 -23 c12 -8 11 -10 -7 -10 -13 0 -23 5 -23 10 0 13 11 13 30 0z"/>
 <path d="M573 440 c-69 -28 -83 -149 -24 -202 40 -36 83 -37 118 -2 25 25 25 25 47 6 33 -30 43 -33 70 -21 28 13 56 64 56 103 0 38 -25 93 -48 105 -31 17 -51 13 -77 -13 -23 -23 -25 -24 -37 -7 -15 21 -51 41 -70 40 -7 0 -23 -4 -35 -9z m97 -83 c0 -2 -16 -19 -36 -38 l-36 -34 16 32 c12 24 13 33 3 36 -6 3 3 6 21 6 17 1 32 0 32 -2z m97 -3 c-3 -3 -2 -17 3 -30 13 -32 6 -30 -20 6 l-21 30 22 0 c12 0 20 -3 16 -6z"/>
 <path d="M316 217 c-19 -14 -19 -48 0 -54 7 -2 13 11 16 32 2 19 3 35 3 35 -1 0 -9 -6 -19 -13z"/>
 <path d="M762 163 c2 -10 10 -18 18 -18 8 0 16 8 18 18 2 12 -3 17 -18 17 -15 0 -20 -5 -18 -17z"/>
 <path d="M714 106 c-9 -24 4 -48 23 -44 12 2 18 12 18 28 0 29 -32 41 -41 16z"/>
 <path d="M430 80 c0 -11 7 -20 15 -20 8 0 15 9 15 20 0 11 -7 20 -15 20 -8 0 -15 -9 -15 -20z"/>
 <path d="M817 83 c-13 -12 -7 -50 9 -64 31 -26 70 25 44 56 -13 16 -42 20 -53 8z"/>
 <path d="M590 70 c0 -5 7 -10 15 -10 8 0 15 5 15 10 0 6 -7 10 -15 10 -8 0 -15 -4 -15 -10z"/>
 <path d="M630 30 c0 -11 7 -20 15 -20 8 0 15 9 15 20 0 11 -7 20 -15 20 -8 0 -15 -9 -15 -20z"/>
 <path d="M480 20 c0 -13 7 -20 20 -20 13 0 20 7 20 20 0 13 -7 20 -20 20 -13 0 -20 -7 -20 -20z"/>
 </g>
<g id="layer104" fill="#dc5c88" stroke="none">
 <path d="M347 550 c-102 -32 -157 -93 -157 -174 l0 -35 25 24 c13 14 34 25 47 25 20 0 18 -3 -11 -18 -19 -9 -38 -28 -43 -41 -7 -21 -6 -23 14 -17 13 3 34 9 48 12 l25 6 -25 -14 c-52 -29 -78 -50 -84 -65 -12 -31 7 -33 40 -3 48 41 50 38 9 -16 -21 -27 -35 -57 -35 -73 l0 -28 44 41 c109 103 157 145 142 122 -21 -33 -20 -91 4 -143 13 -29 25 -43 38 -43 18 0 19 4 10 40 -11 43 -2 150 13 150 5 0 9 -8 9 -19 0 -40 62 -152 74 -132 11 17 38 0 33 -21 -3 -11 0 -21 8 -24 20 -8 109 34 139 65 l26 28 -26 11 c-33 16 -47 7 -33 -20 16 -30 -10 -45 -33 -18 -9 11 -28 20 -43 20 -38 0 -83 26 -100 60 -19 37 -19 113 0 154 26 55 97 82 146 56 22 -12 24 -4 9 36 -10 26 -10 27 25 21 56 -9 31 10 -41 33 -86 26 -216 26 -297 0z m151 -87 c5 -18 -10 -16 -34 2 -18 15 -18 15 5 13 14 -2 26 -9 29 -15z m-28 -23 c12 -8 11 -10 -7 -10 -13 0 -23 5 -23 10 0 13 11 13 30 0z"/>
 <path d="M573 440 c-69 -28 -83 -149 -24 -202 40 -36 83 -37 118 -2 25 25 25 25 47 6 33 -30 43 -33 70 -21 28 13 56 64 56 103 0 38 -25 93 -48 105 -31 17 -51 13 -77 -13 -23 -23 -25 -24 -37 -7 -15 21 -51 41 -70 40 -7 0 -23 -4 -35 -9z m97 -83 c0 -2 -16 -19 -36 -38 l-36 -34 16 32 c12 24 13 33 3 36 -6 3 3 6 21 6 17 1 32 0 32 -2z m97 -3 c-3 -3 -2 -17 3 -30 13 -32 6 -30 -20 6 l-21 30 22 0 c12 0 20 -3 16 -6z"/>
 <path d="M316 217 c-19 -14 -19 -48 0 -54 7 -2 13 11 16 32 2 19 3 35 3 35 -1 0 -9 -6 -19 -13z"/>
 </g>
<g id="layer105" fill="#9a9a9a" stroke="none">
 <path d="M521 508 c-35 -16 -49 -18 -67 -9 -17 8 -32 7 -51 -1 -16 -6 -40 -10 -54 -9 -15 0 -32 -6 -39 -14 -7 -8 -21 -15 -33 -15 -11 0 -35 -9 -53 -21 -29 -18 -34 -26 -34 -59 l0 -39 25 24 c13 14 34 25 47 25 20 0 18 -3 -11 -18 -19 -9 -38 -28 -43 -41 -7 -21 -6 -23 14 -17 13 3 34 9 48 12 l25 6 -25 -14 c-52 -29 -78 -50 -84 -65 -12 -31 7 -33 40 -3 48 41 50 38 9 -16 -21 -27 -35 -57 -35 -73 l0 -28 44 41 c109 103 157 145 142 122 -21 -33 -20 -91 4 -144 13 -28 25 -42 38 -42 18 0 19 4 10 40 -11 43 -2 150 13 150 5 0 9 -8 9 -19 0 -40 62 -152 74 -132 11 17 38 0 33 -21 -3 -11 0 -21 8 -24 20 -8 109 34 140 66 l26 28 -29 10 c-36 12 -45 6 -31 -21 16 -29 -11 -43 -33 -17 -9 11 -28 20 -42 20 -80 0 -130 61 -129 157 0 60 32 119 72 134 28 11 91 4 91 -10 0 -5 7 -12 16 -15 13 -5 15 -1 10 21 -14 56 -66 67 -145 31z m-23 -45 c5 -18 -10 -16 -34 2 -18 15 -18 15 5 13 14 -2 26 -9 29 -15z m-28 -23 c12 -8 11 -10 -7 -10 -13 0 -23 5 -23 10 0 13 11 13 30 0z"/>
 <path d="M573 440 c-69 -28 -83 -149 -24 -202 40 -36 83 -37 118 -2 25 25 25 25 47 6 33 -30 43 -33 70 -21 28 13 56 64 56 103 0 38 -25 93 -48 105 -31 17 -51 13 -77 -13 -23 -23 -25 -24 -37 -7 -15 21 -51 41 -70 40 -7 0 -23 -4 -35 -9z m97 -83 c0 -2 -16 -19 -36 -38 l-36 -34 16 32 c12 24 13 33 3 36 -6 3 3 6 21 6 17 1 32 0 32 -2z m97 -3 c-3 -3 -2 -17 3 -30 13 -32 6 -30 -20 6 l-21 30 22 0 c12 0 20 -3 16 -6z"/>
 <path d="M316 217 c-19 -14 -19 -48 0 -54 7 -2 13 11 16 32 2 19 3 35 3 35 -1 0 -9 -6 -19 -13z"/>
 </g>
<g id="layer106" fill="#f0b7c0" stroke="none">
 <path d="M528 512 c-33 -15 -36 -20 -31 -47 6 -30 6 -30 -18 -14 -13 9 -24 23 -24 30 0 23 -21 30 -52 18 -15 -7 -40 -11 -54 -10 -15 0 -32 -6 -39 -14 -7 -8 -22 -15 -34 -15 -21 0 -64 -24 -78 -44 -4 -6 -7 -24 -7 -41 0 -16 3 -24 6 -17 11 28 103 57 103 32 0 -5 -8 -10 -19 -10 -24 0 -71 -37 -71 -56 0 -13 4 -12 30 1 16 8 42 15 57 15 25 -1 23 -3 -22 -27 -60 -30 -85 -51 -85 -70 0 -10 13 -4 37 16 54 44 75 40 31 -6 -72 -77 -82 -134 -11 -70 73 66 147 140 160 162 7 11 6 2 -3 -20 -8 -22 -19 -44 -25 -50 -12 -12 -11 -55 2 -96 12 -33 36 -69 48 -69 3 0 6 43 6 94 0 106 17 149 29 74 10 -63 51 -128 79 -125 16 1 22 -3 22 -18 0 -11 4 -23 9 -26 14 -11 90 20 127 51 28 25 32 31 19 40 -27 18 -41 12 -34 -15 8 -31 -22 -47 -41 -22 -7 10 -25 17 -41 17 -32 0 -77 26 -99 56 -24 35 -36 100 -26 143 8 39 8 41 -14 41 -24 0 -42 16 -31 28 4 3 20 1 36 -5 26 -10 31 -8 44 13 21 31 73 40 119 21 l36 -16 -10 27 c-6 15 -16 30 -22 34 -19 12 -69 7 -109 -10z"/>
 <path d="M548 413 c-36 -38 -45 -91 -23 -137 21 -43 33 -54 72 -62 24 -5 37 0 66 26 35 30 36 30 47 11 28 -54 102 -29 120 40 26 95 -58 182 -115 119 l-18 -20 -27 25 c-37 35 -88 34 -122 -2z m126 -50 c7 -7 -62 -83 -77 -83 -4 0 0 14 10 31 13 24 15 33 6 36 -7 3 -13 9 -13 14 0 10 63 12 74 2z m96 -10 c0 -10 3 -29 6 -43 6 -24 6 -24 -20 5 -31 36 -33 55 -6 55 12 0 20 -7 20 -17z"/>
 <path d="M310 205 c-7 -8 -9 -22 -5 -32 6 -15 9 -13 16 11 10 35 7 42 -11 21z"/>
 </g>
<g id="layer107" fill="#fdfafa" stroke="none">
 <path d="M563 407 c-28 -40 -37 -85 -29 -132 6 -29 14 -39 41 -51 39 -16 69 -8 99 25 l19 21 23 -25 c58 -63 135 13 113 113 -13 61 -61 91 -89 57 -7 -8 -16 -12 -21 -9 -5 3 -12 -2 -15 -10 -5 -13 -11 -10 -34 14 -39 42 -78 40 -107 -3z m211 -77 l6 -45 -25 30 c-29 35 -32 52 -7 57 21 5 18 10 26 -42z m-94 32 c0 -4 -20 -28 -45 -52 -48 -47 -54 -47 -29 3 12 21 13 32 5 35 -26 9 -8 22 29 22 22 0 40 -4 40 -8z"/>
 <path d="M695 164 l-30 -26 33 22 c17 12 32 23 32 26 0 7 -4 5 -35 -22z"/>
 </g>

</svg>