<!DOCTYPE svg PUBLIC "-//W3C//DTD SVG 20010904//EN" "http://www.w3.org/TR/2001/REC-SVG-20010904/DTD/svg10.dtd">
<svg version="1.0" xmlns="http://www.w3.org/2000/svg" width="88px" height="74px" viewBox="0 0 880 740" preserveAspectRatio="xMidYMid meet">
<g id="layer101" fill="#000000" stroke="none">
 <path d="M316 718 c-9 -12 -16 -27 -16 -34 0 -6 -24 -36 -53 -66 l-53 -54 -18 24 c-23 30 -57 43 -74 29 -16 -13 -8 -70 14 -104 14 -22 13 -23 -20 -23 -46 0 -86 -19 -86 -40 0 -33 30 -45 107 -45 84 0 100 -15 64 -61 -26 -33 -27 -68 -1 -94 16 -16 17 -24 9 -48 -19 -56 -3 -73 145 -140 74 -34 144 -62 156 -62 21 0 60 33 60 50 0 6 20 10 45 10 36 0 47 5 61 25 22 33 11 71 -26 94 l-30 18 43 33 c23 19 46 40 50 47 11 18 51 17 44 -1 -9 -22 19 -41 36 -25 18 18 10 50 -11 42 -11 -5 -9 2 8 24 22 31 24 82 5 139 -6 19 -2 22 31 29 53 10 74 22 74 45 0 25 -43 47 -110 56 -30 4 -69 18 -88 30 -35 24 -108 49 -175 59 -32 5 -39 11 -44 36 -7 37 -30 35 -52 -5 -22 -38 -34 -38 -46 2 -11 37 -28 41 -49 10z"/>
 <path d="M122 363 c2 -10 10 -18 18 -18 8 0 16 8 18 18 2 12 -3 17 -18 17 -15 0 -20 -5 -18 -17z"/>
 <path d="M8 323 c-2 -10 3 -23 11 -29 21 -16 50 3 43 28 -6 24 -49 24 -54 1z"/>
 <path d="M102 233 c2 -10 10 -18 18 -18 8 0 16 8 18 18 2 12 -3 17 -18 17 -15 0 -20 -5 -18 -17z"/>
 <path d="M695 209 c-4 -6 -2 -15 5 -19 17 -10 42 -1 37 14 -5 16 -34 19 -42 5z"/>
 <path d="M6 147 c-7 -28 21 -49 46 -33 10 6 16 17 13 24 -3 8 -5 17 -5 22 0 4 -11 8 -24 8 -16 0 -26 -7 -30 -21z"/>
 <path d="M690 120 c0 -5 -3 -15 -6 -23 -7 -19 22 -30 47 -17 15 9 17 14 8 28 -12 18 -49 28 -49 12z"/>
 <path d="M100 102 c0 -14 11 -21 26 -15 8 3 11 9 8 14 -7 11 -34 12 -34 1z"/>
 <path d="M587 36 c-9 -22 19 -42 37 -26 8 6 12 18 9 26 -7 18 -39 18 -46 0z"/>
 </g>
<g id="layer102" fill="#be1e2d" stroke="none">
 <path d="M330 675 c0 -16 12 -44 26 -64 l26 -36 -36 37 c-40 42 -58 36 -23 -8 l22 -29 -28 18 c-38 25 -34 12 11 -29 l37 -35 -38 22 c-21 12 -42 31 -46 42 -7 18 -9 17 -34 -12 -14 -17 -29 -48 -33 -67 -7 -40 1 -115 15 -142 5 -10 80 -50 166 -90 154 -71 158 -72 189 -57 49 23 108 85 100 104 -16 36 -14 68 5 99 12 17 28 32 36 32 8 0 15 5 15 10 0 6 -18 10 -40 10 -33 0 -42 4 -51 24 -15 32 -4 76 19 76 29 0 -43 40 -100 56 -57 15 -178 19 -178 6 0 -4 7 -18 16 -30 9 -13 14 -25 11 -28 -2 -3 -23 23 -46 57 -37 55 -41 58 -41 34z m223 -165 c3 -11 1 -20 -4 -20 -4 0 -13 9 -19 20 -8 16 -8 20 3 20 8 0 17 -9 20 -20z m-30 -32 c-5 -10 -33 10 -33 23 0 5 9 4 19 -3 11 -7 17 -16 14 -20z m102 -23 c38 -37 31 -108 -14 -142 -24 -18 -39 -16 -66 12 -19 18 -25 35 -25 65 0 44 33 90 65 90 9 0 27 -11 40 -25z"/>
 <path d="M547 443 c-30 -50 -6 -127 36 -121 33 5 62 65 48 101 -9 22 -17 27 -45 27 -19 0 -37 -3 -39 -7z m63 -27 c9 -12 7 -21 -12 -46 -25 -35 -39 -23 -15 14 12 17 13 26 4 35 -7 7 -8 11 0 11 6 0 16 -6 23 -14z"/>
 <path d="M662 533 c3 -28 4 -28 71 -26 38 0 79 4 93 7 62 16 -6 46 -103 46 -64 0 -64 0 -61 -27z"/>
 <path d="M706 431 c-33 -36 -19 -121 19 -121 43 0 67 99 30 126 -25 18 -29 18 -49 -5z m28 -35 c-3 -8 -1 -24 6 -35 6 -12 7 -21 1 -21 -11 0 -32 56 -24 64 12 11 22 6 17 -8z"/>
 <path d="M122 363 c2 -10 10 -18 18 -18 8 0 16 8 18 18 2 12 -3 17 -18 17 -15 0 -20 -5 -18 -17z"/>
 <path d="M8 323 c-2 -10 3 -23 11 -29 21 -16 50 3 43 28 -6 24 -49 24 -54 1z"/>
 <path d="M197 323 c-4 -3 -7 -17 -7 -29 0 -24 -5 -21 185 -109 162 -76 226 -105 230 -105 10 0 35 33 35 45 0 18 -44 48 -73 51 -12 1 -25 3 -28 3 -3 1 -26 14 -51 31 -25 16 -61 31 -81 32 -20 2 -37 6 -37 11 0 4 -16 15 -35 24 -19 9 -35 21 -35 26 0 5 -6 7 -13 4 -7 -3 -24 1 -38 9 -27 15 -42 17 -52 7z"/>
 <path d="M737 279 c-7 -26 18 -45 36 -27 8 7 11 20 8 28 -9 21 -38 21 -44 -1z"/>
 <path d="M102 233 c2 -10 10 -18 18 -18 8 0 16 8 18 18 2 12 -3 17 -18 17 -15 0 -20 -5 -18 -17z"/>
 <path d="M220 194 c-6 -14 -7 -30 -4 -36 9 -14 252 -128 273 -128 14 0 41 36 41 54 0 2 -48 25 -107 51 -60 26 -124 56 -144 66 -47 24 -48 24 -59 -7z"/>
 <path d="M695 209 c-4 -6 -2 -15 5 -19 17 -10 42 -1 37 14 -5 16 -34 19 -42 5z"/>
 <path d="M6 147 c-7 -28 21 -49 46 -33 10 6 16 17 13 24 -3 8 -5 17 -5 22 0 4 -11 8 -24 8 -16 0 -26 -7 -30 -21z"/>
 <path d="M690 120 c0 -5 -3 -15 -6 -23 -7 -19 22 -30 47 -17 15 9 17 14 8 28 -12 18 -49 28 -49 12z"/>
 <path d="M100 102 c0 -14 11 -21 26 -15 8 3 11 9 8 14 -7 11 -34 12 -34 1z"/>
 <path d="M587 36 c-9 -22 19 -42 37 -26 8 6 12 18 9 26 -7 18 -39 18 -46 0z"/>
 </g>
<g id="layer103" fill="#eb3f31" stroke="none">
 <path d="M330 678 c0 -14 11 -42 25 -61 19 -29 20 -34 6 -25 -10 6 -25 22 -33 36 -9 13 -18 20 -21 14 -4 -5 3 -22 15 -37 l21 -28 -21 12 c-31 17 -27 6 11 -29 l32 -31 -38 22 c-20 11 -41 28 -46 37 -21 37 -71 -49 -70 -120 1 -96 8 -103 183 -184 157 -73 158 -74 189 -58 18 9 48 32 68 51 34 32 35 36 26 71 -12 45 6 92 41 107 33 15 27 25 -16 25 -21 0 -43 5 -50 12 -17 17 -15 64 3 81 18 19 6 30 -56 52 -46 17 -209 33 -209 21 0 -4 7 -18 16 -32 9 -13 14 -27 12 -30 -3 -3 -24 23 -47 57 -34 50 -41 57 -41 37z m230 -180 c0 -15 -19 -8 -29 11 -14 25 0 37 16 15 7 -10 13 -21 13 -26z m-30 -18 c0 -13 -12 -12 -32 4 -10 7 -15 16 -12 19 9 8 44 -11 44 -23z m86 -8 c53 -35 37 -153 -23 -168 -63 -16 -100 100 -48 151 24 25 50 31 71 17z"/>
 <path d="M550 435 c-18 -21 -18 -78 -1 -99 34 -41 85 4 79 71 -3 34 -6 38 -34 41 -19 2 -36 -3 -44 -13z m60 -15 c9 -17 7 -27 -11 -52 -24 -33 -38 -24 -19 12 6 11 8 30 5 40 -8 26 11 26 25 0z"/>
 <path d="M660 533 c1 -28 20 -36 71 -29 93 12 119 18 113 27 -6 11 -184 12 -184 2z"/>
 <path d="M706 424 c-30 -29 -12 -114 23 -114 18 0 41 39 41 71 0 54 -32 76 -64 43z m35 -24 c-8 -5 -9 -14 -2 -33 13 -35 -2 -35 -18 -1 -12 28 1 60 21 48 7 -4 6 -9 -1 -14z"/>
 <path d="M122 363 c2 -10 10 -18 18 -18 8 0 16 8 18 18 2 12 -3 17 -18 17 -15 0 -20 -5 -18 -17z"/>
 <path d="M8 323 c-2 -10 3 -23 11 -29 21 -16 50 3 43 28 -6 24 -49 24 -54 1z"/>
 <path d="M193 314 c-3 -9 -2 -24 4 -33 13 -21 371 -190 404 -190 31 -1 47 26 27 45 -23 21 -237 116 -248 109 -5 -3 -10 -1 -10 5 0 10 -140 80 -161 80 -5 0 -12 -7 -16 -16z"/>
 <path d="M737 279 c-7 -26 18 -45 36 -27 8 7 11 20 8 28 -9 21 -38 21 -44 -1z"/>
 <path d="M102 233 c2 -10 10 -18 18 -18 8 0 16 8 18 18 2 12 -3 17 -18 17 -15 0 -20 -5 -18 -17z"/>
 <path d="M695 209 c-4 -6 -2 -15 5 -19 17 -10 42 -1 37 14 -5 16 -34 19 -42 5z"/>
 <path d="M222 174 c3 -21 21 -33 136 -86 123 -57 134 -60 149 -45 16 15 11 19 -60 52 -42 19 -111 51 -153 70 l-75 34 3 -25z"/>
 <path d="M6 147 c-7 -28 21 -49 46 -33 10 6 16 17 13 24 -3 8 -5 17 -5 22 0 4 -11 8 -24 8 -16 0 -26 -7 -30 -21z"/>
 <path d="M690 120 c0 -5 -3 -15 -6 -23 -7 -19 22 -30 47 -17 15 9 17 14 8 28 -12 18 -49 28 -49 12z"/>
 <path d="M100 102 c0 -14 11 -21 26 -15 8 3 11 9 8 14 -7 11 -34 12 -34 1z"/>
 <path d="M587 36 c-9 -22 19 -42 37 -26 8 6 12 18 9 26 -7 18 -39 18 -46 0z"/>
 </g>
<g id="layer104" fill="#f86112" stroke="none">
 <path d="M330 678 c0 -14 11 -42 25 -61 19 -29 20 -34 6 -25 -10 6 -25 22 -33 36 -9 13 -18 20 -21 14 -4 -5 3 -22 15 -37 l21 -28 -21 12 c-31 17 -27 6 11 -29 l32 -31 -38 22 c-20 11 -41 28 -46 37 -21 37 -71 -49 -70 -120 1 -96 8 -103 183 -184 157 -73 158 -74 189 -58 18 9 48 32 68 51 34 32 35 36 26 71 -12 45 6 92 41 107 33 15 27 25 -16 25 -21 0 -43 5 -50 12 -17 17 -15 64 3 81 18 19 6 30 -56 52 -46 17 -209 33 -209 21 0 -4 7 -18 16 -32 9 -13 14 -27 12 -30 -3 -3 -24 23 -47 57 -34 50 -41 57 -41 37z m230 -180 c0 -15 -19 -8 -29 11 -14 25 0 37 16 15 7 -10 13 -21 13 -26z m-30 -18 c0 -13 -12 -12 -32 4 -10 7 -15 16 -12 19 9 8 44 -11 44 -23z m86 -8 c53 -35 37 -153 -23 -168 -63 -16 -100 100 -48 151 24 25 50 31 71 17z"/>
 <path d="M550 435 c-18 -21 -18 -78 -1 -99 34 -41 85 4 79 71 -3 34 -6 38 -34 41 -19 2 -36 -3 -44 -13z m60 -15 c9 -17 7 -27 -11 -52 -24 -33 -38 -24 -19 12 6 11 8 30 5 40 -8 26 11 26 25 0z"/>
 <path d="M660 533 c1 -28 20 -36 71 -29 93 12 119 18 113 27 -6 11 -184 12 -184 2z"/>
 <path d="M706 424 c-30 -29 -12 -114 23 -114 18 0 41 39 41 71 0 54 -32 76 -64 43z m35 -24 c-8 -5 -9 -14 -2 -33 13 -35 -2 -35 -18 -1 -12 28 1 60 21 48 7 -4 6 -9 -1 -14z"/>
 <path d="M122 363 c4 -21 33 -25 33 -3 0 8 -8 16 -18 18 -14 3 -18 -1 -15 -15z"/>
 <path d="M7 320 c-6 -22 26 -43 42 -27 6 6 11 19 11 28 0 23 -47 22 -53 -1z"/>
 <path d="M193 314 c-3 -9 -2 -24 4 -33 13 -21 371 -190 404 -190 31 -1 47 26 27 45 -23 21 -237 116 -248 109 -5 -3 -10 -1 -10 5 0 10 -140 80 -161 80 -5 0 -12 -7 -16 -16z"/>
 <path d="M737 280 c-6 -23 29 -45 37 -24 10 25 7 31 -13 37 -13 3 -21 -1 -24 -13z"/>
 <path d="M104 239 c-8 -14 11 -33 25 -25 16 10 13 36 -3 36 -8 0 -18 -5 -22 -11z"/>
 <path d="M694 209 c-8 -14 14 -29 32 -22 16 6 7 33 -11 33 -8 0 -17 -5 -21 -11z"/>
 <path d="M7 150 c-3 -10 2 -25 12 -33 14 -13 18 -13 29 -1 19 20 11 46 -14 50 -15 2 -23 -3 -27 -16z"/>
 <path d="M687 109 c-3 -10 1 -23 8 -29 15 -12 45 -3 45 14 -1 32 -45 45 -53 15z"/>
 <path d="M102 99 c2 -6 8 -10 13 -10 5 0 11 4 13 10 2 6 -4 11 -13 11 -9 0 -15 -5 -13 -11z"/>
 <path d="M590 38 c0 -7 4 -19 9 -27 8 -12 12 -12 25 -2 8 7 12 19 9 27 -6 17 -43 19 -43 2z"/>
 </g>
<g id="layer105" fill="#cea806" stroke="none">
 <path d="M330 678 c0 -14 11 -42 25 -61 19 -29 20 -34 6 -25 -10 6 -25 22 -33 36 -9 13 -18 20 -21 14 -4 -5 3 -22 15 -37 l21 -28 -21 12 c-31 17 -27 6 11 -29 l32 -31 -38 22 c-20 11 -41 28 -46 37 -21 37 -71 -49 -70 -120 1 -96 8 -103 183 -184 157 -73 158 -74 189 -58 18 9 48 32 68 51 34 32 35 36 26 71 -12 45 6 92 41 107 33 15 27 25 -16 25 -21 0 -43 5 -50 12 -17 17 -15 64 3 81 18 19 6 30 -56 52 -46 17 -209 33 -209 21 0 -4 7 -18 16 -32 9 -13 14 -27 12 -30 -3 -3 -24 23 -47 57 -34 50 -41 57 -41 37z m230 -180 c0 -15 -19 -8 -29 11 -14 25 0 37 16 15 7 -10 13 -21 13 -26z m-30 -18 c0 -13 -12 -12 -32 4 -10 7 -15 16 -12 19 9 8 44 -11 44 -23z m86 -8 c53 -35 37 -153 -23 -168 -63 -16 -100 100 -48 151 24 25 50 31 71 17z"/>
 <path d="M550 435 c-18 -21 -18 -78 -1 -99 34 -41 85 4 79 71 -3 34 -6 38 -34 41 -19 2 -36 -3 -44 -13z m60 -15 c9 -17 7 -27 -11 -52 -24 -33 -38 -24 -19 12 6 11 8 30 5 40 -8 26 11 26 25 0z"/>
 <path d="M706 424 c-30 -29 -12 -114 23 -114 18 0 41 39 41 71 0 54 -32 76 -64 43z m35 -24 c-8 -5 -9 -14 -2 -33 13 -35 -2 -35 -18 -1 -12 28 1 60 21 48 7 -4 6 -9 -1 -14z"/>
 <path d="M193 314 c-3 -9 -2 -24 4 -33 13 -21 371 -190 404 -190 31 -1 47 26 27 45 -23 21 -237 116 -248 109 -5 -3 -10 -1 -10 5 0 10 -140 80 -161 80 -5 0 -12 -7 -16 -16z"/>
 </g>
<g id="layer106" fill="#ffcc00" stroke="none">
 <path d="M334 666 c4 -16 19 -45 34 -65 l27 -35 -32 22 c-18 13 -37 31 -43 40 -6 11 -10 12 -10 4 0 -7 12 -24 26 -37 30 -28 21 -33 -16 -9 -14 8 -8 1 13 -18 49 -44 47 -52 -7 -22 -42 24 -47 24 -75 10 -22 -12 -32 -26 -37 -51 -9 -49 13 -133 40 -150 43 -27 285 -135 305 -135 21 0 98 55 115 82 8 13 8 23 -2 38 -30 49 -3 118 53 134 11 3 -4 3 -32 1 -45 -3 -55 -1 -68 18 -8 12 -15 34 -15 49 0 32 -19 40 -99 42 -31 1 -64 6 -75 11 -16 7 -17 5 -11 -16 4 -13 10 -31 12 -39 3 -8 -6 2 -19 22 -12 20 -38 59 -57 85 -29 41 -32 44 -27 19z m216 -141 c0 -8 15 -21 34 -29 45 -19 66 -52 66 -102 0 -47 -30 -94 -60 -94 -71 0 -122 81 -89 141 8 16 7 25 -7 40 -22 24 -10 38 18 20 18 -11 20 -11 14 4 -3 9 -4 21 0 26 8 14 24 11 24 -6z"/>
 <path d="M550 435 c-18 -21 -18 -78 -1 -99 34 -41 85 4 79 71 -3 34 -6 38 -34 41 -19 2 -36 -3 -44 -13z m60 -15 c9 -17 7 -27 -11 -52 -24 -33 -38 -24 -19 12 6 11 8 30 5 40 -8 26 11 26 25 0z"/>
 <path d="M706 424 c-30 -29 -12 -114 23 -114 18 0 41 39 41 71 0 54 -32 76 -64 43z m35 -24 c-8 -5 -9 -14 -2 -33 13 -35 -2 -35 -18 -1 -12 28 1 60 21 48 7 -4 6 -9 -1 -14z"/>
 <path d="M193 314 c-3 -9 -2 -24 4 -33 13 -21 371 -190 404 -190 31 -1 47 26 27 45 -23 21 -237 116 -248 109 -5 -3 -10 -1 -10 5 0 10 -140 80 -161 80 -5 0 -12 -7 -16 -16z"/>
 </g>
<g id="layer107" fill="#fefefe" stroke="none">
 <path d="M550 435 c-18 -21 -18 -78 -1 -99 34 -41 85 4 79 71 -3 34 -6 38 -34 41 -19 2 -36 -3 -44 -13z m60 -15 c9 -17 7 -27 -11 -52 -24 -33 -38 -24 -19 12 6 11 8 30 5 40 -8 26 11 26 25 0z"/>
 <path d="M706 424 c-30 -29 -12 -114 23 -114 18 0 41 39 41 71 0 54 -32 76 -64 43z m35 -24 c-8 -5 -9 -14 -2 -33 13 -35 -2 -35 -18 -1 -12 28 1 60 21 48 7 -4 6 -9 -1 -14z"/>
 <path d="M193 314 c-3 -9 -2 -24 4 -33 13 -21 371 -190 404 -190 31 -1 47 26 27 45 -23 21 -237 116 -248 109 -5 -3 -10 -1 -10 5 0 10 -140 80 -161 80 -5 0 -12 -7 -16 -16z"/>
 </g>

</svg>