<!DOCTYPE svg PUBLIC "-//W3C//DTD SVG 20010904//EN" "http://www.w3.org/TR/2001/REC-SVG-20010904/DTD/svg10.dtd">
<svg version="1.0" xmlns="http://www.w3.org/2000/svg" width="83px" height="80px" viewBox="0 0 830 800" preserveAspectRatio="xMidYMid meet">
<g id="layer101" fill="#000000" stroke="none">
 <path d="M250 781 c0 -11 6 -21 13 -24 6 -2 9 -8 4 -12 -4 -5 -23 -1 -42 8 -45 22 -52 21 -58 -2 -3 -14 3 -23 23 -31 l28 -12 -24 -35 c-13 -20 -24 -44 -24 -54 0 -16 -8 -19 -57 -19 -109 0 -150 -49 -54 -63 30 -4 56 -9 58 -10 1 -2 -18 -18 -43 -35 -25 -18 -44 -38 -41 -45 5 -16 61 -21 85 -8 23 12 44 -16 35 -48 -9 -33 16 -84 39 -78 12 4 24 -3 36 -20 9 -13 27 -37 39 -52 12 -16 20 -31 16 -35 -3 -3 1 -6 9 -6 9 0 21 -7 28 -15 7 -9 15 -13 17 -11 3 2 23 -2 45 -10 22 -8 67 -14 99 -14 58 0 59 0 59 -29 0 -16 -7 -34 -15 -41 -17 -14 -11 -30 13 -30 9 0 26 -12 38 -27 l22 -28 11 28 c6 16 18 27 29 27 28 0 34 11 16 31 -10 11 -15 28 -12 44 6 27 -3 31 -31 16 -10 -6 -23 -6 -31 -1 -12 7 -11 10 5 15 93 30 154 76 171 127 4 13 18 33 31 46 22 20 24 29 19 65 -4 23 -6 56 -5 72 5 108 3 124 -19 154 l-23 31 26 10 c15 6 31 10 36 10 5 0 9 4 9 9 0 4 -23 11 -50 14 -28 3 -62 15 -76 26 -58 46 -130 62 -258 60 -79 -2 -129 2 -143 9 -32 18 -53 15 -53 -7z"/>
 <path d="M180 210 c0 -9 -5 -21 -12 -28 -9 -9 -9 -12 1 -12 8 0 20 -8 27 -17 13 -17 15 -17 25 0 5 9 16 17 24 17 10 0 11 5 2 24 -14 30 -67 42 -67 16z"/>
 <path d="M744 203 c4 -9 1 -22 -5 -29 -9 -11 -8 -14 1 -14 7 0 19 -8 26 -17 13 -17 15 -17 28 0 7 9 19 17 27 17 10 0 10 3 1 12 -7 7 -12 19 -12 28 0 12 -10 16 -36 17 -28 1 -34 -2 -30 -14z"/>
 <path d="M380 105 c0 -12 -5 -26 -12 -33 -9 -9 -9 -12 0 -12 7 0 21 -9 33 -21 l21 -21 14 21 c9 12 23 21 32 21 12 0 13 3 4 12 -7 7 -12 21 -12 33 0 17 -6 20 -40 20 -34 0 -40 -3 -40 -20z"/>
 </g>
<g id="layer102" fill="#990000" stroke="none">
 <path d="M400 754 c-102 -20 -172 -63 -196 -121 -20 -48 -18 -56 14 -49 l27 6 -27 -15 c-24 -14 -46 -50 -35 -61 2 -2 21 3 42 11 20 9 39 14 42 11 2 -2 -6 -7 -19 -11 -34 -11 -88 -54 -88 -71 0 -20 6 -18 48 14 l36 27 -32 -40 c-17 -22 -34 -56 -38 -75 l-7 -35 49 45 c27 25 68 63 92 85 24 22 40 32 37 23 -8 -20 3 -22 78 -12 44 6 46 8 40 34 -7 36 28 114 58 130 12 7 41 10 65 7 46 -5 51 1 33 35 -10 19 -9 20 23 14 31 -7 32 -6 13 9 -10 8 -35 20 -55 25 -42 12 -165 20 -200 14z m70 -96 c0 -13 -23 -5 -28 10 -2 7 2 10 12 6 9 -3 16 -11 16 -16z"/>
 <path d="M646 665 c7 -16 17 -18 52 -9 36 10 25 24 -18 24 -31 0 -38 -3 -34 -15z"/>
 <path d="M545 640 c-36 -14 -58 -48 -63 -98 l-4 -49 103 -7 c57 -4 121 -11 142 -15 44 -11 57 4 57 66 0 42 -19 76 -52 94 -17 9 -26 7 -50 -11 -30 -22 -30 -22 -51 -2 -28 25 -56 33 -82 22z m22 -85 c0 -14 -7 -20 -24 -21 -18 -2 -21 1 -14 10 7 9 7 16 0 23 -8 8 -4 11 14 10 17 -2 24 -8 24 -22z m175 -4 c17 9 18 8 9 -9 -7 -13 -7 -22 0 -29 7 -7 1 -10 -18 -9 -23 1 -28 6 -29 29 -1 19 2 25 9 18 7 -7 16 -7 29 0z"/>
 <path d="M362 449 c-83 -10 -150 -57 -136 -94 6 -15 17 -17 93 -11 47 3 168 9 269 12 178 7 182 7 182 29 0 41 -21 53 -115 64 -101 12 -200 12 -293 0z"/>
 <path d="M388 317 c-60 -5 -108 -14 -108 -19 0 -5 7 -20 16 -34 16 -23 15 -26 -1 -44 -17 -19 -17 -20 0 -20 10 0 24 -8 31 -17 12 -17 13 -17 19 0 8 20 29 21 113 3 34 -7 62 -9 62 -6 0 4 18 10 39 13 22 3 54 12 71 21 22 10 38 13 49 6 9 -5 23 -5 30 -1 10 7 10 11 -2 22 -12 12 -13 17 -2 29 7 8 16 25 19 38 l7 22 -118 -2 c-65 0 -166 -5 -225 -11z"/>
 <path d="M180 210 c0 -9 -5 -21 -12 -28 -9 -9 -9 -12 1 -12 8 0 20 -8 27 -17 13 -17 15 -17 25 0 5 9 16 17 24 17 10 0 11 5 2 24 -14 30 -67 42 -67 16z"/>
 <path d="M744 203 c4 -9 1 -22 -5 -29 -9 -11 -8 -14 1 -14 7 0 19 -8 26 -17 13 -17 15 -17 28 0 7 9 19 17 27 17 10 0 10 3 1 12 -7 7 -12 19 -12 28 0 12 -10 16 -36 17 -28 1 -34 -2 -30 -14z"/>
 <path d="M540 122 c0 -16 -7 -35 -15 -42 -17 -14 -11 -30 13 -30 9 0 26 -12 38 -27 l22 -28 11 28 c6 16 18 27 29 27 28 0 34 11 16 31 -10 11 -15 28 -11 44 4 23 2 26 -17 20 -27 -8 -36 -8 -63 0 -20 7 -23 4 -23 -23z"/>
 <path d="M380 105 c0 -12 -5 -26 -12 -33 -9 -9 -9 -12 0 -12 7 0 21 -9 33 -21 l21 -21 14 21 c9 12 23 21 32 21 12 0 13 3 4 12 -7 7 -12 21 -12 33 0 17 -6 20 -40 20 -34 0 -40 -3 -40 -20z"/>
 </g>
<g id="layer103" fill="#404041" stroke="none">
 <path d="M400 754 c-102 -20 -172 -63 -196 -121 -20 -48 -18 -56 14 -49 l27 6 -27 -15 c-24 -14 -46 -50 -35 -61 2 -2 21 3 42 11 20 9 39 14 42 11 2 -2 -6 -7 -19 -11 -34 -11 -88 -54 -88 -71 0 -20 6 -18 48 14 l36 27 -32 -40 c-17 -22 -34 -56 -38 -75 l-7 -35 49 45 c27 25 68 63 92 85 24 22 40 32 37 23 -8 -20 3 -22 78 -12 44 6 46 8 40 34 -7 36 28 114 58 130 12 7 41 10 65 7 46 -5 51 1 33 35 -10 19 -9 20 23 14 31 -7 32 -6 13 9 -10 8 -35 20 -55 25 -42 12 -165 20 -200 14z m70 -96 c0 -13 -23 -5 -28 10 -2 7 2 10 12 6 9 -3 16 -11 16 -16z"/>
 <path d="M650 666 c9 -9 25 -13 43 -9 40 8 33 18 -16 21 -37 2 -40 1 -27 -12z"/>
 <path d="M545 640 c-36 -14 -58 -48 -63 -98 l-4 -49 103 -7 c57 -4 121 -11 142 -15 44 -11 57 4 57 66 0 42 -19 76 -52 94 -17 9 -26 7 -50 -11 -30 -22 -30 -22 -51 -2 -28 25 -56 33 -82 22z m22 -85 c0 -14 -7 -20 -24 -21 -18 -2 -21 1 -14 10 7 9 7 16 0 23 -8 8 -4 11 14 10 17 -2 24 -8 24 -22z m175 -4 c17 9 18 8 9 -9 -7 -13 -7 -22 0 -29 7 -7 1 -10 -18 -9 -23 1 -28 6 -29 29 -1 19 2 25 9 18 7 -7 16 -7 29 0z"/>
 <path d="M362 449 c-83 -10 -150 -57 -136 -94 6 -15 17 -17 93 -11 47 3 168 9 269 12 178 7 182 7 182 29 0 41 -21 53 -115 64 -101 12 -200 12 -293 0z"/>
 <path d="M465 279 c-3 -4 -39 -10 -80 -14 -53 -5 -75 -11 -75 -20 0 -8 -7 -21 -16 -29 -14 -15 -14 -16 4 -16 11 0 23 -8 27 -17 6 -17 7 -17 19 -1 6 9 18 17 26 19 23 4 113 -11 133 -22 9 -5 17 -5 17 0 0 4 17 11 38 14 20 4 54 15 75 26 20 10 37 15 37 11 0 -12 25 -19 39 -11 10 6 9 12 -4 24 -9 9 -13 21 -10 27 4 6 -21 10 -67 11 -40 1 -92 2 -116 3 -24 1 -45 -1 -47 -5z"/>
 <path d="M180 210 c0 -9 -5 -21 -12 -28 -9 -9 -9 -12 1 -12 8 0 20 -8 27 -17 13 -17 15 -17 25 0 5 9 16 17 24 17 10 0 11 5 2 24 -14 30 -67 42 -67 16z"/>
 <path d="M744 203 c4 -9 1 -22 -5 -29 -9 -11 -8 -14 1 -14 7 0 19 -8 26 -17 13 -17 15 -17 28 0 7 9 19 17 27 17 10 0 10 3 1 12 -7 7 -12 19 -12 28 0 12 -10 16 -36 17 -28 1 -34 -2 -30 -14z"/>
 <path d="M540 122 c0 -16 -7 -35 -15 -42 -17 -14 -11 -30 13 -30 9 0 26 -12 38 -27 l22 -28 11 28 c6 16 18 27 29 27 28 0 34 11 16 31 -10 11 -15 28 -11 44 4 23 2 26 -17 20 -27 -8 -36 -8 -63 0 -20 7 -23 4 -23 -23z"/>
 <path d="M380 105 c0 -12 -5 -26 -12 -33 -9 -9 -9 -12 0 -12 7 0 21 -9 33 -21 l21 -21 14 21 c9 12 23 21 32 21 12 0 13 3 4 12 -7 7 -12 21 -12 33 0 17 -6 20 -40 20 -34 0 -40 -3 -40 -20z"/>
 </g>
<g id="layer104" fill="#cc0000" stroke="none">
 <path d="M400 750 c-100 -14 -158 -48 -190 -110 -28 -55 -26 -63 13 -55 l32 6 -32 -17 c-29 -14 -52 -49 -40 -60 2 -2 20 3 40 11 57 23 57 18 1 -15 -47 -26 -72 -55 -60 -68 3 -2 19 7 36 22 43 35 59 33 22 -3 -32 -32 -59 -88 -48 -99 4 -4 15 3 24 14 28 35 152 135 145 117 -5 -14 -1 -15 33 -10 21 4 49 7 62 7 19 0 22 5 22 43 0 82 78 155 138 127 31 -14 35 -9 22 25 -10 26 -9 27 19 23 47 -7 26 10 -32 26 -71 20 -142 25 -207 16z m68 -89 c3 -8 -1 -12 -9 -9 -7 2 -15 10 -17 17 -3 8 1 12 9 9 7 -2 15 -10 17 -17z"/>
 <path d="M650 671 c0 -15 15 -21 39 -14 17 4 19 8 9 14 -18 12 -48 11 -48 0z"/>
 <path d="M516 615 c-26 -28 -38 -70 -29 -104 5 -18 13 -21 58 -21 28 0 89 -5 135 -11 95 -13 100 -10 100 59 0 35 -6 49 -29 73 -31 30 -49 31 -84 1 -15 -14 -19 -13 -40 6 -32 30 -82 29 -111 -3z m60 -67 c1 -23 -2 -26 -12 -17 -11 9 -18 8 -29 -1 -9 -8 -15 -9 -15 -2 0 6 5 14 10 17 8 5 8 11 1 19 -8 10 -4 13 17 13 23 0 27 -5 28 -29z m180 -18 c-1 -22 -6 -27 -27 -27 -21 0 -26 5 -26 26 0 21 5 26 27 27 23 1 27 -3 26 -26z"/>
 <path d="M360 409 c-108 -9 -139 -22 -126 -55 6 -14 16 -16 74 -11 229 21 354 28 405 22 52 -5 57 -4 57 13 0 16 -9 21 -47 25 -96 13 -261 15 -363 6z"/>
 <path d="M465 279 c-3 -4 -39 -10 -80 -14 -64 -6 -75 -9 -75 -25 0 -11 -8 -24 -17 -29 -17 -10 -17 -10 1 -11 10 0 25 -8 32 -17 13 -17 13 -17 14 0 0 23 20 25 120 8 59 -9 144 6 189 36 18 12 25 12 31 3 4 -7 13 -9 19 -5 9 5 9 10 1 20 -7 8 -9 19 -5 25 4 6 -19 10 -67 11 -40 1 -92 2 -116 3 -24 1 -45 -1 -47 -5z"/>
 <path d="M180 210 c0 -9 -5 -21 -12 -28 -9 -9 -9 -12 1 -12 8 0 20 -8 27 -17 13 -17 15 -17 25 0 5 9 16 17 24 17 10 0 11 5 2 24 -14 30 -67 42 -67 16z"/>
 <path d="M744 203 c4 -9 1 -22 -5 -29 -9 -11 -8 -14 1 -14 7 0 19 -8 26 -17 13 -17 15 -17 28 0 7 9 19 17 27 17 10 0 10 3 1 12 -7 7 -12 19 -12 28 0 12 -10 16 -36 17 -28 1 -34 -2 -30 -14z"/>
 <path d="M540 122 c0 -16 -7 -35 -15 -42 -17 -14 -11 -30 13 -30 9 0 26 -12 38 -27 l22 -28 11 28 c6 16 18 27 29 27 28 0 34 11 16 31 -10 11 -15 28 -11 44 4 23 2 26 -17 20 -27 -8 -36 -8 -63 0 -20 7 -23 4 -23 -23z"/>
 <path d="M380 105 c0 -12 -5 -26 -12 -33 -9 -9 -9 -12 0 -12 7 0 21 -9 33 -21 l21 -21 14 21 c9 12 23 21 32 21 12 0 13 3 4 12 -7 7 -12 21 -12 33 0 17 -6 20 -40 20 -34 0 -40 -3 -40 -20z"/>
 </g>
<g id="layer105" fill="#669900" stroke="none">
 <path d="M400 750 c-100 -14 -158 -48 -190 -110 -28 -55 -26 -63 13 -55 l32 6 -32 -17 c-29 -14 -52 -49 -40 -60 2 -2 20 3 40 11 57 23 57 18 1 -15 -47 -26 -72 -55 -60 -68 3 -2 19 7 36 22 43 35 59 33 22 -3 -32 -32 -59 -88 -48 -99 4 -4 15 3 24 14 28 35 152 135 145 117 -5 -14 -1 -15 33 -10 21 4 49 7 62 7 19 0 22 5 22 43 0 82 78 155 138 127 31 -14 35 -9 22 25 -10 26 -9 27 19 23 47 -7 26 10 -32 26 -71 20 -142 25 -207 16z m68 -89 c3 -8 -1 -12 -9 -9 -7 2 -15 10 -17 17 -3 8 1 12 9 9 7 -2 15 -10 17 -17z"/>
 <path d="M650 671 c0 -15 15 -21 39 -14 17 4 19 8 9 14 -18 12 -48 11 -48 0z"/>
 <path d="M516 615 c-26 -28 -38 -70 -29 -104 5 -18 13 -21 58 -21 28 0 89 -5 135 -11 95 -13 100 -10 100 59 0 35 -6 49 -29 73 -31 30 -49 31 -84 1 -15 -14 -19 -13 -40 6 -32 30 -82 29 -111 -3z m60 -67 c1 -23 -2 -26 -12 -17 -11 9 -18 8 -29 -1 -9 -8 -15 -9 -15 -2 0 6 5 14 10 17 8 5 8 11 1 19 -8 10 -4 13 17 13 23 0 27 -5 28 -29z m180 -18 c-1 -22 -6 -27 -27 -27 -21 0 -26 5 -26 26 0 21 5 26 27 27 23 1 27 -3 26 -26z"/>
 <path d="M360 409 c-108 -9 -139 -22 -126 -55 6 -14 16 -16 74 -11 229 21 354 28 405 22 52 -5 57 -4 57 13 0 16 -9 21 -47 25 -96 13 -261 15 -363 6z"/>
 <path d="M470 265 c0 -12 -5 -26 -12 -33 -9 -9 -8 -12 4 -12 9 0 24 -10 32 -22 l16 -22 16 23 c11 15 23 21 36 17 27 -6 98 22 98 40 0 18 -22 18 -66 -1 -41 -17 -54 -13 -47 13 3 15 -3 17 -36 17 -35 0 -41 -3 -41 -20z"/>
 <path d="M310 235 c0 -7 -8 -19 -17 -24 -17 -10 -17 -10 1 -11 10 0 25 -8 32 -17 13 -17 13 -17 14 0 0 9 7 17 16 17 11 0 14 5 10 16 -3 9 -6 20 -6 25 0 5 -11 9 -25 9 -15 0 -25 -6 -25 -15z"/>
 <path d="M680 235 c0 -9 5 -15 11 -13 6 2 11 8 11 13 0 5 -5 11 -11 13 -6 2 -11 -4 -11 -13z"/>
 <path d="M180 210 c0 -9 -5 -21 -12 -28 -9 -9 -9 -12 1 -12 8 0 20 -8 27 -17 13 -17 15 -17 25 0 5 9 16 17 24 17 10 0 11 5 2 24 -14 30 -67 42 -67 16z"/>
 <path d="M744 203 c4 -9 1 -22 -5 -29 -9 -11 -8 -14 1 -14 7 0 19 -8 26 -17 13 -17 15 -17 28 0 7 9 19 17 27 17 10 0 10 3 1 12 -7 7 -12 19 -12 27 0 11 -11 17 -36 18 -29 1 -34 -1 -30 -14z"/>
 <path d="M540 122 c0 -16 -7 -35 -15 -42 -17 -14 -11 -30 13 -30 9 0 26 -12 38 -27 l22 -28 11 28 c6 16 18 27 29 27 28 0 34 11 16 31 -10 11 -15 28 -11 44 4 23 2 26 -17 20 -27 -8 -36 -8 -63 0 -20 7 -23 4 -23 -23z"/>
 <path d="M380 105 c0 -12 -5 -26 -12 -33 -9 -9 -8 -12 4 -12 9 0 24 -10 32 -22 l16 -22 16 22 c8 12 23 22 32 22 12 0 13 3 4 12 -7 7 -12 21 -12 33 0 17 -6 20 -40 20 -34 0 -40 -3 -40 -20z"/>
 </g>
<g id="layer106" fill="#656565" stroke="none">
 <path d="M498 701 c-30 -14 -34 -20 -26 -35 13 -23 5 -30 -21 -16 -23 12 -28 30 -8 31 6 0 2 4 -11 9 -13 6 -32 6 -48 0 -14 -6 -36 -10 -48 -10 -13 0 -29 -7 -36 -15 -7 -8 -22 -15 -34 -15 -29 0 -66 -27 -66 -49 0 -14 7 -17 32 -13 l33 4 -35 -19 c-37 -19 -59 -63 -24 -48 11 4 33 10 49 12 29 4 28 3 -9 -17 -49 -25 -76 -49 -76 -67 0 -10 13 -4 37 16 49 41 65 40 26 -1 -32 -34 -53 -69 -53 -88 0 -17 132 99 164 144 23 34 28 36 24 16 -3 -14 -8 -32 -12 -40 -5 -13 3 -14 48 -12 54 4 55 4 50 31 -3 15 -1 44 4 64 10 35 9 37 -13 37 -13 0 -26 4 -30 9 -9 16 13 23 35 11 18 -10 25 -7 45 14 25 27 87 37 100 16 12 -19 26 -10 19 13 -13 41 -52 48 -116 18z"/>
 <path d="M650 671 c0 -15 15 -21 39 -14 17 4 19 8 9 14 -18 12 -48 11 -48 0z"/>
 <path d="M516 615 c-26 -28 -38 -70 -29 -104 5 -18 13 -21 58 -21 28 0 89 -5 135 -11 95 -13 100 -10 100 59 0 35 -6 49 -29 73 -31 30 -49 31 -84 1 -15 -14 -19 -13 -40 6 -32 30 -82 29 -111 -3z m60 -67 c1 -23 -2 -26 -12 -17 -11 9 -18 8 -29 -1 -9 -8 -15 -9 -15 -2 0 6 5 14 10 17 8 5 8 11 1 19 -8 10 -4 13 17 13 23 0 27 -5 28 -29z m180 -18 c-1 -22 -6 -27 -27 -27 -21 0 -26 5 -26 26 0 21 5 26 27 27 23 1 27 -3 26 -26z"/>
 <path d="M360 409 c-108 -9 -139 -22 -126 -55 6 -14 16 -16 74 -11 229 21 354 28 405 22 52 -5 57 -4 57 13 0 16 -9 21 -47 25 -96 13 -261 15 -363 6z"/>
 <path d="M470 265 c0 -12 -5 -26 -12 -33 -9 -9 -8 -12 4 -12 9 0 24 -10 32 -22 l16 -22 16 23 c11 15 23 21 36 17 27 -6 98 22 98 40 0 18 -22 18 -66 -1 -41 -17 -54 -13 -47 13 3 15 -3 17 -36 17 -35 0 -41 -3 -41 -20z"/>
 <path d="M310 235 c0 -7 -8 -19 -17 -25 -16 -10 -16 -11 4 -7 15 3 23 -1 28 -17 5 -16 8 -18 12 -6 3 8 12 18 19 22 6 5 10 17 7 28 -6 24 -53 29 -53 5z"/>
 <path d="M680 235 c0 -9 5 -15 11 -13 6 2 11 8 11 13 0 5 -5 11 -11 13 -6 2 -11 -4 -11 -13z"/>
 <path d="M180 210 c0 -9 -5 -21 -12 -28 -9 -9 -9 -12 1 -12 8 0 20 -8 27 -17 13 -17 15 -17 25 0 5 9 16 17 24 17 10 0 11 5 2 24 -14 30 -67 42 -67 16z"/>
 <path d="M744 203 c4 -9 1 -22 -5 -29 -9 -11 -8 -14 1 -14 7 0 19 -8 26 -17 13 -17 15 -17 28 0 7 9 19 17 27 17 10 0 10 3 1 12 -7 7 -12 19 -12 27 0 11 -11 17 -36 18 -29 1 -34 -1 -30 -14z"/>
 <path d="M540 122 c0 -16 -7 -35 -15 -42 -17 -14 -11 -30 13 -30 9 0 26 -12 38 -27 l22 -28 11 28 c6 16 18 27 29 27 28 0 34 11 16 31 -10 11 -15 28 -11 44 4 23 2 26 -17 20 -27 -8 -36 -8 -63 0 -20 7 -23 4 -23 -23z"/>
 <path d="M380 105 c0 -12 -5 -26 -12 -33 -9 -9 -8 -12 4 -12 9 0 24 -10 32 -22 l16 -22 16 22 c8 12 23 22 32 22 12 0 13 3 4 12 -7 7 -12 21 -12 33 0 17 -6 20 -40 20 -34 0 -40 -3 -40 -20z"/>
 </g>
<g id="layer107" fill="#9acd00" stroke="none">
 <path d="M498 701 c-30 -14 -34 -20 -26 -35 13 -23 5 -30 -21 -16 -23 12 -28 30 -8 31 6 0 2 4 -11 9 -13 6 -32 6 -48 0 -14 -6 -36 -10 -48 -10 -13 0 -29 -7 -36 -15 -7 -8 -22 -15 -34 -15 -29 0 -66 -27 -66 -49 0 -14 7 -17 32 -13 l33 4 -35 -19 c-37 -19 -59 -63 -24 -48 11 4 33 10 49 12 29 4 28 3 -9 -17 -49 -25 -76 -49 -76 -67 0 -10 13 -4 37 16 49 41 65 40 26 -1 -32 -34 -53 -69 -53 -88 0 -17 132 99 164 144 23 34 28 36 24 16 -3 -14 -8 -32 -12 -40 -5 -13 3 -14 48 -12 54 4 55 4 50 31 -3 15 -1 44 4 64 10 35 9 37 -13 37 -13 0 -26 4 -30 9 -9 16 13 23 35 11 18 -10 25 -7 45 14 25 27 87 37 100 16 12 -19 26 -10 19 13 -13 41 -52 48 -116 18z"/>
 <path d="M650 671 c0 -15 15 -21 39 -14 17 4 19 8 9 14 -18 12 -48 11 -48 0z"/>
 <path d="M520 615 c-18 -19 -24 -37 -24 -73 l-1 -47 90 -6 c50 -3 109 -9 132 -13 41 -7 43 -6 54 21 21 56 -14 133 -61 133 -11 0 -29 -9 -40 -20 -19 -19 -20 -19 -44 5 -33 33 -75 33 -106 0z m18 -37 c9 -9 15 -9 24 0 18 18 30 14 19 -6 -5 -10 -6 -24 -1 -33 7 -13 3 -15 -25 -15 -30 1 -33 4 -28 24 3 13 1 22 -6 22 -6 0 -11 5 -11 10 0 14 13 13 28 -2z m219 -55 c1 -25 -2 -31 -11 -24 -7 6 -23 7 -37 4 -21 -6 -23 -5 -10 10 10 13 11 20 2 31 -10 12 -6 14 22 13 31 -1 33 -3 34 -34z"/>
 <path d="M470 265 c0 -12 -5 -26 -12 -33 -9 -9 -8 -12 4 -12 9 0 24 -10 32 -22 l16 -22 16 23 c11 15 23 21 36 17 27 -6 98 22 98 40 0 18 -22 18 -66 -1 -41 -17 -54 -13 -47 13 3 15 -3 17 -36 17 -35 0 -41 -3 -41 -20z"/>
 <path d="M310 235 c0 -7 -8 -19 -17 -25 -16 -10 -16 -11 4 -7 15 3 23 -1 28 -17 5 -16 8 -18 12 -6 3 8 12 18 19 22 6 5 10 17 7 28 -6 24 -53 29 -53 5z"/>
 <path d="M680 235 c0 -9 5 -15 11 -13 6 2 11 8 11 13 0 5 -5 11 -11 13 -6 2 -11 -4 -11 -13z"/>
 <path d="M180 210 c0 -9 -5 -21 -12 -28 -9 -9 -9 -12 1 -12 8 0 20 -8 27 -17 13 -17 15 -17 25 0 5 9 16 17 24 17 10 0 11 5 2 24 -14 30 -67 42 -67 16z"/>
 <path d="M744 203 c4 -9 1 -22 -5 -29 -9 -11 -8 -14 1 -14 7 0 19 -8 26 -17 13 -17 15 -17 28 0 7 9 19 17 27 17 10 0 10 3 1 12 -7 7 -12 19 -12 27 0 11 -11 17 -36 18 -29 1 -34 -1 -30 -14z"/>
 <path d="M540 122 c0 -16 -7 -35 -15 -42 -17 -14 -11 -30 13 -30 9 0 26 -12 38 -27 l22 -28 11 28 c6 16 18 27 29 27 28 0 34 11 16 31 -10 11 -15 28 -11 44 4 23 2 26 -17 20 -27 -8 -36 -8 -63 0 -20 7 -23 4 -23 -23z"/>
 <path d="M380 105 c0 -12 -5 -26 -12 -33 -9 -9 -8 -12 4 -12 9 0 24 -10 32 -22 l16 -22 16 22 c8 12 23 22 32 22 12 0 13 3 4 12 -7 7 -12 21 -12 33 0 17 -6 20 -40 20 -34 0 -40 -3 -40 -20z"/>
 </g>
<g id="layer108" fill="#f25b28" stroke="none">
 <path d="M650 671 c0 -15 15 -21 39 -14 17 4 19 8 9 14 -18 12 -48 11 -48 0z"/>
 <path d="M520 615 c-18 -19 -24 -37 -24 -73 l-1 -47 90 -6 c50 -3 109 -9 132 -13 41 -7 43 -6 54 21 21 56 -14 133 -61 133 -11 0 -29 -9 -40 -20 -19 -19 -20 -19 -44 5 -33 33 -75 33 -106 0z m18 -37 c9 -9 15 -9 24 0 18 18 30 14 19 -6 -5 -10 -6 -24 -1 -33 7 -13 3 -15 -25 -15 -30 1 -33 4 -28 24 3 13 1 22 -6 22 -6 0 -11 5 -11 10 0 14 13 13 28 -2z m219 -55 c1 -25 -2 -31 -11 -24 -7 6 -23 7 -37 4 -21 -6 -23 -5 -10 10 10 13 11 20 2 31 -10 12 -6 14 22 13 31 -1 33 -3 34 -34z"/>
 <path d="M470 265 c0 -12 -5 -26 -12 -33 -9 -9 -8 -12 4 -12 9 0 24 -10 32 -22 l16 -22 16 23 c11 15 23 21 36 17 27 -6 98 22 98 40 0 18 -22 18 -66 -1 -41 -17 -54 -13 -47 13 3 15 -3 17 -36 17 -35 0 -41 -3 -41 -20z"/>
 <path d="M310 235 c0 -7 -8 -19 -17 -25 -16 -10 -16 -11 4 -7 15 3 23 -1 28 -17 5 -16 8 -18 12 -6 3 8 12 18 19 22 6 5 10 17 7 28 -6 24 -53 29 -53 5z"/>
 <path d="M680 235 c0 -9 5 -15 11 -13 6 2 11 8 11 13 0 5 -5 11 -11 13 -6 2 -11 -4 -11 -13z"/>
 <path d="M180 210 c0 -9 -5 -21 -12 -28 -9 -9 -9 -12 1 -12 8 0 20 -8 27 -17 13 -17 15 -17 25 0 5 9 16 17 24 17 10 0 11 5 2 24 -14 30 -67 42 -67 16z"/>
 <path d="M744 203 c4 -9 1 -22 -5 -29 -9 -11 -8 -14 1 -14 7 0 19 -8 26 -17 13 -17 15 -17 28 0 7 9 19 17 27 17 10 0 10 3 1 12 -7 7 -12 19 -12 27 0 11 -11 17 -36 18 -29 1 -34 -1 -30 -14z"/>
 <path d="M540 122 c0 -16 -7 -35 -15 -42 -17 -14 -11 -30 13 -30 9 0 26 -12 38 -27 l22 -28 11 28 c6 16 18 27 29 27 28 0 34 11 16 31 -10 11 -15 28 -11 44 4 23 2 26 -17 20 -27 -8 -36 -8 -63 0 -20 7 -23 4 -23 -23z"/>
 <path d="M380 105 c0 -12 -5 -26 -12 -33 -9 -9 -8 -12 4 -12 9 0 24 -10 32 -22 l16 -22 16 22 c8 12 23 22 32 22 12 0 13 3 4 12 -7 7 -12 21 -12 33 0 17 -6 20 -40 20 -34 0 -40 -3 -40 -20z"/>
 </g>
<g id="layer109" fill="#f8941e" stroke="none">
 <path d="M520 615 c-18 -19 -24 -37 -24 -73 l-1 -47 90 -6 c50 -3 109 -9 132 -13 41 -7 43 -6 54 21 21 56 -14 133 -61 133 -11 0 -29 -9 -40 -20 -19 -19 -20 -19 -44 5 -33 33 -75 33 -106 0z m18 -37 c9 -9 15 -9 24 0 18 18 30 14 19 -6 -5 -10 -6 -24 -1 -33 7 -13 3 -15 -25 -15 -30 1 -33 4 -28 24 3 13 1 22 -6 22 -6 0 -11 5 -11 10 0 14 13 13 28 -2z m219 -55 c1 -25 -2 -31 -11 -24 -7 6 -23 7 -37 4 -21 -6 -23 -5 -10 10 10 13 11 20 2 31 -10 12 -6 14 22 13 31 -1 33 -3 34 -34z"/>
 <path d="M527 282 c-5 -7 -17 -10 -28 -7 -12 4 -19 2 -19 -6 0 -7 -7 -21 -17 -31 -15 -17 -15 -18 5 -18 12 0 25 -7 30 -16 8 -14 10 -14 21 0 8 10 30 16 55 16 40 0 86 22 86 41 0 14 -22 11 -65 -11 -42 -22 -52 -18 -57 20 -2 18 -5 21 -11 12z"/>
 <path d="M301 221 c-22 -23 -22 -24 -2 -18 14 3 21 0 21 -9 0 -20 13 -17 27 6 14 22 8 47 -10 46 -7 0 -23 -11 -36 -25z"/>
 <path d="M180 210 c0 -9 -5 -21 -12 -28 -9 -9 -9 -12 1 -12 8 0 20 -8 27 -17 13 -17 15 -17 25 0 5 9 16 17 24 17 10 0 11 5 2 24 -14 30 -67 42 -67 16z"/>
 <path d="M744 203 c4 -9 1 -22 -5 -29 -9 -11 -8 -14 1 -14 7 0 19 -8 26 -17 13 -17 15 -17 28 0 7 9 19 17 27 17 10 0 10 3 1 12 -7 7 -12 19 -12 27 0 11 -11 17 -36 18 -29 1 -34 -1 -30 -14z"/>
 <path d="M540 121 c0 -16 -7 -34 -15 -41 -18 -15 -11 -30 14 -30 10 0 27 -12 36 -27 l18 -26 14 26 c7 15 22 27 32 27 27 0 33 11 15 31 -10 11 -15 28 -12 44 6 27 -2 31 -34 14 -14 -8 -23 -8 -31 0 -20 20 -37 12 -37 -18z"/>
 <path d="M380 105 c0 -12 -5 -26 -12 -33 -9 -9 -8 -12 4 -12 9 0 24 -10 32 -22 l16 -22 16 22 c8 12 23 22 32 22 12 0 13 3 4 12 -7 7 -12 21 -12 33 0 17 -6 20 -40 20 -34 0 -40 -3 -40 -20z"/>
 </g>
<g id="layer110" fill="#fefeff" stroke="none">
 <path d="M520 615 c-18 -19 -24 -37 -24 -73 l-1 -47 90 -6 c50 -3 109 -9 132 -13 41 -7 43 -6 54 21 21 56 -14 133 -61 133 -11 0 -29 -9 -40 -20 -19 -19 -20 -19 -44 5 -33 33 -75 33 -106 0z m18 -37 c9 -9 15 -9 24 0 18 18 30 14 19 -6 -5 -10 -6 -24 -1 -33 7 -13 3 -15 -25 -15 -30 1 -33 4 -28 24 3 13 1 22 -6 22 -6 0 -11 5 -11 10 0 14 13 13 28 -2z m219 -55 c1 -25 -2 -31 -11 -24 -7 6 -23 7 -37 4 -21 -6 -23 -5 -10 10 10 13 11 20 2 31 -10 12 -6 14 22 13 31 -1 33 -3 34 -34z"/>
 <path d="M603 255 c-43 -18 -44 -40 -1 -31 33 6 58 23 58 37 0 13 -20 11 -57 -6z"/>
 </g>

</svg>