<!DOCTYPE svg PUBLIC "-//W3C//DTD SVG 20010904//EN" "http://www.w3.org/TR/2001/REC-SVG-20010904/DTD/svg10.dtd">
<svg version="1.0" xmlns="http://www.w3.org/2000/svg" width="87px" height="71px" viewBox="0 0 870 710" preserveAspectRatio="xMidYMid meet">
<g id="layer101" fill="#010101" stroke="none">
 <path d="M256 694 c-4 -12 -1 -23 8 -30 28 -20 5 -23 -37 -4 -46 21 -52 20 -60 -11 -4 -16 1 -23 22 -30 l27 -10 -25 -53 -26 -53 -62 -6 c-74 -7 -103 -21 -103 -46 0 -21 19 -31 55 -31 53 0 56 -11 12 -44 -23 -18 -43 -39 -45 -48 -4 -23 30 -31 75 -19 43 12 53 4 53 -46 0 -52 17 -86 40 -80 11 3 20 1 20 -4 0 -5 6 -9 14 -9 8 0 17 -11 20 -24 10 -40 101 -114 164 -132 83 -24 211 -16 278 19 54 27 108 81 120 119 4 13 18 33 31 46 22 20 24 29 19 70 -8 61 -8 67 -1 132 6 47 3 62 -18 101 l-25 46 29 10 c42 16 36 30 -18 38 -27 4 -68 20 -93 36 -81 54 -192 72 -337 57 -35 -4 -63 -3 -63 1 0 4 -6 8 -12 9 -7 0 -23 3 -34 7 -15 5 -23 1 -28 -11z"/>
 </g>
<g id="layer102" fill="#9a0000" stroke="none">
 <path d="M392 650 c-58 -12 -139 -58 -163 -92 -11 -15 -23 -44 -26 -63 -5 -31 -4 -35 12 -28 15 5 15 3 -3 -15 -12 -12 -22 -31 -22 -42 0 -18 3 -19 21 -10 36 20 32 3 -5 -20 -26 -15 -36 -29 -36 -47 l0 -25 35 31 c49 42 51 39 10 -15 -19 -25 -35 -56 -35 -70 0 -13 2 -24 4 -24 2 0 21 17 43 38 71 68 134 120 129 106 -6 -15 46 -19 103 -8 26 5 30 10 25 29 -8 34 13 99 42 128 31 32 83 44 114 27 22 -12 23 -11 17 18 -6 29 -4 31 26 34 30 3 29 4 -28 27 -67 26 -192 36 -263 21z m96 -98 c2 -7 -2 -10 -12 -6 -9 3 -16 11 -16 16 0 13 23 5 28 -10z"/>
 <path d="M680 565 c0 -22 22 -28 56 -14 l29 12 -25 7 c-41 13 -60 11 -60 -5z"/>
 <path d="M562 527 c-35 -20 -55 -56 -56 -103 -1 -23 1 -44 4 -47 3 -3 61 -10 130 -16 69 -6 135 -14 147 -17 24 -7 36 17 36 76 0 84 -58 132 -112 93 l-27 -21 -27 24 c-31 26 -60 30 -95 11z m94 -108 c1 -18 -3 -28 -10 -26 -14 5 -20 33 -12 54 9 22 20 7 22 -28z m135 18 c-1 -4 -1 -16 -1 -28 0 -11 -4 -17 -10 -14 -14 8 -13 58 1 53 6 -2 10 -7 10 -11z"/>
 <path d="M403 330 c-89 -9 -94 -11 -142 -52 -25 -22 -31 -33 -26 -49 8 -24 15 -24 320 1 72 6 158 8 193 5 l62 -7 0 30 c0 17 -6 37 -14 45 -25 25 -260 41 -393 27z"/>
 <path d="M418 186 c-64 -6 -120 -14 -124 -19 -15 -15 33 -62 91 -92 52 -26 71 -30 141 -30 70 0 88 4 140 30 42 22 65 41 81 70 12 21 19 43 17 47 -7 11 -205 8 -346 -6z"/>
 </g>
<g id="layer103" fill="#404041" stroke="none">
 <path d="M392 650 c-58 -12 -139 -58 -163 -92 -11 -15 -23 -44 -26 -63 -5 -31 -4 -35 12 -28 15 5 15 3 -3 -15 -12 -12 -22 -31 -22 -42 0 -18 3 -19 21 -10 36 20 32 3 -5 -20 -26 -15 -36 -29 -36 -47 l0 -25 35 31 c49 42 51 39 10 -15 -19 -25 -35 -56 -35 -70 0 -13 2 -24 4 -24 2 0 21 17 43 38 71 68 134 120 129 106 -6 -15 46 -19 103 -8 26 5 30 10 25 29 -8 34 13 99 42 128 31 32 83 44 114 27 22 -12 23 -11 17 18 -6 29 -4 31 26 34 30 3 29 4 -28 27 -67 26 -192 36 -263 21z m96 -98 c2 -7 -2 -10 -12 -6 -9 3 -16 11 -16 16 0 13 23 5 28 -10z"/>
 <path d="M697 572 c-24 -5 -15 -28 9 -24 10 2 25 4 32 4 6 1 12 5 12 9 0 9 -31 16 -53 11z"/>
 <path d="M562 527 c-35 -20 -55 -56 -56 -103 -1 -23 1 -44 4 -47 3 -3 61 -10 130 -16 69 -6 135 -14 147 -17 24 -7 36 17 36 76 0 84 -58 132 -112 93 l-27 -21 -27 24 c-31 26 -60 30 -95 11z m94 -108 c1 -18 -3 -28 -10 -26 -14 5 -20 33 -12 54 9 22 20 7 22 -28z m135 18 c-1 -4 -1 -16 -1 -28 0 -11 -4 -17 -10 -14 -14 8 -13 58 1 53 6 -2 10 -7 10 -11z"/>
 <path d="M403 330 c-89 -9 -94 -11 -142 -52 -25 -22 -31 -33 -26 -49 8 -24 15 -24 320 1 72 6 158 8 193 5 l62 -7 0 30 c0 17 -6 37 -14 45 -25 25 -260 41 -393 27z"/>
 <path d="M456 138 c-127 -12 -141 -19 -95 -47 19 -12 52 -26 74 -32 55 -15 182 -7 225 15 39 20 80 55 80 68 0 10 -154 8 -284 -4z"/>
 </g>
<g id="layer104" fill="#cd0000" stroke="none">
 <path d="M403 650 c-46 -10 -118 -41 -144 -62 -25 -20 -59 -80 -59 -105 0 -17 5 -20 23 -16 21 4 21 4 2 -8 -25 -15 -35 -29 -35 -51 0 -15 3 -15 28 -2 15 7 36 14 47 14 14 -1 9 -5 -15 -16 -46 -20 -80 -53 -80 -77 0 -17 4 -15 35 12 20 17 37 31 40 31 2 0 -12 -23 -31 -51 -19 -28 -34 -60 -34 -71 0 -15 24 2 102 73 56 52 96 83 89 71 -7 -13 -11 -25 -9 -27 2 -2 29 -1 61 2 l57 6 0 39 c0 101 89 176 161 137 19 -10 20 -8 13 26 -6 35 -6 36 21 29 46 -11 21 12 -31 30 -58 20 -185 28 -241 16z m87 -95 c0 -8 -4 -15 -9 -15 -5 0 -14 7 -21 15 -10 13 -9 15 9 15 12 0 21 -6 21 -15z m-10 -37 c0 -6 -7 -7 -16 -4 -9 3 -18 6 -20 6 -3 0 -3 4 1 10 7 11 35 2 35 -12z"/>
 <path d="M686 555 c7 -18 12 -18 44 0 l25 14 -37 1 c-29 0 -36 -3 -32 -15z"/>
 <path d="M574 530 c-41 -16 -65 -60 -62 -109 l3 -46 100 -7 c55 -5 119 -12 143 -17 51 -10 62 2 62 71 0 76 -48 120 -100 93 -16 -9 -30 -21 -30 -28 0 -6 -11 1 -25 16 -14 15 -30 27 -35 27 -4 0 -14 2 -22 4 -7 3 -23 1 -34 -4z m89 -85 c4 -8 2 -17 -3 -20 -5 -3 -6 -13 -3 -22 4 -11 2 -14 -8 -11 -8 3 -16 12 -17 22 -7 37 19 63 31 31z m128 -8 c-1 -4 -1 -16 -1 -28 0 -11 -4 -17 -10 -14 -14 8 -13 58 1 53 6 -2 10 -7 10 -11z"/>
 <path d="M306 280 c-55 -10 -69 -20 -64 -46 4 -23 28 -24 256 -5 89 8 196 11 237 9 66 -4 75 -3 75 12 0 10 -8 21 -17 26 -26 11 -429 14 -487 4z"/>
 <path d="M456 138 c-127 -12 -141 -19 -95 -47 19 -12 52 -26 74 -32 55 -15 182 -7 225 15 39 20 80 55 80 68 0 10 -154 8 -284 -4z"/>
 </g>
<g id="layer105" fill="#679a00" stroke="none">
 <path d="M403 650 c-46 -10 -118 -41 -144 -62 -25 -20 -59 -80 -59 -105 0 -17 5 -20 23 -16 21 4 21 4 2 -8 -25 -15 -35 -29 -35 -51 0 -15 3 -15 28 -2 15 7 36 14 47 14 14 -1 9 -5 -15 -16 -46 -20 -80 -53 -80 -77 0 -17 4 -15 35 12 20 17 37 31 40 31 2 0 -12 -23 -31 -51 -19 -28 -34 -60 -34 -71 0 -15 24 2 102 73 56 52 96 83 89 71 -7 -13 -11 -25 -9 -27 2 -2 29 -1 61 2 l57 6 0 39 c0 101 89 176 161 137 19 -10 20 -8 13 26 -6 35 -6 36 21 29 46 -11 21 12 -31 30 -58 20 -185 28 -241 16z m87 -95 c0 -8 -4 -15 -9 -15 -5 0 -14 7 -21 15 -10 13 -9 15 9 15 12 0 21 -6 21 -15z m-10 -37 c0 -6 -7 -7 -16 -4 -9 3 -18 6 -20 6 -3 0 -3 4 1 10 7 11 35 2 35 -12z"/>
 <path d="M690 555 c9 -11 17 -12 34 -3 33 17 32 18 -9 18 -32 0 -36 -2 -25 -15z"/>
 <path d="M574 530 c-41 -16 -65 -60 -62 -109 l3 -46 100 -7 c55 -5 119 -12 143 -17 51 -10 62 2 62 71 0 76 -48 120 -100 93 -16 -9 -30 -21 -30 -28 0 -6 -11 1 -25 16 -14 15 -30 27 -35 27 -4 0 -14 2 -22 4 -7 3 -23 1 -34 -4z m89 -85 c4 -8 2 -17 -3 -20 -5 -3 -6 -13 -3 -22 4 -11 2 -14 -8 -11 -8 3 -16 12 -17 22 -7 37 19 63 31 31z m128 -8 c-1 -4 -1 -16 -1 -28 0 -11 -4 -17 -10 -14 -14 8 -13 58 1 53 6 -2 10 -7 10 -11z"/>
 <path d="M306 280 c-55 -10 -69 -20 -64 -46 4 -23 28 -24 256 -5 89 8 196 11 237 9 66 -4 75 -3 75 12 0 10 -8 21 -17 26 -26 11 -429 14 -487 4z"/>
 <path d="M647 130 c-55 -17 -76 -50 -32 -50 34 0 87 28 83 42 -6 16 -18 18 -51 8z"/>
 </g>
<g id="layer106" fill="#606060" stroke="none">
 <path d="M528 599 c-41 -18 -45 -23 -36 -39 11 -17 13 -16 46 3 35 21 36 21 104 -8 16 -6 16 -4 7 23 -9 27 -33 42 -64 42 -5 -1 -31 -10 -57 -21z"/>
 <path d="M387 579 c-10 -6 -25 -8 -33 -5 -9 3 -27 -3 -41 -14 -14 -11 -29 -17 -34 -14 -14 8 -67 -28 -73 -50 -7 -27 -4 -28 28 -16 16 6 34 7 43 1 12 -6 7 -10 -20 -15 -32 -6 -67 -36 -67 -58 0 -4 16 0 35 8 40 16 65 18 65 4 0 -5 -6 -10 -13 -10 -22 0 -107 -61 -107 -77 0 -10 12 -5 37 16 54 45 72 39 29 -10 -35 -38 -56 -76 -56 -101 0 -6 9 0 19 14 11 14 44 44 74 67 30 23 67 61 83 84 15 23 29 36 32 29 2 -7 -4 -24 -13 -38 l-16 -25 58 3 58 3 5 67 c5 65 4 67 -19 70 -30 4 -41 28 -12 28 11 0 23 -4 26 -10 3 -5 12 -10 18 -10 7 0 0 8 -15 18 -19 11 -26 22 -22 34 4 14 0 18 -23 18 -15 0 -36 -5 -46 -11z"/>
 <path d="M690 555 c9 -11 17 -12 34 -3 33 17 32 18 -9 18 -32 0 -36 -2 -25 -15z"/>
 <path d="M574 530 c-41 -16 -65 -60 -62 -109 l3 -46 100 -7 c55 -5 119 -12 143 -17 51 -10 62 2 62 71 0 76 -48 120 -100 93 -16 -9 -30 -21 -30 -28 0 -6 -11 1 -25 16 -14 15 -30 27 -35 27 -4 0 -14 2 -22 4 -7 3 -23 1 -34 -4z m89 -85 c4 -8 2 -17 -3 -20 -5 -3 -6 -13 -3 -22 4 -11 2 -14 -8 -11 -8 3 -16 12 -17 22 -7 37 19 63 31 31z m128 -8 c-1 -4 -1 -16 -1 -28 0 -11 -4 -17 -10 -14 -14 8 -13 58 1 53 6 -2 10 -7 10 -11z"/>
 <path d="M306 280 c-55 -10 -69 -20 -64 -46 4 -23 28 -24 256 -5 89 8 196 11 237 9 66 -4 75 -3 75 12 0 10 -8 21 -17 26 -26 11 -429 14 -487 4z"/>
 <path d="M647 130 c-55 -17 -76 -50 -32 -50 34 0 87 28 83 42 -6 16 -18 18 -51 8z"/>
 </g>
<g id="layer107" fill="#9bce00" stroke="none">
 <path d="M528 599 c-41 -18 -45 -23 -36 -39 11 -17 13 -16 46 3 35 21 36 21 104 -8 16 -6 16 -4 7 23 -9 27 -33 42 -64 42 -5 -1 -31 -10 -57 -21z"/>
 <path d="M387 579 c-10 -6 -25 -8 -33 -5 -9 3 -27 -3 -41 -14 -14 -11 -29 -17 -34 -14 -14 8 -67 -28 -73 -50 -7 -27 -4 -28 28 -16 16 6 34 7 43 1 12 -6 7 -10 -20 -15 -32 -6 -67 -36 -67 -58 0 -4 16 0 35 8 40 16 65 18 65 4 0 -5 -6 -10 -13 -10 -22 0 -107 -61 -107 -77 0 -10 12 -5 37 16 54 45 72 39 29 -10 -35 -38 -56 -76 -56 -101 0 -6 9 0 19 14 11 14 44 44 74 67 30 23 67 61 83 84 15 23 29 36 32 29 2 -7 -4 -24 -13 -38 l-16 -25 58 3 58 3 5 67 c5 65 4 67 -19 70 -30 4 -41 28 -12 28 11 0 23 -4 26 -10 3 -5 12 -10 18 -10 7 0 0 8 -15 18 -19 11 -26 22 -22 34 4 14 0 18 -23 18 -15 0 -36 -5 -46 -11z"/>
 <path d="M690 555 c9 -11 17 -12 34 -3 33 17 32 18 -9 18 -32 0 -36 -2 -25 -15z"/>
 <path d="M546 505 c-20 -21 -36 -64 -36 -96 0 -26 35 -39 104 -39 40 0 98 -5 130 -11 32 -6 60 -8 63 -5 3 3 8 27 10 53 8 92 -57 145 -113 92 l-22 -20 -25 25 c-34 34 -80 35 -111 1z m117 -79 c-3 -41 -19 -53 -33 -27 -14 28 -4 63 18 59 12 -3 16 -13 15 -32z m134 -4 c-5 -37 -27 -41 -27 -4 0 16 3 32 6 35 13 12 24 -5 21 -31z"/>
 <path d="M647 130 c-55 -17 -76 -50 -32 -50 34 0 87 28 83 42 -6 16 -18 18 -51 8z"/>
 </g>
<g id="layer108" fill="#fe5f2b" stroke="none">
 <path d="M690 555 c9 -11 17 -12 34 -3 33 17 32 18 -9 18 -32 0 -36 -2 -25 -15z"/>
 <path d="M546 505 c-20 -21 -36 -64 -36 -96 0 -26 35 -39 104 -39 40 0 98 -5 130 -11 32 -6 60 -8 63 -5 3 3 8 27 10 53 8 92 -57 145 -113 92 l-22 -20 -25 25 c-34 34 -80 35 -111 1z m117 -79 c-3 -41 -19 -53 -33 -27 -14 28 -4 63 18 59 12 -3 16 -13 15 -32z m134 -4 c-5 -37 -27 -41 -27 -4 0 16 3 32 6 35 13 12 24 -5 21 -31z"/>
 <path d="M647 130 c-55 -17 -76 -50 -32 -50 34 0 87 28 83 42 -6 16 -18 18 -51 8z"/>
 </g>
<g id="layer109" fill="#ffffff" stroke="none">
 <path d="M546 505 c-20 -21 -36 -64 -36 -96 0 -26 35 -39 104 -39 40 0 98 -5 130 -11 32 -6 60 -8 63 -5 3 3 8 27 10 53 8 92 -57 145 -113 92 l-22 -20 -25 25 c-34 34 -80 35 -111 1z m117 -79 c-3 -41 -19 -53 -33 -27 -14 28 -4 63 18 59 12 -3 16 -13 15 -32z m134 -4 c-5 -37 -27 -41 -27 -4 0 16 3 32 6 35 13 12 24 -5 21 -31z"/>
 <path d="M618 112 c-16 -9 -28 -21 -28 -26 0 -15 73 3 94 24 l20 20 -29 0 c-17 0 -42 -8 -57 -18z"/>
 </g>

</svg>