<!DOCTYPE svg PUBLIC "-//W3C//DTD SVG 20010904//EN" "http://www.w3.org/TR/2001/REC-SVG-20010904/DTD/svg10.dtd">
<svg version="1.0" xmlns="http://www.w3.org/2000/svg" width="90px" height="57px" viewBox="0 0 900 570" preserveAspectRatio="xMidYMid meet">
<g id="layer101" fill="#000000" stroke="none">
 <path d="M261 551 c-8 -15 -6 -22 12 -34 19 -14 19 -16 4 -16 -10 -1 -34 6 -55 14 -34 15 -38 15 -50 -2 -11 -15 -10 -20 5 -30 9 -7 23 -13 30 -13 18 0 16 -11 -7 -40 -11 -14 -20 -29 -20 -35 -1 -26 -17 -37 -39 -26 -23 13 -28 2 -9 -17 17 -17 -10 -15 -42 3 -43 25 -57 19 -74 -32 -9 -26 -16 -48 -16 -49 0 -2 28 -6 63 -10 l62 -8 -58 -14 c-52 -13 -57 -16 -51 -36 4 -11 11 -23 15 -24 5 -2 9 -11 9 -21 0 -9 6 -25 13 -35 12 -16 16 -14 60 19 27 21 51 35 54 32 3 -3 8 -33 12 -67 4 -33 14 -68 23 -76 14 -14 17 -12 38 23 l23 38 9 -32 c11 -40 26 -50 42 -28 12 17 16 16 72 -5 45 -18 80 -24 144 -24 118 0 156 19 307 153 46 41 53 153 12 205 -25 32 -25 34 19 53 l37 17 -55 10 c-30 6 -74 24 -97 39 -22 16 -63 35 -90 43 -62 19 -195 28 -253 16 -35 -6 -54 -4 -88 10 -53 22 -49 22 -61 -1z"/>
 </g>
<g id="layer102" fill="#f05a28" stroke="none">
 <path d="M403 509 c-110 -21 -184 -80 -203 -161 -7 -27 -10 -52 -7 -55 3 -3 18 4 33 16 39 31 47 26 13 -8 -48 -48 -38 -62 24 -36 20 8 42 15 49 15 7 -1 -3 -8 -22 -16 -52 -23 -100 -63 -100 -85 0 -25 10 -24 39 7 13 13 33 30 45 36 15 8 13 2 -10 -23 -38 -41 -67 -96 -60 -114 3 -8 41 22 105 83 96 92 119 110 86 66 -31 -41 -10 -160 34 -183 19 -11 20 -9 14 56 -3 38 -1 83 4 102 l9 35 22 -61 c12 -33 39 -80 60 -103 35 -40 40 -43 75 -36 35 7 117 60 124 81 2 6 -5 15 -16 22 -15 9 -27 8 -59 -9 -36 -17 -46 -18 -77 -8 -40 13 -69 46 -85 96 -33 99 57 214 143 185 37 -13 40 -11 28 22 -9 24 -8 26 22 29 l32 3 -38 17 c-76 34 -193 46 -284 27z m97 -94 c7 -9 10 -18 7 -21 -6 -7 -47 18 -47 28 0 14 27 9 40 -7z m-15 -35 c3 -5 -3 -10 -14 -10 -11 0 -23 5 -26 10 -3 6 3 10 14 10 11 0 23 -4 26 -10z"/>
 <path d="M700 429 c0 -29 12 -36 41 -26 38 15 37 24 -6 29 -19 2 -35 1 -35 -3z"/>
 <path d="M551 355 c-90 -103 27 -274 122 -179 l26 26 32 -26 c17 -14 34 -26 38 -26 22 0 62 46 72 83 27 102 -53 186 -119 125 -21 -21 -25 -21 -35 -7 -37 49 -95 51 -136 4z m127 -77 c-2 -44 -7 -51 -24 -37 -14 12 -19 51 -7 62 17 18 33 5 31 -25z m140 -8 c-1 -18 -6 -29 -12 -27 -13 4 -20 33 -12 53 9 24 25 7 24 -26z"/>
 <path d="M311 142 c-6 -11 -6 -24 -1 -32 11 -18 16 -13 25 23 8 31 -9 38 -24 9z"/>
 </g>
<g id="layer103" fill="#db5c87" stroke="none">
 <path d="M403 509 c-110 -21 -184 -80 -203 -161 -7 -27 -10 -52 -7 -55 3 -3 18 4 33 16 39 31 47 26 13 -8 -48 -48 -38 -62 24 -36 20 8 42 15 49 15 7 -1 -3 -8 -22 -16 -52 -23 -100 -63 -100 -85 0 -25 10 -24 39 7 13 13 33 30 45 36 15 8 13 2 -10 -23 -38 -41 -67 -96 -60 -114 3 -8 41 22 105 83 96 92 119 110 86 66 -31 -41 -10 -160 34 -183 19 -11 20 -9 14 56 -3 38 -1 83 4 102 l9 35 22 -61 c12 -33 39 -80 60 -103 35 -40 40 -43 75 -36 35 7 117 60 124 81 2 6 -5 15 -16 22 -15 9 -27 8 -59 -9 -36 -17 -46 -18 -77 -8 -40 13 -69 46 -85 96 -33 99 57 214 143 185 37 -13 40 -11 28 22 -9 24 -8 26 22 29 l32 3 -38 17 c-76 34 -193 46 -284 27z m97 -94 c7 -9 10 -18 7 -21 -6 -7 -47 18 -47 28 0 14 27 9 40 -7z m-15 -35 c3 -5 -3 -10 -14 -10 -11 0 -23 5 -26 10 -3 6 3 10 14 10 11 0 23 -4 26 -10z"/>
 <path d="M551 355 c-90 -103 27 -274 122 -179 l26 26 32 -26 c17 -14 34 -26 38 -26 22 0 62 46 72 83 27 102 -53 186 -119 125 -21 -21 -25 -21 -35 -7 -37 49 -95 51 -136 4z m127 -77 c-2 -44 -7 -51 -24 -37 -14 12 -19 51 -7 62 17 18 33 5 31 -25z m140 -8 c-1 -18 -6 -29 -12 -27 -13 4 -20 33 -12 53 9 24 25 7 24 -26z"/>
 <path d="M311 142 c-6 -11 -6 -24 -1 -32 11 -18 16 -13 25 23 8 31 -9 38 -24 9z"/>
 </g>
<g id="layer104" fill="#efb7c0" stroke="none">
 <path d="M548 460 c-24 -13 -55 -19 -90 -19 -63 2 -116 -9 -143 -27 -11 -8 -29 -14 -41 -14 -34 0 -74 -37 -74 -70 l0 -28 37 19 c21 10 49 19 63 19 21 -1 19 -3 -13 -14 -47 -17 -67 -34 -67 -57 0 -17 2 -17 35 -3 56 23 74 15 25 -11 -49 -25 -90 -60 -90 -75 0 -15 16 -12 31 6 15 19 69 47 76 41 2 -3 -4 -10 -14 -16 -29 -15 -73 -83 -73 -112 1 -21 2 -22 13 -8 7 8 45 44 85 78 41 35 83 78 94 95 17 27 19 28 12 6 -3 -14 -13 -34 -20 -45 -19 -27 -17 -82 6 -132 29 -66 47 -57 42 22 -5 72 4 135 18 135 6 0 10 -10 10 -22 2 -58 69 -170 111 -183 24 -8 111 30 140 61 12 13 21 25 18 26 -41 25 -48 27 -59 13 -18 -21 -76 -29 -111 -15 -87 36 -116 184 -52 261 45 53 71 55 155 11 4 -2 3 11 -3 28 -11 29 -42 51 -72 50 -7 -1 -28 -10 -49 -20z m-44 -46 c4 -9 5 -19 2 -21 -7 -7 -46 17 -46 27 0 17 37 11 44 -6z m-14 -34 c0 -5 -11 -10 -25 -10 -14 0 -25 5 -25 10 0 6 11 10 25 10 14 0 25 -4 25 -10z"/>
 <path d="M568 370 c-59 -46 -63 -144 -8 -192 38 -35 70 -35 110 -2 l31 27 23 -22 c68 -64 146 32 110 136 -23 65 -67 81 -108 40 l-23 -23 -32 28 c-37 33 -69 36 -103 8z m115 -74 c3 -8 3 -17 -1 -21 -4 -3 -7 -14 -7 -22 0 -9 -5 -18 -12 -20 -14 -5 -28 40 -19 62 7 19 32 20 39 1z m135 -26 c-1 -39 -28 -41 -28 -2 0 16 3 32 6 35 13 12 23 -3 22 -33z"/>
 <path d="M320 145 c-7 -8 -9 -22 -5 -32 6 -15 9 -13 16 11 10 35 7 42 -11 21z"/>
 </g>
<g id="layer105" fill="#fdf9f9" stroke="none">
 <path d="M575 350 c-23 -24 -30 -41 -33 -89 -4 -54 -2 -62 21 -85 35 -35 71 -33 109 4 l30 30 20 -25 c48 -61 118 -9 118 88 0 73 -56 123 -90 82 -7 -9 -15 -13 -18 -10 -3 3 -11 0 -19 -6 -10 -9 -18 -6 -34 15 -28 36 -67 34 -104 -4z m105 -49 c7 -13 7 -28 0 -46 -18 -48 -49 -13 -36 41 8 29 22 31 36 5z m142 -9 c7 -24 -10 -68 -21 -56 -10 10 -14 29 -12 57 1 22 27 22 33 -1z"/>
 </g>

</svg>