<!DOCTYPE svg PUBLIC "-//W3C//DTD SVG 20010904//EN" "http://www.w3.org/TR/2001/REC-SVG-20010904/DTD/svg10.dtd">
<svg version="1.0" xmlns="http://www.w3.org/2000/svg" width="89px" height="64px" viewBox="0 0 890 640" preserveAspectRatio="xMidYMid meet">
<g id="layer101" fill="#000000" stroke="none">
 <path d="M332 623 c-70 -21 -138 -81 -154 -136 -6 -23 -12 -43 -13 -45 -1 -1 -16 5 -34 14 -49 24 -104 29 -120 11 -19 -23 -5 -53 37 -78 20 -12 39 -24 41 -25 2 -2 -10 -18 -27 -36 -18 -17 -34 -40 -38 -50 -6 -22 11 -48 33 -48 21 0 75 29 105 58 24 22 28 23 34 9 3 -9 1 -32 -6 -52 -10 -30 -9 -40 5 -62 9 -14 26 -28 36 -30 14 -4 19 -14 19 -43 0 -63 23 -73 205 -94 177 -20 187 -18 199 49 5 23 11 32 21 29 15 -6 55 12 67 30 13 18 9 70 -6 92 -18 25 -10 39 26 48 15 3 33 16 39 29 18 32 15 103 -4 125 -21 23 -22 42 -2 42 8 0 33 7 55 16 35 14 41 20 38 43 -4 33 -36 48 -114 57 -32 3 -86 17 -119 32 -50 22 -77 27 -165 29 -74 2 -120 -2 -158 -14z"/>
 </g>
<g id="layer102" fill="#d12b30" stroke="none">
 <path d="M409 609 c-143 -16 -233 -107 -214 -219 8 -45 25 -44 25 1 0 28 29 69 50 69 5 0 -2 -11 -15 -25 -14 -13 -25 -31 -25 -39 0 -13 4 -13 38 0 23 9 30 9 18 1 -53 -34 -79 -64 -72 -83 7 -17 8 -17 16 -3 5 9 22 24 36 34 l27 17 -27 -34 c-26 -35 -52 -95 -44 -103 3 -3 46 35 96 83 101 96 121 105 41 18 -28 -31 -46 -56 -39 -56 7 0 89 -10 183 -22 l170 -21 19 23 c11 14 16 30 12 39 -4 9 -9 35 -12 58 -3 37 0 47 27 74 17 17 31 32 31 35 0 2 -20 4 -45 4 -34 0 -47 5 -55 19 -14 28 -12 57 5 75 26 26 -23 45 -155 60 -14 1 -55 -1 -91 -5z m135 -125 c11 -28 6 -39 -9 -20 -8 11 -15 23 -15 28 0 14 18 9 24 -8z m-27 -50 c-9 -10 -38 16 -31 28 4 6 13 4 22 -6 9 -8 13 -19 9 -22z m127 -16 c23 -33 21 -109 -4 -136 -47 -50 -110 -11 -110 68 0 61 21 90 65 90 24 0 39 -7 49 -22z"/>
 <path d="M564 409 c-44 -48 -6 -157 45 -129 46 24 50 105 8 135 -28 19 -30 19 -53 -6z m64 -59 c0 -19 -4 -30 -13 -30 -19 0 -29 38 -15 55 17 20 27 11 28 -25z"/>
 <path d="M682 539 c-17 -6 -22 -15 -20 -31 3 -20 9 -23 53 -23 55 1 145 23 145 36 0 23 -132 37 -178 18z"/>
 <path d="M721 407 c-30 -37 -17 -118 21 -125 39 -8 64 70 38 119 -12 22 -43 25 -59 6z m56 -55 c-1 -15 -7 -26 -12 -25 -13 2 -18 30 -11 49 9 24 25 7 23 -24z"/>
 <path d="M261 226 c-17 -19 -28 -45 -18 -46 1 -1 101 -14 222 -29 227 -29 255 -28 255 9 0 11 -8 23 -17 28 -17 9 -168 30 -259 37 -22 1 -54 5 -71 9 -84 16 -90 15 -112 -8z"/>
 <path d="M286 142 c-13 -13 -5 -62 12 -70 27 -15 302 -46 312 -36 5 5 10 22 12 39 l3 29 -95 13 c-52 7 -111 12 -130 12 -19 -1 -42 1 -50 4 -29 10 -59 15 -64 9z"/>
 </g>
<g id="layer103" fill="#f8541c" stroke="none">
 <path d="M409 609 c-143 -16 -233 -107 -214 -219 8 -45 25 -44 25 1 0 28 29 69 50 69 5 0 -2 -11 -15 -25 -14 -13 -25 -31 -25 -39 0 -13 4 -13 38 0 23 9 30 9 18 1 -53 -34 -79 -64 -72 -83 7 -17 8 -17 16 -3 5 9 22 24 36 34 l27 17 -27 -34 c-26 -35 -52 -95 -44 -103 3 -3 46 35 96 83 101 96 121 105 41 18 -28 -31 -46 -56 -39 -56 7 0 89 -10 183 -22 l170 -21 19 23 c11 14 16 30 12 39 -4 9 -9 35 -12 58 -3 37 0 47 27 74 17 17 31 32 31 35 0 2 -20 4 -45 4 -34 0 -47 5 -55 19 -14 28 -12 57 5 75 26 26 -23 45 -155 60 -14 1 -55 -1 -91 -5z m135 -125 c11 -28 6 -39 -9 -20 -8 11 -15 23 -15 28 0 14 18 9 24 -8z m-27 -50 c-9 -10 -38 16 -31 28 4 6 13 4 22 -6 9 -8 13 -19 9 -22z m127 -16 c23 -33 21 -109 -4 -136 -47 -50 -110 -11 -110 68 0 61 21 90 65 90 24 0 39 -7 49 -22z"/>
 <path d="M564 409 c-44 -48 -6 -157 45 -129 46 24 50 105 8 135 -28 19 -30 19 -53 -6z m64 -59 c0 -19 -4 -30 -13 -30 -19 0 -29 38 -15 55 17 20 27 11 28 -25z"/>
 <path d="M695 521 c-16 -3 -29 -10 -27 -14 1 -4 2 -12 2 -18 0 -20 158 8 184 32 11 10 -112 10 -159 0z"/>
 <path d="M721 407 c-30 -37 -17 -118 21 -125 39 -8 64 70 38 119 -12 22 -43 25 -59 6z m56 -55 c-1 -15 -7 -26 -12 -25 -13 2 -18 30 -11 49 9 24 25 7 23 -24z"/>
 <path d="M261 226 c-17 -19 -28 -45 -18 -46 1 -1 101 -14 222 -29 227 -29 255 -28 255 9 0 11 -8 23 -17 28 -17 9 -168 30 -259 37 -22 1 -54 5 -71 9 -84 16 -90 15 -112 -8z"/>
 </g>
<g id="layer104" fill="#c5a004" stroke="none">
 <path d="M409 609 c-143 -16 -233 -107 -214 -219 8 -45 25 -44 25 1 0 28 29 69 50 69 5 0 -2 -11 -15 -25 -14 -13 -25 -31 -25 -39 0 -13 4 -13 38 0 23 9 30 9 18 1 -53 -34 -79 -64 -72 -83 7 -17 8 -17 16 -3 5 9 22 24 36 34 l27 17 -27 -34 c-26 -35 -52 -95 -44 -103 3 -3 46 35 96 83 101 96 121 105 41 18 -28 -31 -46 -56 -39 -56 7 0 89 -10 183 -22 l170 -21 19 23 c11 14 16 30 12 39 -4 9 -9 35 -12 58 -3 37 0 47 27 74 17 17 31 32 31 35 0 2 -20 4 -45 4 -34 0 -47 5 -55 19 -14 28 -12 57 5 75 26 26 -23 45 -155 60 -14 1 -55 -1 -91 -5z m135 -125 c11 -28 6 -39 -9 -20 -8 11 -15 23 -15 28 0 14 18 9 24 -8z m-27 -50 c-9 -10 -38 16 -31 28 4 6 13 4 22 -6 9 -8 13 -19 9 -22z m127 -16 c23 -33 21 -109 -4 -136 -47 -50 -110 -11 -110 68 0 61 21 90 65 90 24 0 39 -7 49 -22z"/>
 <path d="M564 409 c-44 -48 -6 -157 45 -129 46 24 50 105 8 135 -28 19 -30 19 -53 -6z m64 -59 c0 -19 -4 -30 -13 -30 -19 0 -29 38 -15 55 17 20 27 11 28 -25z"/>
 <path d="M721 407 c-30 -37 -17 -118 21 -125 39 -8 64 70 38 119 -12 22 -43 25 -59 6z m56 -55 c-1 -15 -7 -26 -12 -25 -13 2 -18 30 -11 49 9 24 25 7 23 -24z"/>
 <path d="M261 226 c-17 -19 -28 -45 -18 -46 1 -1 101 -14 222 -29 227 -29 255 -28 255 9 0 11 -8 23 -17 28 -17 9 -168 30 -259 37 -22 1 -54 5 -71 9 -84 16 -90 15 -112 -8z"/>
 </g>
<g id="layer105" fill="#ffcd00" stroke="none">
 <path d="M371 538 c-11 -4 -27 -5 -34 -2 -8 3 -20 -2 -27 -11 -7 -8 -23 -15 -35 -15 -12 0 -34 -9 -49 -21 -23 -18 -26 -27 -25 -77 1 -52 2 -54 9 -22 11 48 52 80 98 79 35 0 36 -1 12 -11 -57 -23 -75 -35 -78 -51 -3 -15 -1 -15 33 -1 58 24 78 12 25 -15 -57 -29 -80 -50 -80 -70 1 -15 2 -15 13 0 17 22 67 53 74 45 3 -3 -6 -15 -21 -27 -28 -22 -56 -68 -56 -92 0 -15 161 136 180 168 10 18 11 16 5 -9 -7 -31 -71 -116 -88 -116 -33 0 9 -10 83 -19 47 -6 103 -14 125 -17 l39 -6 -38 36 c-37 34 -38 38 -34 90 3 40 1 57 -9 60 -17 7 -17 36 0 36 7 0 19 -6 26 -12 10 -11 11 -8 6 15 -8 32 9 37 25 7 6 -11 17 -20 25 -20 29 0 64 -24 78 -53 l15 -30 16 31 c10 20 25 32 43 35 16 3 2 4 -30 4 -66 -1 -78 7 -86 60 l-6 38 -107 1 c-58 0 -115 -3 -127 -8z"/>
 <path d="M564 409 c-44 -48 -6 -157 45 -129 46 24 50 105 8 135 -28 19 -30 19 -53 -6z m64 -59 c0 -19 -4 -30 -13 -30 -19 0 -29 38 -15 55 17 20 27 11 28 -25z"/>
 <path d="M721 407 c-30 -37 -17 -118 21 -125 39 -8 64 70 38 119 -12 22 -43 25 -59 6z m56 -55 c-1 -15 -7 -26 -12 -25 -13 2 -18 30 -11 49 9 24 25 7 23 -24z"/>
 <path d="M665 317 c-4 -15 -21 -38 -37 -52 l-30 -25 41 0 c30 0 44 6 55 22 13 18 13 24 2 37 -7 9 -16 23 -18 31 -4 10 -8 6 -13 -13z"/>
 <path d="M261 226 c-17 -19 -28 -45 -18 -46 1 -1 101 -14 222 -29 227 -29 255 -28 255 9 0 11 -8 23 -17 28 -17 9 -168 30 -259 37 -22 1 -54 5 -71 9 -84 16 -90 15 -112 -8z"/>
 </g>
<g id="layer106" fill="#fefefe" stroke="none">
 <path d="M564 409 c-44 -48 -6 -157 45 -129 46 24 50 105 8 135 -28 19 -30 19 -53 -6z m64 -59 c0 -19 -4 -30 -13 -30 -19 0 -29 38 -15 55 17 20 27 11 28 -25z"/>
 <path d="M721 407 c-30 -37 -17 -118 21 -125 39 -8 64 70 38 119 -12 22 -43 25 -59 6z m56 -55 c-1 -15 -7 -26 -12 -25 -13 2 -18 30 -11 49 9 24 25 7 23 -24z"/>
 <path d="M261 226 c-17 -19 -28 -45 -18 -46 1 -1 101 -14 222 -29 227 -29 255 -28 255 9 0 11 -8 23 -17 28 -17 9 -168 30 -259 37 -22 1 -54 5 -71 9 -84 16 -90 15 -112 -8z"/>
 </g>

</svg>