<!DOCTYPE svg PUBLIC "-//W3C//DTD SVG 20010904//EN" "http://www.w3.org/TR/2001/REC-SVG-20010904/DTD/svg10.dtd">
<svg version="1.0" xmlns="http://www.w3.org/2000/svg" width="88px" height="81px" viewBox="0 0 880 810" preserveAspectRatio="xMidYMid meet">
<g id="layer101" fill="#010101" stroke="none">
 <path d="M252 803 c-17 -7 -82 -145 -82 -176 0 -14 5 -37 11 -49 7 -16 7 -32 0 -49 -8 -23 -16 -27 -75 -32 -77 -7 -106 -20 -106 -47 0 -14 9 -21 37 -25 92 -15 90 -13 39 -48 -33 -23 -46 -38 -44 -52 3 -16 10 -20 40 -18 21 1 56 12 79 24 34 17 43 18 50 7 5 -7 6 -20 2 -28 -4 -8 -8 -37 -8 -64 0 -40 5 -52 26 -70 15 -11 30 -31 33 -43 12 -38 94 -102 154 -119 83 -25 222 -16 287 18 60 31 89 60 110 111 9 21 22 40 30 43 25 10 36 71 21 114 -8 22 -10 44 -5 52 5 7 9 38 9 69 0 43 -6 65 -24 91 l-24 36 31 9 c50 14 43 30 -15 38 -29 4 -62 15 -73 26 -37 33 -114 60 -208 71 -101 12 -121 25 -133 86 -3 17 -12 32 -19 32 -16 0 -41 -29 -54 -63 -17 -44 -29 -35 -55 46 -5 17 -11 19 -34 10z"/>
 </g>
<g id="layer102" fill="#930000" stroke="none">
 <path d="M250 717 c0 -23 12 -52 34 -86 l34 -50 -30 22 c-16 12 -36 35 -44 50 -8 15 -19 25 -24 22 -16 -10 -12 -26 17 -63 26 -34 17 -36 -19 -4 -16 13 -18 13 -18 -1 0 -8 23 -32 50 -52 28 -20 50 -39 50 -41 0 -2 -17 4 -39 15 l-38 20 -12 -25 c-27 -61 8 -204 46 -189 24 9 105 23 176 30 l57 6 0 40 c0 102 87 178 161 139 22 -12 24 -4 9 34 -9 24 -8 25 22 19 47 -9 27 12 -30 31 -62 22 -147 30 -213 22 -77 -10 -85 -16 -65 -54 25 -48 19 -59 -10 -17 -14 21 -41 59 -60 83 -19 25 -34 51 -34 58 0 7 -4 16 -10 19 -6 4 -10 -8 -10 -28z m245 -158 c11 -17 0 -20 -21 -4 -17 13 -17 14 -2 15 9 0 20 -5 23 -11z"/>
 <path d="M370 715 c0 -23 5 -38 15 -42 24 -9 29 3 15 37 -18 44 -30 46 -30 5z"/>
 <path d="M690 566 c0 -24 19 -29 53 -15 l31 13 -24 7 c-41 12 -60 10 -60 -5z"/>
 <path d="M557 519 c-30 -23 -52 -86 -44 -121 6 -24 12 -25 134 -36 71 -7 137 -15 149 -18 18 -5 23 0 32 36 11 44 4 86 -23 126 -19 30 -61 32 -91 3 l-22 -20 -25 25 c-32 32 -74 34 -110 5z m108 -97 c-2 -15 -4 -29 -5 -32 0 -3 -7 3 -15 14 -10 14 -11 24 -4 38 14 26 28 14 24 -20z m136 15 c-1 -4 -1 -14 -1 -22 0 -8 -4 -15 -10 -15 -5 0 -10 12 -10 26 0 14 5 24 11 22 6 -2 10 -7 10 -11z"/>
 <path d="M383 330 c-96 -12 -141 -32 -149 -65 -4 -18 -2 -32 9 -43 15 -14 32 -14 179 -1 90 7 216 14 281 14 l117 0 0 25 c0 38 -14 51 -61 61 -69 13 -297 19 -376 9z"/>
 <path d="M413 186 c-61 -6 -115 -14 -118 -18 -15 -14 38 -68 92 -94 49 -24 69 -28 142 -28 92 0 153 20 198 63 28 26 55 76 46 85 -10 9 -234 5 -360 -8z"/>
 </g>
<g id="layer103" fill="#404041" stroke="none">
 <path d="M250 717 c0 -23 12 -52 34 -86 l34 -50 -30 22 c-16 12 -36 35 -44 50 -8 15 -19 25 -24 22 -16 -10 -12 -26 17 -63 26 -34 17 -36 -19 -4 -16 13 -18 13 -18 -1 0 -8 23 -32 50 -52 28 -20 50 -39 50 -41 0 -2 -17 4 -39 15 l-38 20 -12 -25 c-27 -61 8 -204 46 -189 24 9 105 23 176 30 l57 6 0 40 c0 102 87 178 161 139 22 -12 24 -4 9 34 -9 24 -8 25 22 19 47 -9 27 12 -30 31 -62 22 -147 30 -213 22 -77 -10 -85 -16 -65 -54 25 -48 19 -59 -10 -17 -14 21 -41 59 -60 83 -19 25 -34 51 -34 58 0 7 -4 16 -10 19 -6 4 -10 -8 -10 -28z m245 -158 c11 -17 0 -20 -21 -4 -17 13 -17 14 -2 15 9 0 20 -5 23 -11z"/>
 <path d="M370 715 c0 -23 5 -38 15 -42 24 -9 29 3 15 37 -18 44 -30 46 -30 5z"/>
 <path d="M557 519 c-30 -23 -52 -86 -44 -121 6 -24 12 -25 134 -36 71 -7 137 -15 149 -18 18 -5 23 0 32 36 11 44 4 86 -23 126 -19 30 -61 32 -91 3 l-22 -20 -25 25 c-32 32 -74 34 -110 5z m108 -97 c-2 -15 -4 -29 -5 -32 0 -3 -7 3 -15 14 -10 14 -11 24 -4 38 14 26 28 14 24 -20z m136 15 c-1 -4 -1 -14 -1 -22 0 -8 -4 -15 -10 -15 -5 0 -10 12 -10 26 0 14 5 24 11 22 6 -2 10 -7 10 -11z"/>
 <path d="M383 330 c-96 -12 -141 -32 -149 -65 -4 -18 -2 -32 9 -43 15 -14 32 -14 179 -1 90 7 216 14 281 14 l117 0 0 25 c0 38 -14 51 -61 61 -69 13 -297 19 -376 9z"/>
 <path d="M480 139 c-132 -12 -154 -18 -140 -34 7 -8 36 -23 66 -35 72 -27 176 -27 245 0 50 18 99 54 99 72 0 10 -153 8 -270 -3z"/>
 </g>
<g id="layer104" fill="#cd0000" stroke="none">
 <path d="M250 719 c0 -26 10 -52 35 -88 l34 -52 -30 22 c-17 12 -39 35 -49 51 -12 19 -19 25 -23 16 -6 -18 10 -49 42 -76 l26 -23 -25 12 c-14 6 -33 18 -42 27 -11 9 -18 11 -18 4 0 -7 12 -23 28 -36 15 -13 41 -36 57 -51 l30 -27 -43 23 c-31 17 -45 20 -53 12 -17 -17 -23 -97 -10 -136 18 -53 33 -61 86 -48 25 6 79 14 120 18 l75 6 0 44 c0 101 87 172 161 133 22 -12 24 -4 9 36 -10 26 -10 26 20 21 40 -8 38 1 -3 18 -56 23 -164 38 -230 31 -88 -10 -92 -14 -68 -67 12 -24 20 -51 20 -59 0 -8 -6 0 -14 18 -8 18 -34 58 -58 90 -24 31 -51 71 -60 87 l-16 30 -1 -36z m245 -160 c12 -19 -5 -23 -22 -6 -16 16 -16 17 -1 17 9 0 20 -5 23 -11z m-20 -29 c3 -5 -3 -10 -15 -10 -12 0 -18 5 -15 10 3 6 10 10 15 10 5 0 12 -4 15 -10z"/>
 <path d="M370 726 c0 -35 10 -56 26 -56 18 0 18 10 -2 48 -19 38 -24 40 -24 8z"/>
 <path d="M569 525 c-36 -20 -63 -78 -54 -121 6 -34 6 -34 62 -34 31 0 97 -5 146 -11 103 -14 107 -12 107 64 0 40 -5 53 -29 78 -36 35 -54 36 -86 5 l-23 -23 -24 23 c-30 30 -67 37 -99 19z m104 -80 c4 -8 2 -17 -3 -20 -5 -3 -7 -12 -3 -20 3 -9 -1 -15 -10 -15 -18 0 -29 26 -22 51 7 23 31 25 38 4z m128 -8 c-1 -4 -1 -16 -1 -28 0 -11 -4 -17 -10 -14 -14 8 -13 58 1 53 6 -2 10 -7 10 -11z"/>
 <path d="M306 279 c-70 -10 -82 -19 -67 -48 14 -25 -7 -25 220 -5 102 9 225 14 274 12 77 -4 87 -2 87 13 0 9 -8 20 -17 25 -26 11 -429 14 -497 3z"/>
 <path d="M480 139 c-132 -12 -154 -18 -140 -34 7 -8 36 -23 66 -35 72 -27 176 -27 245 0 50 18 99 54 99 72 0 10 -153 8 -270 -3z"/>
 </g>
<g id="layer105" fill="#679b00" stroke="none">
 <path d="M250 719 c0 -26 10 -52 35 -88 l34 -52 -30 22 c-17 12 -39 35 -49 51 -12 19 -19 25 -23 16 -6 -18 10 -49 42 -76 l26 -23 -25 12 c-14 6 -33 18 -42 27 -11 9 -18 11 -18 4 0 -7 12 -23 28 -36 15 -13 41 -36 57 -51 l30 -27 -43 23 c-31 17 -45 20 -53 12 -17 -17 -23 -97 -10 -136 18 -53 33 -61 86 -48 25 6 79 14 120 18 l75 6 0 44 c0 101 87 172 161 133 22 -12 24 -4 9 36 -10 26 -10 26 20 21 40 -8 38 1 -3 18 -56 23 -164 38 -230 31 -88 -10 -92 -14 -68 -67 12 -24 20 -51 20 -59 0 -8 -6 0 -14 18 -8 18 -34 58 -58 90 -24 31 -51 71 -60 87 l-16 30 -1 -36z m245 -160 c12 -19 -5 -23 -22 -6 -16 16 -16 17 -1 17 9 0 20 -5 23 -11z m-20 -29 c3 -5 -3 -10 -15 -10 -12 0 -18 5 -15 10 3 6 10 10 15 10 5 0 12 -4 15 -10z"/>
 <path d="M370 726 c0 -35 10 -56 26 -56 18 0 18 10 -2 48 -19 38 -24 40 -24 8z"/>
 <path d="M569 525 c-36 -20 -63 -78 -54 -121 6 -34 6 -34 62 -34 31 0 97 -5 146 -11 103 -14 107 -12 107 64 0 40 -5 53 -29 78 -36 35 -54 36 -86 5 l-23 -23 -24 23 c-30 30 -67 37 -99 19z m104 -80 c4 -8 2 -17 -3 -20 -5 -3 -7 -12 -3 -20 3 -9 -1 -15 -10 -15 -18 0 -29 26 -22 51 7 23 31 25 38 4z m128 -8 c-1 -4 -1 -16 -1 -28 0 -11 -4 -17 -10 -14 -14 8 -13 58 1 53 6 -2 10 -7 10 -11z"/>
 <path d="M306 279 c-70 -10 -82 -19 -67 -48 14 -25 -7 -25 220 -5 102 9 225 14 274 12 77 -4 87 -2 87 13 0 9 -8 20 -17 25 -26 11 -429 14 -497 3z"/>
 <path d="M628 114 c-16 -8 -28 -20 -28 -26 0 -17 71 -1 94 22 l20 20 -29 0 c-17 -1 -42 -8 -57 -16z"/>
 </g>
<g id="layer106" fill="#606060" stroke="none">
 <path d="M250 727 c0 -34 24 -83 58 -119 14 -15 23 -30 20 -33 -8 -9 -68 45 -89 80 l-19 30 0 -27 c0 -16 10 -35 28 -50 49 -41 47 -53 -4 -24 l-49 27 30 -26 c17 -14 45 -39 63 -54 17 -16 32 -34 32 -40 0 -7 -14 -1 -31 13 -37 32 -53 33 -73 4 -18 -26 -20 -49 -6 -98 18 -66 27 -71 95 -55 33 8 79 15 102 15 65 0 73 6 73 55 0 24 5 56 10 71 8 19 8 30 0 38 -8 8 -9 6 -5 -6 6 -14 2 -18 -19 -18 -16 0 -26 6 -26 15 0 8 6 15 13 15 6 0 12 11 12 25 0 23 -3 26 -35 23 -34 -3 -35 -4 -32 -43 l2 -40 -15 35 c-9 19 -33 57 -55 86 -21 28 -48 68 -59 90 -20 37 -21 38 -21 11z"/>
 <path d="M370 726 c0 -25 12 -46 26 -46 12 0 12 5 -1 30 -17 33 -25 38 -25 16z"/>
 <path d="M533 597 c-35 -18 -40 -25 -32 -40 10 -17 12 -16 36 3 30 23 58 25 93 5 36 -21 40 -19 29 14 -16 46 -61 52 -126 18z"/>
 <path d="M569 525 c-36 -20 -63 -78 -54 -121 6 -34 6 -34 62 -34 31 0 97 -5 146 -11 103 -14 107 -12 107 64 0 40 -5 53 -29 78 -36 35 -54 36 -86 5 l-23 -23 -24 23 c-30 30 -67 37 -99 19z m104 -80 c4 -8 2 -17 -3 -20 -5 -3 -7 -12 -3 -20 3 -9 -1 -15 -10 -15 -18 0 -29 26 -22 51 7 23 31 25 38 4z m128 -8 c-1 -4 -1 -16 -1 -28 0 -11 -4 -17 -10 -14 -14 8 -13 58 1 53 6 -2 10 -7 10 -11z"/>
 <path d="M306 279 c-70 -10 -82 -19 -67 -48 14 -25 -7 -25 220 -5 102 9 225 14 274 12 77 -4 87 -2 87 13 0 9 -8 20 -17 25 -26 11 -429 14 -497 3z"/>
 <path d="M628 114 c-16 -8 -28 -20 -28 -26 0 -17 71 -1 94 22 l20 20 -29 0 c-17 -1 -42 -8 -57 -16z"/>
 </g>
<g id="layer107" fill="#9acd00" stroke="none">
 <path d="M250 727 c0 -34 24 -83 58 -119 14 -15 23 -30 20 -33 -8 -9 -68 45 -89 80 l-19 30 0 -27 c0 -16 10 -35 28 -50 49 -41 47 -53 -4 -24 l-49 27 30 -26 c17 -14 45 -39 63 -54 17 -16 32 -34 32 -40 0 -7 -14 -1 -31 13 -37 32 -53 33 -73 4 -18 -26 -20 -49 -6 -98 18 -66 27 -71 95 -55 33 8 79 15 102 15 65 0 73 6 73 55 0 24 5 56 10 71 8 19 8 30 0 38 -8 8 -9 6 -5 -6 6 -14 2 -18 -19 -18 -16 0 -26 6 -26 15 0 8 6 15 13 15 6 0 12 11 12 25 0 23 -3 26 -35 23 -34 -3 -35 -4 -32 -43 l2 -40 -15 35 c-9 19 -33 57 -55 86 -21 28 -48 68 -59 90 -20 37 -21 38 -21 11z"/>
 <path d="M370 726 c0 -25 12 -46 26 -46 12 0 12 5 -1 30 -17 33 -25 38 -25 16z"/>
 <path d="M533 597 c-35 -18 -40 -25 -32 -40 10 -17 12 -16 36 3 30 23 58 25 93 5 36 -21 40 -19 29 14 -16 46 -61 52 -126 18z"/>
 <path d="M549 501 c-23 -24 -29 -38 -29 -74 l0 -45 68 -6 c37 -3 103 -10 146 -16 44 -5 82 -8 84 -5 3 2 7 26 9 52 8 92 -57 145 -113 92 l-22 -20 -25 25 c-36 36 -80 35 -118 -3z m121 -50 c7 -14 7 -28 0 -46 -9 -23 -13 -25 -25 -15 -18 15 -20 51 -3 68 15 15 15 15 28 -7z m135 -26 c0 -16 -6 -30 -13 -33 -8 -2 -12 8 -12 33 0 25 4 35 13 32 6 -2 12 -16 12 -32z"/>
 <path d="M628 114 c-16 -8 -28 -20 -28 -26 0 -17 71 -1 94 22 l20 20 -29 0 c-17 -1 -42 -8 -57 -16z"/>
 </g>
<g id="layer108" fill="#fdfefe" stroke="none">
 <path d="M549 501 c-23 -24 -29 -38 -29 -74 l0 -45 68 -6 c37 -3 103 -10 146 -16 44 -5 82 -8 84 -5 3 2 7 26 9 52 8 92 -57 145 -113 92 l-22 -20 -25 25 c-36 36 -80 35 -118 -3z m121 -50 c7 -14 7 -28 0 -46 -9 -23 -13 -25 -25 -15 -18 15 -20 51 -3 68 15 15 15 15 28 -7z m135 -26 c0 -16 -6 -30 -13 -33 -8 -2 -12 8 -12 33 0 25 4 35 13 32 6 -2 12 -16 12 -32z"/>
 <path d="M628 114 c-16 -8 -28 -20 -28 -26 0 -17 71 -1 94 22 l20 20 -29 0 c-17 -1 -42 -8 -57 -16z"/>
 </g>

</svg>