<!DOCTYPE svg PUBLIC "-//W3C//DTD SVG 20010904//EN" "http://www.w3.org/TR/2001/REC-SVG-20010904/DTD/svg10.dtd">
<svg version="1.0" xmlns="http://www.w3.org/2000/svg" width="88px" height="69px" viewBox="0 0 880 690" preserveAspectRatio="xMidYMid meet">
<g id="layer101" fill="#000000" stroke="none">
 <path d="M308 673 c-9 -10 -24 -34 -35 -53 -10 -19 -36 -52 -56 -73 -20 -21 -42 -55 -48 -76 l-12 -39 -41 19 c-67 31 -116 21 -116 -22 0 -17 47 -63 72 -71 9 -3 2 -17 -20 -42 -36 -42 -42 -81 -13 -91 25 -8 89 19 122 51 26 25 26 25 32 5 3 -12 1 -24 -4 -27 -27 -17 4 -114 37 -114 9 0 14 -11 14 -32 1 -61 25 -76 152 -93 198 -26 253 -17 260 42 2 21 9 27 33 30 59 7 87 80 45 118 -24 22 -13 40 28 48 50 10 69 99 35 158 -20 33 -22 30 37 49 40 13 45 18 45 45 0 38 -27 52 -112 59 -34 2 -72 11 -85 19 -33 22 -125 47 -170 47 -35 0 -39 3 -44 30 -4 17 -12 30 -19 30 -14 0 -39 -27 -48 -52 -10 -29 -35 -20 -47 17 -13 40 -20 43 -42 18z"/>
 </g>
<g id="layer102" fill="#bf1d2d" stroke="none">
 <path d="M314 613 c4 -16 16 -41 27 -56 21 -29 21 -29 1 -18 -12 6 -24 20 -27 31 -7 22 -25 27 -25 7 0 -7 8 -24 17 -37 l17 -25 -22 19 c-12 11 -22 14 -22 8 0 -6 15 -22 33 -36 17 -14 26 -26 19 -26 -8 0 -27 14 -44 30 -36 36 -50 30 -79 -35 -24 -52 -24 -82 1 -147 l20 -53 217 -26 218 -26 18 20 c12 14 16 28 12 41 -23 70 -8 136 30 136 8 0 15 6 15 14 0 11 -10 13 -39 9 -34 -5 -41 -2 -56 21 -18 26 -14 76 5 76 28 0 4 20 -42 36 -52 17 -210 25 -224 11 -4 -3 1 -18 10 -33 10 -14 15 -28 13 -30 -3 -3 -22 22 -43 55 -42 65 -60 77 -50 34z m232 -171 c-9 -8 -26 10 -26 26 1 15 2 15 15 -2 8 -11 13 -21 11 -24z m-35 -8 c12 -14 11 -16 -5 -13 -11 2 -21 10 -24 17 -5 17 13 15 29 -4z m109 -14 c23 -12 43 -70 35 -103 -9 -34 -41 -67 -66 -67 -11 0 -31 11 -44 25 -64 63 0 185 75 145z"/>
 <path d="M561 401 c-34 -26 -35 -95 -2 -122 28 -23 35 -23 55 -3 36 35 31 104 -9 130 -17 11 -24 10 -44 -5z m55 -56 c-1 -14 -6 -28 -9 -31 -9 -10 -20 23 -13 41 9 24 25 17 22 -10z"/>
 <path d="M666 518 c-13 -10 -16 -21 -12 -36 9 -26 25 -27 114 -8 111 24 106 46 -12 53 -51 4 -76 1 -90 -9z"/>
 <path d="M711 396 c-17 -20 -18 -91 -2 -110 21 -25 49 -19 67 15 33 64 -23 145 -65 95z m57 -51 c0 -31 -22 -28 -26 3 -2 14 2 22 11 22 9 0 15 -10 15 -25z"/>
 <path d="M250 241 c-44 -8 -55 -45 -18 -61 13 -5 120 -21 238 -35 l215 -26 17 21 c23 28 13 50 -22 50 -16 0 -32 5 -35 10 -4 6 -21 8 -41 4 -21 -4 -40 -2 -49 6 -8 6 -23 9 -36 5 -12 -4 -32 -1 -46 6 -19 10 -29 10 -43 1 -14 -9 -21 -8 -31 4 -8 10 -22 13 -44 8 -19 -3 -35 -1 -39 5 -8 12 -11 12 -66 2z"/>
 <path d="M280 106 c0 -42 -6 -40 174 -62 134 -16 140 -16 153 1 20 28 16 54 -9 59 -55 12 -210 27 -223 22 -8 -3 -17 -1 -20 4 -4 6 -22 10 -41 10 -32 0 -34 -2 -34 -34z"/>
 </g>
<g id="layer103" fill="#e63a31" stroke="none">
 <path d="M316 631 c-8 -12 2 -38 26 -73 27 -39 5 -35 -26 5 -17 21 -26 26 -26 16 0 -9 9 -24 20 -34 11 -10 18 -20 15 -23 -3 -3 -14 3 -25 13 -11 10 -20 13 -20 8 0 -6 17 -25 38 -43 l37 -31 -42 22 c-24 13 -43 26 -43 31 0 21 -31 4 -51 -29 -28 -45 -30 -111 -6 -175 18 -45 21 -48 55 -48 20 0 107 -9 192 -20 205 -26 218 -26 232 5 9 19 9 28 0 37 -7 7 -12 30 -12 51 0 30 7 45 30 67 16 15 30 30 30 32 0 2 -19 2 -42 0 -32 -3 -45 0 -55 14 -18 25 -16 71 4 82 14 8 11 12 -18 28 -25 13 -63 19 -141 22 -60 2 -108 2 -108 -1 0 -3 9 -22 21 -41 12 -20 17 -36 12 -36 -8 0 -43 48 -75 103 -9 15 -19 24 -22 18z m224 -155 c0 -2 3 -11 6 -20 9 -23 -13 -20 -26 4 -9 16 -8 20 5 20 8 0 15 -2 15 -4z m-30 -41 c7 -9 10 -18 7 -22 -8 -7 -37 15 -37 28 0 14 16 11 30 -6z m134 -48 c16 -33 17 -45 7 -78 -19 -62 -74 -79 -110 -33 -46 59 -11 158 53 152 25 -2 35 -11 50 -41z"/>
 <path d="M556 388 c-19 -27 -20 -77 -2 -100 30 -40 86 -5 86 52 0 33 -26 70 -50 70 -10 0 -26 -10 -34 -22z m66 -53 c-2 -14 -10 -24 -16 -22 -14 4 -20 33 -12 54 10 25 34 -3 28 -32z"/>
 <path d="M664 511 c-2 -2 -4 -13 -4 -24 0 -18 5 -19 63 -14 78 8 134 26 115 38 -13 9 -165 8 -174 0z"/>
 <path d="M716 391 c-22 -24 -18 -90 7 -105 27 -17 51 5 55 48 3 35 -18 76 -38 76 -4 0 -15 -9 -24 -19z m52 -46 c-4 -33 -22 -33 -26 0 -2 18 1 25 13 25 12 0 15 -7 13 -25z"/>
 <path d="M221 221 c-19 -35 13 -44 243 -72 228 -28 246 -27 246 12 0 23 -35 30 -270 54 -25 2 -74 9 -110 15 -89 13 -98 13 -109 -9z"/>
 <path d="M280 98 c0 -9 5 -20 11 -24 16 -10 290 -43 305 -37 8 3 14 13 14 22 0 14 -25 20 -165 37 -155 19 -165 19 -165 2z"/>
 </g>
<g id="layer104" fill="#f9561a" stroke="none">
 <path d="M316 631 c-8 -12 2 -38 26 -73 27 -39 5 -35 -26 5 -17 21 -26 26 -26 16 0 -9 9 -24 20 -34 11 -10 18 -20 15 -23 -3 -3 -14 3 -25 13 -11 10 -20 13 -20 8 0 -6 17 -25 38 -43 l37 -31 -42 22 c-24 13 -43 26 -43 31 0 21 -31 4 -51 -29 -28 -45 -30 -111 -6 -175 18 -45 21 -48 55 -48 20 0 107 -9 192 -20 205 -26 218 -26 232 5 9 19 9 28 0 37 -7 7 -12 30 -12 51 0 30 7 45 30 67 16 15 30 30 30 32 0 2 -19 2 -42 0 -32 -3 -45 0 -55 14 -18 25 -16 71 4 82 14 8 11 12 -18 28 -25 13 -63 19 -141 22 -60 2 -108 2 -108 -1 0 -3 9 -22 21 -41 12 -20 17 -36 12 -36 -8 0 -43 48 -75 103 -9 15 -19 24 -22 18z m224 -155 c0 -2 3 -11 6 -20 9 -23 -13 -20 -26 4 -9 16 -8 20 5 20 8 0 15 -2 15 -4z m-30 -41 c7 -9 10 -18 7 -22 -8 -7 -37 15 -37 28 0 14 16 11 30 -6z m134 -48 c16 -33 17 -45 7 -78 -19 -62 -74 -79 -110 -33 -46 59 -11 158 53 152 25 -2 35 -11 50 -41z"/>
 <path d="M556 388 c-19 -27 -20 -77 -2 -100 30 -40 86 -5 86 52 0 33 -26 70 -50 70 -10 0 -26 -10 -34 -22z m66 -53 c-2 -14 -10 -24 -16 -22 -14 4 -20 33 -12 54 10 25 34 -3 28 -32z"/>
 <path d="M730 513 c-57 -9 -70 -14 -70 -30 0 -14 9 -15 63 -10 78 8 134 26 115 38 -13 9 -61 10 -108 2z"/>
 <path d="M716 391 c-22 -24 -18 -90 7 -105 27 -17 51 5 55 48 3 35 -18 76 -38 76 -4 0 -15 -9 -24 -19z m52 -46 c-4 -33 -22 -33 -26 0 -2 18 1 25 13 25 12 0 15 -7 13 -25z"/>
 <path d="M221 221 c-19 -35 13 -44 243 -72 228 -28 246 -27 246 12 0 23 -35 30 -270 54 -25 2 -74 9 -110 15 -89 13 -98 13 -109 -9z"/>
 </g>
<g id="layer105" fill="#d1aa06" stroke="none">
 <path d="M316 631 c-8 -12 2 -38 26 -73 27 -39 5 -35 -26 5 -17 21 -26 26 -26 16 0 -9 9 -24 20 -34 11 -10 18 -20 15 -23 -3 -3 -14 3 -25 13 -11 10 -20 13 -20 8 0 -6 17 -25 38 -43 l37 -31 -42 22 c-24 13 -43 26 -43 31 0 21 -31 4 -51 -29 -28 -45 -30 -111 -6 -175 18 -45 21 -48 55 -48 20 0 107 -9 192 -20 205 -26 218 -26 232 5 9 19 9 28 0 37 -7 7 -12 30 -12 51 0 30 7 45 30 67 16 15 30 30 30 32 0 2 -19 2 -42 0 -32 -3 -45 0 -55 14 -18 25 -16 71 4 82 14 8 11 12 -18 28 -25 13 -63 19 -141 22 -60 2 -108 2 -108 -1 0 -3 9 -22 21 -41 12 -20 17 -36 12 -36 -8 0 -43 48 -75 103 -9 15 -19 24 -22 18z m224 -155 c0 -2 3 -11 6 -20 9 -23 -13 -20 -26 4 -9 16 -8 20 5 20 8 0 15 -2 15 -4z m-30 -41 c7 -9 10 -18 7 -22 -8 -7 -37 15 -37 28 0 14 16 11 30 -6z m134 -48 c16 -33 17 -45 7 -78 -19 -62 -74 -79 -110 -33 -46 59 -11 158 53 152 25 -2 35 -11 50 -41z"/>
 <path d="M556 388 c-19 -27 -20 -77 -2 -100 30 -40 86 -5 86 52 0 33 -26 70 -50 70 -10 0 -26 -10 -34 -22z m66 -53 c-2 -14 -10 -24 -16 -22 -14 4 -20 33 -12 54 10 25 34 -3 28 -32z"/>
 <path d="M716 391 c-22 -24 -18 -90 7 -105 27 -17 51 5 55 48 3 35 -18 76 -38 76 -4 0 -15 -9 -24 -19z m52 -46 c-4 -33 -22 -33 -26 0 -2 18 1 25 13 25 12 0 15 -7 13 -25z"/>
 <path d="M221 221 c-19 -35 13 -44 243 -72 228 -28 246 -27 246 12 0 23 -35 30 -270 54 -25 2 -74 9 -110 15 -89 13 -98 13 -109 -9z"/>
 </g>
<g id="layer106" fill="#ffcd00" stroke="none">
 <path d="M320 609 c0 -8 15 -35 33 -60 l32 -44 -30 19 c-16 11 -38 29 -48 40 -10 12 -15 14 -11 6 4 -8 16 -26 28 -39 19 -22 19 -24 2 -17 -12 4 -7 -4 13 -23 41 -38 40 -48 -3 -22 -40 25 -83 27 -114 5 -18 -12 -22 -25 -22 -64 0 -54 25 -130 44 -130 6 0 81 -9 166 -20 85 -11 157 -20 160 -20 2 0 -12 11 -32 25 -42 28 -58 79 -40 120 9 20 7 26 -11 38 -17 12 -19 18 -10 28 10 10 15 9 28 -1 14 -12 15 -10 10 13 -6 21 -3 27 8 27 9 0 18 -8 22 -18 3 -11 22 -24 44 -31 26 -7 46 -22 60 -44 12 -19 21 -26 21 -16 0 19 27 45 55 53 11 3 -6 3 -37 1 -50 -4 -59 -2 -72 17 -9 12 -16 36 -16 52 l0 29 -78 -5 c-43 -3 -86 -2 -95 4 -15 8 -16 6 -7 -17 13 -33 13 -45 0 -45 -5 0 -10 6 -10 13 0 7 -20 42 -45 77 -25 35 -45 57 -45 49z"/>
 <path d="M556 388 c-19 -27 -20 -77 -2 -100 30 -40 86 -5 86 52 0 33 -26 70 -50 70 -10 0 -26 -10 -34 -22z m66 -53 c-2 -14 -10 -24 -16 -22 -14 4 -20 33 -12 54 10 25 34 -3 28 -32z"/>
 <path d="M716 391 c-22 -24 -18 -90 7 -105 27 -17 51 5 55 48 3 35 -18 76 -38 76 -4 0 -15 -9 -24 -19z m52 -46 c-4 -33 -22 -33 -26 0 -2 18 1 25 13 25 12 0 15 -7 13 -25z"/>
 <path d="M660 306 c0 -8 -11 -24 -25 -37 -13 -13 -25 -27 -25 -31 0 -16 58 -7 74 11 17 18 17 21 1 45 -20 29 -25 32 -25 12z"/>
 <path d="M221 221 c-19 -35 13 -44 243 -72 228 -28 246 -27 246 12 0 23 -35 30 -270 54 -25 2 -74 9 -110 15 -89 13 -98 13 -109 -9z"/>
 </g>
<g id="layer107" fill="#ffffff" stroke="none">
 <path d="M556 388 c-19 -27 -20 -77 -2 -100 30 -40 86 -5 86 52 0 33 -26 70 -50 70 -10 0 -26 -10 -34 -22z m66 -53 c-2 -14 -10 -24 -16 -22 -14 4 -20 33 -12 54 10 25 34 -3 28 -32z"/>
 <path d="M716 391 c-22 -24 -18 -90 7 -105 27 -17 51 5 55 48 3 35 -18 76 -38 76 -4 0 -15 -9 -24 -19z m52 -46 c-4 -33 -22 -33 -26 0 -2 18 1 25 13 25 12 0 15 -7 13 -25z"/>
 <path d="M221 221 c-19 -35 13 -44 243 -72 228 -28 246 -27 246 12 0 23 -35 30 -270 54 -25 2 -74 9 -110 15 -89 13 -98 13 -109 -9z"/>
 </g>

</svg>