<!DOCTYPE svg PUBLIC "-//W3C//DTD SVG 20010904//EN" "http://www.w3.org/TR/2001/REC-SVG-20010904/DTD/svg10.dtd">
<svg version="1.0" xmlns="http://www.w3.org/2000/svg" width="90px" height="68px" viewBox="0 0 900 680" preserveAspectRatio="xMidYMid meet">
<g id="layer101" fill="#000000" stroke="none">
 <path d="M266 649 c-14 -17 -26 -37 -26 -45 0 -14 -12 -30 -59 -82 l-24 -26 22 -14 c11 -8 21 -22 21 -32 0 -14 -24 -74 -36 -88 -1 -2 -12 1 -23 8 -23 12 -28 1 -9 -18 17 -17 -10 -15 -42 3 -43 25 -57 19 -74 -32 -9 -26 -16 -48 -16 -49 0 -2 28 -6 63 -10 l62 -8 -58 -14 c-52 -13 -57 -16 -51 -36 4 -11 11 -23 15 -24 5 -2 9 -10 9 -18 0 -9 5 -24 10 -35 10 -18 14 -17 74 26 l63 45 28 -40 c66 -95 184 -153 315 -154 118 -1 156 18 307 153 47 41 52 142 11 209 l-20 32 39 17 38 17 -55 10 c-31 6 -79 26 -107 44 -53 34 -155 62 -229 62 -39 0 -43 3 -62 43 -11 23 -25 53 -30 67 l-9 25 -31 -32 c-18 -17 -32 -42 -32 -55 -1 -22 -1 -22 -15 -4 -8 11 -18 34 -21 53 -8 41 -15 41 -48 2z"/>
 </g>
<g id="layer102" fill="#f05a28" stroke="none">
 <path d="M275 611 c-13 -22 5 -80 41 -126 23 -31 29 -43 15 -36 -22 12 -71 68 -71 82 0 5 -4 9 -10 9 -22 0 -8 -44 24 -76 40 -40 35 -43 -17 -9 -55 38 -46 18 21 -45 32 -30 51 -50 43 -44 -33 24 -83 45 -96 41 -17 -7 -37 -94 -30 -131 4 -17 18 -50 32 -74 l25 -43 33 38 34 38 -11 -42 c-10 -43 -5 -93 11 -93 5 0 13 19 19 42 6 24 18 52 26 63 14 19 15 17 16 -28 0 -57 21 -111 49 -126 19 -11 20 -9 14 56 -3 38 -1 83 4 102 l9 35 22 -61 c12 -33 39 -80 60 -103 35 -40 40 -43 75 -36 35 7 117 60 124 81 2 6 -5 15 -16 22 -15 9 -27 8 -60 -9 -38 -19 -45 -19 -79 -6 -43 16 -78 63 -87 119 -15 89 73 186 147 160 38 -13 41 -11 29 22 -9 24 -8 26 22 29 l32 4 -37 17 c-55 25 -174 41 -241 33 -31 -4 -57 -11 -57 -15 0 -5 7 -25 15 -44 18 -43 19 -60 2 -32 -7 12 -31 47 -55 78 -24 32 -49 72 -56 89 -9 20 -16 26 -21 19z m225 -196 c7 -9 10 -18 7 -21 -6 -7 -47 18 -47 28 0 14 27 9 40 -7z m-15 -35 c3 -5 -3 -10 -14 -10 -11 0 -23 5 -26 10 -3 6 3 10 14 10 11 0 23 -4 26 -10z"/>
 <path d="M390 583 c0 -44 8 -57 29 -44 10 7 9 16 -8 47 l-20 39 -1 -42z"/>
 <path d="M700 429 c0 -29 12 -36 41 -26 38 15 37 24 -6 29 -19 2 -35 1 -35 -3z"/>
 <path d="M570 377 c-67 -52 -67 -161 -2 -214 27 -22 77 -16 106 14 l27 26 20 -21 c44 -47 100 -23 120 52 27 101 -63 193 -119 121 l-19 -24 -28 29 c-31 32 -77 40 -105 17z m108 -99 c-2 -44 -7 -51 -24 -37 -14 12 -19 51 -7 62 17 18 33 5 31 -25z m140 -8 c-1 -18 -6 -29 -12 -27 -13 4 -20 33 -12 53 9 24 25 7 24 -26z"/>
 </g>
<g id="layer103" fill="#db5c87" stroke="none">
 <path d="M275 611 c-13 -22 5 -80 41 -126 23 -31 29 -43 15 -36 -22 12 -71 68 -71 82 0 5 -4 9 -10 9 -22 0 -8 -44 24 -76 40 -40 35 -43 -17 -9 -55 38 -46 18 21 -45 32 -30 51 -50 43 -44 -33 24 -83 45 -96 41 -17 -7 -37 -94 -30 -131 4 -17 18 -50 32 -74 l25 -43 33 38 34 38 -11 -42 c-10 -43 -5 -93 11 -93 5 0 13 19 19 42 6 24 18 52 26 63 14 19 15 17 16 -28 0 -57 21 -111 49 -126 19 -11 20 -9 14 56 -3 38 -1 83 4 102 l9 35 22 -61 c12 -33 39 -80 60 -103 35 -40 40 -43 75 -36 35 7 117 60 124 81 2 6 -5 15 -16 22 -15 9 -27 8 -60 -9 -38 -19 -45 -19 -79 -6 -43 16 -78 63 -87 119 -15 89 73 186 147 160 38 -13 41 -11 29 22 -9 24 -8 26 22 29 l32 4 -37 17 c-55 25 -174 41 -241 33 -31 -4 -57 -11 -57 -15 0 -5 7 -25 15 -44 18 -43 19 -60 2 -32 -7 12 -31 47 -55 78 -24 32 -49 72 -56 89 -9 20 -16 26 -21 19z m225 -196 c7 -9 10 -18 7 -21 -6 -7 -47 18 -47 28 0 14 27 9 40 -7z m-15 -35 c3 -5 -3 -10 -14 -10 -11 0 -23 5 -26 10 -3 6 3 10 14 10 11 0 23 -4 26 -10z"/>
 <path d="M390 583 c0 -44 8 -57 29 -44 10 7 9 16 -8 47 l-20 39 -1 -42z"/>
 <path d="M570 377 c-67 -52 -67 -161 -2 -214 27 -22 77 -16 106 14 l27 26 20 -21 c44 -47 100 -23 120 52 27 101 -63 193 -119 121 l-19 -24 -28 29 c-31 32 -77 40 -105 17z m108 -99 c-2 -44 -7 -51 -24 -37 -14 12 -19 51 -7 62 17 18 33 5 31 -25z m140 -8 c-1 -18 -6 -29 -12 -27 -13 4 -20 33 -12 53 9 24 25 7 24 -26z"/>
 </g>
<g id="layer104" fill="#efb7c0" stroke="none">
 <path d="M281 580 c-1 -34 9 -55 58 -120 20 -27 21 -31 5 -22 -26 14 -65 51 -86 82 -17 25 -17 25 -17 2 -1 -13 16 -38 42 -64 l42 -42 -47 26 c-61 34 -62 21 -2 -26 26 -19 54 -46 62 -58 15 -22 15 -22 -4 -7 -10 9 -33 24 -50 33 -30 15 -33 14 -58 -5 -37 -29 -36 -102 1 -170 l26 -49 23 34 c25 37 62 60 45 27 -15 -27 -17 -99 -3 -113 9 -9 12 -7 12 10 0 12 10 44 23 70 l22 47 6 -60 c6 -64 32 -125 52 -125 10 0 12 17 9 65 -5 72 4 135 18 135 6 0 10 -8 10 -19 0 -56 70 -173 111 -186 24 -8 111 30 140 61 12 13 21 25 18 26 -41 25 -48 27 -59 13 -20 -24 -78 -30 -116 -11 -89 42 -110 199 -35 269 38 36 61 40 106 17 21 -11 40 -19 41 -17 1 1 -4 16 -11 34 -18 43 -59 51 -116 23 -33 -17 -51 -20 -86 -15 l-44 6 6 -48 6 -48 -14 37 c-8 20 -37 68 -65 106 -28 38 -56 80 -61 93 -9 22 -10 22 -10 -11z m223 -166 c4 -9 5 -19 2 -21 -7 -7 -46 17 -46 27 0 17 37 11 44 -6z m-14 -34 c0 -5 -11 -10 -25 -10 -14 0 -25 5 -25 10 0 6 11 10 25 10 14 0 25 -4 25 -10z"/>
 <path d="M390 582 c0 -20 6 -35 15 -39 24 -9 25 -1 5 37 l-19 35 -1 -33z"/>
 <path d="M568 370 c-59 -46 -63 -144 -8 -192 38 -35 70 -35 110 -2 l31 27 23 -22 c54 -50 116 -7 116 81 0 99 -60 149 -114 95 l-23 -23 -32 28 c-37 33 -69 36 -103 8z m115 -74 c3 -8 3 -17 -1 -21 -4 -3 -7 -14 -7 -22 0 -9 -5 -18 -12 -20 -14 -5 -28 40 -19 62 7 19 32 20 39 1z m135 -26 c-1 -39 -28 -41 -28 -2 0 16 3 32 6 35 13 12 23 -3 22 -33z"/>
 </g>
<g id="layer105" fill="#fdf9f9" stroke="none">
 <path d="M575 350 c-23 -24 -30 -41 -33 -89 -4 -54 -2 -62 21 -85 35 -35 71 -33 109 4 l30 30 20 -25 c48 -61 118 -9 118 88 0 73 -56 123 -90 82 -7 -9 -15 -13 -18 -10 -3 3 -11 0 -19 -6 -10 -9 -18 -6 -34 15 -28 36 -67 34 -104 -4z m105 -45 c8 -10 9 -23 3 -42 -12 -36 -37 -36 -41 0 -6 52 13 72 38 42z m140 -29 c0 -42 -17 -56 -29 -25 -10 29 -3 59 15 59 9 0 14 -12 14 -34z"/>
 </g>

</svg>