<!DOCTYPE svg PUBLIC "-//W3C//DTD SVG 20010904//EN" "http://www.w3.org/TR/2001/REC-SVG-20010904/DTD/svg10.dtd">
<svg version="1.0" xmlns="http://www.w3.org/2000/svg" width="66px" height="90px" viewBox="0 0 660 900" preserveAspectRatio="xMidYMid meet">
<g id="layer101" fill="#020202" stroke="none">
 <path d="M181 869 c-119 -60 -181 -178 -181 -348 0 -47 7 -115 16 -151 33 -144 138 -306 225 -350 45 -23 116 -26 162 -6 77 32 169 154 220 290 23 63 31 103 35 182 5 117 -11 190 -60 266 -64 101 -151 148 -274 148 -71 0 -89 -4 -143 -31z"/>
 </g>
<g id="layer102" fill="#ac0014" stroke="none">
 <path d="M260 880 c-96 -20 -179 -97 -219 -205 -29 -76 -30 -223 -3 -316 32 -109 82 -199 147 -266 77 -79 122 -95 192 -68 85 33 180 152 229 287 69 191 37 389 -78 493 -71 64 -176 93 -268 75z"/>
 </g>
<g id="layer103" fill="#7201c3" stroke="none">
 <path d="M192 849 c-117 -58 -172 -162 -173 -330 0 -145 63 -313 157 -418 108 -120 226 -107 333 36 111 148 159 351 118 493 -16 56 -38 62 -74 21 -15 -17 -31 -31 -35 -31 -4 0 -14 14 -23 30 -9 17 -20 30 -25 30 -5 0 -21 5 -36 10 l-27 11 26 27 c19 20 27 39 27 65 0 41 2 42 32 26 16 -8 19 -8 13 1 -4 7 -31 23 -59 36 -78 36 -173 34 -254 -7z m95 -73 c0 -12 3 -29 7 -38 6 -12 4 -18 -5 -18 -7 0 -21 -8 -32 -17 -15 -14 -21 -15 -25 -5 -2 7 -15 17 -29 23 -22 8 -23 11 -9 30 8 12 12 27 10 33 -3 9 9 13 39 13 39 0 45 -3 44 -21z m116 -160 c10 -26 -20 -48 -45 -32 -10 6 -16 17 -13 24 3 8 5 18 5 23 0 17 45 4 53 -15z m-269 -13 c4 -9 0 -23 -8 -31 -20 -20 -46 0 -39 28 6 24 38 26 47 3z m11 -212 c-3 -11 1 -26 10 -35 19 -19 17 -19 50 -6 23 9 30 7 46 -12 24 -30 24 -48 -1 -48 -12 0 -32 -12 -46 -27 -21 -23 -27 -25 -34 -13 -6 8 -10 19 -10 23 0 4 -13 13 -30 18 -34 12 -37 21 -15 39 8 7 15 28 15 46 0 19 5 34 11 34 6 0 8 -8 4 -19z m278 -65 c3 -8 0 -17 -8 -19 -15 -7 -25 1 -25 20 0 17 26 17 33 -1z m79 -101 c6 -30 -26 -52 -47 -32 -20 21 -8 55 20 55 16 0 24 -7 27 -23z m-170 -70 c-2 -9 3 -24 10 -32 11 -14 11 -17 -1 -21 -7 -2 -22 -13 -33 -24 -20 -20 -20 -20 -34 1 -9 12 -22 21 -30 21 -16 0 -19 16 -4 25 6 3 10 16 10 29 0 20 4 22 43 20 33 -2 41 -6 39 -19z"/>
 </g>
<g id="layer104" fill="#ae02fe" stroke="none">
 <path d="M192 850 c-103 -52 -160 -147 -169 -281 l-6 -79 82 0 c78 0 81 -1 81 -23 0 -37 -19 -47 -88 -47 l-64 0 7 -37 c16 -90 85 -222 154 -296 56 -62 148 -84 210 -53 75 39 179 189 216 313 22 73 22 73 -45 73 -50 0 -61 3 -70 21 -21 39 -6 49 70 49 l70 0 -1 53 c-1 69 -20 131 -42 135 -10 2 -29 -10 -44 -27 -15 -17 -31 -31 -35 -31 -4 0 -14 14 -23 30 -9 17 -20 30 -25 30 -5 0 -21 5 -36 10 l-27 11 26 27 c19 20 27 39 27 65 0 41 2 42 32 26 15 -8 19 -8 14 0 -18 29 -93 55 -171 59 -74 3 -85 1 -143 -28z m95 -74 c0 -12 3 -29 7 -38 6 -12 4 -18 -5 -18 -7 0 -21 -8 -32 -17 -15 -14 -21 -15 -25 -5 -2 7 -15 17 -29 23 -22 8 -23 11 -9 30 8 12 12 27 10 33 -3 9 9 13 39 13 39 0 45 -3 44 -21z m116 -160 c10 -26 -20 -48 -45 -32 -10 6 -16 17 -13 24 3 8 5 18 5 23 0 17 45 4 53 -15z m-269 -13 c4 -9 0 -23 -8 -31 -20 -20 -46 0 -39 28 6 24 38 26 47 3z m130 -105 c23 -32 20 -63 -9 -82 -44 -29 -52 -22 -51 44 1 55 3 60 23 60 12 0 29 -10 37 -22z m212 -38 c1 -68 -12 -77 -59 -40 -23 18 -25 24 -16 48 15 38 29 52 53 52 19 0 21 -6 22 -60z m-121 0 c0 -29 -32 -41 -41 -16 -9 24 4 48 23 44 12 -2 18 -12 18 -28z m-203 -77 c2 -22 9 -29 31 -31 16 -2 35 2 43 9 11 9 14 8 14 -4 0 -8 7 -20 15 -27 22 -18 18 -40 -5 -40 -12 0 -32 -12 -46 -27 -21 -23 -27 -25 -34 -13 -6 8 -10 19 -10 23 0 4 -13 13 -30 18 -34 12 -37 21 -15 39 8 7 15 28 15 46 0 41 17 46 22 7z m271 -57 c3 -8 0 -17 -8 -19 -15 -7 -25 1 -25 20 0 17 26 17 33 -1z m79 -101 c6 -30 -26 -52 -47 -32 -20 21 -8 55 20 55 16 0 24 -7 27 -23z m-170 -70 c-2 -9 3 -24 10 -32 11 -14 11 -17 -1 -21 -7 -2 -22 -13 -33 -24 -20 -20 -20 -20 -34 1 -9 12 -22 21 -30 21 -16 0 -19 16 -4 25 6 3 10 16 10 29 0 20 4 22 43 20 33 -2 41 -6 39 -19z"/>
 </g>
<g id="layer105" fill="#ff18b6" stroke="none">
 <path d="M192 850 c-103 -52 -160 -147 -169 -281 l-6 -79 77 0 c76 0 77 0 70 23 -14 44 -10 52 28 55 30 3 42 -3 71 -31 27 -27 38 -33 52 -25 12 7 25 6 43 -1 21 -10 27 -9 34 4 21 37 53 56 88 53 34 -3 35 -4 32 -40 l-3 -38 66 0 65 0 -1 53 c-1 69 -20 131 -42 135 -10 2 -29 -10 -44 -27 -15 -17 -31 -31 -35 -31 -4 0 -14 14 -23 30 -9 17 -20 30 -25 30 -5 0 -21 5 -36 10 l-27 11 26 27 c19 20 27 39 27 65 0 41 2 42 32 26 15 -8 19 -8 14 0 -18 29 -93 55 -171 59 -74 3 -85 1 -143 -28z m95 -74 c0 -12 3 -29 7 -38 6 -12 4 -18 -5 -18 -7 0 -21 -8 -32 -17 -15 -14 -21 -15 -25 -5 -2 7 -15 17 -29 23 -22 8 -23 11 -9 30 8 12 12 27 10 33 -3 9 9 13 39 13 39 0 45 -3 44 -21z m116 -160 c10 -26 -20 -48 -45 -32 -10 6 -16 17 -13 24 3 8 5 18 5 23 0 17 45 4 53 -15z m-269 -13 c4 -9 0 -23 -8 -31 -20 -20 -46 0 -39 28 6 24 38 26 47 3z"/>
 <path d="M35 383 c16 -90 85 -222 154 -296 56 -62 148 -84 210 -53 75 39 179 189 216 313 22 72 22 73 -40 73 l-54 0 5 -29 c5 -23 2 -32 -14 -40 -24 -13 -45 -7 -91 27 -44 33 -115 37 -153 10 -31 -22 -35 -40 -13 -58 22 -18 18 -40 -5 -40 -12 0 -32 -12 -46 -27 -21 -23 -27 -25 -34 -13 -6 8 -10 19 -10 23 0 4 -13 13 -30 18 -34 12 -37 21 -15 39 8 7 15 27 15 45 0 24 5 35 18 38 9 3 -14 5 -52 6 l-68 1 7 -37z m388 -57 c3 -8 0 -17 -8 -19 -15 -7 -25 1 -25 20 0 17 26 17 33 -1z m79 -101 c6 -30 -26 -52 -47 -32 -20 21 -8 55 20 55 16 0 24 -7 27 -23z m-170 -70 c-2 -9 3 -24 10 -32 11 -14 11 -17 -1 -21 -7 -2 -22 -13 -33 -24 -20 -20 -20 -20 -34 1 -9 12 -22 21 -30 21 -16 0 -19 16 -4 25 6 3 10 16 10 29 0 20 4 22 43 20 33 -2 41 -6 39 -19z"/>
 </g>
<g id="layer106" fill="#fffefe" stroke="none">
 <path d="M390 170 c-29 -29 -36 -68 -16 -88 15 -15 19 -15 43 -2 33 19 52 72 33 95 -17 20 -36 19 -60 -5z"/>
 </g>

</svg>