<!DOCTYPE svg PUBLIC "-//W3C//DTD SVG 20010904//EN" "http://www.w3.org/TR/2001/REC-SVG-20010904/DTD/svg10.dtd">
<svg version="1.0" xmlns="http://www.w3.org/2000/svg" width="65px" height="90px" viewBox="0 0 650 900" preserveAspectRatio="xMidYMid meet">
<g id="layer101" fill="#020609" stroke="none">
 <path d="M203 884 c-58 -21 -138 -96 -171 -158 -24 -47 -27 -63 -30 -188 -3 -107 0 -149 13 -194 37 -128 123 -261 203 -314 56 -37 131 -41 190 -11 86 45 176 171 218 308 23 74 26 95 22 205 -3 107 -7 130 -29 178 -31 65 -96 132 -159 163 -58 28 -194 34 -257 11z"/>
 </g>
<g id="layer102" fill="#0013ac" stroke="none">
 <path d="M248 876 c-98 -27 -179 -107 -212 -211 -22 -70 -22 -213 -1 -294 44 -171 149 -318 250 -351 126 -41 293 157 340 403 17 92 6 195 -31 278 -61 135 -213 212 -346 175z"/>
 </g>
<g id="layer103" fill="#01c372" stroke="none">
 <path d="M217 865 c-206 -76 -261 -378 -120 -648 40 -76 111 -160 154 -182 103 -54 228 29 314 210 64 133 83 278 52 385 -16 57 -37 61 -78 18 -23 -25 -33 -29 -37 -19 -9 26 -51 61 -72 61 -26 0 -26 22 0 45 14 12 20 31 20 58 0 27 4 38 13 34 43 -18 48 -16 17 5 -19 14 -50 30 -69 36 -45 16 -147 14 -194 -3z m63 -92 c0 -12 5 -25 10 -28 15 -9 12 -25 -4 -25 -8 0 -22 -8 -32 -17 -14 -15 -18 -15 -28 -2 -6 8 -20 18 -30 22 -15 6 -17 10 -8 19 7 7 12 22 12 34 0 19 5 21 40 20 34 -1 40 -4 40 -23z m122 -158 c6 -30 -28 -53 -48 -33 -20 20 -7 56 21 56 16 0 24 -7 27 -23z m-269 -15 c7 -28 -19 -48 -39 -28 -18 18 -8 48 16 48 10 0 20 -9 23 -20z m10 -214 c-7 -32 25 -50 62 -36 34 13 35 13 35 -4 0 -7 7 -19 15 -26 22 -18 18 -30 -10 -30 -15 0 -31 -9 -41 -25 -20 -30 -31 -32 -39 -4 -4 11 -20 25 -36 31 -33 11 -36 20 -14 38 8 7 15 28 15 46 0 19 4 34 9 34 4 0 6 -11 4 -24z m273 -57 c8 -14 -18 -31 -30 -19 -9 9 0 30 14 30 5 0 12 -5 16 -11z m77 -103 c10 -26 -20 -48 -45 -32 -10 6 -16 17 -13 24 3 8 5 18 5 23 0 17 45 4 53 -15z m-163 -76 c0 -14 5 -31 11 -37 8 -8 5 -13 -12 -18 -13 -5 -29 -15 -35 -23 -10 -14 -13 -13 -23 6 -6 12 -18 22 -26 22 -17 0 -20 16 -5 25 6 3 10 16 10 28 0 19 5 22 40 22 36 0 40 -2 40 -25z"/>
 </g>
<g id="layer104" fill="#02feaf" stroke="none">
 <path d="M192 849 c-105 -52 -160 -143 -169 -280 l-6 -79 77 0 c83 0 98 -10 76 -49 -9 -18 -20 -21 -75 -21 -75 0 -75 0 -44 -93 42 -127 119 -241 193 -286 81 -50 179 -11 262 105 49 68 98 174 109 236 l7 37 -63 3 -64 3 -3 33 -3 32 70 0 71 0 -1 53 c-1 69 -20 131 -42 135 -9 2 -31 -11 -48 -30 -23 -25 -33 -29 -37 -19 -9 26 -51 61 -72 61 -26 0 -26 22 0 45 13 12 20 31 20 57 0 42 2 43 32 27 11 -6 22 -8 24 -6 3 3 -23 19 -57 36 -87 44 -170 44 -257 0z m88 -76 c0 -12 5 -25 10 -28 15 -9 12 -25 -4 -25 -8 0 -22 -8 -32 -17 -14 -15 -18 -15 -28 -2 -6 8 -20 18 -30 22 -15 6 -17 10 -8 19 7 7 12 22 12 34 0 19 5 21 40 20 34 -1 40 -4 40 -23z m122 -158 c6 -30 -28 -53 -48 -33 -20 20 -7 56 21 56 16 0 24 -7 27 -23z m-269 -15 c7 -28 -19 -48 -39 -28 -18 18 -8 48 16 48 10 0 20 -9 23 -20z m121 -95 c30 -30 30 -57 1 -82 -32 -28 -62 -27 -56 2 2 11 3 37 2 58 0 30 3 37 19 37 10 0 25 -7 34 -15z m212 -45 c1 -66 -7 -73 -51 -44 -15 10 -25 26 -25 40 0 28 32 64 58 64 14 0 17 -10 18 -60z m-112 14 c7 -19 -10 -44 -29 -44 -16 0 -26 25 -19 45 8 20 40 19 48 -1z m-207 -84 c-7 -28 17 -43 58 -36 27 5 35 4 35 -7 0 -8 7 -20 15 -27 22 -18 18 -30 -10 -30 -15 0 -31 -9 -41 -25 -20 -30 -31 -32 -39 -4 -4 11 -20 25 -36 31 -33 11 -36 20 -14 38 8 7 15 28 15 46 0 19 5 34 11 34 6 0 9 -9 6 -20z m269 -61 c8 -14 -18 -31 -30 -19 -9 9 0 30 14 30 5 0 12 -5 16 -11z m77 -103 c10 -26 -20 -48 -45 -32 -10 6 -16 17 -13 24 3 8 5 18 5 23 0 17 45 4 53 -15z m-163 -76 c0 -14 5 -31 11 -37 8 -8 5 -13 -12 -18 -13 -5 -29 -15 -35 -23 -10 -14 -13 -13 -23 6 -6 12 -18 22 -26 22 -17 0 -20 16 -5 25 6 3 10 16 10 28 0 19 5 22 40 22 36 0 40 -2 40 -25z"/>
 </g>
<g id="layer105" fill="#18b6fe" stroke="none">
 <path d="M192 849 c-105 -52 -160 -143 -169 -280 l-6 -79 76 0 77 0 -11 27 c-14 37 -5 53 32 53 22 0 41 -10 66 -35 29 -29 38 -33 54 -25 13 7 25 7 38 0 16 -8 26 -3 55 26 29 29 42 35 68 32 31 -3 33 -5 31 -40 l-2 -38 64 0 65 0 -1 53 c-1 69 -20 131 -42 135 -9 2 -31 -11 -48 -30 -23 -25 -33 -29 -37 -19 -9 26 -51 61 -72 61 -26 0 -26 22 0 45 13 12 20 31 20 57 0 42 2 43 32 27 11 -6 22 -8 24 -6 3 3 -23 19 -57 36 -87 44 -170 44 -257 0z m88 -76 c0 -12 5 -25 10 -28 15 -9 12 -25 -4 -25 -8 0 -22 -8 -32 -17 -14 -15 -18 -15 -28 -2 -6 8 -20 18 -30 22 -15 6 -17 10 -8 19 7 7 12 22 12 34 0 19 5 21 40 20 34 -1 40 -4 40 -23z m122 -158 c6 -30 -28 -53 -48 -33 -20 20 -7 56 21 56 16 0 24 -7 27 -23z m-269 -15 c7 -28 -19 -48 -39 -28 -18 18 -8 48 16 48 10 0 20 -9 23 -20z"/>
 <path d="M30 405 c0 -27 41 -138 72 -198 91 -171 204 -227 312 -156 80 53 181 219 201 332 l7 37 -56 0 -55 0 5 -29 c9 -43 -19 -55 -72 -32 -21 10 -45 25 -52 33 -18 22 -103 16 -135 -9 -18 -14 -22 -24 -16 -40 4 -11 12 -24 18 -28 19 -11 12 -25 -14 -25 -15 0 -31 -9 -41 -25 -20 -30 -31 -32 -39 -4 -4 11 -20 25 -36 31 -33 11 -36 20 -14 38 8 7 15 27 15 45 0 19 6 36 13 38 6 3 -16 6 -50 6 -50 1 -63 -2 -63 -14z m386 -76 c8 -14 -18 -31 -30 -19 -9 9 0 30 14 30 5 0 12 -5 16 -11z m77 -103 c10 -26 -20 -48 -45 -32 -10 6 -16 17 -13 24 3 8 5 18 5 23 0 17 45 4 53 -15z m-163 -76 c0 -14 5 -31 11 -37 8 -8 5 -13 -12 -18 -13 -5 -29 -15 -35 -23 -10 -14 -13 -13 -23 6 -6 12 -18 22 -26 22 -17 0 -20 16 -5 25 6 3 10 16 10 28 0 19 5 22 40 22 36 0 40 -2 40 -25z"/>
 </g>
<g id="layer106" fill="#fefeff" stroke="none">
 <path d="M387 170 c-32 -25 -38 -84 -11 -94 39 -15 90 56 67 92 -15 24 -27 24 -56 2z"/>
 </g>

</svg>