<!DOCTYPE svg PUBLIC "-//W3C//DTD SVG 20010904//EN" "http://www.w3.org/TR/2001/REC-SVG-20010904/DTD/svg10.dtd">
<svg version="1.0" xmlns="http://www.w3.org/2000/svg" width="66px" height="90px" viewBox="0 0 660 900" preserveAspectRatio="xMidYMid meet">
<g id="layer101" fill="#020202" stroke="none">
 <path d="M181 869 c-119 -60 -181 -178 -181 -348 0 -47 7 -115 16 -151 33 -144 138 -306 225 -350 45 -23 116 -26 162 -6 77 32 169 154 220 290 23 63 31 103 35 182 5 117 -11 190 -60 266 -64 101 -151 148 -274 148 -71 0 -89 -4 -143 -31z"/>
 </g>
<g id="layer102" fill="#e61f1f" stroke="none">
 <path d="M192 849 c-106 -53 -160 -142 -172 -288 -6 -72 -3 -100 16 -178 37 -149 122 -290 207 -341 87 -54 188 -16 272 103 91 127 137 278 124 405 -15 156 -67 243 -181 299 -51 26 -73 31 -133 31 -60 0 -82 -5 -133 -31z"/>
 </g>
<g id="layer103" fill="#00e749" stroke="none">
 <path d="M192 849 c-106 -52 -162 -146 -170 -281 l-5 -78 77 0 c76 0 77 0 70 23 -14 44 -10 52 28 55 30 3 42 -3 71 -31 27 -27 38 -33 52 -25 12 7 25 6 43 -1 21 -10 27 -9 34 4 21 37 53 56 88 53 34 -3 35 -4 32 -40 l-3 -38 67 0 67 0 -5 68 c-11 144 -68 235 -180 291 -51 26 -73 31 -133 31 -60 0 -82 -5 -133 -31z"/>
 <path d="M30 407 c0 -30 34 -126 67 -189 124 -238 282 -264 419 -72 49 69 98 174 109 237 l7 37 -56 0 -55 0 5 -29 c5 -23 2 -32 -14 -40 -24 -13 -45 -7 -91 27 -47 35 -115 38 -158 6 -60 -45 -104 -51 -117 -18 -3 9 -1 24 4 35 10 18 7 19 -55 19 -47 0 -65 -4 -65 -13z"/>
 </g>
<g id="layer104" fill="#53ffeb" stroke="none">
 <path d="M460 793 c0 -26 -8 -45 -27 -65 l-26 -27 27 -11 c15 -5 31 -10 36 -10 5 0 16 -13 25 -30 19 -37 30 -38 51 -5 9 14 27 28 40 31 30 8 30 10 -5 67 -25 38 -89 87 -116 87 -3 0 -5 -17 -5 -37z"/>
 <path d="M206 788 c3 -5 -2 -20 -10 -34 -16 -23 -16 -25 8 -33 13 -6 26 -16 28 -23 4 -10 10 -9 25 5 11 9 25 17 32 17 9 0 11 6 5 18 -4 9 -7 26 -7 38 1 18 -5 21 -43 21 -24 0 -41 -4 -38 -9z"/>
 <path d="M350 631 c0 -5 -2 -15 -5 -23 -3 -7 3 -18 13 -24 25 -16 55 6 45 32 -8 19 -53 32 -53 15z"/>
 <path d="M87 600 c-7 -28 19 -48 39 -28 18 18 8 48 -16 48 -10 0 -20 -9 -23 -20z"/>
 <path d="M130 376 c0 -18 -7 -39 -15 -46 -22 -18 -19 -27 15 -39 17 -5 30 -14 30 -18 0 -4 4 -15 10 -23 7 -12 13 -10 34 13 14 15 34 27 46 27 25 0 25 18 1 48 -16 19 -23 21 -46 12 -33 -13 -31 -13 -50 6 -9 9 -13 24 -10 35 4 11 2 19 -4 19 -6 0 -11 -15 -11 -34z"/>
 <path d="M390 327 c0 -19 10 -27 25 -20 17 6 8 33 -11 33 -8 0 -14 -6 -14 -13z"/>
 <path d="M446 227 c-2 -11 1 -26 9 -34 21 -20 53 2 47 32 -5 30 -48 31 -56 2z"/>
 <path d="M385 166 c-28 -29 -33 -67 -9 -87 36 -30 104 48 78 89 -17 26 -41 26 -69 -2z"/>
 <path d="M250 154 c0 -13 -4 -26 -10 -29 -15 -9 -12 -25 4 -25 8 0 21 -9 30 -21 14 -21 14 -21 34 -1 11 11 26 22 33 24 12 4 12 7 1 21 -7 8 -12 23 -10 32 2 13 -6 17 -39 19 -39 2 -43 0 -43 -20z"/>
 </g>
<g id="layer105" fill="#fffefe" stroke="none">
 <path d="M401 173 c-44 -31 -49 -93 -7 -93 27 0 40 9 55 38 24 45 -9 83 -48 55z"/>
 </g>

</svg>