<!DOCTYPE svg PUBLIC "-//W3C//DTD SVG 20010904//EN" "http://www.w3.org/TR/2001/REC-SVG-20010904/DTD/svg10.dtd">
<svg version="1.0" xmlns="http://www.w3.org/2000/svg" width="80px" height="109px" viewBox="0 0 800 1090" preserveAspectRatio="xMidYMid meet">
<g id="layer101" fill="#af091a" stroke="none">
 <path d="M285 1077 c-102 -34 -187 -109 -235 -208 -107 -221 -33 -583 160 -780 70 -72 104 -89 181 -89 84 0 118 17 191 94 109 114 165 221 203 387 51 227 -45 483 -211 563 -22 11 -48 24 -59 29 -31 17 -184 19 -230 4z"/>
 </g>
<g id="layer102" fill="#7a285f" stroke="none">
 <path d="M285 1077 c-145 -48 -247 -174 -276 -341 -22 -127 6 -318 63 -443 54 -115 156 -241 224 -276 43 -21 152 -22 194 0 41 20 135 116 186 190 63 92 124 288 124 400 0 189 -96 374 -226 437 -22 11 -48 24 -59 29 -31 17 -184 19 -230 4z m293 -108 c-2 -6 -8 -10 -13 -10 -5 0 -11 4 -13 10 -2 6 4 11 13 11 9 0 15 -5 13 -11z m-104 -225 c21 -20 20 -27 -3 -41 -15 -10 -22 -9 -35 6 -16 17 -16 20 -1 35 20 20 20 20 39 0z m-308 -26 c9 -14 -15 -38 -32 -31 -8 3 -14 15 -14 28 0 18 4 22 20 18 11 -3 23 -10 26 -15z m64 -302 c14 0 32 4 41 8 11 5 19 -1 29 -21 8 -15 16 -31 18 -35 2 -3 -13 -11 -32 -18 -19 -6 -38 -20 -41 -31 -9 -26 -23 -24 -37 6 -6 14 -25 29 -45 36 l-33 11 22 28 c15 18 29 27 38 23 8 -4 26 -7 40 -7z m270 -21 c0 -8 -7 -15 -15 -15 -16 0 -20 12 -8 23 11 12 23 8 23 -8z m94 -122 c4 -9 0 -23 -7 -31 -20 -19 -56 3 -49 30 6 23 48 24 56 1z m-224 -163 c-6 -11 -15 -18 -21 -15 -15 10 -11 23 9 28 9 3 18 5 20 6 1 0 -2 -8 -8 -19z"/>
 </g>
<g id="layer103" fill="#7104c3" stroke="none">
 <path d="M461 1076 c2 -2 18 -6 34 -10 22 -5 26 -4 15 4 -14 9 -59 15 -49 6z"/>
 <path d="M345 1054 c-191 -45 -289 -170 -305 -389 -5 -79 -3 -117 11 -182 43 -198 157 -379 277 -442 40 -21 108 -15 156 13 101 59 210 230 257 401 26 95 27 221 3 304 -9 30 -13 68 -10 83 7 34 -20 89 -58 119 -19 15 -24 16 -20 5 9 -23 -13 -20 -39 5 -54 52 -206 98 -272 83z m233 -85 c-2 -6 -8 -10 -13 -10 -5 0 -11 4 -13 10 -2 6 4 11 13 11 9 0 15 -5 13 -11z m-104 -225 c21 -20 20 -27 -3 -41 -15 -10 -22 -9 -35 6 -16 17 -16 20 -1 35 20 20 20 20 39 0z m-308 -26 c9 -14 -15 -38 -32 -31 -8 3 -14 15 -14 28 0 18 4 22 20 18 11 -3 23 -10 26 -15z m89 -298 c15 6 29 9 29 8 1 -2 10 -15 19 -30 22 -36 23 -35 -18 -48 -19 -6 -37 -20 -40 -31 -9 -26 -23 -24 -37 6 -6 14 -25 29 -44 35 l-34 11 27 34 c25 31 28 32 48 19 17 -11 29 -12 50 -4z m245 -25 c0 -8 -7 -15 -15 -15 -16 0 -20 12 -8 23 11 12 23 8 23 -8z m94 -122 c4 -9 0 -23 -7 -31 -20 -19 -56 3 -49 30 6 23 48 24 56 1z m-224 -163 c-6 -11 -15 -18 -21 -15 -15 10 -11 23 9 28 9 3 18 5 20 6 1 0 -2 -8 -8 -19z"/>
 <path d="M600 1020 c0 -5 10 -15 23 -21 22 -12 22 -12 3 10 -21 23 -26 26 -26 11z"/>
 <path d="M92 940 c-7 -11 -9 -20 -4 -20 4 0 13 9 20 20 7 11 9 20 4 20 -4 0 -13 -9 -20 -20z"/>
 <path d="M782 710 c0 -19 2 -27 5 -17 2 9 2 25 0 35 -3 9 -5 1 -5 -18z"/>
 <path d="M640 170 c-12 -16 -18 -30 -13 -30 4 0 16 14 25 30 22 39 15 39 -12 0z"/>
 <path d="M158 143 c12 -22 30 -38 37 -31 2 2 -8 14 -22 28 -24 23 -25 23 -15 3z"/>
 <path d="M235 60 c10 -11 20 -20 22 -20 2 0 -1 9 -7 20 -6 11 -16 20 -22 20 -6 0 -3 -9 7 -20z"/>
 </g>
<g id="layer104" fill="#d71f64" stroke="none">
 <path d="M461 1076 c2 -2 18 -6 34 -10 22 -5 26 -4 15 4 -14 9 -59 15 -49 6z"/>
 <path d="M345 1054 c-50 -12 -113 -39 -153 -66 -88 -60 -152 -198 -152 -329 l0 -69 84 0 c90 0 102 -6 92 -46 -6 -23 -10 -24 -88 -24 l-81 0 6 -45 c17 -118 126 -320 210 -389 59 -47 83 -58 133 -58 116 0 251 153 325 366 41 116 41 116 -30 116 -80 0 -91 5 -91 46 l0 34 80 0 80 0 0 58 c0 32 -7 82 -16 112 -9 29 -13 66 -10 82 7 34 -20 89 -58 119 -19 15 -24 16 -20 5 9 -23 -13 -20 -39 5 -54 52 -206 98 -272 83z m233 -85 c-2 -6 -8 -10 -13 -10 -5 0 -11 4 -13 10 -2 6 4 11 13 11 9 0 15 -5 13 -11z m-104 -225 c21 -20 20 -27 -3 -41 -15 -10 -22 -9 -35 6 -16 17 -16 20 -1 35 20 20 20 20 39 0z m-308 -26 c9 -14 -15 -38 -32 -31 -8 3 -14 15 -14 28 0 18 4 22 20 18 11 -3 23 -10 26 -15z m154 -125 c28 -36 22 -62 -19 -90 -40 -27 -57 -18 -46 24 10 32 9 30 1 66 -6 24 -4 27 18 27 15 0 33 -11 46 -27z m243 21 c3 -3 1 -18 -4 -32 -7 -18 -6 -35 2 -54 18 -44 -1 -56 -45 -28 -26 15 -36 29 -36 46 0 40 61 90 83 68z m-138 -59 c0 -23 -4 -30 -20 -30 -21 0 -31 25 -21 51 11 28 41 12 41 -21z m-170 -135 c15 6 29 9 29 8 1 -2 10 -15 19 -30 22 -36 23 -35 -18 -48 -19 -6 -37 -20 -40 -31 -9 -26 -23 -24 -37 6 -6 14 -25 29 -44 35 l-34 11 27 34 c25 31 28 32 48 19 17 -11 29 -12 50 -4z m245 -25 c0 -8 -7 -15 -15 -15 -16 0 -20 12 -8 23 11 12 23 8 23 -8z m94 -122 c4 -9 0 -23 -7 -31 -20 -19 -56 3 -49 30 6 23 48 24 56 1z m-224 -163 c-6 -11 -15 -18 -21 -15 -15 10 -11 23 9 28 9 3 18 5 20 6 1 0 -2 -8 -8 -19z"/>
 <path d="M600 1020 c0 -5 10 -15 23 -21 22 -12 22 -12 3 10 -21 23 -26 26 -26 11z"/>
 <path d="M92 940 c-7 -11 -9 -20 -4 -20 4 0 13 9 20 20 7 11 9 20 4 20 -4 0 -13 -9 -20 -20z"/>
 <path d="M782 710 c0 -19 2 -27 5 -17 2 9 2 25 0 35 -3 9 -5 1 -5 -18z"/>
 <path d="M640 170 c-12 -16 -18 -30 -13 -30 4 0 16 14 25 30 22 39 15 39 -12 0z"/>
 <path d="M158 143 c12 -22 30 -38 37 -31 2 2 -8 14 -22 28 -24 23 -25 23 -15 3z"/>
 <path d="M235 60 c10 -11 20 -20 22 -20 2 0 -1 9 -7 20 -6 11 -16 20 -22 20 -6 0 -3 -9 7 -20z"/>
 </g>
<g id="layer105" fill="#b2278e" stroke="none">
 <path d="M461 1076 c2 -2 18 -6 34 -10 22 -5 26 -4 15 4 -14 9 -59 15 -49 6z"/>
 <path d="M345 1054 c-50 -12 -113 -39 -153 -66 -88 -60 -152 -198 -152 -329 l0 -69 84 0 c90 0 102 -6 92 -46 -6 -23 -10 -24 -88 -24 l-81 0 6 -45 c17 -118 126 -320 210 -389 59 -47 83 -58 133 -58 116 0 251 153 325 366 41 116 41 116 -30 116 -80 0 -91 5 -91 46 l0 34 81 0 82 0 -5 78 c-2 44 -12 92 -21 111 -20 39 -21 63 -6 78 12 12 -26 93 -43 93 -6 0 -17 8 -24 18 -12 15 -12 15 -7 -5 7 -31 -8 -29 -41 6 -53 55 -201 101 -271 85z m240 -74 c7 -12 -12 -40 -26 -40 -5 0 -9 11 -9 25 0 25 23 35 35 15z m-94 -243 c6 -21 2 -29 -17 -42 -22 -14 -26 -14 -44 3 -16 15 -19 24 -11 43 13 36 62 33 72 -4z m-316 -18 c6 -19 -16 -48 -36 -49 -15 0 -30 31 -24 50 9 27 51 27 60 -1z m145 -126 c28 -36 22 -62 -19 -90 -40 -27 -57 -18 -46 24 10 32 9 30 1 66 -6 24 -4 27 18 27 15 0 33 -11 46 -27z m243 21 c3 -3 1 -18 -4 -32 -7 -18 -6 -35 2 -54 18 -44 -1 -56 -45 -28 -26 15 -36 29 -36 46 0 40 61 90 83 68z m-138 -59 c0 -23 -4 -30 -20 -30 -21 0 -31 25 -21 51 11 28 41 12 41 -21z m-242 -89 c-7 -36 33 -60 76 -45 18 6 33 10 35 8 42 -62 45 -79 12 -79 -15 0 -34 -12 -49 -30 -31 -36 -39 -37 -52 -7 -6 12 -25 29 -42 37 -39 18 -39 22 -12 60 12 16 19 36 16 44 -7 19 2 48 13 41 4 -2 5 -15 3 -29z m327 -76 c0 -13 -7 -20 -20 -20 -13 0 -20 7 -20 20 0 13 7 20 20 20 13 0 20 -7 20 -20z m90 -104 c0 -8 3 -21 6 -30 4 -11 1 -16 -10 -16 -9 0 -16 -4 -16 -10 0 -15 -17 -12 -39 6 -28 24 -9 64 31 64 17 0 28 -5 28 -14z m-200 -154 c0 -5 -11 -19 -26 -32 -21 -21 -27 -22 -34 -10 -14 23 -12 30 13 40 29 11 47 12 47 2z"/>
 <path d="M600 1020 c0 -5 10 -15 23 -21 22 -12 22 -12 3 10 -21 23 -26 26 -26 11z"/>
 <path d="M92 940 c-7 -11 -9 -20 -4 -20 4 0 13 9 20 20 7 11 9 20 4 20 -4 0 -13 -9 -20 -20z"/>
 <path d="M782 710 c0 -19 2 -27 5 -17 2 9 2 25 0 35 -3 9 -5 1 -5 -18z"/>
 <path d="M640 170 c-12 -16 -18 -30 -13 -30 4 0 16 14 25 30 22 39 15 39 -12 0z"/>
 <path d="M158 143 c12 -22 30 -38 37 -31 2 2 -8 14 -22 28 -24 23 -25 23 -15 3z"/>
 <path d="M235 60 c10 -11 20 -20 22 -20 2 0 -1 9 -7 20 -6 11 -16 20 -22 20 -6 0 -3 -9 7 -20z"/>
 </g>
<g id="layer106" fill="#a70ff1" stroke="none">
 <path d="M284 1031 c-147 -50 -243 -203 -244 -388 l0 -53 84 0 c90 0 102 -6 92 -46 -6 -23 -10 -24 -86 -24 -44 0 -80 -4 -80 -9 0 -31 57 -197 88 -255 45 -86 128 -178 188 -206 112 -55 246 35 344 230 34 66 70 174 70 207 0 21 -4 23 -54 23 -75 0 -86 6 -86 46 l0 34 80 0 80 0 0 42 c0 23 -10 77 -21 121 -17 63 -19 84 -11 98 10 15 8 27 -9 59 -12 22 -27 40 -34 40 -7 0 -16 6 -18 13 -3 7 -6 5 -6 -5 -1 -25 -7 -23 -57 18 -82 68 -216 91 -320 55z m301 -51 c7 -12 -12 -40 -26 -40 -5 0 -9 11 -9 25 0 25 23 35 35 15z m-94 -243 c6 -21 2 -29 -17 -42 -22 -14 -26 -14 -44 3 -16 15 -19 24 -11 43 13 36 62 33 72 -4z m-316 -18 c6 -19 -16 -48 -36 -49 -15 0 -30 31 -24 50 9 27 51 27 60 -1z m145 -126 c28 -36 22 -62 -19 -90 -40 -27 -57 -18 -46 24 10 32 9 30 1 66 -6 24 -4 27 18 27 15 0 33 -11 46 -27z m243 21 c3 -3 1 -18 -4 -32 -7 -18 -6 -35 2 -54 18 -44 -1 -56 -45 -28 -26 15 -36 29 -36 46 0 40 61 90 83 68z m-138 -59 c0 -23 -4 -30 -20 -30 -21 0 -31 25 -21 51 11 28 41 12 41 -21z m-235 -95 c0 -23 6 -31 24 -36 13 -3 33 -1 44 5 28 15 27 15 51 -25 27 -45 26 -54 -3 -54 -15 0 -34 -12 -49 -30 -31 -36 -39 -37 -52 -7 -6 12 -25 29 -42 37 -39 18 -39 22 -12 60 12 16 19 36 16 44 -8 20 2 48 14 40 5 -3 9 -18 9 -34z m320 -70 c0 -13 -7 -20 -20 -20 -13 0 -20 7 -20 20 0 13 7 20 20 20 13 0 20 -7 20 -20z m90 -104 c0 -8 3 -21 6 -30 4 -11 1 -16 -10 -16 -9 0 -16 -4 -16 -10 0 -15 -17 -12 -39 6 -28 24 -9 64 31 64 17 0 28 -5 28 -14z m-200 -154 c0 -5 -11 -19 -26 -32 -21 -21 -27 -22 -34 -10 -14 23 -12 30 13 40 29 11 47 12 47 2z"/>
 </g>
<g id="layer107" fill="#fa1aac" stroke="none">
 <path d="M284 1031 c-147 -50 -243 -203 -244 -388 l0 -53 85 0 85 0 -2 43 -3 42 38 3 c35 3 43 -1 78 -39 36 -39 42 -42 60 -31 16 11 26 10 49 -2 29 -14 30 -13 49 18 12 18 32 38 46 44 34 16 85 15 86 0 2 -20 2 -21 -5 -50 l-6 -28 80 0 80 0 0 42 c0 23 -10 77 -21 121 -17 63 -19 84 -11 98 10 15 8 27 -9 59 -12 22 -27 40 -34 40 -7 0 -16 6 -18 13 -3 7 -6 5 -6 -5 -1 -25 -7 -23 -57 18 -82 68 -216 91 -320 55z m301 -51 c7 -12 -12 -40 -26 -40 -5 0 -9 11 -9 25 0 25 23 35 35 15z m-94 -243 c6 -21 2 -29 -17 -42 -22 -14 -26 -14 -44 3 -16 15 -19 24 -11 43 13 36 62 33 72 -4z m-316 -18 c6 -19 -16 -48 -36 -49 -15 0 -30 31 -24 50 9 27 51 27 60 -1z"/>
 <path d="M50 506 c0 -2 12 -43 26 -92 48 -168 150 -316 250 -364 112 -55 246 35 344 230 34 66 70 174 70 207 0 22 -4 23 -65 23 -36 0 -65 -3 -65 -6 0 -3 5 -14 10 -25 14 -25 -4 -59 -31 -59 -25 0 -52 14 -99 50 -47 36 -127 35 -168 -1 -15 -13 -29 -25 -31 -26 -2 -1 6 -18 18 -38 27 -46 26 -55 -3 -55 -15 0 -34 -12 -49 -30 -31 -36 -39 -37 -52 -7 -6 12 -25 29 -42 37 -39 18 -39 22 -12 60 12 16 19 36 16 44 -9 23 2 46 19 39 8 -3 14 0 14 6 0 7 -27 11 -75 11 -41 0 -75 -2 -75 -4z m460 -116 c0 -13 -7 -20 -20 -20 -13 0 -20 7 -20 20 0 13 7 20 20 20 13 0 20 -7 20 -20z m90 -104 c0 -8 3 -21 6 -30 4 -11 1 -16 -10 -16 -9 0 -16 -4 -16 -10 0 -15 -17 -12 -39 6 -28 24 -9 64 31 64 17 0 28 -5 28 -14z m-200 -154 c0 -5 -11 -19 -26 -32 -21 -21 -27 -22 -34 -10 -14 23 -12 30 13 40 29 11 47 12 47 2z"/>
 </g>
<g id="layer108" fill="#ffb4ce" stroke="none">
 <path d="M278 913 c-21 -25 -38 -59 -38 -77 0 -23 31 -20 37 4 3 13 14 20 28 20 14 0 25 -7 28 -20 7 -27 37 -26 37 2 0 25 -45 88 -64 88 -7 0 -20 -8 -28 -17z"/>
 <path d="M565 872 c-25 -37 -32 -76 -16 -86 5 -3 16 5 25 19 9 14 23 25 31 25 8 0 22 -11 31 -25 19 -28 34 -24 34 9 0 30 -40 89 -63 92 -11 1 -27 -12 -42 -34z"/>
 <path d="M358 303 c-41 -45 -60 -90 -48 -113 15 -28 27 -25 45 10 20 38 35 38 58 -1 9 -17 23 -29 30 -27 18 7 20 53 3 85 -16 29 -51 73 -58 73 -2 0 -16 -12 -30 -27z"/>
 <path d="M517 223 c-4 -3 -7 -20 -7 -36 0 -19 -10 -38 -30 -57 -18 -17 -26 -31 -20 -35 30 -19 90 38 90 85 0 28 -21 55 -33 43z"/>
 </g>

</svg>