<!DOCTYPE svg PUBLIC "-//W3C//DTD SVG 20010904//EN" "http://www.w3.org/TR/2001/REC-SVG-20010904/DTD/svg10.dtd">
<svg version="1.0" xmlns="http://www.w3.org/2000/svg" width="80px" height="101px" viewBox="0 0 800 1010" preserveAspectRatio="xMidYMid meet">
<g id="layer101" fill="#ae0618" stroke="none">
 <path d="M212 978 c-183 -94 -253 -304 -188 -562 26 -100 28 -105 88 -208 70 -121 187 -208 278 -208 72 0 126 24 201 91 78 69 146 170 180 269 30 87 39 301 15 382 -21 73 -65 136 -131 189 -79 63 -127 77 -266 78 -112 1 -119 0 -177 -31z"/>
 </g>
<g id="layer102" fill="#772454" stroke="none">
 <path d="M212 978 c-183 -94 -253 -304 -188 -562 26 -100 28 -105 88 -208 39 -68 110 -141 170 -177 51 -30 133 -38 192 -18 54 19 164 110 207 174 45 65 85 151 103 220 32 123 15 363 -29 407 -8 7 -11 16 -8 20 3 3 -2 8 -11 12 -9 3 -16 12 -16 20 0 8 -3 13 -7 12 -5 -2 -8 0 -8 3 0 3 -23 26 -52 51 -71 60 -132 78 -270 78 -104 0 -114 -2 -171 -32z m398 -73 c17 -9 33 -14 37 -13 9 4 83 -93 83 -109 0 -7 -9 -13 -19 -13 -11 0 -34 -17 -51 -37 -24 -29 -34 -34 -38 -23 -10 26 -60 70 -81 70 -31 0 -33 15 -6 40 18 17 25 34 25 62 0 42 7 45 50 23z m-270 -41 c0 -13 5 -26 10 -29 17 -10 11 -25 -10 -25 -10 0 -23 -7 -28 -16 -8 -15 -11 -15 -29 3 -11 11 -27 23 -34 26 -11 4 -12 7 -1 18 6 7 12 21 12 30 0 13 9 17 40 16 35 -1 40 -4 40 -23z m144 -170 c4 -9 1 -22 -4 -30 -9 -10 -15 -10 -30 3 -10 9 -16 22 -13 29 7 19 40 17 47 -2z m-321 -18 c9 -22 -19 -42 -37 -26 -19 15 -10 40 14 40 10 0 20 -6 23 -14z m33 -277 c4 -7 24 -9 50 -6 37 4 45 1 64 -22 l21 -26 -33 -10 c-18 -5 -42 -20 -53 -33 l-21 -24 -14 26 c-7 15 -25 29 -39 33 -41 9 -43 13 -19 43 25 32 33 35 44 19z m312 -30 c-2 -6 -8 -10 -13 -10 -5 0 -11 4 -13 10 -2 6 4 11 13 11 9 0 15 -5 13 -11z m95 -109 c3 -14 -1 -24 -15 -31 -25 -13 -48 4 -41 31 7 27 49 27 56 0z m-203 -87 c0 -12 5 -25 10 -28 16 -10 12 -25 -7 -25 -9 0 -24 -6 -32 -14 -14 -11 -21 -10 -48 9 -28 20 -31 25 -18 35 8 7 15 20 15 29 0 13 9 16 40 16 35 0 40 -3 40 -22z"/>
 </g>
<g id="layer103" fill="#8006df" stroke="none">
 <path d="M269 967 c-133 -56 -203 -143 -229 -286 -19 -105 -14 -169 19 -271 39 -121 104 -231 175 -298 95 -90 170 -105 262 -53 117 67 222 228 266 406 19 80 20 97 10 168 -20 140 -53 169 -112 100 -24 -28 -34 -34 -38 -23 -10 26 -60 70 -81 70 -31 0 -33 15 -6 40 18 17 25 34 25 62 0 42 7 45 53 22 l32 -17 -19 22 c-66 73 -250 103 -357 58z m71 -103 c0 -13 5 -26 10 -29 17 -10 11 -25 -10 -25 -10 0 -23 -7 -28 -16 -8 -15 -11 -15 -29 3 -11 11 -27 23 -34 26 -11 4 -12 7 -1 18 6 7 12 21 12 30 0 13 9 17 40 16 35 -1 40 -4 40 -23z m144 -171 c4 -9 0 -23 -8 -31 -13 -13 -16 -13 -30 1 -9 8 -13 23 -10 31 8 21 40 20 48 -1z m-321 -17 c9 -22 -19 -42 -37 -26 -19 15 -10 40 14 40 10 0 20 -6 23 -14z m84 -280 c31 -1 47 -7 63 -26 l22 -25 -33 -10 c-19 -5 -43 -20 -54 -33 l-21 -24 -14 26 c-7 15 -25 29 -39 33 -41 9 -43 13 -19 43 15 19 28 27 38 23 8 -4 34 -7 57 -7z m261 -27 c-2 -6 -8 -10 -13 -10 -5 0 -11 4 -13 10 -2 6 4 11 13 11 9 0 15 -5 13 -11z m95 -109 c3 -14 -1 -24 -15 -31 -25 -13 -48 4 -41 31 7 27 49 27 56 0z m-203 -87 c0 -12 5 -25 10 -28 16 -10 12 -25 -7 -25 -9 0 -24 -6 -32 -14 -14 -11 -21 -10 -48 9 -28 20 -31 25 -18 35 8 7 15 20 15 29 0 13 9 16 40 16 35 0 40 -3 40 -22z"/>
 <path d="M114 907 l-29 -32 30 25 c17 14 32 26 34 28 2 1 2 4 -1 7 -2 3 -18 -10 -34 -28z"/>
 <path d="M629 138 l-43 -53 38 35 c35 32 63 70 52 70 -2 0 -23 -24 -47 -52z"/>
 <path d="M170 125 c19 -19 36 -35 38 -35 8 0 -53 69 -62 69 -6 1 5 -15 24 -34z"/>
 <path d="M230 65 c7 -8 17 -15 22 -15 6 0 5 7 -2 15 -7 8 -17 15 -22 15 -6 0 -5 -7 2 -15z"/>
 </g>
<g id="layer104" fill="#d12665" stroke="none">
 <path d="M269 967 c-147 -62 -221 -168 -235 -340 l-7 -72 91 3 91 3 -2 37 c-2 32 1 37 22 40 14 2 42 -2 63 -9 45 -14 62 -8 122 47 20 19 43 34 50 34 21 0 28 -31 11 -50 -14 -15 -13 -18 9 -29 17 -10 29 -10 44 -2 27 14 75 14 89 0 8 -8 9 -19 2 -37 -5 -13 -8 -26 -7 -27 2 -1 40 -5 86 -8 l82 -5 0 26 c0 42 -28 163 -41 178 -19 24 -46 16 -79 -23 -24 -29 -34 -34 -38 -23 -10 26 -60 70 -81 70 -31 0 -33 15 -6 40 18 17 25 34 25 62 0 42 7 45 53 22 l32 -17 -19 22 c-66 73 -250 103 -357 58z m71 -103 c0 -13 5 -26 10 -29 17 -10 11 -25 -10 -25 -10 0 -23 -7 -28 -16 -8 -15 -11 -15 -29 3 -11 11 -27 23 -34 26 -11 4 -12 7 -1 18 6 7 12 21 12 30 0 13 9 17 40 16 35 -1 40 -4 40 -23z m-177 -188 c9 -22 -19 -42 -37 -26 -19 15 -10 40 14 40 10 0 20 -6 23 -14z"/>
 <path d="M114 907 l-29 -32 30 25 c17 14 32 26 34 28 2 1 2 4 -1 7 -2 3 -18 -10 -34 -28z"/>
 <path d="M390 585 c-13 -14 -34 -25 -47 -25 -20 0 -22 -3 -14 -17 6 -11 6 -24 0 -35 -8 -15 -5 -18 21 -18 16 0 30 -3 30 -8 0 -4 10 -13 21 -21 19 -11 25 -10 50 8 15 12 38 21 49 21 17 0 19 3 11 18 -6 11 -6 24 0 35 8 14 6 17 -14 17 -13 0 -34 11 -47 25 -13 14 -26 25 -30 25 -4 0 -17 -11 -30 -25z"/>
 <path d="M40 476 c0 -3 11 -40 25 -83 33 -104 100 -216 169 -281 64 -60 108 -82 166 -82 116 0 262 150 335 343 39 105 38 107 -45 107 -38 0 -70 -3 -70 -6 0 -3 5 -14 11 -25 24 -47 -30 -61 -108 -28 -31 13 -34 12 -67 -20 l-35 -34 -40 36 c-36 32 -44 35 -67 27 -44 -17 -44 -19 -12 -53 l32 -32 -34 -9 c-19 -6 -44 -21 -55 -34 l-21 -24 -14 27 c-8 15 -26 29 -42 32 -16 3 -30 8 -32 12 -7 11 44 62 55 55 8 -4 8 -1 1 13 -7 12 -7 25 -1 34 16 26 9 29 -71 29 -44 0 -80 -2 -80 -4z m468 -107 c-2 -6 -8 -10 -13 -10 -5 0 -11 4 -13 10 -2 6 4 11 13 11 9 0 15 -5 13 -11z m95 -109 c3 -14 -1 -24 -15 -31 -25 -13 -48 4 -41 31 7 27 49 27 56 0z m-203 -87 c0 -12 5 -25 10 -28 16 -10 12 -25 -7 -25 -9 0 -24 -6 -32 -14 -14 -11 -21 -10 -48 9 -28 20 -31 25 -18 35 8 7 15 20 15 29 0 13 9 16 40 16 35 0 40 -3 40 -22z"/>
 <path d="M629 138 l-43 -53 38 35 c35 32 63 70 52 70 -2 0 -23 -24 -47 -52z"/>
 <path d="M170 125 c19 -19 36 -35 38 -35 8 0 -53 69 -62 69 -6 1 5 -15 24 -34z"/>
 <path d="M230 65 c7 -8 17 -15 22 -15 6 0 5 7 -2 15 -7 8 -17 15 -22 15 -6 0 -5 -7 2 -15z"/>
 </g>
<g id="layer105" fill="#b32691" stroke="none">
 <path d="M269 967 c-147 -62 -221 -168 -235 -340 l-7 -72 91 3 91 3 -2 37 -2 37 40 -2 c22 -1 54 -4 70 -8 25 -5 37 0 73 30 23 20 42 43 42 51 0 9 11 14 29 14 21 0 30 -6 35 -22 9 -34 8 -36 -15 -43 l-21 -7 22 -15 c17 -12 27 -13 46 -4 32 14 77 14 91 0 8 -8 9 -19 2 -37 -5 -13 -8 -26 -7 -27 2 -1 41 -5 87 -8 l83 -5 -6 58 c-4 32 -12 78 -19 102 -10 35 -18 44 -39 46 -20 2 -32 -5 -53 -32 -15 -20 -31 -36 -35 -36 -5 0 -17 15 -28 34 -15 26 -32 38 -61 46 -23 6 -41 13 -41 17 0 3 14 21 31 40 24 28 29 41 24 64 -8 35 11 46 47 29 22 -11 23 -11 3 5 -45 37 -110 58 -195 62 -72 3 -93 0 -141 -20z m83 -94 c-2 -12 2 -24 8 -28 15 -9 12 -35 -5 -35 -8 0 -23 -10 -34 -21 l-20 -22 -31 27 c-17 14 -36 26 -42 26 -6 0 -4 8 5 18 10 10 17 28 17 39 0 19 5 21 53 19 47 -1 52 -4 49 -23z m-179 -195 c5 -19 -15 -47 -33 -47 -18 0 -38 28 -33 47 8 31 58 31 66 0z"/>
 <path d="M114 907 l-29 -32 30 25 c17 14 32 26 34 28 2 1 2 4 -1 7 -2 3 -18 -10 -34 -28z"/>
 <path d="M390 585 c-13 -14 -34 -25 -47 -25 -20 0 -22 -3 -14 -17 6 -11 6 -24 0 -35 -8 -15 -5 -18 21 -18 16 0 30 -3 30 -8 0 -4 10 -13 21 -21 19 -11 25 -10 50 8 15 12 38 21 49 21 17 0 19 3 11 18 -6 11 -6 24 0 35 8 14 6 17 -14 17 -13 0 -34 11 -47 25 -13 14 -26 25 -30 25 -4 0 -17 -11 -30 -25z"/>
 <path d="M40 476 c0 -3 11 -40 25 -83 33 -104 100 -216 169 -281 64 -60 108 -82 166 -82 116 0 262 150 335 343 39 105 38 107 -45 107 -38 0 -70 -3 -70 -6 0 -3 5 -14 11 -25 24 -47 -30 -61 -108 -28 -31 13 -34 12 -67 -20 l-35 -34 -40 36 c-37 33 -43 35 -71 26 -16 -6 -33 -15 -36 -20 -3 -5 1 -7 8 -4 14 4 60 -59 50 -69 -3 -3 -16 -6 -29 -6 -14 0 -36 -13 -52 -31 l-28 -30 -17 25 c-9 14 -33 33 -53 41 l-36 15 21 23 c13 14 22 36 22 55 0 17 5 34 10 37 6 3 10 -2 10 -12 0 -15 2 -16 10 -3 18 27 11 30 -70 30 -44 0 -80 -2 -80 -4z m476 -97 c3 -6 0 -17 -7 -25 -18 -17 -44 -2 -36 20 7 18 33 21 43 5z m97 -117 c3 -17 -1 -30 -11 -39 -22 -16 -33 -16 -55 1 -28 21 -8 63 31 64 25 0 31 -4 35 -26z m-203 -84 c0 -15 5 -30 10 -33 18 -11 11 -23 -20 -34 -16 -5 -30 -15 -30 -20 0 -17 -27 -13 -34 4 -3 8 -17 20 -32 25 -25 10 -26 12 -10 29 9 9 16 27 16 38 0 17 6 19 50 19 47 -1 50 -2 50 -28z"/>
 <path d="M629 138 l-43 -53 38 35 c35 32 63 70 52 70 -2 0 -23 -24 -47 -52z"/>
 <path d="M170 125 c19 -19 36 -35 38 -35 8 0 -53 69 -62 69 -6 1 5 -15 24 -34z"/>
 <path d="M230 65 c7 -8 17 -15 22 -15 6 0 5 7 -2 15 -7 8 -17 15 -22 15 -6 0 -5 -7 2 -15z"/>
 </g>
<g id="layer106" fill="#fb1bb6" stroke="none">
 <path d="M315 976 c-168 -42 -275 -181 -275 -357 l0 -59 85 0 84 0 -2 38 -2 37 40 -2 c22 -1 54 -4 70 -8 25 -5 37 0 73 30 23 20 42 43 42 51 0 9 11 14 29 14 23 0 30 -5 35 -26 5 -18 2 -30 -9 -38 -16 -11 -16 -13 -1 -25 13 -11 22 -11 42 -2 32 14 77 14 91 0 8 -8 9 -19 2 -37 -5 -13 -8 -26 -7 -27 2 -2 37 -5 78 -7 l75 -3 3 40 c2 22 -4 68 -13 103 -15 54 -20 62 -41 62 -15 0 -33 -13 -50 -35 -14 -19 -30 -35 -34 -35 -5 0 -17 15 -28 34 -15 26 -32 38 -61 46 -23 6 -41 13 -41 17 0 3 14 21 31 40 24 28 29 41 24 63 -5 21 -2 31 12 39 16 9 13 12 -20 26 -42 17 -127 36 -161 34 -11 0 -43 -6 -71 -13z m37 -103 c-2 -12 2 -24 8 -28 15 -9 12 -35 -5 -35 -8 0 -23 -10 -34 -21 l-20 -22 -31 27 c-17 14 -36 26 -42 26 -6 0 -4 8 5 18 10 10 17 28 17 39 0 19 5 21 53 19 47 -1 52 -4 49 -23z m-179 -195 c5 -19 -15 -47 -33 -47 -18 0 -38 28 -33 47 8 31 58 31 66 0z"/>
 <path d="M390 585 c-13 -14 -34 -25 -47 -25 -20 0 -22 -3 -14 -17 6 -11 6 -24 0 -35 -8 -15 -5 -18 21 -18 16 0 30 -3 30 -8 0 -4 10 -13 21 -21 19 -11 25 -10 50 8 15 12 38 21 49 21 17 0 19 3 11 18 -6 11 -6 24 0 35 8 14 6 17 -14 17 -13 0 -34 11 -47 25 -13 14 -26 25 -30 25 -4 0 -17 -11 -30 -25z"/>
 <path d="M50 463 c1 -33 45 -148 83 -216 45 -79 126 -164 183 -192 57 -28 119 -25 183 10 107 59 214 220 255 388 l6 27 -70 0 c-38 0 -70 -3 -70 -6 0 -3 5 -14 11 -25 24 -47 -30 -61 -108 -28 -31 13 -34 12 -67 -20 l-35 -34 -40 36 c-28 25 -46 34 -60 30 -32 -8 -33 -17 -7 -56 27 -39 25 -47 -11 -47 -14 0 -36 -13 -52 -31 l-28 -30 -17 25 c-9 14 -33 33 -53 41 l-36 15 21 23 c11 12 22 38 24 57 2 26 7 35 21 34 9 -1 17 2 17 7 0 5 -34 9 -75 9 -65 0 -75 -2 -75 -17z m466 -84 c3 -6 0 -17 -7 -25 -18 -17 -44 -2 -36 20 7 18 33 21 43 5z m97 -117 c3 -17 -1 -30 -11 -39 -22 -16 -33 -16 -55 1 -28 21 -8 63 31 64 25 0 31 -4 35 -26z m-203 -84 c0 -15 5 -30 10 -33 18 -11 11 -23 -20 -34 -16 -5 -30 -15 -30 -20 0 -17 -27 -13 -34 4 -3 8 -17 20 -32 25 -25 10 -26 12 -10 29 9 9 16 27 16 38 0 17 6 19 50 19 47 -1 50 -2 50 -28z"/>
 </g>
<g id="layer107" fill="#d1bae6" stroke="none">
 <path d="M390 585 c-13 -14 -34 -25 -47 -25 -20 0 -22 -3 -14 -17 6 -11 6 -24 0 -35 -8 -15 -5 -18 21 -18 16 0 30 -3 30 -8 0 -4 10 -13 21 -21 19 -11 25 -10 50 8 15 12 38 21 49 21 17 0 19 3 11 18 -6 11 -6 24 0 35 8 14 6 17 -14 17 -13 0 -34 11 -47 25 -13 14 -26 25 -30 25 -4 0 -17 -11 -30 -25z"/>
 <path d="M469 191 c-43 -44 -35 -101 14 -101 26 0 77 54 77 82 0 54 -46 63 -91 19z"/>
 </g>
<g id="layer108" fill="#ebe4f4" stroke="none">
 <path d="M492 210 c-13 -6 -30 -26 -38 -46 -15 -35 -14 -38 4 -56 18 -19 21 -19 49 -4 43 21 59 76 31 104 -14 14 -15 14 -46 2z"/>
 </g>

</svg>