<!DOCTYPE svg PUBLIC "-//W3C//DTD SVG 20010904//EN" "http://www.w3.org/TR/2001/REC-SVG-20010904/DTD/svg10.dtd">
<svg version="1.0" xmlns="http://www.w3.org/2000/svg" width="91px" height="119px" viewBox="0 0 910 1190" preserveAspectRatio="xMidYMid meet">
<g id="layer101" fill="#ae0618" stroke="none">
 <path d="M325 1166 c-27 -7 -67 -22 -88 -33 -49 -27 -177 -149 -177 -169 0 -5 -9 -25 -19 -45 -53 -99 -51 -392 3 -494 9 -16 16 -36 16 -43 0 -37 98 -182 172 -255 90 -89 144 -117 222 -117 89 0 160 36 243 122 51 53 153 206 153 229 0 10 6 24 14 31 27 28 46 140 46 279 0 148 -7 188 -48 268 -29 57 -119 151 -181 188 -81 48 -246 66 -356 39z"/>
 </g>
<g id="layer102" fill="#682750" stroke="none">
 <path d="M325 1166 c-27 -7 -67 -22 -88 -33 -49 -27 -177 -149 -177 -169 0 -5 -9 -25 -19 -45 -53 -99 -51 -392 3 -494 9 -16 16 -36 16 -43 0 -37 98 -182 172 -255 90 -89 144 -117 222 -117 89 0 160 36 243 122 51 53 153 206 153 229 0 10 6 24 14 31 27 28 46 140 46 279 0 148 -7 188 -48 268 -29 57 -119 151 -181 188 -81 48 -246 66 -356 39z m385 -121 c38 -14 89 -67 114 -118 l15 -32 -30 -3 c-19 -2 -39 -15 -57 -38 -15 -19 -30 -34 -34 -34 -4 0 -15 14 -23 30 -16 31 -36 43 -89 55 l-29 6 32 33 c26 27 31 40 31 80 0 42 2 47 18 41 9 -4 33 -13 52 -20z m-320 -42 c0 -12 5 -25 10 -28 16 -10 11 -35 -7 -35 -9 0 -25 -8 -35 -17 -17 -15 -20 -15 -39 5 -11 12 -26 22 -34 22 -19 0 -19 14 0 30 8 7 15 20 15 30 0 14 9 17 45 16 39 -1 45 -4 45 -23z m164 -199 c6 -15 -17 -43 -35 -44 -14 0 -29 28 -23 44 8 21 50 21 58 0z m-366 -25 c4 -21 -26 -33 -44 -18 -7 6 -10 17 -7 25 7 20 47 14 51 -7z m77 -319 c14 0 35 5 46 10 16 9 21 7 28 -14 6 -13 15 -27 20 -31 20 -12 11 -25 -15 -25 -16 0 -37 -12 -56 -32 -26 -28 -31 -30 -39 -16 -17 30 -41 49 -70 55 -16 3 -29 7 -29 10 0 2 12 17 28 32 20 21 31 26 44 20 9 -5 29 -9 43 -9z m313 -22 c-6 -18 -28 -21 -28 -4 0 9 7 16 16 16 9 0 14 -5 12 -12z m102 -117 c0 -5 2 -15 5 -23 8 -21 -28 -38 -49 -23 -25 19 -12 55 20 55 13 0 24 -4 24 -9z m-220 -111 c0 -14 5 -31 12 -38 9 -9 8 -12 -5 -12 -9 0 -26 -9 -38 -21 l-21 -21 -22 21 c-12 12 -28 21 -35 21 -7 0 -11 3 -9 8 3 4 11 21 18 38 12 28 18 31 57 31 40 0 43 -2 43 -27z"/>
 </g>
<g id="layer103" fill="#a4277a" stroke="none">
 <path d="M251 1139 c-18 -11 -31 -22 -28 -25 5 -6 87 33 87 41 0 11 -27 4 -59 -16z"/>
 <path d="M380 1143 c-94 -20 -164 -59 -227 -126 -69 -76 -101 -148 -115 -261 -35 -273 144 -624 358 -702 63 -23 79 -21 164 20 100 47 227 214 283 371 41 115 53 210 38 304 -19 125 -27 141 -67 141 -26 0 -39 -7 -61 -35 -15 -19 -31 -35 -35 -35 -4 0 -15 14 -23 30 -16 31 -36 43 -89 55 l-29 6 32 33 c26 27 31 40 31 79 0 51 3 53 40 32 39 -22 59 -18 30 6 -42 36 -114 67 -179 79 -34 6 -68 13 -74 14 -7 2 -41 -3 -77 -11z m10 -140 c0 -12 5 -25 10 -28 16 -10 11 -35 -7 -35 -9 0 -25 -8 -35 -17 -17 -15 -20 -15 -39 5 -11 12 -26 22 -34 22 -19 0 -19 14 0 30 8 7 15 20 15 30 0 14 9 17 45 16 39 -1 45 -4 45 -23z m164 -199 c6 -15 -17 -43 -35 -44 -14 0 -29 28 -23 44 8 21 50 21 58 0z m-366 -25 c4 -21 -26 -33 -44 -18 -7 6 -10 17 -7 25 7 20 47 14 51 -7z m77 -319 c14 0 35 5 46 10 16 9 21 7 28 -14 6 -13 15 -27 20 -31 20 -12 11 -25 -15 -25 -16 0 -37 -12 -56 -32 -26 -28 -31 -30 -39 -16 -17 30 -41 49 -70 55 -16 3 -29 7 -29 10 0 2 12 17 28 32 20 21 31 26 44 20 9 -5 29 -9 43 -9z m313 -22 c-6 -18 -28 -21 -28 -4 0 9 7 16 16 16 9 0 14 -5 12 -12z m102 -117 c0 -5 2 -15 5 -23 8 -21 -28 -38 -49 -23 -25 19 -12 55 20 55 13 0 24 -4 24 -9z m-220 -111 c0 -14 5 -31 12 -38 9 -9 8 -12 -5 -12 -9 0 -26 -9 -38 -21 l-21 -21 -22 21 c-12 12 -28 21 -35 21 -7 0 -11 3 -9 8 3 4 11 21 18 38 12 28 18 31 57 31 40 0 43 -2 43 -27z"/>
 <path d="M600 1155 c0 -8 71 -38 77 -31 3 3 -10 13 -30 21 -38 16 -47 18 -47 10z"/>
 <path d="M165 1080 c-16 -17 -25 -30 -21 -30 11 0 59 51 53 56 -2 2 -16 -10 -32 -26z"/>
 <path d="M720 1084 c8 -8 23 -20 34 -26 19 -10 18 -8 -3 16 -26 27 -53 37 -31 10z"/>
 <path d="M100 1020 c-12 -23 -5 -26 16 -6 16 17 18 26 4 26 -5 0 -14 -9 -20 -20z"/>
 <path d="M860 924 c0 -7 7 -25 15 -40 8 -16 15 -40 15 -53 0 -13 3 -22 6 -18 9 9 -6 83 -21 104 -8 10 -15 13 -15 7z"/>
 <path d="M34 909 c-12 -21 -22 -79 -13 -79 5 0 9 9 9 19 0 11 4 22 9 26 6 3 9 14 8 25 -1 23 -3 24 -13 9z"/>
 <path d="M903 585 c0 -22 2 -30 4 -17 2 12 2 30 0 40 -3 9 -5 -1 -4 -23z"/>
 <path d="M890 517 c0 -14 -4 -28 -9 -31 -5 -3 -7 -15 -4 -26 3 -11 1 -20 -5 -20 -5 0 -15 -20 -22 -45 -7 -25 -16 -45 -20 -45 -4 0 -10 -8 -13 -17 -2 -10 -8 -27 -12 -38 -6 -16 -4 -14 12 5 12 14 26 44 33 67 7 23 16 40 20 38 10 -6 35 124 26 132 -3 4 -6 -5 -6 -20z"/>
 <path d="M25 480 c3 -19 10 -39 15 -44 13 -13 6 35 -9 59 -11 18 -12 16 -6 -15z"/>
 <path d="M130 252 c6 -13 20 -33 30 -45 52 -62 61 -71 54 -57 -13 25 -47 73 -73 100 -22 24 -23 24 -11 2z"/>
 <path d="M780 264 c0 -6 -8 -19 -19 -30 -10 -11 -24 -31 -31 -45 -12 -24 -12 -24 6 -4 29 30 56 76 50 83 -3 3 -6 1 -6 -4z"/>
 <path d="M672 134 c-12 -8 -27 -24 -33 -35 -9 -18 -8 -19 8 -11 23 13 58 51 52 57 -3 2 -15 -2 -27 -11z"/>
 <path d="M310 59 c0 -5 21 -19 46 -29 47 -20 140 -26 178 -11 11 4 -17 7 -65 7 -70 -1 -90 3 -121 21 -21 13 -38 18 -38 12z"/>
 </g>
<g id="layer104" fill="#7b07df" stroke="none">
 <path d="M314 1116 c-182 -67 -272 -221 -277 -473 -1 -41 3 -77 9 -81 5 -4 15 -31 22 -61 27 -121 122 -282 214 -368 109 -99 202 -107 318 -26 98 69 207 239 247 384 9 35 20 66 24 69 12 9 22 93 10 86 -7 -5 -9 -1 -5 9 9 22 -15 174 -32 207 -21 40 -56 37 -91 -7 -15 -19 -31 -35 -35 -35 -4 0 -15 14 -23 30 -16 31 -36 43 -89 55 l-29 6 32 33 c26 27 31 40 31 79 0 51 3 53 40 32 43 -25 46 -16 4 14 -96 71 -253 91 -370 47z m76 -113 c0 -12 5 -25 10 -28 16 -10 11 -35 -7 -35 -9 0 -25 -8 -35 -17 -17 -15 -20 -15 -39 5 -11 12 -26 22 -34 22 -19 0 -19 14 0 30 8 7 15 20 15 30 0 14 9 17 45 16 39 -1 45 -4 45 -23z m164 -200 c4 -9 1 -20 -6 -24 -7 -5 -13 -14 -13 -20 0 -7 -6 -13 -13 -15 -7 -1 -8 0 -2 3 6 2 1 12 -11 21 -13 11 -18 23 -14 35 9 22 51 22 59 0z m-366 -24 c4 -21 -26 -33 -44 -18 -7 6 -10 17 -7 25 7 20 47 14 51 -7z m39 -301 c9 -14 73 -18 73 -5 0 4 5 5 10 2 6 -3 10 -1 10 4 0 21 16 11 17 -10 1 -12 9 -29 17 -38 22 -24 20 -31 -10 -31 -16 0 -37 -12 -56 -32 -26 -28 -31 -30 -39 -16 -17 30 -41 49 -70 55 -35 7 -36 10 -3 39 14 13 22 29 19 34 -3 6 1 10 9 10 8 0 19 -6 23 -12z m350 -41 c-6 -19 -24 -18 -29 1 -4 15 -1 18 14 14 10 -2 17 -9 15 -15z m103 -116 c0 -5 2 -15 5 -23 8 -21 -28 -38 -49 -23 -25 19 -12 55 20 55 13 0 24 -4 24 -9z m-220 -111 c0 -14 5 -31 12 -38 9 -9 8 -12 -5 -12 -9 0 -26 -9 -38 -21 l-21 -21 -22 21 c-12 12 -28 21 -35 21 -7 0 -11 3 -9 8 3 4 11 21 18 38 12 28 18 31 57 31 40 0 43 -2 43 -27z"/>
 <path d="M732 1080 c7 -11 19 -22 28 -25 8 -4 4 5 -9 19 -29 31 -36 33 -19 6z"/>
 </g>
<g id="layer105" fill="#cf2560" stroke="none">
 <path d="M314 1116 c-33 -12 -74 -32 -90 -43 -50 -36 -115 -112 -135 -159 -25 -55 -49 -164 -49 -221 l0 -43 101 0 100 0 -6 44 c-6 35 -4 44 10 49 9 4 15 12 14 19 -6 51 22 50 129 -4 69 -35 86 -40 100 -30 32 23 141 72 162 72 11 0 21 -6 22 -12 0 -7 2 -18 2 -25 1 -7 10 -19 21 -27 17 -13 19 -18 9 -45 -7 -16 -9 -32 -6 -35 3 -3 45 -6 94 -6 101 0 96 -8 77 113 -20 132 -60 163 -116 92 -15 -19 -31 -35 -35 -35 -4 0 -15 14 -23 30 -16 31 -36 43 -89 55 l-29 6 32 33 c26 27 31 40 31 79 0 51 3 53 40 32 43 -25 46 -16 4 14 -96 71 -253 91 -370 47z m76 -113 c0 -12 5 -25 10 -28 16 -10 11 -35 -7 -35 -9 0 -25 -8 -35 -17 -17 -15 -20 -15 -39 5 -11 12 -26 22 -34 22 -19 0 -19 14 0 30 8 7 15 20 15 30 0 14 9 17 45 16 39 -1 45 -4 45 -23z m164 -199 c6 -15 -17 -43 -35 -44 -14 0 -29 28 -23 44 8 21 50 21 58 0z m-366 -25 c4 -21 -26 -33 -44 -18 -7 6 -10 17 -7 25 7 20 47 14 51 -7z"/>
 <path d="M732 1080 c7 -11 19 -22 28 -25 8 -4 4 5 -9 19 -29 31 -36 33 -19 6z"/>
 <path d="M364 684 c4 -10 10 -35 13 -55 5 -35 3 -38 -33 -55 l-39 -19 56 -3 c53 -3 57 -5 77 -41 12 -21 22 -47 22 -57 0 -11 13 7 27 39 l27 57 61 1 c33 0 53 3 45 6 -36 14 -70 46 -70 66 0 12 7 34 14 50 8 15 14 27 12 27 -2 0 -24 -11 -50 -25 -59 -31 -63 -31 -122 2 -42 24 -47 25 -40 7z"/>
 <path d="M60 540 c0 -30 37 -134 72 -203 39 -78 93 -151 150 -204 67 -60 103 -77 173 -78 52 0 69 5 119 35 118 71 253 278 281 433 l7 37 -46 0 c-43 0 -59 -11 -36 -25 24 -15 6 -34 -45 -51 -49 -15 -63 -15 -109 -4 -61 14 -71 11 -81 -27 -3 -15 -12 -34 -18 -42 -7 -8 -16 -28 -22 -45 -8 -24 -16 -31 -35 -31 -21 0 -30 11 -57 65 -18 36 -33 71 -33 78 0 8 -9 12 -22 10 -26 -3 -26 -31 -2 -59 20 -22 17 -29 -12 -29 -16 0 -37 -12 -56 -32 -26 -28 -31 -30 -39 -16 -17 30 -41 49 -70 55 -36 7 -36 9 -2 40 l26 25 -32 25 c-31 24 -31 26 -15 44 17 18 15 19 -39 19 -51 0 -57 -2 -57 -20z m518 -102 c-6 -18 -28 -21 -28 -4 0 9 7 16 16 16 9 0 14 -5 12 -12z m102 -117 c0 -5 2 -15 5 -23 8 -21 -28 -38 -49 -23 -25 19 -12 55 20 55 13 0 24 -4 24 -9z m-220 -111 c0 -14 5 -31 12 -38 9 -9 8 -12 -5 -12 -9 0 -26 -9 -38 -21 l-21 -21 -22 21 c-12 12 -28 21 -35 21 -7 0 -11 3 -9 8 3 4 11 21 18 38 12 28 18 31 57 31 40 0 43 -2 43 -27z"/>
 </g>
<g id="layer106" fill="#fa1bb6" stroke="none">
 <path d="M314 1116 c-33 -12 -74 -32 -90 -43 -50 -36 -115 -112 -135 -159 -25 -55 -49 -164 -49 -221 l0 -43 101 0 100 0 -6 44 c-6 35 -4 44 10 49 9 4 15 12 14 19 -6 51 23 50 125 -2 87 -45 98 -47 117 -24 11 14 10 18 -10 34 -16 11 -20 20 -12 24 6 4 11 15 11 25 0 15 7 18 32 16 25 -2 34 -8 41 -30 7 -21 13 -25 31 -20 11 4 33 9 49 12 26 5 28 4 31 -34 1 -7 10 -19 21 -27 17 -13 19 -18 9 -45 -7 -16 -9 -32 -6 -35 3 -3 45 -6 94 -6 82 0 88 1 88 21 0 44 -23 165 -36 191 -13 25 -16 26 -45 16 -17 -6 -39 -24 -48 -39 -21 -38 -38 -43 -52 -16 -21 40 -52 67 -86 73 -47 9 -50 22 -14 56 27 25 31 36 31 79 0 51 6 57 43 38 19 -9 18 -7 -3 10 -75 60 -246 78 -356 37z m57 -81 c27 6 29 5 29 -24 0 -16 5 -33 10 -36 19 -12 10 -33 -20 -44 -16 -5 -30 -15 -30 -20 0 -17 -37 -13 -44 4 -3 8 -17 20 -31 25 -29 11 -31 22 -10 40 8 7 15 22 15 35 0 29 9 36 32 24 11 -6 32 -7 49 -4z m-173 -257 c3 -22 -2 -29 -23 -34 -34 -8 -57 12 -48 44 5 19 11 23 37 20 25 -2 32 -8 34 -30z"/>
 <path d="M364 684 c4 -10 10 -35 13 -55 5 -35 3 -38 -33 -55 l-39 -19 56 -3 c53 -3 57 -5 77 -41 12 -21 22 -47 22 -57 0 -11 13 7 27 39 l27 57 61 1 c33 0 53 3 45 6 -36 14 -70 46 -70 66 0 12 7 34 14 50 8 15 14 27 12 27 -2 0 -24 -11 -50 -25 -59 -31 -63 -31 -122 2 -42 24 -47 25 -40 7z"/>
 <path d="M60 540 c0 -30 37 -134 72 -203 39 -78 93 -151 150 -204 67 -60 103 -77 173 -78 52 0 69 5 119 35 118 71 253 278 281 433 l7 37 -46 0 c-43 0 -59 -11 -36 -25 24 -15 6 -34 -45 -51 -49 -15 -63 -15 -109 -4 -51 12 -76 9 -76 -9 0 -5 9 -11 21 -14 32 -9 20 -42 -15 -42 -29 0 -34 -6 -55 -58 -19 -48 -51 -33 -88 43 -18 36 -33 71 -33 78 0 15 -40 16 -40 0 0 -6 10 -22 21 -34 27 -28 19 -54 -17 -54 -16 0 -35 -11 -52 -30 -33 -38 -43 -37 -64 0 -11 20 -28 33 -48 36 -43 9 -46 21 -14 55 l27 29 -27 21 c-26 20 -26 22 -10 40 17 18 15 19 -39 19 -51 0 -57 -2 -57 -20z m630 -207 c0 -5 3 -17 6 -29 4 -15 -2 -25 -21 -38 -26 -17 -28 -17 -46 3 -14 14 -18 28 -13 46 5 21 12 25 40 25 19 0 34 -3 34 -7z m-249 -86 c30 6 32 5 26 -19 -5 -17 -2 -30 8 -38 22 -18 18 -38 -7 -45 -13 -4 -33 -16 -45 -27 l-21 -20 -17 26 c-10 14 -26 26 -36 26 -25 0 -32 15 -14 30 8 7 15 25 15 40 0 35 7 41 36 30 13 -5 38 -7 55 -3z"/>
 </g>
<g id="layer107" fill="#a143ff" stroke="none">
 <path d="M364 684 c4 -10 10 -35 13 -55 5 -35 3 -38 -33 -55 l-39 -19 56 -3 c53 -3 57 -5 77 -41 12 -21 22 -47 22 -57 0 -11 13 7 27 39 l27 57 61 1 c33 0 53 3 45 6 -36 14 -70 46 -70 66 0 12 7 34 14 50 8 15 14 27 12 27 -2 0 -24 -11 -50 -25 -59 -31 -63 -31 -122 2 -42 24 -47 25 -40 7z"/>
 <path d="M557 252 c-34 -21 -63 -80 -50 -101 30 -47 84 -34 115 28 29 57 -13 104 -65 73z"/>
 </g>
<g id="layer108" fill="#fff6fc" stroke="none">
 <path d="M557 252 c-34 -21 -63 -80 -50 -101 30 -47 84 -34 115 28 29 57 -13 104 -65 73z"/>
 </g>

</svg>