<!DOCTYPE svg PUBLIC "-//W3C//DTD SVG 20010904//EN" "http://www.w3.org/TR/2001/REC-SVG-20010904/DTD/svg10.dtd">
<svg version="1.0" xmlns="http://www.w3.org/2000/svg" width="95px" height="125px" viewBox="0 0 950 1250" preserveAspectRatio="xMidYMid meet">
<g id="layer101" fill="#b6030c" stroke="none">
 <path d="M338 1231 c-100 -32 -213 -116 -252 -186 -9 -16 -20 -37 -25 -45 -32 -57 -42 -86 -51 -146 -19 -136 -2 -339 35 -411 8 -15 15 -35 15 -43 0 -9 4 -20 9 -25 5 -6 26 -43 46 -83 50 -99 179 -235 253 -268 71 -31 135 -31 207 1 57 25 174 120 175 142 0 7 9 17 20 23 11 6 20 17 20 25 0 8 3 15 8 15 4 0 12 10 18 23 6 12 23 43 37 70 15 26 24 47 21 47 -3 0 2 10 10 22 9 12 16 30 16 39 0 10 4 19 9 21 13 4 41 180 41 252 0 117 -25 229 -64 290 -20 31 -36 60 -36 64 0 13 -124 118 -165 140 -100 53 -241 67 -347 33z m288 -1024 c-8 -40 -24 -57 -52 -57 -34 0 -32 44 3 74 36 31 57 23 49 -17z"/>
 </g>
<g id="layer102" fill="#78285d" stroke="none">
 <path d="M338 1231 c-100 -32 -213 -116 -252 -186 -9 -16 -20 -37 -25 -45 -32 -57 -42 -86 -51 -146 -19 -136 -2 -339 35 -411 8 -15 15 -35 15 -43 0 -9 4 -20 9 -25 5 -6 26 -43 46 -83 50 -99 179 -235 253 -268 71 -31 135 -31 207 1 57 25 174 120 175 142 0 7 9 17 20 23 11 6 20 17 20 25 0 8 3 15 8 15 4 0 12 10 18 23 6 12 23 43 37 70 15 26 24 47 21 47 -3 0 2 10 10 22 9 12 16 30 16 39 0 10 4 19 9 21 13 4 41 180 41 252 0 34 -6 100 -14 148 -12 70 -21 97 -53 144 -21 31 -42 64 -48 73 -18 29 -109 107 -150 129 -96 52 -244 66 -347 33z m412 -136 c11 7 75 -66 100 -115 l20 -40 -23 0 c-29 0 -73 -33 -82 -60 -9 -29 -31 -24 -45 10 -15 36 -46 60 -77 60 -35 0 -38 19 -7 51 22 23 29 40 30 77 1 26 2 49 3 50 0 2 17 -6 37 -17 19 -12 39 -19 44 -16z m-348 -30 c-2 -9 4 -25 13 -35 20 -22 12 -40 -15 -40 -11 0 -25 -10 -31 -22 l-11 -21 -17 20 c-9 11 -26 26 -39 33 -22 11 -22 13 -8 29 9 10 16 26 16 37 0 17 6 20 48 18 38 -2 46 -5 44 -19z m172 -218 c4 -18 -16 -46 -35 -47 -14 0 -28 27 -23 47 8 28 50 28 58 0z m-379 -32 c0 -11 -7 -21 -15 -22 -24 -4 -41 12 -34 31 9 24 49 17 49 -9z m551 -41 c23 -15 26 -15 43 0 24 22 48 20 61 -4 7 -14 8 -26 0 -39 -13 -26 -13 -31 4 -31 8 0 22 -10 30 -22 20 -27 6 -46 -37 -50 -22 -2 -35 -11 -47 -33 -20 -37 -45 -43 -60 -16 -6 12 -8 21 -4 21 3 0 1 7 -6 15 -7 8 -28 15 -47 15 -49 0 -55 26 -14 61 20 16 28 29 22 33 -15 10 -14 53 2 59 20 9 27 8 53 -9z m-420 -129 c37 -19 58 -19 74 0 7 9 23 15 34 13 19 -3 21 -9 18 -55 -2 -46 0 -54 23 -69 46 -30 28 -64 -33 -64 -26 0 -52 -33 -52 -66 0 -17 -31 -27 -44 -14 -6 6 -16 25 -22 43 -9 27 -16 32 -47 35 -53 5 -65 25 -32 56 22 21 26 33 25 68 -4 76 1 82 56 53z m383 -324 c9 -15 6 -22 -13 -34 -22 -15 -25 -15 -38 1 -8 9 -13 25 -11 35 6 23 49 22 62 -2z m-239 -96 c0 -11 7 -31 16 -43 13 -18 13 -22 1 -22 -8 0 -26 -9 -40 -20 l-26 -21 -21 21 c-11 11 -27 20 -35 20 -8 0 -15 4 -15 9 0 5 7 14 15 21 8 7 15 22 15 34 0 19 6 21 45 21 38 0 45 -3 45 -20z m156 -18 c-8 -40 -24 -57 -52 -57 -34 0 -32 44 3 74 36 31 57 23 49 -17z"/>
 </g>
<g id="layer103" fill="#751ab7" stroke="none">
 <path d="M276 1205 c-11 -8 -15 -15 -10 -15 6 0 19 7 30 15 10 8 15 14 9 14 -5 0 -19 -6 -29 -14z"/>
 <path d="M377 1200 c-148 -38 -255 -139 -308 -291 -29 -86 -33 -284 -6 -373 92 -305 271 -511 429 -493 201 24 422 377 419 668 -1 105 -25 205 -53 222 -23 15 -65 -6 -86 -43 -22 -38 -36 -38 -52 0 -15 36 -46 60 -77 60 -35 0 -38 19 -7 51 22 23 29 40 30 77 1 26 2 49 3 50 0 2 17 -5 37 -17 48 -29 53 -26 19 8 -61 64 -245 107 -348 81z m25 -135 c-2 -9 4 -25 13 -35 20 -22 12 -40 -15 -40 -11 0 -25 -10 -31 -22 l-11 -21 -17 20 c-9 11 -26 26 -39 33 -22 11 -22 13 -8 29 9 10 16 26 16 37 0 17 6 20 48 18 38 -2 46 -5 44 -19z m172 -218 c4 -18 -16 -46 -35 -47 -14 0 -28 27 -23 47 8 28 50 28 58 0z m-379 -32 c0 -11 -7 -21 -15 -22 -24 -4 -41 12 -34 31 9 24 49 17 49 -9z m551 -41 c23 -15 26 -15 43 0 24 22 48 20 61 -4 7 -14 8 -26 0 -39 -13 -26 -13 -31 4 -31 8 0 22 -10 30 -22 20 -27 6 -46 -37 -50 -22 -2 -35 -11 -47 -33 -20 -37 -45 -43 -60 -16 -6 12 -8 21 -4 21 3 0 1 7 -6 15 -7 8 -28 15 -47 15 -49 0 -55 26 -14 61 20 16 28 29 22 33 -15 10 -14 53 2 59 20 9 27 8 53 -9z m-420 -129 c37 -19 58 -19 74 0 7 9 23 15 34 13 19 -3 21 -9 18 -55 -2 -46 0 -54 23 -69 46 -30 28 -64 -33 -64 -26 0 -52 -33 -52 -66 0 -17 -31 -27 -44 -14 -6 6 -16 25 -22 43 -9 27 -16 32 -47 35 -53 5 -65 25 -32 56 22 21 26 33 25 68 -4 76 1 82 56 53z m383 -324 c9 -15 6 -22 -13 -34 -22 -15 -25 -15 -38 1 -8 9 -13 25 -11 35 6 23 49 22 62 -2z m-239 -96 c0 -11 7 -31 16 -43 13 -18 13 -22 1 -22 -8 0 -26 -9 -40 -20 l-26 -21 -21 21 c-11 11 -27 20 -35 20 -8 0 -15 4 -15 9 0 5 7 14 15 21 8 7 15 22 15 34 0 19 6 21 45 21 38 0 45 -3 45 -20z m156 -18 c-8 -40 -24 -57 -52 -57 -34 0 -32 44 3 74 36 31 57 23 49 -17z"/>
 <path d="M12 610 c0 -19 2 -27 5 -17 2 9 2 25 0 35 -3 9 -5 1 -5 -18z"/>
 <path d="M50 444 c0 -10 5 -26 10 -34 8 -11 9 -7 4 15 -8 37 -14 45 -14 19z"/>
 <path d="M202 165 c28 -32 33 -32 12 0 -9 14 -20 25 -25 25 -5 0 1 -11 13 -25z"/>
 <path d="M730 151 c-9 -9 -27 -23 -40 -32 -14 -9 -23 -19 -20 -22 3 -3 23 10 45 28 22 19 37 36 35 38 -3 2 -12 -3 -20 -12z"/>
 <path d="M405 10 c19 -8 123 -14 114 -6 -2 2 -33 6 -69 9 -38 3 -57 1 -45 -3z"/>
 </g>
<g id="layer104" fill="#db1e63" stroke="none">
 <path d="M276 1205 c-11 -8 -15 -15 -10 -15 6 0 19 7 30 15 10 8 15 14 9 14 -5 0 -19 -6 -29 -14z"/>
 <path d="M377 1200 c-204 -52 -328 -221 -331 -451 -1 -67 3 -104 14 -123 10 -19 11 -29 3 -34 -23 -15 42 -199 111 -316 23 -38 66 -95 97 -127 135 -141 265 -142 404 -3 90 90 176 244 210 373 19 73 19 75 0 67 -23 -9 -18 20 7 36 20 13 22 22 19 102 -2 96 -27 193 -53 209 -23 15 -65 -6 -86 -43 -22 -38 -36 -38 -52 0 -15 36 -46 60 -77 60 -35 0 -38 19 -7 51 22 23 29 40 30 77 1 26 2 49 3 50 0 2 17 -5 37 -17 48 -29 53 -26 19 8 -61 64 -245 107 -348 81z m25 -135 c-2 -9 4 -25 13 -35 20 -22 12 -40 -15 -40 -11 0 -25 -10 -31 -22 l-11 -21 -17 20 c-9 11 -26 26 -39 33 -22 11 -22 13 -8 29 9 10 16 26 16 37 0 17 6 20 48 18 38 -2 46 -5 44 -19z m172 -218 c4 -18 -16 -46 -35 -47 -14 0 -28 27 -23 47 8 28 50 28 58 0z m-379 -32 c0 -11 -7 -21 -15 -22 -24 -4 -41 12 -34 31 9 24 49 17 49 -9z m551 -41 c23 -15 26 -15 43 0 24 22 48 20 61 -4 7 -14 8 -26 0 -39 -13 -26 -13 -31 4 -31 8 0 22 -10 30 -22 20 -27 6 -46 -37 -50 -22 -2 -35 -11 -47 -33 -20 -37 -45 -43 -60 -16 -6 12 -8 21 -4 21 3 0 1 7 -6 15 -7 8 -28 15 -47 15 -49 0 -55 26 -14 61 20 16 28 29 22 33 -15 10 -14 53 2 59 20 9 27 8 53 -9z m-420 -129 c37 -19 58 -19 74 0 7 9 23 15 34 13 19 -3 21 -9 18 -55 -2 -46 0 -54 23 -69 46 -30 28 -64 -33 -64 -26 0 -52 -33 -52 -66 0 -17 -31 -27 -44 -14 -6 6 -16 25 -22 43 -9 27 -16 32 -47 35 -53 5 -65 25 -32 56 22 21 26 33 25 68 -4 76 1 82 56 53z m383 -324 c9 -15 6 -22 -13 -34 -22 -15 -25 -15 -38 1 -8 9 -13 25 -11 35 6 23 49 22 62 -2z m-239 -96 c0 -11 7 -31 16 -43 13 -18 13 -22 1 -22 -8 0 -26 -9 -40 -20 l-26 -21 -21 21 c-11 11 -27 20 -35 20 -8 0 -15 4 -15 9 0 5 7 14 15 21 8 7 15 22 15 34 0 19 6 21 45 21 38 0 45 -3 45 -20z m156 -18 c-8 -40 -24 -57 -52 -57 -34 0 -32 44 3 74 36 31 57 23 49 -17z"/>
 <path d="M50 444 c0 -10 5 -26 10 -34 8 -11 9 -7 4 15 -8 37 -14 45 -14 19z"/>
 <path d="M202 165 c28 -32 33 -32 12 0 -9 14 -20 25 -25 25 -5 0 1 -11 13 -25z"/>
 <path d="M730 151 c-9 -9 -27 -23 -40 -32 -14 -9 -23 -19 -20 -22 3 -3 23 10 45 28 22 19 37 36 35 38 -3 2 -12 -3 -20 -12z"/>
 <path d="M405 10 c19 -8 123 -14 114 -6 -2 2 -33 6 -69 9 -38 3 -57 1 -45 -3z"/>
 </g>
<g id="layer105" fill="#b12490" stroke="none">
 <path d="M276 1205 c-11 -8 -15 -15 -10 -15 6 0 19 7 30 15 10 8 15 14 9 14 -5 0 -19 -6 -29 -14z"/>
 <path d="M377 1200 c-204 -52 -328 -221 -331 -451 -1 -67 3 -104 14 -123 10 -19 11 -29 3 -34 -23 -15 42 -199 111 -316 23 -38 66 -95 97 -127 135 -141 265 -142 404 -3 90 90 176 244 210 373 19 73 19 75 0 67 -23 -9 -18 19 8 38 12 9 15 14 7 10 -8 -5 -30 -10 -49 -14 -26 -4 -37 -11 -41 -29 -12 -53 -68 -53 -80 0 -5 19 -14 25 -44 29 -23 3 -44 13 -50 23 -9 15 -6 23 20 46 26 23 29 32 22 56 -13 51 34 75 74 38 16 -14 22 -15 36 -5 45 32 72 20 72 -32 0 -22 9 -41 28 -59 l28 -27 -3 68 c-4 83 -31 192 -49 199 -28 10 -65 -8 -86 -42 -24 -43 -43 -44 -63 -6 -21 42 -43 61 -69 61 -12 0 -31 7 -42 15 -19 15 -18 15 7 39 38 33 49 58 42 98 -7 45 7 54 49 32 l33 -17 -18 21 c-49 55 -244 96 -340 72z m39 -132 c-3 -16 0 -31 9 -38 19 -16 19 -40 1 -40 -8 0 -29 -12 -46 -27 -26 -21 -33 -24 -41 -12 -5 8 -9 17 -9 21 0 3 -13 11 -30 17 -33 11 -37 22 -15 41 8 7 15 25 15 40 0 26 1 27 61 26 60 -1 61 -1 55 -28z m164 -200 c0 -7 3 -22 6 -33 4 -15 -2 -25 -19 -34 -21 -11 -28 -11 -50 3 -22 15 -24 20 -14 46 9 25 17 30 44 30 20 0 33 -5 33 -12z m-378 -32 c14 -20 8 -41 -13 -55 -19 -11 -24 -10 -42 8 -17 17 -19 24 -9 45 8 19 16 23 34 19 13 -4 26 -11 30 -17z m134 -183 c24 -16 28 -15 61 2 26 14 39 16 51 8 20 -12 27 -37 16 -61 -15 -34 -12 -44 17 -60 22 -13 29 -23 27 -42 -3 -20 -11 -26 -51 -35 -27 -5 -47 -12 -44 -15 3 -3 -2 -21 -12 -40 -27 -59 -73 -50 -85 15 -6 32 -10 35 -44 35 -46 0 -70 28 -50 59 7 11 20 22 30 24 21 6 24 47 6 76 -9 15 -9 23 1 35 17 21 45 20 77 -1z m-158 -221 c2 -7 -3 -12 -12 -12 -9 0 -16 7 -16 16 0 17 22 14 28 -4z m544 -103 c0 -10 1 -24 2 -30 1 -5 -11 -17 -25 -26 -24 -14 -27 -14 -47 3 -25 21 -25 24 -13 56 8 21 14 24 45 20 26 -3 36 -9 38 -23z m-240 -99 c-1 -13 5 -33 13 -46 20 -30 20 -31 -12 -39 -16 -3 -36 -16 -46 -28 l-17 -22 -21 28 c-11 15 -29 27 -40 27 -23 0 -24 17 -4 44 8 11 15 29 15 41 0 20 5 21 58 19 53 -1 57 -3 54 -24z m144 -23 c-8 -40 -24 -57 -52 -57 -34 0 -32 44 3 74 36 31 57 23 49 -17z"/>
 <path d="M50 444 c0 -10 5 -26 10 -34 8 -11 9 -7 4 15 -8 37 -14 45 -14 19z"/>
 <path d="M202 165 c28 -32 33 -32 12 0 -9 14 -20 25 -25 25 -5 0 1 -11 13 -25z"/>
 <path d="M730 151 c-9 -9 -27 -23 -40 -32 -14 -9 -23 -19 -20 -22 3 -3 23 10 45 28 22 19 37 36 35 38 -3 2 -12 -3 -20 -12z"/>
 <path d="M405 10 c19 -8 123 -14 114 -6 -2 2 -33 6 -69 9 -38 3 -57 1 -45 -3z"/>
 </g>
<g id="layer106" fill="#fc1db6" stroke="none">
 <path d="M314 1174 c-86 -35 -165 -108 -208 -194 -46 -93 -60 -165 -51 -265 3 -44 8 -102 10 -130 7 -111 100 -313 192 -414 143 -159 273 -163 422 -13 76 77 140 185 182 305 31 89 36 128 17 125 -8 -2 -12 5 -10 15 5 30 -51 19 -58 -12 -12 -53 -68 -53 -80 0 -5 19 -14 25 -44 29 -23 3 -44 13 -50 23 -9 15 -6 23 20 46 26 23 29 32 22 56 -13 51 34 75 74 38 16 -14 22 -15 36 -5 45 32 72 20 72 -32 0 -22 8 -40 25 -56 l25 -23 0 39 c0 46 -16 143 -31 192 -16 50 -74 40 -104 -18 -20 -38 -40 -38 -60 -1 -21 42 -43 61 -69 61 -12 0 -31 7 -42 15 -19 15 -18 15 7 39 38 33 49 58 42 98 -6 41 7 54 39 38 21 -10 21 -10 -2 9 -77 63 -262 80 -376 35z m102 -106 c-3 -16 0 -31 9 -38 19 -16 19 -40 1 -40 -8 0 -29 -12 -46 -27 -26 -21 -33 -24 -41 -12 -5 8 -9 17 -9 21 0 3 -13 11 -30 17 -33 11 -37 22 -15 41 8 7 15 25 15 40 0 26 1 27 61 26 60 -1 61 -1 55 -28z m164 -200 c0 -7 3 -22 6 -33 4 -15 -2 -25 -19 -34 -21 -11 -28 -11 -50 3 -22 15 -24 20 -14 46 9 25 17 30 44 30 20 0 33 -5 33 -12z m-378 -32 c14 -20 8 -41 -13 -55 -19 -11 -24 -10 -42 8 -17 17 -19 24 -9 45 8 19 16 23 34 19 13 -4 26 -11 30 -17z m134 -183 c24 -16 28 -15 61 2 26 14 39 16 51 8 20 -12 27 -37 16 -61 -15 -34 -12 -44 17 -60 22 -13 29 -23 27 -42 -3 -20 -11 -26 -51 -35 -27 -5 -47 -12 -44 -15 3 -3 -2 -21 -12 -40 -27 -59 -73 -50 -85 15 -6 32 -10 35 -44 35 -46 0 -70 28 -50 59 7 11 20 22 30 24 21 6 24 47 6 76 -9 15 -9 23 1 35 17 21 45 20 77 -1z m-158 -221 c2 -7 -3 -12 -12 -12 -9 0 -16 7 -16 16 0 17 22 14 28 -4z m544 -103 c0 -10 1 -24 2 -30 1 -5 -11 -17 -25 -26 -24 -14 -27 -14 -47 3 -25 21 -25 24 -13 56 8 21 14 24 45 20 26 -3 36 -9 38 -23z m-240 -99 c-1 -13 5 -33 13 -46 20 -30 20 -31 -12 -39 -16 -3 -36 -16 -46 -28 l-17 -22 -21 28 c-11 15 -29 27 -40 27 -23 0 -24 17 -4 44 8 11 15 29 15 41 0 20 5 21 58 19 53 -1 57 -3 54 -24z m144 -23 c-8 -40 -24 -57 -52 -57 -34 0 -32 44 3 74 36 31 57 23 49 -17z"/>
 </g>

</svg>